G75*
%MOIN*%
%OFA0B0*%
%FSLAX25Y25*%
%IPPOS*%
%LPD*%
%AMOC8*
5,1,8,0,0,1.08239X$1,22.5*
%
%ADD10R,0.07200X0.07200*%
%ADD11C,0.07200*%
%ADD12R,0.03356X0.17135*%
%ADD13R,0.03356X0.13198*%
%ADD14R,0.04362X0.04362*%
D10*
X0273850Y0130500D03*
X0280450Y0185200D03*
D11*
X0270450Y0185200D03*
X0270450Y0195200D03*
X0280450Y0195200D03*
X0280450Y0205200D03*
X0270450Y0205200D03*
X0273850Y0160500D03*
X0273850Y0150500D03*
X0273850Y0140500D03*
D12*
X0291683Y0019409D03*
X0295620Y0019409D03*
X0299557Y0019409D03*
X0303494Y0019409D03*
X0307431Y0019409D03*
X0311368Y0019409D03*
X0315305Y0019409D03*
X0319242Y0019409D03*
X0338927Y0019409D03*
X0342864Y0019409D03*
X0346801Y0019409D03*
X0350738Y0019409D03*
X0354675Y0019409D03*
D13*
X0287746Y0021378D03*
D14*
X0291650Y0054000D03*
X0311650Y0060900D03*
X0319750Y0061000D03*
X0307950Y0073900D03*
X0319650Y0102600D03*
X0311850Y0107200D03*
X0322950Y0114200D03*
X0338850Y0122400D03*
X0348850Y0126900D03*
X0354250Y0115600D03*
X0327250Y0123500D03*
X0326350Y0139200D03*
X0302350Y0127600D03*
X0328450Y0151400D03*
X0297350Y0167700D03*
X0288150Y0174300D03*
X0293750Y0190700D03*
X0303650Y0196600D03*
X0335550Y0216200D03*
X0343550Y0186400D03*
X0347450Y0177100D03*
X0355050Y0176900D03*
X0361550Y0177300D03*
X0375550Y0154800D03*
X0367550Y0049200D03*
M02*
