G75*
%MOIN*%
%OFA0B0*%
%FSLAX25Y25*%
%IPPOS*%
%LPD*%
%AMOC8*
5,1,8,0,0,1.08239X$1,22.5*
%
%ADD10R,0.04724X0.04724*%
%ADD11R,0.06600X0.06600*%
%ADD12C,0.06600*%
%ADD13R,0.05000X0.02000*%
%ADD14R,0.02000X0.05000*%
%ADD15R,0.05276X0.07087*%
%ADD16R,0.06102X0.05118*%
%ADD17R,0.02756X0.16535*%
%ADD18R,0.02756X0.12598*%
%ADD19R,0.05709X0.05512*%
%ADD20R,0.05118X0.03543*%
%ADD21R,0.03543X0.05118*%
%ADD22C,0.01600*%
%ADD23R,0.03762X0.03762*%
D10*
X0313450Y0192266D03*
X0320650Y0192366D03*
X0327950Y0192166D03*
X0335150Y0191766D03*
X0335150Y0200034D03*
X0327950Y0200434D03*
X0320650Y0200634D03*
X0313450Y0200534D03*
D11*
X0280450Y0185200D03*
X0273850Y0130500D03*
D12*
X0273850Y0140500D03*
X0273850Y0150500D03*
X0273850Y0160500D03*
X0270450Y0185200D03*
X0270450Y0195200D03*
X0280450Y0195200D03*
X0280450Y0205200D03*
X0270450Y0205200D03*
D13*
X0304350Y0161024D03*
X0304350Y0157874D03*
X0304350Y0154724D03*
X0304350Y0151575D03*
X0304350Y0148425D03*
X0304350Y0145276D03*
X0304350Y0142126D03*
X0304350Y0138976D03*
X0338150Y0138976D03*
X0338150Y0142126D03*
X0338150Y0145276D03*
X0338150Y0148425D03*
X0338150Y0151575D03*
X0338150Y0154724D03*
X0338150Y0157874D03*
X0338150Y0161024D03*
D14*
X0332274Y0166900D03*
X0329124Y0166900D03*
X0325974Y0166900D03*
X0322825Y0166900D03*
X0319675Y0166900D03*
X0316526Y0166900D03*
X0313376Y0166900D03*
X0310226Y0166900D03*
X0310226Y0133100D03*
X0313376Y0133100D03*
X0316526Y0133100D03*
X0319675Y0133100D03*
X0322825Y0133100D03*
X0325974Y0133100D03*
X0329124Y0133100D03*
X0332274Y0133100D03*
D15*
X0321880Y0085000D03*
X0310620Y0085000D03*
D16*
X0302500Y0225942D03*
X0302500Y0243658D03*
X0271200Y0243658D03*
X0271200Y0225942D03*
D17*
X0287746Y0019409D03*
X0291683Y0019409D03*
X0295620Y0019409D03*
X0299557Y0019409D03*
X0303494Y0019409D03*
X0307431Y0019409D03*
X0311368Y0019409D03*
X0315305Y0019409D03*
X0319242Y0019409D03*
X0338927Y0019409D03*
X0342864Y0019409D03*
X0346801Y0019409D03*
X0350738Y0019409D03*
D18*
X0354675Y0021378D03*
D19*
X0365116Y0230000D03*
X0373384Y0230000D03*
X0373384Y0240000D03*
X0365116Y0240000D03*
X0365116Y0250000D03*
X0373384Y0250000D03*
X0373384Y0260000D03*
X0365116Y0260000D03*
D20*
X0341250Y0244134D03*
X0341250Y0235866D03*
X0350850Y0229134D03*
X0350850Y0220866D03*
X0353350Y0213434D03*
X0361150Y0213334D03*
X0361150Y0205066D03*
X0353350Y0205166D03*
X0334750Y0185734D03*
X0327650Y0185934D03*
X0320750Y0186234D03*
X0313250Y0186034D03*
X0313250Y0177766D03*
X0320750Y0177966D03*
X0327650Y0177666D03*
X0334750Y0177466D03*
X0297550Y0157334D03*
X0297550Y0149066D03*
X0288750Y0150834D03*
X0288450Y0156966D03*
X0288450Y0165234D03*
X0288750Y0142566D03*
X0354550Y0145134D03*
X0354550Y0136866D03*
X0368150Y0140166D03*
X0368150Y0148434D03*
X0292050Y0205966D03*
X0292050Y0214234D03*
D21*
X0278184Y0174300D03*
X0269916Y0174300D03*
D22*
X0264850Y0118400D02*
X0302350Y0118400D01*
X0302350Y0127600D01*
X0295874Y0130500D02*
X0273850Y0130500D01*
X0273850Y0140500D02*
X0288750Y0140500D01*
X0288750Y0142566D01*
X0304350Y0142126D01*
X0304350Y0138976D02*
X0295874Y0130500D01*
X0316526Y0133100D02*
X0316526Y0111876D01*
X0311850Y0107200D01*
X0319650Y0102600D02*
X0319675Y0133100D01*
X0322825Y0133100D02*
X0323425Y0119300D01*
X0328450Y0119300D01*
X0327850Y0085000D01*
X0321880Y0085000D01*
X0310620Y0085000D02*
X0303494Y0085000D01*
X0303494Y0019409D01*
X0299557Y0019409D01*
X0291683Y0019409D02*
X0291650Y0054000D01*
X0311650Y0060900D02*
X0311368Y0019409D01*
X0307431Y0019409D01*
X0315305Y0019409D02*
X0315305Y0056555D01*
X0319750Y0061000D01*
X0307950Y0073900D02*
X0354450Y0073900D01*
X0354675Y0021378D01*
X0319242Y0019409D02*
X0315305Y0019409D01*
X0291683Y0019409D02*
X0287746Y0019409D01*
X0367550Y0049200D02*
X0368150Y0140166D01*
X0368150Y0139500D01*
X0361550Y0139500D01*
X0361550Y0151575D01*
X0340250Y0151575D01*
X0340250Y0151400D01*
X0328450Y0151400D01*
X0324750Y0155100D02*
X0324550Y0147425D01*
X0338150Y0148425D01*
X0354550Y0148425D01*
X0354550Y0145134D01*
X0346750Y0145276D02*
X0346750Y0136000D01*
X0354550Y0136000D01*
X0354550Y0136866D01*
X0354250Y0136566D01*
X0354250Y0115600D01*
X0348850Y0126900D02*
X0338474Y0126900D01*
X0332274Y0133100D01*
X0329124Y0133100D02*
X0329124Y0132126D01*
X0325974Y0133100D02*
X0327250Y0123500D01*
X0322950Y0114200D02*
X0322825Y0133100D01*
X0326350Y0139200D02*
X0326350Y0145276D01*
X0338150Y0145276D01*
X0338150Y0145200D01*
X0321750Y0145200D01*
X0321750Y0148425D01*
X0304350Y0148425D01*
X0297550Y0148425D01*
X0297550Y0149066D01*
X0293050Y0150834D02*
X0293050Y0157334D01*
X0293050Y0164800D01*
X0288450Y0164800D01*
X0288450Y0165234D01*
X0273650Y0165234D01*
X0269916Y0165234D01*
X0269916Y0174300D01*
X0270450Y0174300D01*
X0270450Y0185200D01*
X0280450Y0185200D02*
X0286750Y0178900D01*
X0290350Y0178900D01*
X0297350Y0171900D01*
X0297350Y0167700D01*
X0304350Y0171300D02*
X0304350Y0161024D01*
X0304350Y0157874D02*
X0297550Y0157874D01*
X0297550Y0157334D01*
X0293050Y0157334D01*
X0288450Y0156966D02*
X0264750Y0154166D01*
X0264650Y0205400D01*
X0264150Y0205400D01*
X0264650Y0205400D02*
X0270450Y0205400D01*
X0270450Y0205200D01*
X0270450Y0205400D02*
X0270450Y0214234D01*
X0292050Y0214234D01*
X0292050Y0233209D01*
X0302500Y0243658D01*
X0327950Y0218208D01*
X0327950Y0200434D01*
X0327950Y0200034D01*
X0335150Y0200034D01*
X0336050Y0200434D02*
X0336050Y0198200D01*
X0336050Y0200434D02*
X0327950Y0200434D01*
X0327950Y0200634D01*
X0320650Y0200634D01*
X0320650Y0200534D01*
X0313450Y0200534D01*
X0303650Y0196600D02*
X0303650Y0205200D01*
X0280450Y0205200D01*
X0292050Y0205200D01*
X0292050Y0205966D01*
X0302500Y0205966D01*
X0302500Y0225942D01*
X0335550Y0230166D02*
X0335550Y0216200D01*
X0343550Y0220866D02*
X0343550Y0186400D01*
X0335150Y0186134D02*
X0334750Y0185734D01*
X0335150Y0186134D02*
X0335150Y0191766D01*
X0327950Y0192166D02*
X0327950Y0186234D01*
X0327650Y0185934D01*
X0320750Y0186234D02*
X0320650Y0186334D01*
X0320650Y0192366D01*
X0313450Y0192266D02*
X0313450Y0186234D01*
X0313250Y0186034D01*
X0305450Y0187600D02*
X0305450Y0178700D01*
X0313376Y0170774D01*
X0313376Y0166900D01*
X0310226Y0166900D02*
X0310226Y0169924D01*
X0293750Y0186400D01*
X0293750Y0190700D01*
X0293250Y0200300D02*
X0305450Y0187600D01*
X0313250Y0177766D02*
X0319675Y0171341D01*
X0319675Y0166900D01*
X0322825Y0166900D02*
X0322825Y0175891D01*
X0320750Y0177966D01*
X0325974Y0175991D02*
X0325974Y0166900D01*
X0329124Y0166900D02*
X0329124Y0171840D01*
X0334750Y0177466D01*
X0327650Y0177666D02*
X0325974Y0175991D01*
X0304350Y0171300D02*
X0280450Y0195200D01*
X0275050Y0200300D02*
X0293250Y0200300D01*
X0275050Y0200300D02*
X0270450Y0195200D01*
X0278184Y0174300D02*
X0288150Y0174300D01*
X0273716Y0165400D02*
X0273850Y0160500D01*
X0273650Y0165234D01*
X0273850Y0155166D02*
X0288450Y0156966D01*
X0288750Y0150834D02*
X0293050Y0150834D01*
X0304350Y0157874D02*
X0321550Y0157874D01*
X0321550Y0155100D01*
X0324750Y0155100D01*
X0338150Y0155100D01*
X0338150Y0154724D01*
X0368150Y0154724D01*
X0368150Y0148434D01*
X0368150Y0154800D01*
X0375550Y0154800D01*
X0346750Y0145276D02*
X0338150Y0145276D01*
X0338150Y0144900D01*
X0338150Y0151575D02*
X0340250Y0151575D01*
X0329124Y0132126D02*
X0329127Y0131891D01*
X0329135Y0131656D01*
X0329150Y0131421D01*
X0329169Y0131187D01*
X0329195Y0130954D01*
X0329226Y0130721D01*
X0329263Y0130489D01*
X0329305Y0130257D01*
X0329353Y0130027D01*
X0329407Y0129798D01*
X0329466Y0129571D01*
X0329530Y0129345D01*
X0329600Y0129121D01*
X0329675Y0128898D01*
X0329756Y0128677D01*
X0329842Y0128458D01*
X0329933Y0128242D01*
X0330030Y0128027D01*
X0330131Y0127816D01*
X0330238Y0127606D01*
X0330350Y0127399D01*
X0330466Y0127195D01*
X0330588Y0126994D01*
X0330714Y0126796D01*
X0330846Y0126601D01*
X0330982Y0126409D01*
X0331122Y0126221D01*
X0331267Y0126036D01*
X0331416Y0125854D01*
X0331570Y0125676D01*
X0331728Y0125502D01*
X0331890Y0125332D01*
X0332056Y0125166D01*
X0332226Y0125004D01*
X0332400Y0124846D01*
X0332578Y0124692D01*
X0332760Y0124543D01*
X0332945Y0124398D01*
X0333133Y0124258D01*
X0333325Y0124122D01*
X0333520Y0123990D01*
X0333718Y0123864D01*
X0333919Y0123742D01*
X0334123Y0123626D01*
X0334330Y0123514D01*
X0334540Y0123407D01*
X0334751Y0123306D01*
X0334966Y0123209D01*
X0335182Y0123118D01*
X0335401Y0123032D01*
X0335622Y0122951D01*
X0335845Y0122876D01*
X0336069Y0122806D01*
X0336295Y0122742D01*
X0336522Y0122683D01*
X0336751Y0122629D01*
X0336981Y0122581D01*
X0337213Y0122539D01*
X0337445Y0122502D01*
X0337678Y0122471D01*
X0337911Y0122445D01*
X0338145Y0122426D01*
X0338380Y0122411D01*
X0338615Y0122403D01*
X0338850Y0122400D01*
X0273850Y0150500D02*
X0273850Y0155166D01*
X0264750Y0154166D02*
X0264850Y0118400D01*
X0347450Y0177100D02*
X0353350Y0183000D01*
X0353350Y0205166D01*
X0361150Y0205066D02*
X0361150Y0183000D01*
X0355050Y0176900D01*
X0361550Y0177300D02*
X0373384Y0189134D01*
X0373384Y0230000D01*
X0373384Y0240000D01*
X0373384Y0250000D01*
X0373384Y0260000D01*
X0365116Y0260000D02*
X0357116Y0260000D01*
X0341250Y0244134D01*
X0341250Y0235866D02*
X0335550Y0230166D01*
X0343550Y0220866D02*
X0350850Y0220866D01*
X0357550Y0217634D02*
X0353350Y0213434D01*
X0357550Y0217634D02*
X0357550Y0232434D01*
X0365116Y0240000D01*
X0365116Y0250000D02*
X0350850Y0235734D01*
X0350850Y0229134D01*
X0365116Y0230000D02*
X0365116Y0217300D01*
X0361150Y0213334D01*
D23*
X0335550Y0216200D03*
X0303650Y0196600D03*
X0293750Y0190700D03*
X0288150Y0174300D03*
X0297350Y0167700D03*
X0328450Y0151400D03*
X0326350Y0139200D03*
X0327250Y0123500D03*
X0338850Y0122400D03*
X0348850Y0126900D03*
X0354250Y0115600D03*
X0322950Y0114200D03*
X0311850Y0107200D03*
X0319650Y0102600D03*
X0302350Y0127600D03*
X0375550Y0154800D03*
X0361550Y0177300D03*
X0355050Y0176900D03*
X0347450Y0177100D03*
X0343550Y0186400D03*
X0307950Y0073900D03*
X0311650Y0060900D03*
X0319750Y0061000D03*
X0291650Y0054000D03*
X0367550Y0049200D03*
M02*
