%
M48
M72
T01C0.0236
T02C0.0354
T03C0.0394
%
T01
X28815Y17430
X29735Y16770
X29375Y19070
X30365Y19660
X33555Y21620
X34355Y18640
X34745Y17710
X35505Y17690
X36155Y17730
X37555Y15480
X34885Y12690
X33885Y12240
X32725Y12350
X32295Y11420
X31185Y10720
X31965Y10260
X35425Y11560
X32635Y13920
X30235Y12760
X32845Y15140
X30795Y7390
X31165Y6090
X31975Y6100
X29165Y5400
X36755Y4920
T02
X27385Y13050
X27385Y14050
X27385Y15050
X27385Y16050
T03
X27045Y18520
X28045Y18520
X28045Y19520
X27045Y19520
X27045Y20520
X28045Y20520
M30
