G75*
%MOIN*%
%OFA0B0*%
%FSLAX24Y24*%
%IPPOS*%
%LPD*%
%AMOC8*
5,1,8,0,0,1.08239X$1,22.5*
%
%ADD10C,0.0050*%
%ADD11C,0.0000*%
D10*
X004385Y004500D02*
X019591Y004500D01*
X019630Y004498D01*
X019668Y004492D01*
X019705Y004483D01*
X019742Y004470D01*
X019777Y004453D01*
X019810Y004434D01*
X019841Y004411D01*
X019870Y004385D01*
X019896Y004356D01*
X019919Y004325D01*
X019938Y004292D01*
X019955Y004257D01*
X019968Y004220D01*
X019977Y004183D01*
X019983Y004145D01*
X019985Y004106D01*
X019985Y000760D01*
X020182Y000563D01*
X024198Y000563D01*
X024394Y000760D01*
X024394Y003693D01*
X024395Y003693D02*
X024397Y003731D01*
X024403Y003768D01*
X024412Y003805D01*
X024425Y003840D01*
X024442Y003875D01*
X024462Y003907D01*
X024485Y003937D01*
X024511Y003964D01*
X024540Y003989D01*
X024571Y004010D01*
X024604Y004029D01*
X024639Y004044D01*
X024675Y004055D01*
X024712Y004063D01*
X024750Y004067D01*
X024788Y004067D01*
X024826Y004063D01*
X024863Y004055D01*
X024899Y004044D01*
X024934Y004029D01*
X024967Y004010D01*
X024998Y003989D01*
X025027Y003964D01*
X025053Y003937D01*
X025076Y003907D01*
X025096Y003875D01*
X025113Y003840D01*
X025126Y003805D01*
X025135Y003768D01*
X025141Y003731D01*
X025143Y003693D01*
X025143Y000760D01*
X025339Y000563D01*
X027780Y000563D01*
X027977Y000760D01*
X027977Y004106D01*
X027979Y004145D01*
X027985Y004183D01*
X027994Y004220D01*
X028007Y004257D01*
X028024Y004292D01*
X028043Y004325D01*
X028066Y004356D01*
X028092Y004385D01*
X028121Y004411D01*
X028152Y004434D01*
X028185Y004453D01*
X028220Y004470D01*
X028257Y004483D01*
X028294Y004492D01*
X028332Y004498D01*
X028371Y004500D01*
X029591Y004500D01*
X029630Y004502D01*
X029668Y004508D01*
X029705Y004517D01*
X029742Y004530D01*
X029777Y004547D01*
X029810Y004566D01*
X029841Y004589D01*
X029870Y004615D01*
X029896Y004644D01*
X029919Y004675D01*
X029938Y004708D01*
X029955Y004743D01*
X029968Y004780D01*
X029977Y004817D01*
X029983Y004855D01*
X029985Y004894D01*
X029985Y026606D01*
X029983Y026645D01*
X029977Y026683D01*
X029968Y026720D01*
X029955Y026757D01*
X029938Y026792D01*
X029919Y026825D01*
X029896Y026856D01*
X029870Y026885D01*
X029841Y026911D01*
X029810Y026934D01*
X029777Y026953D01*
X029742Y026970D01*
X029705Y026983D01*
X029668Y026992D01*
X029630Y026998D01*
X029591Y027000D01*
X026328Y027000D01*
X026326Y026922D01*
X026320Y026845D01*
X026311Y026768D01*
X026297Y026691D01*
X026280Y026615D01*
X026259Y026540D01*
X026234Y026467D01*
X026206Y026394D01*
X026174Y026324D01*
X026138Y026254D01*
X026099Y026187D01*
X026057Y026122D01*
X026012Y026059D01*
X025963Y025998D01*
X025912Y025940D01*
X025858Y025884D01*
X025801Y025831D01*
X025741Y025781D01*
X025679Y025734D01*
X025615Y025690D01*
X025549Y025650D01*
X025480Y025613D01*
X025410Y025579D01*
X025339Y025549D01*
X025266Y025522D01*
X025191Y025499D01*
X025116Y025480D01*
X025040Y025465D01*
X024963Y025453D01*
X024886Y025445D01*
X024808Y025441D01*
X024730Y025441D01*
X024652Y025445D01*
X024575Y025453D01*
X024498Y025465D01*
X024422Y025480D01*
X024347Y025499D01*
X024272Y025522D01*
X024199Y025549D01*
X024128Y025579D01*
X024058Y025613D01*
X023990Y025650D01*
X023923Y025690D01*
X023859Y025734D01*
X023797Y025781D01*
X023737Y025831D01*
X023680Y025884D01*
X023626Y025940D01*
X023575Y025998D01*
X023526Y026059D01*
X023481Y026122D01*
X023439Y026187D01*
X023400Y026254D01*
X023364Y026324D01*
X023332Y026394D01*
X023304Y026467D01*
X023279Y026540D01*
X023258Y026615D01*
X023241Y026691D01*
X023227Y026768D01*
X023218Y026845D01*
X023212Y026922D01*
X023210Y027000D01*
X023209Y027000D02*
X004379Y027000D01*
X004340Y026998D01*
X004302Y026992D01*
X004265Y026983D01*
X004228Y026970D01*
X004193Y026953D01*
X004160Y026934D01*
X004129Y026911D01*
X004100Y026885D01*
X004074Y026856D01*
X004051Y026825D01*
X004032Y026792D01*
X004015Y026757D01*
X004002Y026720D01*
X003993Y026683D01*
X003987Y026645D01*
X003985Y026606D01*
X003985Y004900D01*
X003987Y004861D01*
X003993Y004822D01*
X004002Y004784D01*
X004015Y004747D01*
X004032Y004711D01*
X004052Y004678D01*
X004076Y004646D01*
X004102Y004617D01*
X004131Y004591D01*
X004163Y004567D01*
X004196Y004547D01*
X004232Y004530D01*
X004269Y004517D01*
X004307Y004508D01*
X004346Y004502D01*
X004385Y004500D01*
D11*
X004394Y007394D02*
X004396Y007442D01*
X004402Y007490D01*
X004412Y007537D01*
X004425Y007583D01*
X004443Y007628D01*
X004463Y007672D01*
X004488Y007714D01*
X004516Y007753D01*
X004546Y007790D01*
X004580Y007824D01*
X004617Y007856D01*
X004655Y007885D01*
X004696Y007910D01*
X004739Y007932D01*
X004784Y007950D01*
X004830Y007964D01*
X004877Y007975D01*
X004925Y007982D01*
X004973Y007985D01*
X005021Y007984D01*
X005069Y007979D01*
X005117Y007970D01*
X005163Y007958D01*
X005208Y007941D01*
X005252Y007921D01*
X005294Y007898D01*
X005334Y007871D01*
X005372Y007841D01*
X005407Y007808D01*
X005439Y007772D01*
X005469Y007734D01*
X005495Y007693D01*
X005517Y007650D01*
X005537Y007606D01*
X005552Y007561D01*
X005564Y007514D01*
X005572Y007466D01*
X005576Y007418D01*
X005576Y007370D01*
X005572Y007322D01*
X005564Y007274D01*
X005552Y007227D01*
X005537Y007182D01*
X005517Y007138D01*
X005495Y007095D01*
X005469Y007054D01*
X005439Y007016D01*
X005407Y006980D01*
X005372Y006947D01*
X005334Y006917D01*
X005294Y006890D01*
X005252Y006867D01*
X005208Y006847D01*
X005163Y006830D01*
X005117Y006818D01*
X005069Y006809D01*
X005021Y006804D01*
X004973Y006803D01*
X004925Y006806D01*
X004877Y006813D01*
X004830Y006824D01*
X004784Y006838D01*
X004739Y006856D01*
X004696Y006878D01*
X004655Y006903D01*
X004617Y006932D01*
X004580Y006964D01*
X004546Y006998D01*
X004516Y007035D01*
X004488Y007074D01*
X004463Y007116D01*
X004443Y007160D01*
X004425Y007205D01*
X004412Y007251D01*
X004402Y007298D01*
X004396Y007346D01*
X004394Y007394D01*
X004394Y011606D02*
X004396Y011654D01*
X004402Y011702D01*
X004412Y011749D01*
X004425Y011795D01*
X004443Y011840D01*
X004463Y011884D01*
X004488Y011926D01*
X004516Y011965D01*
X004546Y012002D01*
X004580Y012036D01*
X004617Y012068D01*
X004655Y012097D01*
X004696Y012122D01*
X004739Y012144D01*
X004784Y012162D01*
X004830Y012176D01*
X004877Y012187D01*
X004925Y012194D01*
X004973Y012197D01*
X005021Y012196D01*
X005069Y012191D01*
X005117Y012182D01*
X005163Y012170D01*
X005208Y012153D01*
X005252Y012133D01*
X005294Y012110D01*
X005334Y012083D01*
X005372Y012053D01*
X005407Y012020D01*
X005439Y011984D01*
X005469Y011946D01*
X005495Y011905D01*
X005517Y011862D01*
X005537Y011818D01*
X005552Y011773D01*
X005564Y011726D01*
X005572Y011678D01*
X005576Y011630D01*
X005576Y011582D01*
X005572Y011534D01*
X005564Y011486D01*
X005552Y011439D01*
X005537Y011394D01*
X005517Y011350D01*
X005495Y011307D01*
X005469Y011266D01*
X005439Y011228D01*
X005407Y011192D01*
X005372Y011159D01*
X005334Y011129D01*
X005294Y011102D01*
X005252Y011079D01*
X005208Y011059D01*
X005163Y011042D01*
X005117Y011030D01*
X005069Y011021D01*
X005021Y011016D01*
X004973Y011015D01*
X004925Y011018D01*
X004877Y011025D01*
X004830Y011036D01*
X004784Y011050D01*
X004739Y011068D01*
X004696Y011090D01*
X004655Y011115D01*
X004617Y011144D01*
X004580Y011176D01*
X004546Y011210D01*
X004516Y011247D01*
X004488Y011286D01*
X004463Y011328D01*
X004443Y011372D01*
X004425Y011417D01*
X004412Y011463D01*
X004402Y011510D01*
X004396Y011558D01*
X004394Y011606D01*
X004394Y019894D02*
X004396Y019942D01*
X004402Y019990D01*
X004412Y020037D01*
X004425Y020083D01*
X004443Y020128D01*
X004463Y020172D01*
X004488Y020214D01*
X004516Y020253D01*
X004546Y020290D01*
X004580Y020324D01*
X004617Y020356D01*
X004655Y020385D01*
X004696Y020410D01*
X004739Y020432D01*
X004784Y020450D01*
X004830Y020464D01*
X004877Y020475D01*
X004925Y020482D01*
X004973Y020485D01*
X005021Y020484D01*
X005069Y020479D01*
X005117Y020470D01*
X005163Y020458D01*
X005208Y020441D01*
X005252Y020421D01*
X005294Y020398D01*
X005334Y020371D01*
X005372Y020341D01*
X005407Y020308D01*
X005439Y020272D01*
X005469Y020234D01*
X005495Y020193D01*
X005517Y020150D01*
X005537Y020106D01*
X005552Y020061D01*
X005564Y020014D01*
X005572Y019966D01*
X005576Y019918D01*
X005576Y019870D01*
X005572Y019822D01*
X005564Y019774D01*
X005552Y019727D01*
X005537Y019682D01*
X005517Y019638D01*
X005495Y019595D01*
X005469Y019554D01*
X005439Y019516D01*
X005407Y019480D01*
X005372Y019447D01*
X005334Y019417D01*
X005294Y019390D01*
X005252Y019367D01*
X005208Y019347D01*
X005163Y019330D01*
X005117Y019318D01*
X005069Y019309D01*
X005021Y019304D01*
X004973Y019303D01*
X004925Y019306D01*
X004877Y019313D01*
X004830Y019324D01*
X004784Y019338D01*
X004739Y019356D01*
X004696Y019378D01*
X004655Y019403D01*
X004617Y019432D01*
X004580Y019464D01*
X004546Y019498D01*
X004516Y019535D01*
X004488Y019574D01*
X004463Y019616D01*
X004443Y019660D01*
X004425Y019705D01*
X004412Y019751D01*
X004402Y019798D01*
X004396Y019846D01*
X004394Y019894D01*
X004394Y024106D02*
X004396Y024154D01*
X004402Y024202D01*
X004412Y024249D01*
X004425Y024295D01*
X004443Y024340D01*
X004463Y024384D01*
X004488Y024426D01*
X004516Y024465D01*
X004546Y024502D01*
X004580Y024536D01*
X004617Y024568D01*
X004655Y024597D01*
X004696Y024622D01*
X004739Y024644D01*
X004784Y024662D01*
X004830Y024676D01*
X004877Y024687D01*
X004925Y024694D01*
X004973Y024697D01*
X005021Y024696D01*
X005069Y024691D01*
X005117Y024682D01*
X005163Y024670D01*
X005208Y024653D01*
X005252Y024633D01*
X005294Y024610D01*
X005334Y024583D01*
X005372Y024553D01*
X005407Y024520D01*
X005439Y024484D01*
X005469Y024446D01*
X005495Y024405D01*
X005517Y024362D01*
X005537Y024318D01*
X005552Y024273D01*
X005564Y024226D01*
X005572Y024178D01*
X005576Y024130D01*
X005576Y024082D01*
X005572Y024034D01*
X005564Y023986D01*
X005552Y023939D01*
X005537Y023894D01*
X005517Y023850D01*
X005495Y023807D01*
X005469Y023766D01*
X005439Y023728D01*
X005407Y023692D01*
X005372Y023659D01*
X005334Y023629D01*
X005294Y023602D01*
X005252Y023579D01*
X005208Y023559D01*
X005163Y023542D01*
X005117Y023530D01*
X005069Y023521D01*
X005021Y023516D01*
X004973Y023515D01*
X004925Y023518D01*
X004877Y023525D01*
X004830Y023536D01*
X004784Y023550D01*
X004739Y023568D01*
X004696Y023590D01*
X004655Y023615D01*
X004617Y023644D01*
X004580Y023676D01*
X004546Y023710D01*
X004516Y023747D01*
X004488Y023786D01*
X004463Y023828D01*
X004443Y023872D01*
X004425Y023917D01*
X004412Y023963D01*
X004402Y024010D01*
X004396Y024058D01*
X004394Y024106D01*
M02*
