%
M48
M72
T01C0.0236
T02C0.0315
T03C0.0394
T04C0.0400
T05C0.0433
T06C0.1181
%
T01
X12985Y11500
X14085Y11500
X15785Y11000
X16385Y11000
X18785Y11900
X15585Y13500
X14985Y14200
X14585Y14600
X13285Y15900
X13685Y16300
X12985Y16800
X13685Y17600
X14185Y17800
X15185Y19000
X14285Y20400
X14385Y21100
X12285Y21200
X11385Y20950
X9985Y20900
X12485Y18500
X12085Y18100
X11485Y16500
X10085Y14800
X10085Y13300
X12385Y13500
X17185Y17500
X17785Y17500
X18385Y17500
X19785Y18300
X20285Y18200
X20685Y17900
X20985Y18600
X21485Y18600
X21985Y18600
X22185Y20000
X22985Y22000
X26085Y18200
X27285Y18500
X27985Y18000
X24885Y16300
X24485Y16700
X24085Y17100
X23685Y17500
X23285Y14800
X22685Y14800
X22885Y14300
X23185Y13900
X21985Y14800
X21285Y14800
X25985Y9700
X27985Y10100
X29385Y9900
X26385Y5500
X26385Y4600
X24735Y6000
X24785Y7000
X22985Y6900
X22585Y4700
X22585Y4200
X21585Y4900
X21085Y3900
X23785Y4300
X23785Y4800
X17585Y5900
X5985Y17500
X27835Y22500
X27835Y23500
X27835Y24500
T02
X21879Y13400
X21091Y13400
X18379Y8000
X17591Y8000
T03
X27985Y7500
X27985Y6500
X28985Y6500
X28985Y7500
X28985Y8500
X27985Y8500
X27985Y19500
X27985Y20500
X27985Y21500
X28985Y21500
X28985Y20500
X28985Y19500
X20265Y24614
X20265Y26386
X17706Y26386
X17706Y24614
T04
X15985Y26300
X14985Y26300
X13985Y26300
X13985Y5200
X14985Y5200
X15985Y5200
T05
X6686Y6547
X6686Y7728
X6686Y8909
X6686Y10091
X6686Y11272
X6686Y12453
X6686Y19047
X6686Y20228
X6686Y21409
X6686Y22591
X6686Y23772
X6686Y24953
X23985Y23500
X24985Y23500
X24985Y22500
X23985Y22500
X23985Y21500
X24985Y21500
X24985Y20500
X23985Y20500
X23985Y13500
X24985Y13500
X24985Y12500
X23985Y12500
X23985Y11500
X24985Y11500
X24985Y10500
X23985Y10500
T06
X4985Y11606
X4985Y7394
X4985Y19894
X4985Y24106
M30
