G75*
%MOIN*%
%OFA0B0*%
%FSLAX24Y24*%
%IPPOS*%
%LPD*%
%AMOC8*
5,1,8,0,0,1.08239X$1,22.5*
%
%ADD10C,0.0030*%
%ADD11C,0.0050*%
%ADD12C,0.0040*%
D10*
X011200Y007355D02*
X011200Y007645D01*
X011345Y007645D01*
X011394Y007597D01*
X011394Y007500D01*
X011345Y007452D01*
X011200Y007452D01*
X011297Y007452D02*
X011394Y007355D01*
X011495Y007355D02*
X011688Y007548D01*
X011688Y007597D01*
X011640Y007645D01*
X011543Y007645D01*
X011495Y007597D01*
X011495Y007355D02*
X011688Y007355D01*
X011789Y007403D02*
X011838Y007355D01*
X011934Y007355D01*
X011983Y007403D01*
X011983Y007452D01*
X011934Y007500D01*
X011789Y007500D01*
X011789Y007403D01*
X011789Y007500D02*
X011886Y007597D01*
X011983Y007645D01*
X011640Y008355D02*
X011543Y008355D01*
X011495Y008403D01*
X011495Y008500D02*
X011591Y008548D01*
X011640Y008548D01*
X011688Y008500D01*
X011688Y008403D01*
X011640Y008355D01*
X011495Y008500D02*
X011495Y008645D01*
X011688Y008645D01*
X011394Y008597D02*
X011394Y008403D01*
X011345Y008355D01*
X011248Y008355D01*
X011200Y008403D01*
X011200Y008597D01*
X011248Y008645D01*
X011345Y008645D01*
X011394Y008597D01*
X011297Y008452D02*
X011394Y008355D01*
X011394Y009355D02*
X011297Y009452D01*
X011345Y009452D02*
X011200Y009452D01*
X011200Y009355D02*
X011200Y009645D01*
X011345Y009645D01*
X011394Y009597D01*
X011394Y009500D01*
X011345Y009452D01*
X011495Y009355D02*
X011688Y009548D01*
X011688Y009597D01*
X011640Y009645D01*
X011543Y009645D01*
X011495Y009597D01*
X011495Y009355D02*
X011688Y009355D01*
X011789Y009403D02*
X011838Y009355D01*
X011934Y009355D01*
X011983Y009403D01*
X011983Y009500D01*
X011934Y009548D01*
X011886Y009548D01*
X011789Y009500D01*
X011789Y009645D01*
X011983Y009645D01*
X011934Y010355D02*
X011838Y010355D01*
X011789Y010403D01*
X011789Y010452D01*
X011838Y010500D01*
X011934Y010500D01*
X011983Y010452D01*
X011983Y010403D01*
X011934Y010355D01*
X011934Y010500D02*
X011983Y010548D01*
X011983Y010597D01*
X011934Y010645D01*
X011838Y010645D01*
X011789Y010597D01*
X011789Y010548D01*
X011838Y010500D01*
X011688Y010548D02*
X011688Y010597D01*
X011640Y010645D01*
X011543Y010645D01*
X011495Y010597D01*
X011394Y010597D02*
X011394Y010500D01*
X011345Y010452D01*
X011200Y010452D01*
X011297Y010452D02*
X011394Y010355D01*
X011495Y010355D02*
X011688Y010548D01*
X011688Y010355D02*
X011495Y010355D01*
X011394Y010597D02*
X011345Y010645D01*
X011200Y010645D01*
X011200Y010355D01*
X011248Y011355D02*
X011200Y011403D01*
X011200Y011597D01*
X011248Y011645D01*
X011345Y011645D01*
X011394Y011597D01*
X011394Y011403D01*
X011345Y011355D01*
X011248Y011355D01*
X011297Y011452D02*
X011394Y011355D01*
X011495Y011403D02*
X011543Y011355D01*
X011640Y011355D01*
X011688Y011403D01*
X011688Y011452D01*
X011640Y011500D01*
X011495Y011500D01*
X011495Y011403D01*
X011495Y011500D02*
X011591Y011597D01*
X011688Y011645D01*
X011688Y012355D02*
X011495Y012355D01*
X011688Y012548D01*
X011688Y012597D01*
X011640Y012645D01*
X011543Y012645D01*
X011495Y012597D01*
X011394Y012597D02*
X011394Y012500D01*
X011345Y012452D01*
X011200Y012452D01*
X011297Y012452D02*
X011394Y012355D01*
X011200Y012355D02*
X011200Y012645D01*
X011345Y012645D01*
X011394Y012597D01*
X011789Y012645D02*
X011983Y012645D01*
X011983Y012597D01*
X011789Y012403D01*
X011789Y012355D01*
X012968Y013626D02*
X013037Y013626D01*
X012968Y013626D02*
X012900Y013694D01*
X012900Y013763D01*
X013037Y013900D01*
X013105Y013900D01*
X013173Y013831D01*
X013173Y013763D01*
X013279Y013726D02*
X013176Y013623D01*
X013279Y013589D01*
X013313Y013555D01*
X013313Y013486D01*
X013245Y013418D01*
X013176Y013418D01*
X013108Y013486D01*
X013108Y013555D01*
X013279Y013726D02*
X013416Y013589D01*
X012573Y014240D02*
X012436Y014377D01*
X012642Y014377D01*
X012436Y014172D01*
X012296Y014380D02*
X012228Y014380D01*
X012160Y014449D01*
X012160Y014517D01*
X012296Y014654D01*
X012365Y014654D01*
X012433Y014586D01*
X012433Y014517D01*
X017119Y012197D02*
X017119Y012128D01*
X017256Y011991D01*
X017325Y011991D01*
X017393Y012060D01*
X017393Y012128D01*
X017465Y012200D02*
X017396Y012268D01*
X017499Y012371D01*
X017567Y012371D01*
X017601Y012337D01*
X017601Y012268D01*
X017533Y012200D01*
X017465Y012200D01*
X017396Y012268D02*
X017396Y012405D01*
X017430Y012508D01*
X017256Y012265D02*
X017188Y012265D01*
X017119Y012197D01*
X019811Y013303D02*
X019859Y013255D01*
X019956Y013255D01*
X020004Y013303D01*
X020105Y013303D02*
X020105Y013352D01*
X020154Y013400D01*
X020251Y013400D01*
X020299Y013352D01*
X020299Y013303D01*
X020251Y013255D01*
X020154Y013255D01*
X020105Y013303D01*
X020154Y013400D02*
X020105Y013448D01*
X020105Y013497D01*
X020154Y013545D01*
X020251Y013545D01*
X020299Y013497D01*
X020299Y013448D01*
X020251Y013400D01*
X020004Y013497D02*
X019956Y013545D01*
X019859Y013545D01*
X019811Y013497D01*
X019811Y013303D01*
X019966Y012145D02*
X020160Y012145D01*
X020261Y012145D02*
X020261Y011855D01*
X020406Y011855D01*
X020454Y011903D01*
X020454Y011952D01*
X020406Y012000D01*
X020261Y012000D01*
X020406Y012000D02*
X020454Y012048D01*
X020454Y012097D01*
X020406Y012145D01*
X020261Y012145D01*
X020063Y012000D02*
X019966Y012000D01*
X019966Y011855D02*
X019966Y012145D01*
X020555Y012048D02*
X020652Y012145D01*
X020652Y011855D01*
X020555Y011855D02*
X020749Y011855D01*
X020198Y014851D02*
X020267Y014920D01*
X020267Y014988D01*
X020372Y015025D02*
X020509Y015162D01*
X020441Y015094D02*
X020236Y015299D01*
X020236Y015162D01*
X020130Y015125D02*
X020061Y015125D01*
X019993Y015057D01*
X019993Y014988D01*
X020130Y014851D01*
X020198Y014851D01*
X020191Y016155D02*
X020259Y016224D01*
X020259Y016292D01*
X020088Y016463D01*
X020228Y016466D02*
X020228Y016603D01*
X020433Y016398D01*
X020365Y016330D02*
X020502Y016466D01*
X020191Y016155D02*
X020122Y016155D01*
X019951Y016326D01*
X019943Y019355D02*
X019895Y019403D01*
X019943Y019355D02*
X020040Y019355D01*
X020088Y019403D01*
X020088Y019597D01*
X020040Y019645D01*
X019943Y019645D01*
X019895Y019597D01*
X019895Y019548D01*
X019943Y019500D01*
X020088Y019500D01*
X019794Y019403D02*
X019745Y019355D01*
X019648Y019355D01*
X019600Y019403D01*
X019600Y019597D01*
X019648Y019645D01*
X019745Y019645D01*
X019794Y019597D01*
X019745Y020355D02*
X019794Y020403D01*
X019745Y020355D02*
X019648Y020355D01*
X019600Y020403D01*
X019600Y020597D01*
X019648Y020645D01*
X019745Y020645D01*
X019794Y020597D01*
X019895Y020548D02*
X019991Y020645D01*
X019991Y020355D01*
X019895Y020355D02*
X020088Y020355D01*
X020189Y020403D02*
X020383Y020597D01*
X020383Y020403D01*
X020334Y020355D01*
X020238Y020355D01*
X020189Y020403D01*
X020189Y020597D01*
X020238Y020645D01*
X020334Y020645D01*
X020383Y020597D01*
X022000Y020645D02*
X022000Y020355D01*
X022000Y020452D02*
X022145Y020452D01*
X022194Y020500D01*
X022194Y020597D01*
X022145Y020645D01*
X022000Y020645D01*
X022097Y020452D02*
X022194Y020355D01*
X022295Y020355D02*
X022488Y020355D01*
X022391Y020355D02*
X022391Y020645D01*
X022295Y020548D01*
X022589Y020597D02*
X022638Y020645D01*
X022734Y020645D01*
X022783Y020597D01*
X022783Y020548D01*
X022589Y020355D01*
X022783Y020355D01*
X022686Y019645D02*
X022686Y019355D01*
X022589Y019355D02*
X022783Y019355D01*
X022589Y019548D02*
X022686Y019645D01*
X022391Y019645D02*
X022391Y019355D01*
X022295Y019355D02*
X022488Y019355D01*
X022295Y019548D02*
X022391Y019645D01*
X022194Y019597D02*
X022145Y019645D01*
X022000Y019645D01*
X022000Y019355D01*
X022000Y019452D02*
X022145Y019452D01*
X022194Y019500D01*
X022194Y019597D01*
X022097Y019452D02*
X022194Y019355D01*
X025661Y017645D02*
X025661Y017355D01*
X025661Y017452D02*
X025806Y017452D01*
X025854Y017500D01*
X025854Y017597D01*
X025806Y017645D01*
X025661Y017645D01*
X025757Y017452D02*
X025854Y017355D01*
X025955Y017403D02*
X026004Y017355D01*
X026101Y017355D01*
X026149Y017403D01*
X026149Y017452D01*
X026101Y017500D01*
X026052Y017500D01*
X026101Y017500D02*
X026149Y017548D01*
X026149Y017597D01*
X026101Y017645D01*
X026004Y017645D01*
X025955Y017597D01*
X026101Y016645D02*
X025955Y016500D01*
X026149Y016500D01*
X026101Y016355D02*
X026101Y016645D01*
X025854Y016597D02*
X025854Y016500D01*
X025806Y016452D01*
X025661Y016452D01*
X025757Y016452D02*
X025854Y016355D01*
X025661Y016355D02*
X025661Y016645D01*
X025806Y016645D01*
X025854Y016597D01*
X025806Y015645D02*
X025854Y015597D01*
X025854Y015500D01*
X025806Y015452D01*
X025661Y015452D01*
X025757Y015452D02*
X025854Y015355D01*
X025955Y015403D02*
X026004Y015355D01*
X026101Y015355D01*
X026149Y015403D01*
X026149Y015500D01*
X026101Y015548D01*
X026052Y015548D01*
X025955Y015500D01*
X025955Y015645D01*
X026149Y015645D01*
X025806Y015645D02*
X025661Y015645D01*
X025661Y015355D01*
X025661Y014645D02*
X025806Y014645D01*
X025854Y014597D01*
X025854Y014500D01*
X025806Y014452D01*
X025661Y014452D01*
X025757Y014452D02*
X025854Y014355D01*
X025955Y014403D02*
X026004Y014355D01*
X026101Y014355D01*
X026149Y014403D01*
X026149Y014452D01*
X026101Y014500D01*
X025955Y014500D01*
X025955Y014403D01*
X025955Y014500D02*
X026052Y014597D01*
X026149Y014645D01*
X025661Y014645D02*
X025661Y014355D01*
X025661Y013645D02*
X025806Y013645D01*
X025854Y013597D01*
X025854Y013500D01*
X025806Y013452D01*
X025661Y013452D01*
X025757Y013452D02*
X025854Y013355D01*
X025955Y013355D02*
X025955Y013403D01*
X026149Y013597D01*
X026149Y013645D01*
X025955Y013645D01*
X025661Y013645D02*
X025661Y013355D01*
X025661Y012645D02*
X025806Y012645D01*
X025854Y012597D01*
X025854Y012500D01*
X025806Y012452D01*
X025661Y012452D01*
X025757Y012452D02*
X025854Y012355D01*
X025955Y012403D02*
X025955Y012452D01*
X026004Y012500D01*
X026101Y012500D01*
X026149Y012452D01*
X026149Y012403D01*
X026101Y012355D01*
X026004Y012355D01*
X025955Y012403D01*
X026004Y012500D02*
X025955Y012548D01*
X025955Y012597D01*
X026004Y012645D01*
X026101Y012645D01*
X026149Y012597D01*
X026149Y012548D01*
X026101Y012500D01*
X025661Y012355D02*
X025661Y012645D01*
X025661Y011645D02*
X025806Y011645D01*
X025854Y011597D01*
X025854Y011500D01*
X025806Y011452D01*
X025661Y011452D01*
X025757Y011452D02*
X025854Y011355D01*
X025955Y011403D02*
X026004Y011355D01*
X026101Y011355D01*
X026149Y011403D01*
X026149Y011597D01*
X026101Y011645D01*
X026004Y011645D01*
X025955Y011597D01*
X025955Y011548D01*
X026004Y011500D01*
X026149Y011500D01*
X025661Y011355D02*
X025661Y011645D01*
X025757Y010645D02*
X025757Y010355D01*
X025661Y010355D02*
X025854Y010355D01*
X025955Y010403D02*
X026149Y010597D01*
X026149Y010403D01*
X026101Y010355D01*
X026004Y010355D01*
X025955Y010403D01*
X025955Y010597D01*
X026004Y010645D01*
X026101Y010645D01*
X026149Y010597D01*
X025757Y010645D02*
X025661Y010548D01*
X025560Y010500D02*
X025511Y010452D01*
X025366Y010452D01*
X025463Y010452D02*
X025560Y010355D01*
X025560Y010500D02*
X025560Y010597D01*
X025511Y010645D01*
X025366Y010645D01*
X025366Y010355D01*
X027955Y010403D02*
X027955Y010355D01*
X027955Y010403D02*
X028149Y010597D01*
X028149Y010645D01*
X027955Y010645D01*
X028004Y011355D02*
X028101Y011355D01*
X028149Y011403D01*
X028149Y011452D01*
X028101Y011500D01*
X027955Y011500D01*
X027955Y011403D01*
X028004Y011355D01*
X027955Y011500D02*
X028052Y011597D01*
X028149Y011645D01*
X028101Y012355D02*
X028004Y012355D01*
X027955Y012403D01*
X027955Y012500D02*
X028052Y012548D01*
X028101Y012548D01*
X028149Y012500D01*
X028149Y012403D01*
X028101Y012355D01*
X027955Y012500D02*
X027955Y012645D01*
X028149Y012645D01*
X028101Y013355D02*
X028101Y013645D01*
X027955Y013500D01*
X028149Y013500D01*
X028101Y014355D02*
X028004Y014355D01*
X027955Y014403D01*
X028052Y014500D02*
X028101Y014500D01*
X028149Y014452D01*
X028149Y014403D01*
X028101Y014355D01*
X028101Y014500D02*
X028149Y014548D01*
X028149Y014597D01*
X028101Y014645D01*
X028004Y014645D01*
X027955Y014597D01*
X027955Y015355D02*
X028149Y015548D01*
X028149Y015597D01*
X028101Y015645D01*
X028004Y015645D01*
X027955Y015597D01*
X027955Y015355D02*
X028149Y015355D01*
X028149Y016355D02*
X027955Y016355D01*
X028052Y016355D02*
X028052Y016645D01*
X027955Y016548D01*
X028004Y017355D02*
X027955Y017403D01*
X028149Y017597D01*
X028149Y017403D01*
X028101Y017355D01*
X028004Y017355D01*
X027955Y017403D02*
X027955Y017597D01*
X028004Y017645D01*
X028101Y017645D01*
X028149Y017597D01*
X028149Y018355D02*
X027955Y018355D01*
X028052Y018355D02*
X028052Y018645D01*
X027955Y018548D01*
X027854Y018500D02*
X027806Y018452D01*
X027661Y018452D01*
X027757Y018452D02*
X027854Y018355D01*
X027854Y018500D02*
X027854Y018597D01*
X027806Y018645D01*
X027661Y018645D01*
X027661Y018355D01*
X026549Y020355D02*
X026355Y020355D01*
X026549Y020548D01*
X026549Y020597D01*
X026501Y020645D01*
X026404Y020645D01*
X026355Y020597D01*
X026254Y020597D02*
X026254Y020500D01*
X026206Y020452D01*
X026061Y020452D01*
X026157Y020452D02*
X026254Y020355D01*
X026061Y020355D02*
X026061Y020645D01*
X026206Y020645D01*
X026254Y020597D01*
X028000Y022265D02*
X028000Y022555D01*
X028145Y022555D01*
X028194Y022507D01*
X028194Y022410D01*
X028145Y022362D01*
X028000Y022362D01*
X028295Y022362D02*
X028440Y022362D01*
X028488Y022410D01*
X028488Y022507D01*
X028440Y022555D01*
X028295Y022555D01*
X028295Y022265D01*
X028391Y022362D02*
X028488Y022265D01*
X028589Y022313D02*
X028638Y022265D01*
X028734Y022265D01*
X028783Y022313D01*
X028783Y022507D01*
X028734Y022555D01*
X028638Y022555D01*
X028589Y022507D01*
X028589Y022313D01*
X028884Y022313D02*
X028932Y022265D01*
X029029Y022265D01*
X029077Y022313D01*
X029077Y022410D01*
X028981Y022410D01*
X029077Y022507D02*
X029029Y022555D01*
X028932Y022555D01*
X028884Y022507D01*
X028884Y022313D01*
X024694Y024063D02*
X024645Y024015D01*
X024548Y024015D01*
X024500Y024063D01*
X024694Y024257D01*
X024694Y024063D01*
X024694Y024257D02*
X024645Y024305D01*
X024548Y024305D01*
X024500Y024257D01*
X024500Y024063D01*
X024399Y024015D02*
X024399Y024305D01*
X024302Y024208D01*
X024205Y024305D01*
X024205Y024015D01*
X021199Y025597D02*
X021005Y025403D01*
X021005Y025355D01*
X020904Y025355D02*
X020711Y025355D01*
X020807Y025355D02*
X020807Y025645D01*
X020711Y025548D01*
X020610Y025500D02*
X020561Y025452D01*
X020416Y025452D01*
X020513Y025452D02*
X020610Y025355D01*
X020610Y025500D02*
X020610Y025597D01*
X020561Y025645D01*
X020416Y025645D01*
X020416Y025355D01*
X021005Y025645D02*
X021199Y025645D01*
X021199Y025597D01*
X019372Y023833D02*
X019178Y023833D01*
X019275Y023833D02*
X019275Y024123D01*
X019178Y024026D01*
X019077Y024123D02*
X019077Y023833D01*
X018981Y023930D01*
X018884Y023833D01*
X018884Y024123D01*
X018783Y024075D02*
X018734Y024123D01*
X018638Y024123D01*
X018589Y024075D01*
X018589Y024026D01*
X018638Y023978D01*
X018734Y023978D01*
X018783Y023930D01*
X018783Y023881D01*
X018734Y023833D01*
X018638Y023833D01*
X018589Y023881D01*
X017836Y020426D02*
X017768Y020426D01*
X017631Y020289D01*
X017631Y020220D01*
X017700Y020152D01*
X017768Y020152D01*
X017805Y020046D02*
X018079Y020046D01*
X018113Y020080D01*
X018113Y020149D01*
X018045Y020217D01*
X017976Y020217D01*
X017905Y020289D02*
X017905Y020357D01*
X017836Y020426D01*
X017805Y020046D02*
X017942Y019909D01*
X014091Y020037D02*
X014023Y019969D01*
X013954Y019969D01*
X013883Y019897D02*
X013883Y019829D01*
X013814Y019760D01*
X013746Y019760D01*
X013609Y019897D01*
X013609Y019966D01*
X013678Y020034D01*
X013746Y020034D01*
X013817Y020105D02*
X013817Y020174D01*
X013886Y020242D01*
X013954Y020242D01*
X013989Y020208D01*
X013989Y020140D01*
X014057Y020140D01*
X014091Y020105D01*
X014091Y020037D01*
X013989Y020140D02*
X013954Y020105D01*
X011983Y019597D02*
X011934Y019645D01*
X011838Y019645D01*
X011789Y019597D01*
X011688Y019597D02*
X011640Y019645D01*
X011543Y019645D01*
X011495Y019597D01*
X011394Y019597D02*
X011394Y019500D01*
X011345Y019452D01*
X011200Y019452D01*
X011297Y019452D02*
X011394Y019355D01*
X011495Y019355D02*
X011688Y019548D01*
X011688Y019597D01*
X011688Y019355D02*
X011495Y019355D01*
X011394Y019597D02*
X011345Y019645D01*
X011200Y019645D01*
X011200Y019355D01*
X011789Y019355D02*
X011983Y019548D01*
X011983Y019597D01*
X011983Y019355D02*
X011789Y019355D01*
X011640Y020355D02*
X011543Y020355D01*
X011495Y020403D01*
X011394Y020403D02*
X011345Y020355D01*
X011248Y020355D01*
X011200Y020403D01*
X011200Y020597D01*
X011248Y020645D01*
X011345Y020645D01*
X011394Y020597D01*
X011394Y020403D01*
X011394Y020355D02*
X011297Y020452D01*
X011495Y020597D02*
X011543Y020645D01*
X011640Y020645D01*
X011688Y020597D01*
X011688Y020548D01*
X011640Y020500D01*
X011688Y020452D01*
X011688Y020403D01*
X011640Y020355D01*
X011640Y020500D02*
X011591Y020500D01*
X011495Y021355D02*
X011688Y021548D01*
X011688Y021597D01*
X011640Y021645D01*
X011543Y021645D01*
X011495Y021597D01*
X011394Y021597D02*
X011394Y021500D01*
X011345Y021452D01*
X011200Y021452D01*
X011297Y021452D02*
X011394Y021355D01*
X011495Y021355D02*
X011688Y021355D01*
X011789Y021355D02*
X011983Y021355D01*
X011886Y021355D02*
X011886Y021645D01*
X011789Y021548D01*
X011394Y021597D02*
X011345Y021645D01*
X011200Y021645D01*
X011200Y021355D01*
X011200Y022355D02*
X011200Y022645D01*
X011345Y022645D01*
X011394Y022597D01*
X011394Y022500D01*
X011345Y022452D01*
X011200Y022452D01*
X011297Y022452D02*
X011394Y022355D01*
X011495Y022355D02*
X011688Y022548D01*
X011688Y022597D01*
X011640Y022645D01*
X011543Y022645D01*
X011495Y022597D01*
X011495Y022355D02*
X011688Y022355D01*
X011789Y022500D02*
X011983Y022500D01*
X011934Y022355D02*
X011934Y022645D01*
X011789Y022500D01*
X011640Y023355D02*
X011640Y023645D01*
X011495Y023500D01*
X011688Y023500D01*
X011394Y023403D02*
X011345Y023355D01*
X011248Y023355D01*
X011200Y023403D01*
X011200Y023597D01*
X011248Y023645D01*
X011345Y023645D01*
X011394Y023597D01*
X011394Y023403D01*
X011394Y023355D02*
X011297Y023452D01*
X011394Y024355D02*
X011297Y024452D01*
X011345Y024452D02*
X011200Y024452D01*
X011200Y024355D02*
X011200Y024645D01*
X011345Y024645D01*
X011394Y024597D01*
X011394Y024500D01*
X011345Y024452D01*
X011495Y024355D02*
X011688Y024548D01*
X011688Y024597D01*
X011640Y024645D01*
X011543Y024645D01*
X011495Y024597D01*
X011495Y024355D02*
X011688Y024355D01*
X011789Y024403D02*
X011838Y024355D01*
X011934Y024355D01*
X011983Y024403D01*
X011983Y024452D01*
X011934Y024500D01*
X011886Y024500D01*
X011934Y024500D02*
X011983Y024548D01*
X011983Y024597D01*
X011934Y024645D01*
X011838Y024645D01*
X011789Y024597D01*
X006424Y026513D02*
X006376Y026465D01*
X006279Y026465D01*
X006231Y026513D01*
X006424Y026706D01*
X006424Y026513D01*
X006231Y026513D02*
X006231Y026706D01*
X006279Y026755D01*
X006376Y026755D01*
X006424Y026706D01*
X006130Y026706D02*
X006130Y026610D01*
X006081Y026561D01*
X005936Y026561D01*
X005936Y026465D02*
X005936Y026755D01*
X006081Y026755D01*
X006130Y026706D01*
X006033Y026561D02*
X006130Y026465D01*
X005835Y026465D02*
X005642Y026465D01*
X005642Y026755D01*
X005835Y026755D01*
X005738Y026610D02*
X005642Y026610D01*
X005540Y026706D02*
X005492Y026755D01*
X005347Y026755D01*
X005347Y026465D01*
X005492Y026465D01*
X005540Y026513D01*
X005540Y026706D01*
X005246Y026658D02*
X005246Y026465D01*
X005246Y026610D02*
X005052Y026610D01*
X005052Y026658D02*
X005149Y026755D01*
X005246Y026658D01*
X005052Y026658D02*
X005052Y026465D01*
X004951Y026465D02*
X004758Y026465D01*
X004758Y026755D01*
X004951Y026755D01*
X004854Y026610D02*
X004758Y026610D01*
X004657Y026610D02*
X004463Y026610D01*
X004463Y026465D02*
X004463Y026755D01*
X004657Y026755D02*
X004657Y026465D01*
X004563Y014255D02*
X004563Y013965D01*
X004563Y014110D02*
X004757Y014110D01*
X004858Y014110D02*
X004954Y014110D01*
X004858Y014255D02*
X004858Y013965D01*
X005051Y013965D01*
X005152Y013965D02*
X005152Y014158D01*
X005249Y014255D01*
X005346Y014158D01*
X005346Y013965D01*
X005447Y013965D02*
X005592Y013965D01*
X005640Y014013D01*
X005640Y014206D01*
X005592Y014255D01*
X005447Y014255D01*
X005447Y013965D01*
X005346Y014110D02*
X005152Y014110D01*
X005051Y014255D02*
X004858Y014255D01*
X004757Y014255D02*
X004757Y013965D01*
X005742Y013965D02*
X005935Y013965D01*
X006036Y013965D02*
X006036Y014255D01*
X006181Y014255D01*
X006230Y014206D01*
X006230Y014110D01*
X006181Y014061D01*
X006036Y014061D01*
X006133Y014061D02*
X006230Y013965D01*
X006331Y013965D02*
X006524Y013965D01*
X006428Y013965D02*
X006428Y014255D01*
X006331Y014158D01*
X005935Y014255D02*
X005742Y014255D01*
X005742Y013965D01*
X005742Y014110D02*
X005838Y014110D01*
X016311Y008097D02*
X016311Y007903D01*
X016359Y007855D01*
X016456Y007855D01*
X016504Y007903D01*
X016605Y007903D02*
X016799Y008097D01*
X016799Y008145D01*
X016605Y008145D01*
X016504Y008097D02*
X016456Y008145D01*
X016359Y008145D01*
X016311Y008097D01*
X016605Y007903D02*
X016605Y007855D01*
X016711Y006645D02*
X016711Y006355D01*
X016904Y006355D01*
X017005Y006355D02*
X017199Y006355D01*
X017102Y006355D02*
X017102Y006645D01*
X017005Y006548D01*
X020366Y007355D02*
X020366Y007645D01*
X020511Y007645D01*
X020560Y007597D01*
X020560Y007500D01*
X020511Y007452D01*
X020366Y007452D01*
X020463Y007452D02*
X020560Y007355D01*
X020661Y007355D02*
X020854Y007355D01*
X020757Y007355D02*
X020757Y007645D01*
X020661Y007548D01*
X020955Y007597D02*
X021004Y007645D01*
X021101Y007645D01*
X021149Y007597D01*
X021149Y007548D01*
X021101Y007500D01*
X021149Y007452D01*
X021149Y007403D01*
X021101Y007355D01*
X021004Y007355D01*
X020955Y007403D01*
X021052Y007500D02*
X021101Y007500D01*
X021052Y006645D02*
X021052Y006355D01*
X020955Y006355D02*
X021149Y006355D01*
X020955Y006548D02*
X021052Y006645D01*
X020854Y006597D02*
X020854Y006403D01*
X020806Y006355D01*
X020709Y006355D01*
X020661Y006403D01*
X020661Y006597D01*
X020709Y006645D01*
X020806Y006645D01*
X020854Y006597D01*
X020757Y006452D02*
X020854Y006355D01*
X020757Y005645D02*
X020757Y005355D01*
X020661Y005355D02*
X020854Y005355D01*
X020955Y005500D02*
X021101Y005645D01*
X021101Y005355D01*
X021149Y005500D02*
X020955Y005500D01*
X020757Y005645D02*
X020661Y005548D01*
X020560Y005500D02*
X020511Y005452D01*
X020366Y005452D01*
X020463Y005452D02*
X020560Y005355D01*
X020560Y005500D02*
X020560Y005597D01*
X020511Y005645D01*
X020366Y005645D01*
X020366Y005355D01*
X024750Y005355D02*
X024750Y005645D01*
X024895Y005645D01*
X024944Y005597D01*
X024944Y005500D01*
X024895Y005452D01*
X024750Y005452D01*
X024847Y005452D02*
X024944Y005355D01*
X025045Y005355D02*
X025238Y005355D01*
X025141Y005355D02*
X025141Y005645D01*
X025045Y005548D01*
X025339Y005500D02*
X025436Y005597D01*
X025533Y005645D01*
X025484Y005500D02*
X025339Y005500D01*
X025339Y005403D01*
X025388Y005355D01*
X025484Y005355D01*
X025533Y005403D01*
X025533Y005452D01*
X025484Y005500D01*
X025238Y006355D02*
X025045Y006355D01*
X025238Y006548D01*
X025238Y006597D01*
X025190Y006645D01*
X025093Y006645D01*
X025045Y006597D01*
X024944Y006597D02*
X024944Y006403D01*
X024895Y006355D01*
X024798Y006355D01*
X024750Y006403D01*
X024750Y006597D01*
X024798Y006645D01*
X024895Y006645D01*
X024944Y006597D01*
X024847Y006452D02*
X024944Y006355D01*
X024944Y007355D02*
X024847Y007452D01*
X024895Y007452D02*
X024750Y007452D01*
X024750Y007355D02*
X024750Y007645D01*
X024895Y007645D01*
X024944Y007597D01*
X024944Y007500D01*
X024895Y007452D01*
X025045Y007548D02*
X025141Y007645D01*
X025141Y007355D01*
X025045Y007355D02*
X025238Y007355D01*
X025339Y007403D02*
X025388Y007355D01*
X025484Y007355D01*
X025533Y007403D01*
X025533Y007500D01*
X025484Y007548D01*
X025436Y007548D01*
X025339Y007500D01*
X025339Y007645D01*
X025533Y007645D01*
X028058Y009313D02*
X028106Y009265D01*
X028203Y009265D01*
X028252Y009313D01*
X028252Y009362D01*
X028203Y009410D01*
X028106Y009410D01*
X028058Y009458D01*
X028058Y009507D01*
X028106Y009555D01*
X028203Y009555D01*
X028252Y009507D01*
X028353Y009555D02*
X028353Y009265D01*
X028546Y009265D01*
X028647Y009265D02*
X028841Y009265D01*
X028647Y009265D02*
X028647Y009555D01*
X028546Y009555D02*
X028353Y009555D01*
X028353Y009410D02*
X028449Y009410D01*
X024694Y014015D02*
X024500Y014015D01*
X024597Y014015D02*
X024597Y014305D01*
X024500Y014208D01*
X024399Y014305D02*
X024399Y014015D01*
X024205Y014015D02*
X024205Y014305D01*
X024302Y014208D01*
X024399Y014305D01*
D11*
X010977Y008303D02*
X009993Y008303D01*
X009993Y008697D01*
X010977Y008697D01*
X010977Y008303D01*
X013485Y005700D02*
X016485Y005700D01*
X016485Y004700D01*
X013485Y004700D01*
X013485Y005700D01*
X017001Y008000D02*
X017003Y008062D01*
X017009Y008125D01*
X017019Y008186D01*
X017033Y008247D01*
X017050Y008307D01*
X017071Y008366D01*
X017097Y008423D01*
X017125Y008478D01*
X017157Y008532D01*
X017193Y008583D01*
X017231Y008633D01*
X017273Y008679D01*
X017317Y008723D01*
X017365Y008764D01*
X017414Y008802D01*
X017466Y008836D01*
X017520Y008867D01*
X017576Y008895D01*
X017634Y008919D01*
X017693Y008940D01*
X017753Y008956D01*
X017814Y008969D01*
X017876Y008978D01*
X017938Y008983D01*
X018001Y008984D01*
X018063Y008981D01*
X018125Y008974D01*
X018187Y008963D01*
X018247Y008948D01*
X018307Y008930D01*
X018365Y008908D01*
X018422Y008882D01*
X018477Y008852D01*
X018530Y008819D01*
X018581Y008783D01*
X018629Y008744D01*
X018675Y008701D01*
X018718Y008656D01*
X018758Y008608D01*
X018795Y008558D01*
X018829Y008505D01*
X018860Y008451D01*
X018886Y008395D01*
X018910Y008337D01*
X018929Y008277D01*
X018945Y008217D01*
X018957Y008155D01*
X018965Y008094D01*
X018969Y008031D01*
X018969Y007969D01*
X018965Y007906D01*
X018957Y007845D01*
X018945Y007783D01*
X018929Y007723D01*
X018910Y007663D01*
X018886Y007605D01*
X018860Y007549D01*
X018829Y007495D01*
X018795Y007442D01*
X018758Y007392D01*
X018718Y007344D01*
X018675Y007299D01*
X018629Y007256D01*
X018581Y007217D01*
X018530Y007181D01*
X018477Y007148D01*
X018422Y007118D01*
X018365Y007092D01*
X018307Y007070D01*
X018247Y007052D01*
X018187Y007037D01*
X018125Y007026D01*
X018063Y007019D01*
X018001Y007016D01*
X017938Y007017D01*
X017876Y007022D01*
X017814Y007031D01*
X017753Y007044D01*
X017693Y007060D01*
X017634Y007081D01*
X017576Y007105D01*
X017520Y007133D01*
X017466Y007164D01*
X017414Y007198D01*
X017365Y007236D01*
X017317Y007277D01*
X017273Y007321D01*
X017231Y007367D01*
X017193Y007417D01*
X017157Y007468D01*
X017125Y007522D01*
X017097Y007577D01*
X017071Y007634D01*
X017050Y007693D01*
X017033Y007753D01*
X017019Y007814D01*
X017009Y007875D01*
X017003Y007938D01*
X017001Y008000D01*
X018182Y008591D02*
X018379Y008591D01*
X018379Y008787D01*
X018379Y008591D02*
X018379Y008394D01*
X018379Y008591D02*
X018576Y008591D01*
X021493Y006697D02*
X021493Y006303D01*
X022477Y006303D01*
X022477Y006697D01*
X021493Y006697D01*
X023493Y006697D02*
X023493Y006303D01*
X024477Y006303D01*
X024477Y006697D01*
X023493Y006697D01*
X027485Y006000D02*
X027485Y009000D01*
X029485Y009000D01*
X029485Y006000D01*
X027485Y006000D01*
X028835Y010300D02*
X028835Y010500D01*
X029135Y010300D01*
X029135Y010700D01*
X028835Y010500D01*
X028835Y010700D01*
X028835Y011300D02*
X028835Y011500D01*
X029135Y011300D01*
X029135Y011700D01*
X028835Y011500D01*
X028835Y011700D01*
X028835Y012300D02*
X028835Y012500D01*
X029135Y012300D01*
X029135Y012700D01*
X028835Y012500D01*
X028835Y012700D01*
X028835Y013300D02*
X028835Y013500D01*
X029135Y013300D01*
X029135Y013700D01*
X028835Y013500D01*
X028835Y013700D01*
X028835Y014300D02*
X028835Y014500D01*
X029135Y014300D01*
X029135Y014700D01*
X028835Y014500D01*
X028835Y014700D01*
X028835Y015300D02*
X028835Y015500D01*
X029135Y015300D01*
X029135Y015700D01*
X028835Y015500D01*
X028835Y015700D01*
X028835Y016300D02*
X028835Y016500D01*
X029135Y016300D01*
X029135Y016700D01*
X028835Y016500D01*
X028835Y016700D01*
X028835Y017300D02*
X028835Y017500D01*
X029135Y017300D01*
X029135Y017700D01*
X028835Y017500D01*
X028835Y017700D01*
X029485Y019000D02*
X027485Y019000D01*
X027485Y022000D01*
X029485Y022000D01*
X029485Y019000D01*
X028885Y022800D02*
X028685Y023000D01*
X028885Y023200D01*
X028885Y022800D01*
X028685Y022800D02*
X028685Y023000D01*
X028685Y023200D01*
X028685Y023800D02*
X028685Y024000D01*
X028885Y024200D01*
X028885Y023800D01*
X028685Y024000D01*
X028685Y024200D01*
X028685Y024800D02*
X028685Y025000D01*
X028885Y025200D01*
X028885Y024800D01*
X028685Y025000D01*
X028685Y025200D01*
X028685Y025800D02*
X028685Y026000D01*
X028885Y026200D01*
X028885Y025800D01*
X028685Y026000D01*
X028685Y026200D01*
X019969Y026287D02*
X019969Y025894D01*
X019772Y025894D01*
X019772Y026287D01*
X019969Y026287D01*
X019772Y026287D02*
X018198Y026287D01*
X018001Y026287D01*
X018001Y025894D01*
X018198Y025894D01*
X018198Y025106D01*
X018001Y025106D01*
X018001Y024713D01*
X018198Y024713D01*
X019772Y024713D01*
X019969Y024713D01*
X019969Y025106D01*
X019772Y025106D01*
X019772Y025894D01*
X019772Y025106D02*
X019772Y024713D01*
X018394Y025500D02*
X018396Y025548D01*
X018402Y025596D01*
X018412Y025643D01*
X018425Y025689D01*
X018443Y025734D01*
X018463Y025778D01*
X018488Y025820D01*
X018516Y025859D01*
X018546Y025896D01*
X018580Y025930D01*
X018617Y025962D01*
X018655Y025991D01*
X018696Y026016D01*
X018739Y026038D01*
X018784Y026056D01*
X018830Y026070D01*
X018877Y026081D01*
X018925Y026088D01*
X018973Y026091D01*
X019021Y026090D01*
X019069Y026085D01*
X019117Y026076D01*
X019163Y026064D01*
X019208Y026047D01*
X019252Y026027D01*
X019294Y026004D01*
X019334Y025977D01*
X019372Y025947D01*
X019407Y025914D01*
X019439Y025878D01*
X019469Y025840D01*
X019495Y025799D01*
X019517Y025756D01*
X019537Y025712D01*
X019552Y025667D01*
X019564Y025620D01*
X019572Y025572D01*
X019576Y025524D01*
X019576Y025476D01*
X019572Y025428D01*
X019564Y025380D01*
X019552Y025333D01*
X019537Y025288D01*
X019517Y025244D01*
X019495Y025201D01*
X019469Y025160D01*
X019439Y025122D01*
X019407Y025086D01*
X019372Y025053D01*
X019334Y025023D01*
X019294Y024996D01*
X019252Y024973D01*
X019208Y024953D01*
X019163Y024936D01*
X019117Y024924D01*
X019069Y024915D01*
X019021Y024910D01*
X018973Y024909D01*
X018925Y024912D01*
X018877Y024919D01*
X018830Y024930D01*
X018784Y024944D01*
X018739Y024962D01*
X018696Y024984D01*
X018655Y025009D01*
X018617Y025038D01*
X018580Y025070D01*
X018546Y025104D01*
X018516Y025141D01*
X018488Y025180D01*
X018463Y025222D01*
X018443Y025266D01*
X018425Y025311D01*
X018412Y025357D01*
X018402Y025404D01*
X018396Y025452D01*
X018394Y025500D01*
X018198Y025894D02*
X018198Y026287D01*
X018198Y025106D02*
X018198Y024713D01*
X016485Y025800D02*
X013485Y025800D01*
X013485Y026800D01*
X016485Y026800D01*
X016485Y025800D01*
X010977Y023697D02*
X010977Y023303D01*
X009993Y023303D01*
X009993Y023697D01*
X010977Y023697D01*
X010977Y020697D02*
X009993Y020697D01*
X009993Y020303D01*
X010977Y020303D01*
X010977Y020697D01*
X012923Y016778D02*
X012923Y016222D01*
X015707Y013438D01*
X016263Y013438D01*
X019047Y016222D01*
X019047Y016778D01*
X016263Y019562D01*
X015707Y019562D01*
X012923Y016778D01*
X017818Y016500D02*
X017820Y016539D01*
X017826Y016578D01*
X017836Y016616D01*
X017849Y016653D01*
X017866Y016688D01*
X017886Y016722D01*
X017910Y016753D01*
X017937Y016782D01*
X017966Y016808D01*
X017998Y016831D01*
X018032Y016851D01*
X018068Y016867D01*
X018105Y016879D01*
X018144Y016888D01*
X018183Y016893D01*
X018222Y016894D01*
X018261Y016891D01*
X018300Y016884D01*
X018337Y016873D01*
X018374Y016859D01*
X018409Y016841D01*
X018442Y016820D01*
X018473Y016795D01*
X018501Y016768D01*
X018526Y016738D01*
X018548Y016705D01*
X018567Y016671D01*
X018582Y016635D01*
X018594Y016597D01*
X018602Y016559D01*
X018606Y016520D01*
X018606Y016480D01*
X018602Y016441D01*
X018594Y016403D01*
X018582Y016365D01*
X018567Y016329D01*
X018548Y016295D01*
X018526Y016262D01*
X018501Y016232D01*
X018473Y016205D01*
X018442Y016180D01*
X018409Y016159D01*
X018374Y016141D01*
X018337Y016127D01*
X018300Y016116D01*
X018261Y016109D01*
X018222Y016106D01*
X018183Y016107D01*
X018144Y016112D01*
X018105Y016121D01*
X018068Y016133D01*
X018032Y016149D01*
X017998Y016169D01*
X017966Y016192D01*
X017937Y016218D01*
X017910Y016247D01*
X017886Y016278D01*
X017866Y016312D01*
X017849Y016347D01*
X017836Y016384D01*
X017826Y016422D01*
X017820Y016461D01*
X017818Y016500D01*
X020501Y013400D02*
X020503Y013462D01*
X020509Y013525D01*
X020519Y013586D01*
X020533Y013647D01*
X020550Y013707D01*
X020571Y013766D01*
X020597Y013823D01*
X020625Y013878D01*
X020657Y013932D01*
X020693Y013983D01*
X020731Y014033D01*
X020773Y014079D01*
X020817Y014123D01*
X020865Y014164D01*
X020914Y014202D01*
X020966Y014236D01*
X021020Y014267D01*
X021076Y014295D01*
X021134Y014319D01*
X021193Y014340D01*
X021253Y014356D01*
X021314Y014369D01*
X021376Y014378D01*
X021438Y014383D01*
X021501Y014384D01*
X021563Y014381D01*
X021625Y014374D01*
X021687Y014363D01*
X021747Y014348D01*
X021807Y014330D01*
X021865Y014308D01*
X021922Y014282D01*
X021977Y014252D01*
X022030Y014219D01*
X022081Y014183D01*
X022129Y014144D01*
X022175Y014101D01*
X022218Y014056D01*
X022258Y014008D01*
X022295Y013958D01*
X022329Y013905D01*
X022360Y013851D01*
X022386Y013795D01*
X022410Y013737D01*
X022429Y013677D01*
X022445Y013617D01*
X022457Y013555D01*
X022465Y013494D01*
X022469Y013431D01*
X022469Y013369D01*
X022465Y013306D01*
X022457Y013245D01*
X022445Y013183D01*
X022429Y013123D01*
X022410Y013063D01*
X022386Y013005D01*
X022360Y012949D01*
X022329Y012895D01*
X022295Y012842D01*
X022258Y012792D01*
X022218Y012744D01*
X022175Y012699D01*
X022129Y012656D01*
X022081Y012617D01*
X022030Y012581D01*
X021977Y012548D01*
X021922Y012518D01*
X021865Y012492D01*
X021807Y012470D01*
X021747Y012452D01*
X021687Y012437D01*
X021625Y012426D01*
X021563Y012419D01*
X021501Y012416D01*
X021438Y012417D01*
X021376Y012422D01*
X021314Y012431D01*
X021253Y012444D01*
X021193Y012460D01*
X021134Y012481D01*
X021076Y012505D01*
X021020Y012533D01*
X020966Y012564D01*
X020914Y012598D01*
X020865Y012636D01*
X020817Y012677D01*
X020773Y012721D01*
X020731Y012767D01*
X020693Y012817D01*
X020657Y012868D01*
X020625Y012922D01*
X020597Y012977D01*
X020571Y013034D01*
X020550Y013093D01*
X020533Y013153D01*
X020519Y013214D01*
X020509Y013275D01*
X020503Y013338D01*
X020501Y013400D01*
X021682Y013991D02*
X021879Y013991D01*
X021879Y014187D01*
X021879Y013991D02*
X021879Y013794D01*
X021879Y013991D02*
X022076Y013991D01*
X010977Y011697D02*
X010977Y011303D01*
X009993Y011303D01*
X009993Y011697D01*
X010977Y011697D01*
D12*
X025957Y024770D02*
X025957Y025077D01*
X026110Y025230D01*
X026263Y025077D01*
X026263Y024770D01*
X026417Y024770D02*
X026724Y024770D01*
X026877Y024770D02*
X027031Y024770D01*
X026954Y024770D02*
X026954Y025230D01*
X026877Y025230D02*
X027031Y025230D01*
X027184Y025230D02*
X027184Y024923D01*
X027338Y024770D01*
X027491Y024923D01*
X027491Y025230D01*
X027645Y025230D02*
X027645Y024770D01*
X027952Y024770D01*
X027798Y025000D02*
X027645Y025000D01*
X027645Y025230D02*
X027952Y025230D01*
X027952Y025770D02*
X027798Y025923D01*
X027875Y025923D02*
X027645Y025923D01*
X027645Y025770D02*
X027645Y026230D01*
X027875Y026230D01*
X027952Y026154D01*
X027952Y026000D01*
X027875Y025923D01*
X027491Y025770D02*
X027491Y026230D01*
X027184Y026230D02*
X027184Y025770D01*
X027338Y025923D01*
X027491Y025770D01*
X027031Y026000D02*
X027031Y026154D01*
X026954Y026230D01*
X026724Y026230D01*
X026724Y025770D01*
X026724Y025923D02*
X026954Y025923D01*
X027031Y026000D01*
X026417Y025230D02*
X026417Y024770D01*
X026263Y025000D02*
X025957Y025000D01*
X026417Y024230D02*
X026647Y024230D01*
X026724Y024154D01*
X026724Y024000D01*
X026647Y023923D01*
X026417Y023923D01*
X026417Y023770D02*
X026417Y024230D01*
X026877Y024230D02*
X027031Y024230D01*
X026954Y024230D02*
X026954Y023770D01*
X026877Y023770D02*
X027031Y023770D01*
X027184Y023770D02*
X027184Y024230D01*
X027491Y023770D01*
X027491Y024230D01*
X027645Y024154D02*
X027645Y023847D01*
X027721Y023770D01*
X027875Y023770D01*
X027952Y023847D01*
X027952Y024000D01*
X027798Y024000D01*
X027645Y024154D02*
X027721Y024230D01*
X027875Y024230D01*
X027952Y024154D01*
X027875Y023230D02*
X027645Y023230D01*
X027645Y022770D01*
X027875Y022770D01*
X027952Y022847D01*
X027952Y023154D01*
X027875Y023230D01*
X027491Y023230D02*
X027491Y022770D01*
X027184Y022770D02*
X027184Y023230D01*
X027338Y023077D01*
X027491Y023230D01*
X027031Y023154D02*
X026954Y023230D01*
X026801Y023230D01*
X026724Y023154D01*
X026724Y022847D01*
X026801Y022770D01*
X026954Y022770D01*
X027031Y022847D01*
X027159Y022480D02*
X027005Y022327D01*
X027159Y022480D02*
X027159Y022020D01*
X027312Y022020D02*
X027005Y022020D01*
X027159Y009480D02*
X027159Y009020D01*
X027312Y009020D02*
X027005Y009020D01*
X027005Y009327D02*
X027159Y009480D01*
M02*
