G75*
%MOIN*%
%OFA0B0*%
%FSLAX24Y24*%
%IPPOS*%
%LPD*%
%AMOC8*
5,1,8,0,0,1.08239X$1,22.5*
%
%ADD10C,0.0030*%
%ADD11R,0.2000X0.2500*%
%ADD12R,0.0250X0.0050*%
%ADD13R,0.0450X0.0050*%
%ADD14R,0.1100X0.0050*%
%ADD15R,0.1150X0.0050*%
%ADD16R,0.1350X0.0050*%
%ADD17R,0.1450X0.0050*%
%ADD18R,0.1600X0.0050*%
%ADD19R,0.1700X0.0050*%
%ADD20R,0.1750X0.0050*%
%ADD21R,0.1850X0.0050*%
%ADD22R,0.1950X0.0050*%
%ADD23R,0.2000X0.0050*%
%ADD24R,0.0950X0.0050*%
%ADD25R,0.0800X0.0050*%
%ADD26R,0.0900X0.0050*%
%ADD27R,0.0750X0.0050*%
%ADD28R,0.0850X0.0050*%
%ADD29R,0.0700X0.0050*%
%ADD30R,0.0600X0.0050*%
%ADD31R,0.0550X0.0050*%
%ADD32R,0.0500X0.0050*%
%ADD33R,0.0400X0.0050*%
%ADD34R,0.0100X0.0050*%
%ADD35R,0.0200X0.0050*%
%ADD36R,0.0350X0.0050*%
%ADD37R,0.2150X0.0050*%
%ADD38R,0.2100X0.0050*%
%ADD39R,0.2050X0.0050*%
%ADD40R,0.1300X0.0050*%
%ADD41R,0.1200X0.0050*%
%ADD42R,0.1050X0.0050*%
%ADD43R,0.0300X0.0050*%
%ADD44C,0.0050*%
D10*
X025487Y022403D02*
X025536Y022355D01*
X025632Y022355D01*
X025681Y022403D01*
X025487Y022597D01*
X025487Y022403D01*
X025681Y022403D02*
X025681Y022597D01*
X025632Y022645D01*
X025536Y022645D01*
X025487Y022597D01*
X025782Y022597D02*
X025782Y022548D01*
X025975Y022355D01*
X025782Y022355D01*
X025782Y022597D02*
X025830Y022645D01*
X025927Y022645D01*
X025975Y022597D01*
X026077Y022597D02*
X026077Y022500D01*
X026125Y022452D01*
X026270Y022452D01*
X026173Y022452D02*
X026077Y022355D01*
X026270Y022355D02*
X026270Y022645D01*
X026125Y022645D01*
X026077Y022597D01*
X026077Y023355D02*
X026173Y023452D01*
X026125Y023452D02*
X026270Y023452D01*
X026270Y023355D02*
X026270Y023645D01*
X026125Y023645D01*
X026077Y023597D01*
X026077Y023500D01*
X026125Y023452D01*
X025975Y023548D02*
X025879Y023645D01*
X025879Y023355D01*
X025975Y023355D02*
X025782Y023355D01*
X025681Y023403D02*
X025632Y023355D01*
X025536Y023355D01*
X025487Y023403D01*
X025487Y023597D01*
X025536Y023645D01*
X025632Y023645D01*
X025681Y023597D01*
X025681Y023548D01*
X025632Y023500D01*
X025487Y023500D01*
X025536Y024355D02*
X025632Y024355D01*
X025681Y024403D01*
X025681Y024452D01*
X025632Y024500D01*
X025536Y024500D01*
X025487Y024452D01*
X025487Y024403D01*
X025536Y024355D01*
X025536Y024500D02*
X025487Y024548D01*
X025487Y024597D01*
X025536Y024645D01*
X025632Y024645D01*
X025681Y024597D01*
X025681Y024548D01*
X025632Y024500D01*
X025782Y024355D02*
X025975Y024355D01*
X025879Y024355D02*
X025879Y024645D01*
X025975Y024548D01*
X026077Y024500D02*
X026125Y024452D01*
X026270Y024452D01*
X026173Y024452D02*
X026077Y024355D01*
X026077Y024500D02*
X026077Y024597D01*
X026125Y024645D01*
X026270Y024645D01*
X026270Y024355D01*
X027166Y016676D02*
X027166Y016386D01*
X027263Y016386D02*
X027069Y016386D01*
X027263Y016580D02*
X027166Y016676D01*
X027364Y016628D02*
X027412Y016676D01*
X027557Y016676D01*
X027557Y016386D01*
X027412Y016386D01*
X027364Y016434D01*
X027364Y016628D01*
X013170Y025763D02*
X013122Y025715D01*
X013025Y025715D01*
X012977Y025763D01*
X012977Y025812D01*
X013025Y025860D01*
X013122Y025860D01*
X013170Y025908D01*
X013170Y025957D01*
X013122Y026005D01*
X013025Y026005D01*
X012977Y025957D01*
X012875Y025908D02*
X012779Y025908D01*
X012827Y025957D02*
X012827Y025763D01*
X012779Y025715D01*
X012679Y025763D02*
X012679Y025860D01*
X012631Y025908D01*
X012534Y025908D01*
X012485Y025860D01*
X012485Y025812D01*
X012679Y025812D01*
X012679Y025763D02*
X012631Y025715D01*
X012534Y025715D01*
X012384Y025908D02*
X012288Y025715D01*
X012191Y025908D01*
X012090Y025860D02*
X012090Y025763D01*
X012041Y025715D01*
X011945Y025715D01*
X011896Y025812D02*
X012090Y025812D01*
X012090Y025860D02*
X012041Y025908D01*
X011945Y025908D01*
X011896Y025860D01*
X011896Y025812D01*
X011795Y025908D02*
X011795Y025715D01*
X011795Y025908D02*
X011650Y025908D01*
X011601Y025860D01*
X011601Y025715D01*
X011206Y025715D02*
X011061Y025715D01*
X011012Y025763D01*
X011012Y025812D01*
X011061Y025860D01*
X011206Y025860D01*
X011206Y025715D02*
X011206Y026005D01*
X011061Y026005D01*
X011012Y025957D01*
X011012Y025908D01*
X011061Y025860D01*
X010911Y025812D02*
X010814Y025908D01*
X010766Y025908D01*
X010911Y025908D02*
X010911Y025715D01*
X010665Y025763D02*
X010617Y025812D01*
X010472Y025812D01*
X010472Y025860D02*
X010472Y025715D01*
X010617Y025715D01*
X010665Y025763D01*
X010617Y025908D02*
X010520Y025908D01*
X010472Y025860D01*
X010371Y025908D02*
X010226Y025908D01*
X010177Y025860D01*
X010177Y025715D01*
X010076Y025763D02*
X010076Y025860D01*
X010028Y025908D01*
X009883Y025908D01*
X009883Y026005D02*
X009883Y025715D01*
X010028Y025715D01*
X010076Y025763D01*
X010371Y025715D02*
X010371Y025908D01*
X010469Y026195D02*
X010469Y026388D01*
X010469Y026292D02*
X010372Y026388D01*
X010324Y026388D01*
X010224Y026340D02*
X010224Y026243D01*
X010175Y026195D01*
X010078Y026195D01*
X010030Y026243D01*
X010030Y026340D01*
X010078Y026388D01*
X010175Y026388D01*
X010224Y026340D01*
X009929Y026195D02*
X009832Y026195D01*
X009880Y026195D02*
X009880Y026485D01*
X009929Y026485D01*
X009438Y026485D02*
X009438Y026195D01*
X009244Y026195D01*
X009143Y026243D02*
X009095Y026195D01*
X008998Y026195D01*
X008950Y026243D01*
X008950Y026340D01*
X008998Y026388D01*
X009095Y026388D01*
X009143Y026340D01*
X009143Y026243D01*
X009194Y026005D02*
X009097Y025908D01*
X009097Y025715D01*
X008996Y025715D02*
X008851Y025715D01*
X008802Y025763D01*
X008802Y025860D01*
X008851Y025908D01*
X008996Y025908D01*
X008996Y025618D01*
X009097Y025860D02*
X009290Y025860D01*
X009290Y025908D02*
X009194Y026005D01*
X009290Y025908D02*
X009290Y025715D01*
X009685Y025715D02*
X009733Y025763D01*
X009733Y025957D01*
X009685Y025908D02*
X009782Y025908D01*
X010569Y026195D02*
X010617Y026243D01*
X010617Y026437D01*
X010665Y026388D02*
X010569Y026388D01*
X010767Y026340D02*
X010767Y026195D01*
X010767Y026340D02*
X010815Y026388D01*
X010960Y026388D01*
X010960Y026195D01*
X011061Y026243D02*
X011061Y026340D01*
X011110Y026388D01*
X011206Y026388D01*
X011255Y026340D01*
X011255Y026243D01*
X011206Y026195D01*
X011110Y026195D01*
X011061Y026243D01*
X011356Y026243D02*
X011404Y026195D01*
X011501Y026195D01*
X011549Y026243D01*
X011549Y026437D01*
X011501Y026485D01*
X011404Y026485D01*
X011356Y026437D01*
X011945Y026388D02*
X011993Y026388D01*
X012090Y026292D01*
X012090Y026388D02*
X012090Y026195D01*
X012191Y026243D02*
X012191Y026340D01*
X012239Y026388D01*
X012336Y026388D01*
X012384Y026340D01*
X012384Y026243D01*
X012336Y026195D01*
X012239Y026195D01*
X012191Y026243D01*
X012484Y026195D02*
X012532Y026243D01*
X012532Y026437D01*
X012484Y026388D02*
X012581Y026388D01*
X012682Y026340D02*
X012730Y026388D01*
X012827Y026388D01*
X012875Y026340D01*
X012875Y026243D01*
X012827Y026195D01*
X012730Y026195D01*
X012682Y026243D01*
X012682Y026340D01*
X012977Y026485D02*
X012977Y026195D01*
X013170Y026195D02*
X013170Y026485D01*
X013073Y026388D01*
X012977Y026485D01*
X008848Y026340D02*
X008848Y026243D01*
X008800Y026195D01*
X008655Y026195D01*
X008655Y026147D02*
X008655Y026388D01*
X008800Y026388D01*
X008848Y026340D01*
X008752Y026098D02*
X008703Y026098D01*
X008655Y026147D01*
X008554Y026195D02*
X008457Y026195D01*
X008505Y026195D02*
X008505Y026388D01*
X008554Y026388D01*
X008505Y026485D02*
X008505Y026534D01*
X008357Y026340D02*
X008357Y026243D01*
X008309Y026195D01*
X008164Y026195D01*
X008164Y026388D02*
X008309Y026388D01*
X008357Y026340D01*
X008113Y026005D02*
X008016Y026005D01*
X007967Y025957D01*
X007967Y025908D01*
X008161Y025715D01*
X007967Y025715D01*
X007866Y025763D02*
X007673Y025957D01*
X007673Y025763D01*
X007721Y025715D01*
X007818Y025715D01*
X007866Y025763D01*
X007866Y025957D01*
X007818Y026005D01*
X007721Y026005D01*
X007673Y025957D01*
X007572Y025908D02*
X007475Y026005D01*
X007475Y025715D01*
X007572Y025715D02*
X007378Y025715D01*
X007277Y025715D02*
X007277Y025763D01*
X007084Y025957D01*
X007084Y026005D01*
X007277Y026005D01*
X007473Y026195D02*
X007473Y026243D01*
X007280Y026437D01*
X007280Y026485D01*
X007473Y026485D01*
X007575Y026485D02*
X007575Y026292D01*
X007671Y026195D01*
X007768Y026292D01*
X007768Y026485D01*
X008113Y026005D02*
X008161Y025957D01*
X008556Y025908D02*
X008604Y025908D01*
X008701Y025812D01*
X008701Y025908D02*
X008701Y025715D01*
D11*
X012085Y023850D03*
D12*
X008685Y022450D03*
X008685Y022500D03*
X008685Y022550D03*
X009135Y022550D03*
X009135Y022500D03*
X009135Y022450D03*
D13*
X009235Y022600D03*
X009235Y022650D03*
X009235Y022700D03*
X009235Y022750D03*
X009235Y022800D03*
X008585Y022800D03*
X008585Y022750D03*
X008585Y022700D03*
X008585Y022650D03*
X008585Y022600D03*
X007985Y024600D03*
X009785Y024650D03*
D14*
X008910Y022900D03*
X008910Y022850D03*
D15*
X008885Y022950D03*
D16*
X008885Y023000D03*
D17*
X008885Y023050D03*
X008885Y025100D03*
D18*
X008910Y025050D03*
X008910Y023100D03*
D19*
X008910Y023150D03*
X008910Y025000D03*
D20*
X008935Y024950D03*
X008885Y023200D03*
D21*
X008885Y023250D03*
X008935Y024900D03*
D22*
X008935Y024850D03*
X008885Y023300D03*
D23*
X008860Y023350D03*
D24*
X008285Y023400D03*
X008235Y023450D03*
D25*
X008110Y023850D03*
X008110Y023900D03*
X008110Y023950D03*
X008110Y024000D03*
X008110Y024050D03*
X009460Y023400D03*
X009510Y023450D03*
X009610Y023600D03*
X009660Y023650D03*
X009660Y023700D03*
X009710Y023850D03*
D26*
X008210Y023500D03*
X008160Y023600D03*
X008110Y024250D03*
X008110Y024300D03*
X008110Y024350D03*
D27*
X009535Y023500D03*
X009585Y023550D03*
D28*
X009685Y023750D03*
X009685Y023800D03*
X009735Y023900D03*
X009735Y023950D03*
X009735Y024000D03*
X009735Y024050D03*
X009735Y024100D03*
X009735Y024150D03*
X009735Y024200D03*
X009685Y024250D03*
X009685Y024300D03*
X009685Y024350D03*
X008135Y023800D03*
X008135Y023750D03*
X008135Y023700D03*
X008135Y023650D03*
X008185Y023550D03*
X008085Y024100D03*
X008085Y024150D03*
X008085Y024200D03*
D29*
X008010Y024400D03*
D30*
X009760Y024400D03*
D31*
X007985Y024450D03*
D32*
X007960Y024500D03*
X007960Y024550D03*
X008010Y024650D03*
X008860Y025300D03*
X009810Y024450D03*
D33*
X009810Y024500D03*
X009810Y024550D03*
X009810Y024600D03*
D34*
X009160Y024550D03*
X008660Y024550D03*
D35*
X008660Y024600D03*
X009160Y024600D03*
D36*
X009185Y024650D03*
X008635Y024650D03*
D37*
X008885Y024700D03*
D38*
X008910Y024750D03*
D39*
X008885Y024800D03*
D40*
X008860Y025150D03*
D41*
X008860Y025200D03*
D42*
X008885Y025250D03*
D43*
X008860Y025350D03*
D44*
X027720Y016657D02*
X028035Y016657D01*
X028035Y016815D01*
X028035Y016657D02*
X028350Y016657D01*
X028035Y016303D01*
X028035Y016185D01*
X028035Y016303D02*
X027720Y016657D01*
X027720Y016303D02*
X028035Y016303D01*
X028350Y016303D01*
M02*
