G75*
%MOIN*%
%OFA0B0*%
%FSLAX24Y24*%
%IPPOS*%
%LPD*%
%AMOC8*
5,1,8,0,0,1.08239X$1,22.5*
%
%ADD10R,0.0472X0.0472*%
%ADD11C,0.0472*%
%ADD12R,0.0660X0.0660*%
%ADD13C,0.0660*%
%ADD14C,0.0591*%
%ADD15R,0.0650X0.0650*%
%ADD16C,0.0650*%
%ADD17R,0.0276X0.1654*%
%ADD18R,0.0276X0.1260*%
%ADD19R,0.0354X0.0512*%
%ADD20R,0.0394X0.0528*%
%ADD21C,0.0120*%
%ADD22C,0.0240*%
%ADD23C,0.0376*%
%ADD24C,0.0100*%
%ADD25C,0.0160*%
D10*
X018379Y008000D03*
X021879Y013400D03*
D11*
X021091Y013400D03*
X017591Y008000D03*
D12*
X013985Y005200D03*
X027985Y008500D03*
X027985Y021500D03*
X013985Y026300D03*
D13*
X014985Y026300D03*
X015985Y026300D03*
X027985Y020500D03*
X027985Y019500D03*
X028985Y019500D03*
X028985Y020500D03*
X028985Y021500D03*
X028985Y008500D03*
X028985Y007500D03*
X028985Y006500D03*
X027985Y006500D03*
X027985Y007500D03*
X015985Y005200D03*
X014985Y005200D03*
D14*
X017706Y024614D03*
X017706Y026386D03*
X020265Y026386D03*
X020265Y024614D03*
D15*
X023985Y023500D03*
X023985Y013500D03*
X006686Y019047D03*
X006686Y006547D03*
D16*
X006686Y007728D03*
X006686Y008909D03*
X006686Y010091D03*
X006686Y011272D03*
X006686Y012453D03*
X006686Y020228D03*
X006686Y021409D03*
X006686Y022591D03*
X006686Y023772D03*
X006686Y024953D03*
X023985Y022500D03*
X023985Y021500D03*
X024985Y021500D03*
X024985Y022500D03*
X024985Y023500D03*
X024985Y020500D03*
X023985Y020500D03*
X024985Y013500D03*
X024985Y012500D03*
X023985Y012500D03*
X023985Y011500D03*
X024985Y011500D03*
X024985Y010500D03*
X023985Y010500D03*
D17*
X023784Y001941D03*
X023391Y001941D03*
X022997Y001941D03*
X022603Y001941D03*
X022209Y001941D03*
X021816Y001941D03*
X021422Y001941D03*
X021028Y001941D03*
X025753Y001941D03*
X026146Y001941D03*
X026540Y001941D03*
X026934Y001941D03*
X027328Y001941D03*
D18*
X020635Y002138D03*
D19*
X026572Y022500D03*
X027398Y022500D03*
X027398Y023500D03*
X026572Y023500D03*
X026572Y024500D03*
X027398Y024500D03*
D20*
X028035Y017063D03*
X028035Y015937D03*
D21*
X004293Y004763D02*
X004248Y004808D01*
X004223Y004868D01*
X004220Y004900D01*
X004220Y007149D01*
X004306Y006940D01*
X004532Y006715D01*
X004826Y006593D01*
X005144Y006593D01*
X005439Y006715D01*
X005664Y006940D01*
X005786Y007234D01*
X005786Y007553D01*
X005664Y007847D01*
X006215Y007847D01*
X006213Y007842D02*
X006203Y007777D01*
X006638Y007777D01*
X006638Y008212D01*
X006572Y008201D01*
X006500Y008178D01*
X006432Y008143D01*
X006370Y008098D01*
X006316Y008044D01*
X006271Y007982D01*
X006237Y007914D01*
X006213Y007842D01*
X006263Y007966D02*
X005545Y007966D01*
X005439Y008072D02*
X005144Y008194D01*
X004826Y008194D01*
X004532Y008072D01*
X004306Y007847D01*
X004220Y007847D01*
X004306Y007847D02*
X004220Y007639D01*
X004220Y011361D01*
X004306Y011153D01*
X004532Y010928D01*
X004826Y010806D01*
X005144Y010806D01*
X005439Y010928D01*
X006400Y010928D01*
X006434Y010895D02*
X006597Y010827D01*
X006774Y010827D01*
X006938Y010895D01*
X007063Y011020D01*
X007131Y011183D01*
X007131Y011360D01*
X007063Y011524D01*
X006938Y011649D01*
X006774Y011716D01*
X006597Y011716D01*
X006464Y011661D01*
X006255Y011870D01*
X006255Y012330D01*
X006309Y012201D01*
X006434Y012076D01*
X006597Y012008D01*
X006774Y012008D01*
X006938Y012076D01*
X007063Y012201D01*
X007097Y012283D01*
X013308Y012283D01*
X013408Y012382D01*
X014919Y013894D01*
X014924Y013892D01*
X015046Y013892D01*
X015160Y013939D01*
X015246Y014025D01*
X015293Y014139D01*
X015293Y014251D01*
X016015Y013530D01*
X016015Y011470D01*
X015851Y011306D01*
X015846Y011308D01*
X015724Y011308D01*
X015611Y011261D01*
X015524Y011175D01*
X015477Y011061D01*
X015477Y010939D01*
X015524Y010825D01*
X015611Y010739D01*
X015724Y010692D01*
X015846Y010692D01*
X015960Y010739D01*
X016046Y010825D01*
X016085Y010919D01*
X016124Y010825D01*
X016211Y010739D01*
X016324Y010692D01*
X016446Y010692D01*
X016560Y010739D01*
X016646Y010825D01*
X016693Y010939D01*
X016693Y011061D01*
X016646Y011175D01*
X016560Y011261D01*
X016555Y011263D01*
X016555Y013770D01*
X013993Y016332D01*
X013993Y016361D01*
X013946Y016475D01*
X013860Y016561D01*
X013746Y016608D01*
X013624Y016608D01*
X013511Y016561D01*
X013424Y016475D01*
X013377Y016361D01*
X013377Y016239D01*
X013399Y016186D01*
X013346Y016208D01*
X013224Y016208D01*
X013155Y016180D01*
X013155Y016537D01*
X013160Y016539D01*
X013246Y016625D01*
X013293Y016739D01*
X013293Y016751D01*
X013315Y016730D01*
X014315Y016730D01*
X018837Y012208D01*
X018724Y012208D01*
X018611Y012161D01*
X018524Y012075D01*
X018477Y011961D01*
X018477Y011839D01*
X018479Y011834D01*
X018308Y011664D01*
X018209Y011564D01*
X018209Y008356D01*
X018093Y008356D01*
X018023Y008286D01*
X018023Y007714D01*
X018093Y007644D01*
X018665Y007644D01*
X018735Y007714D01*
X018735Y008035D01*
X019057Y008300D01*
X019068Y008300D01*
X019120Y008352D01*
X019176Y008398D01*
X019177Y008409D01*
X019185Y008417D01*
X019185Y008490D01*
X019192Y008563D01*
X019185Y008572D01*
X019185Y009523D01*
X019362Y009700D01*
X025668Y009700D01*
X025677Y009709D01*
X025677Y009639D01*
X025724Y009525D01*
X025805Y009444D01*
X025805Y008275D01*
X024839Y007308D01*
X024724Y007308D01*
X024611Y007261D01*
X024524Y007175D01*
X024481Y007070D01*
X023248Y007070D01*
X023246Y007075D01*
X023160Y007161D01*
X023046Y007208D01*
X022924Y007208D01*
X022811Y007161D01*
X022724Y007075D01*
X022722Y007070D01*
X021401Y007070D01*
X021302Y006970D01*
X021050Y006718D01*
X020785Y006983D01*
X020668Y007100D01*
X020202Y007100D01*
X019898Y006796D01*
X019893Y006796D01*
X019840Y006738D01*
X019785Y006683D01*
X019785Y006677D01*
X018897Y005700D01*
X018068Y005700D01*
X017893Y005875D01*
X017893Y005961D01*
X017846Y006075D01*
X017760Y006161D01*
X017646Y006208D01*
X017524Y006208D01*
X017411Y006161D01*
X017324Y006075D01*
X017277Y005961D01*
X017277Y005839D01*
X017324Y005725D01*
X017411Y005639D01*
X017524Y005592D01*
X017610Y005592D01*
X017902Y005300D01*
X018908Y005300D01*
X018912Y005296D01*
X018990Y005300D01*
X019068Y005300D01*
X019072Y005304D01*
X019077Y005304D01*
X019130Y005362D01*
X019185Y005417D01*
X019185Y005423D01*
X020130Y006462D01*
X020368Y006700D01*
X020502Y006700D01*
X020785Y006417D01*
X020785Y004617D01*
X020902Y004500D01*
X021202Y004200D01*
X021402Y004200D01*
X021485Y004117D01*
X021485Y003783D01*
X021222Y003520D01*
X021222Y003500D01*
X020925Y003500D01*
X021019Y003594D01*
X021024Y003592D01*
X021146Y003592D01*
X021260Y003639D01*
X021346Y003725D01*
X021393Y003839D01*
X021393Y003961D01*
X021346Y004075D01*
X021260Y004161D01*
X021146Y004208D01*
X021024Y004208D01*
X020911Y004161D01*
X020824Y004075D01*
X020777Y003961D01*
X020777Y003839D01*
X020779Y003834D01*
X020564Y003620D01*
X020465Y003520D01*
X020465Y003500D01*
X020220Y003500D01*
X020220Y004231D01*
X020124Y004462D01*
X019947Y004639D01*
X019716Y004735D01*
X004385Y004735D01*
X004353Y004738D01*
X004293Y004763D01*
X004290Y004766D02*
X013589Y004766D01*
X013605Y004750D02*
X014365Y004750D01*
X014435Y004820D01*
X014435Y005580D01*
X014365Y005650D01*
X013605Y005650D01*
X013535Y005580D01*
X013535Y004820D01*
X013605Y004750D01*
X013535Y004885D02*
X004222Y004885D01*
X004220Y005003D02*
X013535Y005003D01*
X013535Y005122D02*
X004220Y005122D01*
X004220Y005240D02*
X013535Y005240D01*
X013535Y005359D02*
X004220Y005359D01*
X004220Y005477D02*
X013535Y005477D01*
X013551Y005596D02*
X004220Y005596D01*
X004220Y005714D02*
X017335Y005714D01*
X017279Y005833D02*
X004220Y005833D01*
X004220Y005951D02*
X017277Y005951D01*
X017322Y006070D02*
X004220Y006070D01*
X004220Y006188D02*
X006241Y006188D01*
X006241Y006173D02*
X006311Y006102D01*
X007060Y006102D01*
X007131Y006173D01*
X007131Y006922D01*
X007060Y006992D01*
X006311Y006992D01*
X006241Y006922D01*
X006241Y006173D01*
X006241Y006307D02*
X004220Y006307D01*
X004220Y006425D02*
X006241Y006425D01*
X006241Y006544D02*
X004220Y006544D01*
X004220Y006662D02*
X004660Y006662D01*
X004466Y006781D02*
X004220Y006781D01*
X004220Y006899D02*
X004348Y006899D01*
X004274Y007018D02*
X004220Y007018D01*
X004220Y007136D02*
X004225Y007136D01*
X004220Y007729D02*
X004257Y007729D01*
X004220Y007966D02*
X004425Y007966D01*
X004560Y008084D02*
X004220Y008084D01*
X004220Y008203D02*
X006581Y008203D01*
X006638Y008203D02*
X006734Y008203D01*
X006734Y008212D02*
X006799Y008201D01*
X006872Y008178D01*
X006940Y008143D01*
X007002Y008098D01*
X007056Y008044D01*
X007100Y007982D01*
X007135Y007914D01*
X007159Y007842D01*
X007169Y007777D01*
X006734Y007777D01*
X006638Y007777D01*
X006638Y007680D01*
X006734Y007680D01*
X006734Y007245D01*
X006799Y007255D01*
X006872Y007279D01*
X006940Y007314D01*
X007002Y007359D01*
X007056Y007413D01*
X007100Y007474D01*
X007135Y007542D01*
X007159Y007615D01*
X007169Y007680D01*
X006734Y007680D01*
X006734Y007777D01*
X006734Y008212D01*
X006791Y008203D02*
X017250Y008203D01*
X017240Y008188D02*
X017210Y008116D01*
X017195Y008039D01*
X017195Y008019D01*
X017573Y008019D01*
X017573Y008396D01*
X017552Y008396D01*
X017476Y008381D01*
X017404Y008351D01*
X017339Y008308D01*
X017284Y008253D01*
X017240Y008188D01*
X017204Y008084D02*
X007016Y008084D01*
X007109Y007966D02*
X017195Y007966D01*
X017195Y007961D02*
X017210Y007884D01*
X017240Y007812D01*
X017284Y007747D01*
X017339Y007692D01*
X017404Y007649D01*
X017476Y007619D01*
X017552Y007604D01*
X017573Y007604D01*
X017573Y007981D01*
X017610Y007981D01*
X017610Y007604D01*
X017630Y007604D01*
X017707Y007619D01*
X017779Y007649D01*
X017844Y007692D01*
X017899Y007747D01*
X017942Y007812D01*
X017972Y007884D01*
X017988Y007961D01*
X017988Y007981D01*
X017610Y007981D01*
X017610Y008019D01*
X017573Y008019D01*
X017573Y007981D01*
X017195Y007981D01*
X017195Y007961D01*
X017226Y007847D02*
X007157Y007847D01*
X007157Y007610D02*
X017521Y007610D01*
X017573Y007610D02*
X017610Y007610D01*
X017662Y007610D02*
X025140Y007610D01*
X025022Y007492D02*
X007109Y007492D01*
X007016Y007373D02*
X024903Y007373D01*
X024604Y007255D02*
X006793Y007255D01*
X006734Y007255D02*
X006638Y007255D01*
X006638Y007245D02*
X006638Y007680D01*
X006203Y007680D01*
X006213Y007615D01*
X006237Y007542D01*
X006271Y007474D01*
X006316Y007413D01*
X006370Y007359D01*
X006432Y007314D01*
X006500Y007279D01*
X006572Y007255D01*
X006638Y007245D01*
X006578Y007255D02*
X005786Y007255D01*
X005786Y007373D02*
X006356Y007373D01*
X006262Y007492D02*
X005786Y007492D01*
X005762Y007610D02*
X006215Y007610D01*
X006638Y007729D02*
X005713Y007729D01*
X005664Y007847D02*
X005439Y008072D01*
X005410Y008084D02*
X006356Y008084D01*
X006638Y008084D02*
X006734Y008084D01*
X006734Y007966D02*
X006638Y007966D01*
X006638Y007847D02*
X006734Y007847D01*
X006734Y007729D02*
X017302Y007729D01*
X017573Y007729D02*
X017610Y007729D01*
X017610Y007847D02*
X017573Y007847D01*
X017573Y007966D02*
X017610Y007966D01*
X017610Y008019D02*
X017988Y008019D01*
X017988Y008039D01*
X017972Y008116D01*
X017942Y008188D01*
X017899Y008253D01*
X017844Y008308D01*
X017779Y008351D01*
X017707Y008381D01*
X017630Y008396D01*
X017610Y008396D01*
X017610Y008019D01*
X017610Y008084D02*
X017573Y008084D01*
X017573Y008203D02*
X017610Y008203D01*
X017610Y008321D02*
X017573Y008321D01*
X017359Y008321D02*
X004220Y008321D01*
X004220Y008440D02*
X018209Y008440D01*
X018209Y008558D02*
X006963Y008558D01*
X006938Y008532D02*
X007063Y008657D01*
X007131Y008821D01*
X007131Y008998D01*
X007063Y009161D01*
X006938Y009287D01*
X006774Y009354D01*
X006597Y009354D01*
X006434Y009287D01*
X006309Y009161D01*
X006241Y008998D01*
X006241Y008821D01*
X006309Y008657D01*
X006434Y008532D01*
X006597Y008465D01*
X006774Y008465D01*
X006938Y008532D01*
X007071Y008677D02*
X018209Y008677D01*
X018209Y008795D02*
X007120Y008795D01*
X007131Y008914D02*
X018209Y008914D01*
X018209Y009032D02*
X007117Y009032D01*
X007067Y009151D02*
X018209Y009151D01*
X018209Y009269D02*
X006955Y009269D01*
X006774Y009646D02*
X006938Y009713D01*
X007063Y009839D01*
X007131Y010002D01*
X007131Y010179D01*
X007063Y010343D01*
X006938Y010468D01*
X006774Y010535D01*
X006597Y010535D01*
X006434Y010468D01*
X006309Y010343D01*
X006241Y010179D01*
X006241Y010002D01*
X006309Y009839D01*
X006434Y009713D01*
X006597Y009646D01*
X006774Y009646D01*
X006967Y009743D02*
X018209Y009743D01*
X018209Y009625D02*
X004220Y009625D01*
X004220Y009743D02*
X006404Y009743D01*
X006299Y009862D02*
X004220Y009862D01*
X004220Y009980D02*
X006250Y009980D01*
X006241Y010099D02*
X004220Y010099D01*
X004220Y010217D02*
X006257Y010217D01*
X006306Y010336D02*
X004220Y010336D01*
X004220Y010454D02*
X006420Y010454D01*
X006434Y010895D02*
X006309Y011020D01*
X006241Y011183D01*
X006241Y011360D01*
X006254Y011391D01*
X005915Y011730D01*
X005915Y012770D01*
X006015Y012870D01*
X006315Y013170D01*
X007255Y013170D01*
X007355Y013070D01*
X009879Y013070D01*
X009824Y013125D01*
X009777Y013239D01*
X009777Y013361D01*
X009824Y013475D01*
X009911Y013561D01*
X009915Y013563D01*
X009915Y014537D01*
X009911Y014539D01*
X009824Y014625D01*
X009777Y014739D01*
X009777Y014861D01*
X009824Y014975D01*
X009911Y015061D01*
X010024Y015108D01*
X010146Y015108D01*
X010260Y015061D01*
X010346Y014975D01*
X010393Y014861D01*
X010393Y014739D01*
X010346Y014625D01*
X010260Y014539D01*
X010255Y014537D01*
X010255Y013563D01*
X010260Y013561D01*
X010346Y013475D01*
X010393Y013361D01*
X010393Y013239D01*
X010346Y013125D01*
X010291Y013070D01*
X013015Y013070D01*
X014347Y014402D01*
X014324Y014425D01*
X014277Y014539D01*
X014277Y014661D01*
X014324Y014775D01*
X014411Y014861D01*
X014524Y014908D01*
X014637Y014908D01*
X013815Y015730D01*
X013548Y015730D01*
X013546Y015725D01*
X013460Y015639D01*
X013346Y015592D01*
X013224Y015592D01*
X013155Y015620D01*
X013155Y013430D01*
X013055Y013330D01*
X012648Y013330D01*
X012646Y013325D01*
X012560Y013239D01*
X012446Y013192D01*
X012324Y013192D01*
X012211Y013239D01*
X012124Y013325D01*
X012077Y013439D01*
X012077Y013561D01*
X012124Y013675D01*
X012211Y013761D01*
X012324Y013808D01*
X012446Y013808D01*
X012560Y013761D01*
X012646Y013675D01*
X012648Y013670D01*
X012815Y013670D01*
X012815Y016537D01*
X012811Y016539D01*
X012724Y016625D01*
X012677Y016739D01*
X012677Y016861D01*
X012724Y016975D01*
X012811Y017061D01*
X012924Y017108D01*
X012937Y017108D01*
X012222Y017823D01*
X012146Y017792D01*
X012024Y017792D01*
X011911Y017839D01*
X011824Y017925D01*
X011777Y018039D01*
X011777Y018161D01*
X011824Y018275D01*
X006196Y018275D01*
X006185Y018264D02*
X006524Y018602D01*
X007060Y018602D01*
X007131Y018673D01*
X007131Y019422D01*
X007060Y019492D01*
X006311Y019492D01*
X006241Y019422D01*
X006241Y018885D01*
X005785Y018429D01*
X005785Y017736D01*
X005724Y017675D01*
X005677Y017561D01*
X005677Y017439D01*
X005724Y017325D01*
X005811Y017239D01*
X005924Y017192D01*
X006046Y017192D01*
X006160Y017239D01*
X006246Y017325D01*
X006293Y017439D01*
X006293Y017561D01*
X006246Y017675D01*
X006185Y017736D01*
X006185Y018264D01*
X006185Y018157D02*
X011777Y018157D01*
X011777Y018038D02*
X006185Y018038D01*
X006185Y017920D02*
X011830Y017920D01*
X012002Y017801D02*
X006185Y017801D01*
X006238Y017683D02*
X012362Y017683D01*
X012244Y017801D02*
X012168Y017801D01*
X012481Y017564D02*
X006292Y017564D01*
X006293Y017446D02*
X012599Y017446D01*
X012718Y017327D02*
X006247Y017327D01*
X006087Y017209D02*
X012836Y017209D01*
X012880Y017090D02*
X004220Y017090D01*
X004220Y016972D02*
X012723Y016972D01*
X012677Y016853D02*
X004220Y016853D01*
X004220Y016735D02*
X012679Y016735D01*
X012733Y016616D02*
X004220Y016616D01*
X004220Y016498D02*
X012815Y016498D01*
X012815Y016379D02*
X004220Y016379D01*
X004220Y016261D02*
X012815Y016261D01*
X012815Y016142D02*
X004220Y016142D01*
X004220Y016024D02*
X012815Y016024D01*
X012815Y015905D02*
X004220Y015905D01*
X004220Y015787D02*
X012815Y015787D01*
X012815Y015668D02*
X004220Y015668D01*
X004220Y015550D02*
X012815Y015550D01*
X012815Y015431D02*
X004220Y015431D01*
X004220Y015313D02*
X012815Y015313D01*
X012815Y015194D02*
X004220Y015194D01*
X004220Y015076D02*
X009945Y015076D01*
X009817Y014957D02*
X004220Y014957D01*
X004220Y014839D02*
X009777Y014839D01*
X009785Y014720D02*
X004220Y014720D01*
X004220Y014602D02*
X009848Y014602D01*
X009915Y014483D02*
X004220Y014483D01*
X004220Y014365D02*
X009915Y014365D01*
X009915Y014246D02*
X004220Y014246D01*
X004220Y014128D02*
X009915Y014128D01*
X009915Y014009D02*
X004220Y014009D01*
X004220Y013891D02*
X009915Y013891D01*
X009915Y013772D02*
X004220Y013772D01*
X004220Y013654D02*
X009915Y013654D01*
X009884Y013535D02*
X004220Y013535D01*
X004220Y013417D02*
X009800Y013417D01*
X009777Y013298D02*
X004220Y013298D01*
X004220Y013180D02*
X009801Y013180D01*
X010369Y013180D02*
X013124Y013180D01*
X013243Y013298D02*
X012619Y013298D01*
X012151Y013298D02*
X010393Y013298D01*
X010370Y013417D02*
X012086Y013417D01*
X012077Y013535D02*
X010286Y013535D01*
X010255Y013654D02*
X012115Y013654D01*
X012237Y013772D02*
X010255Y013772D01*
X010255Y013891D02*
X012815Y013891D01*
X012815Y014009D02*
X010255Y014009D01*
X010255Y014128D02*
X012815Y014128D01*
X012815Y014246D02*
X010255Y014246D01*
X010255Y014365D02*
X012815Y014365D01*
X012815Y014483D02*
X010255Y014483D01*
X010322Y014602D02*
X012815Y014602D01*
X012815Y014720D02*
X010385Y014720D01*
X010393Y014839D02*
X012815Y014839D01*
X012815Y014957D02*
X010353Y014957D01*
X010225Y015076D02*
X012815Y015076D01*
X013155Y015076D02*
X014469Y015076D01*
X014351Y015194D02*
X013155Y015194D01*
X013155Y015313D02*
X014232Y015313D01*
X014114Y015431D02*
X013155Y015431D01*
X013155Y015550D02*
X013995Y015550D01*
X013877Y015668D02*
X013489Y015668D01*
X013377Y016261D02*
X013155Y016261D01*
X013155Y016379D02*
X013384Y016379D01*
X013447Y016498D02*
X013155Y016498D01*
X013237Y016616D02*
X014429Y016616D01*
X014547Y016498D02*
X013923Y016498D01*
X013986Y016379D02*
X014666Y016379D01*
X014784Y016261D02*
X014065Y016261D01*
X014183Y016142D02*
X014903Y016142D01*
X015021Y016024D02*
X014302Y016024D01*
X014420Y015905D02*
X015140Y015905D01*
X015258Y015787D02*
X014539Y015787D01*
X014657Y015668D02*
X015377Y015668D01*
X015495Y015550D02*
X014776Y015550D01*
X014894Y015431D02*
X015614Y015431D01*
X015732Y015313D02*
X015013Y015313D01*
X015131Y015194D02*
X015851Y015194D01*
X015969Y015076D02*
X015250Y015076D01*
X015368Y014957D02*
X016088Y014957D01*
X016206Y014839D02*
X015487Y014839D01*
X015605Y014720D02*
X016325Y014720D01*
X016443Y014602D02*
X015724Y014602D01*
X015842Y014483D02*
X016562Y014483D01*
X016680Y014365D02*
X015961Y014365D01*
X016079Y014246D02*
X016799Y014246D01*
X016917Y014128D02*
X016198Y014128D01*
X016316Y014009D02*
X017036Y014009D01*
X017154Y013891D02*
X016435Y013891D01*
X016553Y013772D02*
X017273Y013772D01*
X017391Y013654D02*
X016555Y013654D01*
X016555Y013535D02*
X017510Y013535D01*
X017628Y013417D02*
X016555Y013417D01*
X016555Y013298D02*
X017747Y013298D01*
X017865Y013180D02*
X016555Y013180D01*
X016555Y013061D02*
X017984Y013061D01*
X018102Y012943D02*
X016555Y012943D01*
X016555Y012824D02*
X018221Y012824D01*
X018339Y012706D02*
X016555Y012706D01*
X016555Y012587D02*
X018458Y012587D01*
X018576Y012469D02*
X016555Y012469D01*
X016555Y012350D02*
X018695Y012350D01*
X018813Y012232D02*
X016555Y012232D01*
X016555Y012113D02*
X018562Y012113D01*
X018491Y011995D02*
X016555Y011995D01*
X016555Y011876D02*
X018477Y011876D01*
X018402Y011758D02*
X016555Y011758D01*
X016555Y011639D02*
X018284Y011639D01*
X018209Y011521D02*
X016555Y011521D01*
X016555Y011402D02*
X018209Y011402D01*
X018209Y011284D02*
X016555Y011284D01*
X016650Y011165D02*
X018209Y011165D01*
X018209Y011047D02*
X016693Y011047D01*
X016689Y010928D02*
X018209Y010928D01*
X018209Y010810D02*
X016630Y010810D01*
X016140Y010810D02*
X016030Y010810D01*
X015540Y010810D02*
X005153Y010810D01*
X005439Y010928D02*
X005664Y011153D01*
X005786Y011447D01*
X005786Y011766D01*
X005664Y012060D01*
X005439Y012285D01*
X005144Y012407D01*
X004826Y012407D01*
X004532Y012285D01*
X004306Y012060D01*
X004220Y011851D01*
X004220Y019649D01*
X004306Y019440D01*
X004532Y019215D01*
X004826Y019093D01*
X005144Y019093D01*
X005439Y019215D01*
X005664Y019440D01*
X005786Y019734D01*
X005786Y020053D01*
X005664Y020347D01*
X005439Y020572D01*
X005144Y020694D01*
X004826Y020694D01*
X004532Y020572D01*
X004306Y020347D01*
X004220Y020139D01*
X004220Y023861D01*
X004306Y023653D01*
X004532Y023428D01*
X004826Y023306D01*
X005144Y023306D01*
X005439Y023428D01*
X005664Y023653D01*
X005786Y023947D01*
X005786Y024266D01*
X005664Y024560D01*
X005439Y024785D01*
X005144Y024907D01*
X004826Y024907D01*
X004532Y024785D01*
X004306Y024560D01*
X004220Y024351D01*
X004220Y026606D01*
X004223Y026637D01*
X004247Y026694D01*
X004291Y026738D01*
X004348Y026762D01*
X004379Y026765D01*
X017536Y026765D01*
X017470Y026738D01*
X017353Y026621D01*
X017290Y026468D01*
X017290Y026303D01*
X017353Y026151D01*
X017470Y026034D01*
X017623Y025971D01*
X017788Y025971D01*
X017941Y026034D01*
X018058Y026151D01*
X018121Y026303D01*
X018121Y026468D01*
X018058Y026621D01*
X017941Y026738D01*
X017875Y026765D01*
X020012Y026765D01*
X019968Y026733D01*
X019917Y026682D01*
X019875Y026624D01*
X019843Y026561D01*
X019821Y026492D01*
X019810Y026424D01*
X020226Y026424D01*
X020226Y026347D01*
X020303Y026347D01*
X020303Y025931D01*
X020371Y025942D01*
X020439Y025964D01*
X020503Y025996D01*
X020561Y026039D01*
X020612Y026089D01*
X020654Y026147D01*
X020686Y026211D01*
X020709Y026279D01*
X020719Y026347D01*
X020303Y026347D01*
X020303Y026424D01*
X020719Y026424D01*
X020709Y026492D01*
X020686Y026561D01*
X020654Y026624D01*
X020612Y026682D01*
X020561Y026733D01*
X020517Y026765D01*
X022974Y026765D01*
X022974Y026742D01*
X023120Y026247D01*
X023399Y025813D01*
X023789Y025475D01*
X024258Y025261D01*
X024769Y025187D01*
X025279Y025261D01*
X025748Y025475D01*
X026138Y025813D01*
X026138Y025813D01*
X026417Y026247D01*
X026563Y026742D01*
X026563Y026765D01*
X029591Y026765D01*
X029622Y026762D01*
X029680Y026738D01*
X029723Y026694D01*
X029747Y026637D01*
X029750Y026606D01*
X029750Y004894D01*
X029747Y004863D01*
X029723Y004806D01*
X029680Y004762D01*
X029622Y004738D01*
X029591Y004735D01*
X028246Y004735D01*
X028015Y004639D01*
X028015Y004639D01*
X027838Y004462D01*
X027742Y004231D01*
X027742Y003500D01*
X025378Y003500D01*
X025378Y003832D01*
X025257Y004082D01*
X025257Y004082D01*
X025040Y004256D01*
X024769Y004318D01*
X024769Y004318D01*
X024497Y004256D01*
X024280Y004082D01*
X024159Y003832D01*
X024159Y003500D01*
X021768Y003500D01*
X021885Y003617D01*
X021885Y004283D01*
X021768Y004400D01*
X021768Y004400D01*
X021685Y004483D01*
X021576Y004592D01*
X021646Y004592D01*
X021760Y004639D01*
X021846Y004725D01*
X021893Y004839D01*
X021893Y004961D01*
X021891Y004966D01*
X022755Y005830D01*
X024472Y005830D01*
X024474Y005825D01*
X024561Y005739D01*
X024674Y005692D01*
X024796Y005692D01*
X024910Y005739D01*
X024996Y005825D01*
X025043Y005939D01*
X025043Y006061D01*
X024996Y006175D01*
X024910Y006261D01*
X024796Y006308D01*
X024674Y006308D01*
X024561Y006261D01*
X024474Y006175D01*
X024472Y006170D01*
X022615Y006170D01*
X021651Y005206D01*
X021646Y005208D01*
X021524Y005208D01*
X021411Y005161D01*
X021324Y005075D01*
X021277Y004961D01*
X021277Y004839D01*
X021324Y004725D01*
X021411Y004639D01*
X021504Y004600D01*
X021368Y004600D01*
X021185Y004783D01*
X021185Y006331D01*
X021228Y006374D01*
X021228Y006416D01*
X021542Y006730D01*
X022722Y006730D01*
X022724Y006725D01*
X022811Y006639D01*
X022924Y006592D01*
X023046Y006592D01*
X023160Y006639D01*
X023246Y006725D01*
X023248Y006730D01*
X024632Y006730D01*
X024724Y006692D01*
X024846Y006692D01*
X024960Y006739D01*
X025046Y006825D01*
X025093Y006939D01*
X025093Y007054D01*
X026165Y008125D01*
X026165Y009444D01*
X026246Y009525D01*
X026293Y009639D01*
X026293Y009709D01*
X026585Y009417D01*
X026702Y009300D01*
X029068Y009300D01*
X029360Y009592D01*
X029446Y009592D01*
X029560Y009639D01*
X029646Y009725D01*
X029693Y009839D01*
X029693Y009961D01*
X029646Y010075D01*
X029560Y010161D01*
X029446Y010208D01*
X029324Y010208D01*
X029211Y010161D01*
X029124Y010075D01*
X029077Y009961D01*
X029077Y009875D01*
X028902Y009700D01*
X026868Y009700D01*
X026268Y010300D01*
X025702Y010300D01*
X025585Y010183D01*
X025502Y010100D01*
X025182Y010100D01*
X025237Y010123D01*
X025362Y010248D01*
X025430Y010412D01*
X025430Y010588D01*
X025362Y010752D01*
X025237Y010877D01*
X025074Y010945D01*
X024897Y010945D01*
X024815Y010911D01*
X024655Y011070D01*
X024655Y011201D01*
X024733Y011123D01*
X024897Y011055D01*
X025074Y011055D01*
X025237Y011123D01*
X025362Y011248D01*
X025430Y011412D01*
X025430Y011588D01*
X025362Y011752D01*
X025237Y011877D01*
X025074Y011945D01*
X024897Y011945D01*
X024733Y011877D01*
X024655Y011799D01*
X024655Y012144D01*
X024669Y012130D01*
X024731Y012085D01*
X024799Y012051D01*
X024872Y012027D01*
X024937Y012017D01*
X024937Y012452D01*
X025033Y012452D01*
X025033Y012017D01*
X025099Y012027D01*
X025171Y012051D01*
X025239Y012085D01*
X025301Y012130D01*
X025355Y012184D01*
X025400Y012246D01*
X025434Y012314D01*
X025458Y012386D01*
X025468Y012452D01*
X025033Y012452D01*
X025033Y012548D01*
X024937Y012548D01*
X024937Y012983D01*
X024872Y012973D01*
X024799Y012949D01*
X024731Y012915D01*
X024669Y012870D01*
X024655Y012856D01*
X024655Y013201D01*
X024733Y013123D01*
X024897Y013055D01*
X025074Y013055D01*
X025237Y013123D01*
X025362Y013248D01*
X025430Y013412D01*
X025430Y013588D01*
X025362Y013752D01*
X025237Y013877D01*
X025165Y013907D01*
X025165Y013925D01*
X026665Y015425D01*
X026665Y017225D01*
X027465Y018025D01*
X027465Y018244D01*
X027546Y018325D01*
X027593Y018439D01*
X027593Y018561D01*
X027546Y018675D01*
X027491Y018730D01*
X028355Y018730D01*
X028555Y018930D01*
X028655Y019030D01*
X028655Y019137D01*
X028666Y019126D01*
X028728Y019081D01*
X028797Y019046D01*
X028870Y019022D01*
X028946Y019010D01*
X028947Y019010D01*
X028947Y019462D01*
X029023Y019462D01*
X029023Y019010D01*
X029024Y019010D01*
X029100Y019022D01*
X029173Y019046D01*
X029242Y019081D01*
X029304Y019126D01*
X029359Y019181D01*
X029404Y019243D01*
X029439Y019312D01*
X029463Y019385D01*
X029475Y019461D01*
X029475Y019462D01*
X029023Y019462D01*
X029023Y019538D01*
X028947Y019538D01*
X028947Y019990D01*
X028946Y019990D01*
X028870Y019978D01*
X028797Y019954D01*
X028728Y019919D01*
X028666Y019874D01*
X028655Y019863D01*
X028655Y020194D01*
X028730Y020119D01*
X028896Y020050D01*
X029075Y020050D01*
X029240Y020119D01*
X029367Y020245D01*
X029435Y020410D01*
X029435Y020590D01*
X029367Y020755D01*
X029240Y020881D01*
X029075Y020950D01*
X028896Y020950D01*
X028730Y020881D01*
X028655Y020806D01*
X028655Y021070D01*
X028435Y021290D01*
X028435Y021880D01*
X028365Y021950D01*
X027605Y021950D01*
X027535Y021880D01*
X027535Y021120D01*
X027605Y021050D01*
X028195Y021050D01*
X028315Y020930D01*
X028315Y020806D01*
X028240Y020881D01*
X028075Y020950D01*
X027896Y020950D01*
X027730Y020881D01*
X027604Y020755D01*
X027535Y020590D01*
X027535Y020410D01*
X027604Y020245D01*
X027730Y020119D01*
X027896Y020050D01*
X028075Y020050D01*
X028240Y020119D01*
X028315Y020194D01*
X028315Y019806D01*
X028240Y019881D01*
X028075Y019950D01*
X027896Y019950D01*
X027730Y019881D01*
X027604Y019755D01*
X027568Y019670D01*
X026015Y019670D01*
X025915Y019570D01*
X025215Y018870D01*
X025215Y016170D01*
X023515Y014470D01*
X023148Y014470D01*
X023146Y014475D01*
X023060Y014561D01*
X022946Y014608D01*
X022929Y014608D01*
X022946Y014625D01*
X022985Y014719D01*
X023024Y014625D01*
X023111Y014539D01*
X023224Y014492D01*
X023346Y014492D01*
X023460Y014539D01*
X023546Y014625D01*
X023593Y014739D01*
X023593Y014861D01*
X023591Y014866D01*
X024749Y016023D01*
X024824Y015992D01*
X024946Y015992D01*
X025060Y016039D01*
X025146Y016125D01*
X025193Y016239D01*
X025193Y016361D01*
X025146Y016475D01*
X025060Y016561D01*
X024946Y016608D01*
X024824Y016608D01*
X024772Y016586D01*
X024793Y016639D01*
X024793Y016761D01*
X024746Y016875D01*
X024660Y016961D01*
X024546Y017008D01*
X024424Y017008D01*
X024372Y016986D01*
X024393Y017039D01*
X024393Y017161D01*
X024346Y017275D01*
X024260Y017361D01*
X024146Y017408D01*
X024024Y017408D01*
X023972Y017386D01*
X023993Y017439D01*
X023993Y017561D01*
X023946Y017675D01*
X023860Y017761D01*
X023746Y017808D01*
X023624Y017808D01*
X023511Y017761D01*
X023424Y017675D01*
X023377Y017561D01*
X023377Y017439D01*
X023424Y017325D01*
X023497Y017252D01*
X021351Y015106D01*
X021346Y015108D01*
X021224Y015108D01*
X021111Y015061D01*
X021024Y014975D01*
X020977Y014861D01*
X020977Y014739D01*
X021024Y014625D01*
X021111Y014539D01*
X021224Y014492D01*
X021346Y014492D01*
X021460Y014539D01*
X021546Y014625D01*
X021593Y014739D01*
X021593Y014861D01*
X021591Y014866D01*
X023777Y017051D01*
X023777Y017039D01*
X023824Y016925D01*
X023847Y016902D01*
X022051Y015106D01*
X022046Y015108D01*
X021924Y015108D01*
X021811Y015061D01*
X021724Y014975D01*
X021677Y014861D01*
X021677Y014739D01*
X021724Y014625D01*
X021811Y014539D01*
X021924Y014492D01*
X022046Y014492D01*
X022160Y014539D01*
X022246Y014625D01*
X022293Y014739D01*
X022293Y014861D01*
X022291Y014866D01*
X024177Y016751D01*
X024177Y016639D01*
X024208Y016563D01*
X022751Y015106D01*
X022746Y015108D01*
X022624Y015108D01*
X022511Y015061D01*
X022424Y014975D01*
X022377Y014861D01*
X022377Y014739D01*
X022424Y014625D01*
X022511Y014539D01*
X022624Y014492D01*
X022641Y014492D01*
X022624Y014475D01*
X022577Y014361D01*
X022577Y014239D01*
X022624Y014125D01*
X022711Y014039D01*
X022824Y013992D01*
X022890Y013992D01*
X022877Y013961D01*
X022877Y013839D01*
X022924Y013725D01*
X023011Y013639D01*
X023124Y013592D01*
X023246Y013592D01*
X023360Y013639D01*
X023446Y013725D01*
X023448Y013730D01*
X023455Y013730D01*
X023540Y013815D01*
X023540Y013296D01*
X023015Y012770D01*
X023015Y011670D01*
X022715Y011370D01*
X021055Y011370D01*
X014555Y017870D01*
X014455Y017970D01*
X014448Y017970D01*
X014446Y017975D01*
X014360Y018061D01*
X014246Y018108D01*
X014124Y018108D01*
X014011Y018061D01*
X013924Y017975D01*
X013877Y017861D01*
X013877Y017844D01*
X013860Y017861D01*
X013746Y017908D01*
X013624Y017908D01*
X013511Y017861D01*
X013424Y017775D01*
X013377Y017661D01*
X013377Y017549D01*
X012673Y018252D01*
X012746Y018325D01*
X012793Y018439D01*
X012793Y018561D01*
X012746Y018675D01*
X012660Y018761D01*
X012546Y018808D01*
X012424Y018808D01*
X012311Y018761D01*
X012224Y018675D01*
X012177Y018561D01*
X012177Y018439D01*
X012199Y018386D01*
X012146Y018408D01*
X012024Y018408D01*
X011911Y018361D01*
X011824Y018275D01*
X011989Y018394D02*
X006315Y018394D01*
X006433Y018512D02*
X012177Y018512D01*
X012182Y018394D02*
X012196Y018394D01*
X012206Y018631D02*
X007088Y018631D01*
X007131Y018749D02*
X012298Y018749D01*
X012672Y018749D02*
X015000Y018749D01*
X015011Y018739D02*
X015124Y018692D01*
X015246Y018692D01*
X015360Y018739D01*
X015446Y018825D01*
X015493Y018939D01*
X015493Y019061D01*
X015446Y019175D01*
X015360Y019261D01*
X015246Y019308D01*
X015124Y019308D01*
X015011Y019261D01*
X014924Y019175D01*
X014922Y019170D01*
X014855Y019170D01*
X013755Y020270D01*
X013655Y020370D01*
X010755Y020370D01*
X010375Y020750D01*
X010455Y020830D01*
X010455Y020970D01*
X010355Y021070D01*
X010248Y021070D01*
X010246Y021075D01*
X010160Y021161D01*
X010046Y021208D01*
X009924Y021208D01*
X009811Y021161D01*
X009724Y021075D01*
X009677Y020961D01*
X009677Y020839D01*
X009724Y020725D01*
X009811Y020639D01*
X009924Y020592D01*
X010046Y020592D01*
X010051Y020594D01*
X010615Y020030D01*
X013515Y020030D01*
X014715Y018830D01*
X014922Y018830D01*
X014924Y018825D01*
X015011Y018739D01*
X014677Y018868D02*
X007131Y018868D01*
X007131Y018986D02*
X014559Y018986D01*
X014440Y019105D02*
X007131Y019105D01*
X007131Y019223D02*
X014322Y019223D01*
X014203Y019342D02*
X007131Y019342D01*
X007092Y019460D02*
X014085Y019460D01*
X013966Y019579D02*
X005721Y019579D01*
X005770Y019697D02*
X013848Y019697D01*
X013729Y019816D02*
X006942Y019816D01*
X006940Y019814D02*
X007002Y019859D01*
X007056Y019913D01*
X007100Y019974D01*
X007135Y020042D01*
X007159Y020115D01*
X007169Y020180D01*
X006734Y020180D01*
X006734Y019745D01*
X006799Y019755D01*
X006872Y019779D01*
X006940Y019814D01*
X007071Y019934D02*
X013611Y019934D01*
X013854Y020171D02*
X014078Y020171D01*
X014111Y020139D02*
X014224Y020092D01*
X014346Y020092D01*
X014460Y020139D01*
X014546Y020225D01*
X014593Y020339D01*
X014593Y020461D01*
X014591Y020466D01*
X015155Y021030D01*
X017959Y021030D01*
X016739Y019810D01*
X016575Y019646D01*
X016575Y019354D01*
X016639Y019290D01*
X017239Y018690D01*
X019935Y018690D01*
X019851Y018606D01*
X019846Y018608D01*
X019724Y018608D01*
X019611Y018561D01*
X019524Y018475D01*
X019477Y018361D01*
X019477Y018239D01*
X019524Y018125D01*
X019611Y018039D01*
X019724Y017992D01*
X019846Y017992D01*
X019960Y018039D01*
X020001Y018080D01*
X020024Y018025D01*
X020111Y017939D01*
X020224Y017892D01*
X020346Y017892D01*
X020377Y017905D01*
X020377Y017839D01*
X020424Y017725D01*
X020479Y017670D01*
X018648Y017670D01*
X018646Y017675D01*
X018560Y017761D01*
X018446Y017808D01*
X018324Y017808D01*
X018211Y017761D01*
X018124Y017675D01*
X018085Y017581D01*
X018046Y017675D01*
X017960Y017761D01*
X017846Y017808D01*
X017724Y017808D01*
X017611Y017761D01*
X017524Y017675D01*
X017485Y017581D01*
X017446Y017675D01*
X017360Y017761D01*
X017246Y017808D01*
X017124Y017808D01*
X017011Y017761D01*
X016924Y017675D01*
X016877Y017561D01*
X016877Y017439D01*
X016924Y017325D01*
X017011Y017239D01*
X017124Y017192D01*
X017246Y017192D01*
X017251Y017194D01*
X017615Y016830D01*
X017715Y016730D01*
X021855Y016730D01*
X023355Y018230D01*
X024355Y018230D01*
X025955Y019830D01*
X026055Y019930D01*
X026055Y022130D01*
X026255Y022330D01*
X026274Y022330D01*
X026274Y022194D01*
X026345Y022124D01*
X026799Y022124D01*
X026869Y022194D01*
X026869Y022806D01*
X026799Y022876D01*
X026345Y022876D01*
X026274Y022806D01*
X026274Y022670D01*
X026115Y022670D01*
X025855Y022410D01*
X025855Y022930D01*
X026255Y023330D01*
X026274Y023330D01*
X026274Y023194D01*
X026345Y023124D01*
X026799Y023124D01*
X026869Y023194D01*
X026869Y023806D01*
X026799Y023876D01*
X026345Y023876D01*
X026274Y023806D01*
X026274Y023670D01*
X026115Y023670D01*
X026015Y023570D01*
X025655Y023210D01*
X025655Y023730D01*
X026255Y024330D01*
X026274Y024330D01*
X026274Y024194D01*
X026345Y024124D01*
X026799Y024124D01*
X026869Y024194D01*
X026869Y024806D01*
X026799Y024876D01*
X026345Y024876D01*
X026274Y024806D01*
X026274Y024670D01*
X026115Y024670D01*
X026015Y024570D01*
X025315Y023870D01*
X025315Y023799D01*
X025237Y023877D01*
X025074Y023945D01*
X024897Y023945D01*
X024733Y023877D01*
X024608Y023752D01*
X024540Y023588D01*
X024540Y023412D01*
X024608Y023248D01*
X024733Y023123D01*
X024897Y023055D01*
X025074Y023055D01*
X025237Y023123D01*
X025315Y023201D01*
X025315Y022856D01*
X025301Y022870D01*
X025239Y022915D01*
X025171Y022949D01*
X025099Y022973D01*
X025033Y022983D01*
X025033Y022548D01*
X024937Y022548D01*
X024937Y022452D01*
X024502Y022452D01*
X024512Y022386D01*
X024536Y022314D01*
X024570Y022246D01*
X024615Y022184D01*
X024669Y022130D01*
X024731Y022085D01*
X024799Y022051D01*
X024872Y022027D01*
X024937Y022017D01*
X024937Y022452D01*
X025033Y022452D01*
X025033Y022017D01*
X025099Y022027D01*
X025171Y022051D01*
X025239Y022085D01*
X025301Y022130D01*
X025315Y022144D01*
X025315Y021799D01*
X025237Y021877D01*
X025074Y021945D01*
X024897Y021945D01*
X024733Y021877D01*
X024608Y021752D01*
X024540Y021588D01*
X024540Y021412D01*
X024608Y021248D01*
X024733Y021123D01*
X024897Y021055D01*
X025074Y021055D01*
X025237Y021123D01*
X025315Y021201D01*
X025315Y020799D01*
X025237Y020877D01*
X025074Y020945D01*
X024897Y020945D01*
X024733Y020877D01*
X024608Y020752D01*
X024540Y020588D01*
X024540Y020412D01*
X024608Y020248D01*
X024733Y020123D01*
X024897Y020055D01*
X025074Y020055D01*
X025118Y020074D01*
X024015Y018970D01*
X023015Y018970D01*
X022915Y018870D01*
X021715Y017670D01*
X020891Y017670D01*
X020946Y017725D01*
X020948Y017730D01*
X021755Y017730D01*
X021855Y017830D01*
X022155Y018130D01*
X022155Y018337D01*
X022160Y018339D01*
X022246Y018425D01*
X022293Y018539D01*
X022293Y018661D01*
X022246Y018775D01*
X022160Y018861D01*
X022046Y018908D01*
X021924Y018908D01*
X021811Y018861D01*
X021735Y018786D01*
X021660Y018861D01*
X021546Y018908D01*
X021424Y018908D01*
X021311Y018861D01*
X021235Y018786D01*
X021160Y018861D01*
X021046Y018908D01*
X020949Y018908D01*
X021095Y019054D01*
X021095Y020946D01*
X021031Y021010D01*
X021031Y021010D01*
X021011Y021030D01*
X022307Y021030D01*
X022815Y020437D01*
X022815Y020430D01*
X022860Y020384D01*
X022902Y020336D01*
X022909Y020335D01*
X022915Y020330D01*
X022979Y020330D01*
X023042Y020325D01*
X023048Y020330D01*
X023574Y020330D01*
X023608Y020248D01*
X023733Y020123D01*
X023897Y020055D01*
X024074Y020055D01*
X024237Y020123D01*
X024362Y020248D01*
X024430Y020412D01*
X024430Y020588D01*
X024362Y020752D01*
X024237Y020877D01*
X024074Y020945D01*
X023897Y020945D01*
X023733Y020877D01*
X023608Y020752D01*
X023574Y020670D01*
X023063Y020670D01*
X022555Y021263D01*
X022555Y021270D01*
X022510Y021316D01*
X022498Y021330D01*
X023574Y021330D01*
X023608Y021248D01*
X023733Y021123D01*
X023897Y021055D01*
X024074Y021055D01*
X024237Y021123D01*
X024362Y021248D01*
X024430Y021412D01*
X024430Y021588D01*
X024362Y021752D01*
X024237Y021877D01*
X024074Y021945D01*
X023897Y021945D01*
X023733Y021877D01*
X023608Y021752D01*
X023574Y021670D01*
X014715Y021670D01*
X014451Y021406D01*
X014446Y021408D01*
X014324Y021408D01*
X014211Y021361D01*
X014124Y021275D01*
X014077Y021161D01*
X014077Y021039D01*
X014124Y020925D01*
X014211Y020839D01*
X014324Y020792D01*
X014437Y020792D01*
X014351Y020706D01*
X014346Y020708D01*
X014224Y020708D01*
X014111Y020661D01*
X014024Y020575D01*
X013977Y020461D01*
X013977Y020339D01*
X014024Y020225D01*
X014111Y020139D01*
X013973Y020053D02*
X016982Y020053D01*
X017101Y020171D02*
X014492Y020171D01*
X014573Y020290D02*
X017219Y020290D01*
X017338Y020408D02*
X014593Y020408D01*
X014652Y020527D02*
X017456Y020527D01*
X017575Y020645D02*
X014770Y020645D01*
X014889Y020764D02*
X017693Y020764D01*
X017812Y020882D02*
X015007Y020882D01*
X015126Y021001D02*
X017930Y021001D01*
X016864Y019934D02*
X014091Y019934D01*
X014210Y019816D02*
X016745Y019816D01*
X016739Y019810D02*
X016739Y019810D01*
X016627Y019697D02*
X014328Y019697D01*
X014447Y019579D02*
X016575Y019579D01*
X016575Y019460D02*
X014565Y019460D01*
X014684Y019342D02*
X016588Y019342D01*
X016706Y019223D02*
X015398Y019223D01*
X015475Y019105D02*
X016825Y019105D01*
X016943Y018986D02*
X015493Y018986D01*
X015464Y018868D02*
X017062Y018868D01*
X017180Y018749D02*
X015370Y018749D01*
X014972Y019223D02*
X014802Y019223D01*
X014383Y018038D02*
X019612Y018038D01*
X019511Y018157D02*
X012769Y018157D01*
X012696Y018275D02*
X019477Y018275D01*
X019490Y018394D02*
X012774Y018394D01*
X012793Y018512D02*
X019561Y018512D01*
X019875Y018631D02*
X012764Y018631D01*
X012887Y018038D02*
X013987Y018038D01*
X013901Y017920D02*
X013006Y017920D01*
X013124Y017801D02*
X013450Y017801D01*
X013386Y017683D02*
X013243Y017683D01*
X013361Y017564D02*
X013377Y017564D01*
X013310Y016735D02*
X013291Y016735D01*
X014506Y017920D02*
X020157Y017920D01*
X020019Y018038D02*
X019958Y018038D01*
X020393Y017801D02*
X018463Y017801D01*
X018307Y017801D02*
X017863Y017801D01*
X017707Y017801D02*
X017263Y017801D01*
X017107Y017801D02*
X014624Y017801D01*
X014743Y017683D02*
X016932Y017683D01*
X016878Y017564D02*
X014861Y017564D01*
X014980Y017446D02*
X016877Y017446D01*
X016923Y017327D02*
X015098Y017327D01*
X015217Y017209D02*
X017084Y017209D01*
X017355Y017090D02*
X015335Y017090D01*
X015454Y016972D02*
X017473Y016972D01*
X017592Y016853D02*
X015572Y016853D01*
X015691Y016735D02*
X017710Y016735D01*
X017532Y017683D02*
X017438Y017683D01*
X018038Y017683D02*
X018132Y017683D01*
X018638Y017683D02*
X020467Y017683D01*
X020903Y017683D02*
X021727Y017683D01*
X021826Y017801D02*
X021846Y017801D01*
X021945Y017920D02*
X021964Y017920D01*
X022063Y018038D02*
X022083Y018038D01*
X022155Y018157D02*
X022201Y018157D01*
X022155Y018275D02*
X022320Y018275D01*
X022214Y018394D02*
X022438Y018394D01*
X022557Y018512D02*
X022282Y018512D01*
X022293Y018631D02*
X022675Y018631D01*
X022794Y018749D02*
X022257Y018749D01*
X022144Y018868D02*
X022912Y018868D01*
X023282Y018157D02*
X025215Y018157D01*
X025215Y018275D02*
X024400Y018275D01*
X024519Y018394D02*
X025215Y018394D01*
X025215Y018512D02*
X024637Y018512D01*
X024756Y018631D02*
X025215Y018631D01*
X025215Y018749D02*
X024874Y018749D01*
X024993Y018868D02*
X025215Y018868D01*
X025111Y018986D02*
X025331Y018986D01*
X025230Y019105D02*
X025449Y019105D01*
X025348Y019223D02*
X025568Y019223D01*
X025467Y019342D02*
X025686Y019342D01*
X025585Y019460D02*
X025805Y019460D01*
X025704Y019579D02*
X025923Y019579D01*
X025822Y019697D02*
X027580Y019697D01*
X027664Y019816D02*
X025941Y019816D01*
X026055Y019934D02*
X027857Y019934D01*
X027889Y020053D02*
X026055Y020053D01*
X026055Y020171D02*
X027678Y020171D01*
X027585Y020290D02*
X026055Y020290D01*
X026055Y020408D02*
X027536Y020408D01*
X027535Y020527D02*
X026055Y020527D01*
X026055Y020645D02*
X027558Y020645D01*
X027612Y020764D02*
X026055Y020764D01*
X026055Y020882D02*
X027731Y020882D01*
X027536Y021119D02*
X026055Y021119D01*
X026055Y021001D02*
X028244Y021001D01*
X028239Y020882D02*
X028315Y020882D01*
X028606Y021119D02*
X028730Y021119D01*
X028896Y021050D01*
X029075Y021050D01*
X029240Y021119D01*
X029750Y021119D01*
X029750Y021001D02*
X028655Y021001D01*
X028655Y020882D02*
X028731Y020882D01*
X028730Y021119D02*
X028604Y021245D01*
X028535Y021410D01*
X028535Y021590D01*
X028604Y021755D01*
X028730Y021881D01*
X028896Y021950D01*
X029075Y021950D01*
X029240Y021881D01*
X029367Y021755D01*
X029435Y021590D01*
X029435Y021410D01*
X029367Y021245D01*
X029240Y021119D01*
X029359Y021238D02*
X029750Y021238D01*
X029750Y021356D02*
X029412Y021356D01*
X029435Y021475D02*
X029750Y021475D01*
X029750Y021593D02*
X029434Y021593D01*
X029384Y021712D02*
X029750Y021712D01*
X029750Y021830D02*
X029291Y021830D01*
X029078Y021949D02*
X029750Y021949D01*
X029750Y022067D02*
X026055Y022067D01*
X026055Y021949D02*
X027604Y021949D01*
X027535Y021830D02*
X026055Y021830D01*
X026055Y021712D02*
X027535Y021712D01*
X027535Y021593D02*
X026055Y021593D01*
X026055Y021475D02*
X027535Y021475D01*
X027535Y021356D02*
X026055Y021356D01*
X026055Y021238D02*
X027535Y021238D01*
X027625Y022124D02*
X027172Y022124D01*
X027101Y022194D01*
X027101Y022806D01*
X027172Y022876D01*
X027625Y022876D01*
X027696Y022806D01*
X027696Y022776D01*
X027774Y022808D01*
X027896Y022808D01*
X028010Y022761D01*
X028096Y022675D01*
X028143Y022561D01*
X028143Y022439D01*
X028096Y022325D01*
X028010Y022239D01*
X027896Y022192D01*
X027774Y022192D01*
X027696Y022224D01*
X027696Y022194D01*
X027625Y022124D01*
X027687Y022186D02*
X029750Y022186D01*
X029750Y022304D02*
X028075Y022304D01*
X028136Y022423D02*
X029750Y022423D01*
X029750Y022541D02*
X028143Y022541D01*
X028102Y022660D02*
X029750Y022660D01*
X029750Y022778D02*
X027969Y022778D01*
X027701Y022778D02*
X027696Y022778D01*
X027625Y023124D02*
X027172Y023124D01*
X027101Y023194D01*
X027101Y023806D01*
X027172Y023876D01*
X027625Y023876D01*
X027696Y023806D01*
X027696Y023776D01*
X027774Y023808D01*
X027896Y023808D01*
X028010Y023761D01*
X028096Y023675D01*
X028143Y023561D01*
X028143Y023439D01*
X028096Y023325D01*
X028010Y023239D01*
X027896Y023192D01*
X027774Y023192D01*
X027696Y023224D01*
X027696Y023194D01*
X027625Y023124D01*
X027635Y023134D02*
X029750Y023134D01*
X029750Y023252D02*
X028023Y023252D01*
X028115Y023371D02*
X029750Y023371D01*
X029750Y023489D02*
X028143Y023489D01*
X028124Y023608D02*
X029750Y023608D01*
X029750Y023726D02*
X028045Y023726D01*
X027657Y023845D02*
X029750Y023845D01*
X029750Y023963D02*
X025889Y023963D01*
X026007Y024082D02*
X029750Y024082D01*
X029750Y024200D02*
X027916Y024200D01*
X027896Y024192D02*
X028010Y024239D01*
X028096Y024325D01*
X028143Y024439D01*
X028143Y024561D01*
X028096Y024675D01*
X028010Y024761D01*
X027896Y024808D01*
X027774Y024808D01*
X027696Y024776D01*
X027696Y024806D01*
X027625Y024876D01*
X027172Y024876D01*
X027101Y024806D01*
X027101Y024194D01*
X027172Y024124D01*
X027625Y024124D01*
X027696Y024194D01*
X027696Y024224D01*
X027774Y024192D01*
X027896Y024192D01*
X027754Y024200D02*
X027696Y024200D01*
X027101Y024200D02*
X026869Y024200D01*
X026869Y024319D02*
X027101Y024319D01*
X027101Y024437D02*
X026869Y024437D01*
X026869Y024556D02*
X027101Y024556D01*
X027101Y024674D02*
X026869Y024674D01*
X026869Y024793D02*
X027101Y024793D01*
X027696Y024793D02*
X027736Y024793D01*
X027934Y024793D02*
X029750Y024793D01*
X029750Y024911D02*
X020555Y024911D01*
X020500Y024966D02*
X020347Y025029D01*
X020182Y025029D01*
X020029Y024966D01*
X019913Y024849D01*
X019849Y024697D01*
X019849Y024532D01*
X019913Y024379D01*
X020029Y024262D01*
X020182Y024199D01*
X020347Y024199D01*
X020500Y024262D01*
X020617Y024379D01*
X020680Y024532D01*
X020680Y024697D01*
X020617Y024849D01*
X020500Y024966D01*
X020640Y024793D02*
X026274Y024793D01*
X026274Y024674D02*
X020680Y024674D01*
X020680Y024556D02*
X026000Y024556D01*
X025882Y024437D02*
X020641Y024437D01*
X020556Y024319D02*
X025763Y024319D01*
X025645Y024200D02*
X020350Y024200D01*
X020179Y024200D02*
X017791Y024200D01*
X017788Y024199D02*
X017941Y024262D01*
X018058Y024379D01*
X018121Y024532D01*
X018121Y024697D01*
X018058Y024849D01*
X017941Y024966D01*
X017788Y025029D01*
X017623Y025029D01*
X017470Y024966D01*
X017353Y024849D01*
X017290Y024697D01*
X017290Y024532D01*
X017353Y024379D01*
X017470Y024262D01*
X017623Y024199D01*
X017788Y024199D01*
X017620Y024200D02*
X006814Y024200D01*
X006774Y024216D02*
X006597Y024216D01*
X006434Y024149D01*
X006309Y024024D01*
X006241Y023860D01*
X006241Y023683D01*
X006309Y023520D01*
X006434Y023395D01*
X006597Y023327D01*
X006774Y023327D01*
X006938Y023395D01*
X007063Y023520D01*
X007131Y023683D01*
X007131Y023860D01*
X007063Y024024D01*
X006938Y024149D01*
X006774Y024216D01*
X006558Y024200D02*
X005786Y024200D01*
X005786Y024082D02*
X006367Y024082D01*
X006284Y023963D02*
X005786Y023963D01*
X005743Y023845D02*
X006241Y023845D01*
X006241Y023726D02*
X005694Y023726D01*
X005618Y023608D02*
X006272Y023608D01*
X006339Y023489D02*
X005500Y023489D01*
X005301Y023371D02*
X006492Y023371D01*
X006597Y023035D02*
X006434Y022968D01*
X006309Y022843D01*
X006241Y022679D01*
X006241Y022502D01*
X006309Y022339D01*
X006434Y022213D01*
X006597Y022146D01*
X006774Y022146D01*
X006938Y022213D01*
X007063Y022339D01*
X007131Y022502D01*
X007131Y022679D01*
X007063Y022843D01*
X006938Y022968D01*
X006774Y023035D01*
X006597Y023035D01*
X006548Y023015D02*
X004220Y023015D01*
X004220Y022897D02*
X006363Y022897D01*
X006282Y022778D02*
X004220Y022778D01*
X004220Y022660D02*
X006241Y022660D01*
X006241Y022541D02*
X004220Y022541D01*
X004220Y022423D02*
X006274Y022423D01*
X006343Y022304D02*
X004220Y022304D01*
X004220Y022186D02*
X006501Y022186D01*
X006597Y021854D02*
X006434Y021787D01*
X006309Y021661D01*
X006241Y021498D01*
X006241Y021321D01*
X006309Y021157D01*
X006434Y021032D01*
X006597Y020965D01*
X006774Y020965D01*
X006938Y021032D01*
X007063Y021157D01*
X007131Y021321D01*
X007131Y021498D01*
X007063Y021661D01*
X006938Y021787D01*
X006774Y021854D01*
X006597Y021854D01*
X006539Y021830D02*
X004220Y021830D01*
X004220Y021712D02*
X006359Y021712D01*
X006280Y021593D02*
X004220Y021593D01*
X004220Y021475D02*
X006241Y021475D01*
X006241Y021356D02*
X004220Y021356D01*
X004220Y021238D02*
X006276Y021238D01*
X006347Y021119D02*
X004220Y021119D01*
X004220Y021001D02*
X006511Y021001D01*
X006572Y020701D02*
X006500Y020678D01*
X006432Y020643D01*
X006370Y020598D01*
X006316Y020544D01*
X006271Y020482D01*
X006237Y020414D01*
X006213Y020342D01*
X006203Y020277D01*
X006638Y020277D01*
X006638Y020712D01*
X006572Y020701D01*
X006638Y020645D02*
X006734Y020645D01*
X006734Y020712D02*
X006734Y020277D01*
X006638Y020277D01*
X006638Y020180D01*
X006734Y020180D01*
X006734Y020277D01*
X007169Y020277D01*
X007159Y020342D01*
X007135Y020414D01*
X007100Y020482D01*
X007056Y020544D01*
X007002Y020598D01*
X006940Y020643D01*
X006872Y020678D01*
X006799Y020701D01*
X006734Y020712D01*
X006734Y020527D02*
X006638Y020527D01*
X006638Y020408D02*
X006734Y020408D01*
X006734Y020290D02*
X006638Y020290D01*
X006638Y020180D02*
X006203Y020180D01*
X006213Y020115D01*
X006237Y020042D01*
X006271Y019974D01*
X006316Y019913D01*
X006370Y019859D01*
X006432Y019814D01*
X006500Y019779D01*
X006572Y019755D01*
X006638Y019745D01*
X006638Y020180D01*
X006638Y020171D02*
X006734Y020171D01*
X006734Y020053D02*
X006638Y020053D01*
X006638Y019934D02*
X006734Y019934D01*
X006734Y019816D02*
X006638Y019816D01*
X006429Y019816D02*
X005786Y019816D01*
X005786Y019934D02*
X006300Y019934D01*
X006233Y020053D02*
X005786Y020053D01*
X005737Y020171D02*
X006204Y020171D01*
X006205Y020290D02*
X005688Y020290D01*
X005603Y020408D02*
X006234Y020408D01*
X006303Y020527D02*
X005484Y020527D01*
X005263Y020645D02*
X006436Y020645D01*
X006936Y020645D02*
X009804Y020645D01*
X009708Y020764D02*
X004220Y020764D01*
X004220Y020882D02*
X009677Y020882D01*
X009693Y021001D02*
X006861Y021001D01*
X007024Y021119D02*
X009768Y021119D01*
X010202Y021119D02*
X011122Y021119D01*
X011124Y021125D02*
X011077Y021011D01*
X011077Y020889D01*
X011124Y020775D01*
X011211Y020689D01*
X011324Y020642D01*
X011446Y020642D01*
X011560Y020689D01*
X011646Y020775D01*
X011693Y020889D01*
X011693Y020914D01*
X011925Y021030D01*
X012022Y021030D01*
X012024Y021025D01*
X012111Y020939D01*
X012224Y020892D01*
X012346Y020892D01*
X012460Y020939D01*
X012546Y021025D01*
X012593Y021139D01*
X012593Y021261D01*
X012546Y021375D01*
X012460Y021461D01*
X012346Y021508D01*
X012224Y021508D01*
X012111Y021461D01*
X012024Y021375D01*
X012022Y021370D01*
X011913Y021370D01*
X011872Y021384D01*
X011845Y021370D01*
X011815Y021370D01*
X011784Y021340D01*
X011542Y021219D01*
X011446Y021258D01*
X011324Y021258D01*
X011211Y021211D01*
X011124Y021125D01*
X011077Y021001D02*
X010425Y021001D01*
X010455Y020882D02*
X011080Y020882D01*
X011136Y020764D02*
X010389Y020764D01*
X010480Y020645D02*
X011316Y020645D01*
X011454Y020645D02*
X014094Y020645D01*
X014004Y020527D02*
X010599Y020527D01*
X010717Y020408D02*
X013977Y020408D01*
X013997Y020290D02*
X013736Y020290D01*
X014167Y020882D02*
X011690Y020882D01*
X011634Y020764D02*
X014408Y020764D01*
X014093Y021001D02*
X012521Y021001D01*
X012585Y021119D02*
X014077Y021119D01*
X014109Y021238D02*
X012593Y021238D01*
X012554Y021356D02*
X014205Y021356D01*
X014519Y021475D02*
X012427Y021475D01*
X012143Y021475D02*
X007131Y021475D01*
X007131Y021356D02*
X011801Y021356D01*
X011580Y021238D02*
X011496Y021238D01*
X011274Y021238D02*
X007096Y021238D01*
X007091Y021593D02*
X014638Y021593D01*
X012049Y021001D02*
X011866Y021001D01*
X010592Y020053D02*
X007138Y020053D01*
X007168Y020171D02*
X010474Y020171D01*
X010355Y020290D02*
X007167Y020290D01*
X007137Y020408D02*
X010237Y020408D01*
X010118Y020527D02*
X007068Y020527D01*
X007013Y021712D02*
X022876Y021712D01*
X022924Y021692D02*
X023046Y021692D01*
X023160Y021739D01*
X023246Y021825D01*
X023293Y021939D01*
X023293Y022061D01*
X023246Y022175D01*
X023160Y022261D01*
X023155Y022263D01*
X023155Y023030D01*
X023455Y023330D01*
X023540Y023330D01*
X023540Y023125D01*
X023611Y023055D01*
X024360Y023055D01*
X024430Y023125D01*
X024430Y023875D01*
X024360Y023945D01*
X023611Y023945D01*
X023540Y023875D01*
X023540Y023670D01*
X023315Y023670D01*
X023215Y023570D01*
X022815Y023170D01*
X022815Y022263D01*
X022811Y022261D01*
X022724Y022175D01*
X022677Y022061D01*
X022677Y021939D01*
X022724Y021825D01*
X022811Y021739D01*
X022924Y021692D01*
X023094Y021712D02*
X023591Y021712D01*
X023686Y021830D02*
X023248Y021830D01*
X023293Y021949D02*
X025315Y021949D01*
X025315Y022067D02*
X025203Y022067D01*
X025033Y022067D02*
X024937Y022067D01*
X024937Y022186D02*
X025033Y022186D01*
X025033Y022304D02*
X024937Y022304D01*
X024937Y022423D02*
X025033Y022423D01*
X024937Y022541D02*
X024430Y022541D01*
X024430Y022588D02*
X024430Y022412D01*
X024362Y022248D01*
X024237Y022123D01*
X024074Y022055D01*
X023897Y022055D01*
X023733Y022123D01*
X023608Y022248D01*
X023540Y022412D01*
X023540Y022588D01*
X023608Y022752D01*
X023733Y022877D01*
X023897Y022945D01*
X024074Y022945D01*
X024237Y022877D01*
X024362Y022752D01*
X024430Y022588D01*
X024400Y022660D02*
X024527Y022660D01*
X024536Y022686D02*
X024512Y022614D01*
X024502Y022548D01*
X024937Y022548D01*
X024937Y022983D01*
X024872Y022973D01*
X024799Y022949D01*
X024731Y022915D01*
X024669Y022870D01*
X024615Y022816D01*
X024570Y022754D01*
X024536Y022686D01*
X024588Y022778D02*
X024336Y022778D01*
X024190Y022897D02*
X024706Y022897D01*
X024937Y022897D02*
X025033Y022897D01*
X025033Y022778D02*
X024937Y022778D01*
X024937Y022660D02*
X025033Y022660D01*
X025264Y022897D02*
X025315Y022897D01*
X025315Y023015D02*
X023155Y023015D01*
X023155Y022897D02*
X023780Y022897D01*
X023634Y022778D02*
X023155Y022778D01*
X023155Y022660D02*
X023570Y022660D01*
X023540Y022541D02*
X023155Y022541D01*
X023155Y022423D02*
X023540Y022423D01*
X023585Y022304D02*
X023155Y022304D01*
X023235Y022186D02*
X023670Y022186D01*
X023868Y022067D02*
X023291Y022067D01*
X022815Y022304D02*
X007028Y022304D01*
X007098Y022423D02*
X022815Y022423D01*
X022815Y022541D02*
X007131Y022541D01*
X007131Y022660D02*
X022815Y022660D01*
X022815Y022778D02*
X007090Y022778D01*
X007009Y022897D02*
X022815Y022897D01*
X022815Y023015D02*
X006823Y023015D01*
X006880Y023371D02*
X023015Y023371D01*
X023134Y023489D02*
X007032Y023489D01*
X007099Y023608D02*
X023252Y023608D01*
X023540Y023726D02*
X007131Y023726D01*
X007131Y023845D02*
X023540Y023845D01*
X023540Y023252D02*
X023378Y023252D01*
X023259Y023134D02*
X023540Y023134D01*
X022897Y023252D02*
X004220Y023252D01*
X004220Y023134D02*
X022815Y023134D01*
X022735Y022186D02*
X006870Y022186D01*
X006833Y021830D02*
X022722Y021830D01*
X022677Y021949D02*
X004220Y021949D01*
X004220Y022067D02*
X022679Y022067D01*
X022577Y021238D02*
X023618Y021238D01*
X023742Y021119D02*
X022678Y021119D01*
X022780Y021001D02*
X025315Y021001D01*
X025315Y021119D02*
X025228Y021119D01*
X025225Y020882D02*
X025315Y020882D01*
X024745Y020882D02*
X024225Y020882D01*
X024351Y020764D02*
X024620Y020764D01*
X024564Y020645D02*
X024406Y020645D01*
X024430Y020527D02*
X024540Y020527D01*
X024542Y020408D02*
X024428Y020408D01*
X024379Y020290D02*
X024591Y020290D01*
X024685Y020171D02*
X024285Y020171D01*
X023685Y020171D02*
X021095Y020171D01*
X021095Y020053D02*
X025097Y020053D01*
X024979Y019934D02*
X021095Y019934D01*
X021095Y019816D02*
X024860Y019816D01*
X024742Y019697D02*
X021095Y019697D01*
X021095Y019579D02*
X024623Y019579D01*
X024505Y019460D02*
X021095Y019460D01*
X021095Y019342D02*
X024386Y019342D01*
X024268Y019223D02*
X021095Y019223D01*
X021095Y019105D02*
X024149Y019105D01*
X024031Y018986D02*
X021027Y018986D01*
X021144Y018868D02*
X021326Y018868D01*
X021644Y018868D02*
X021826Y018868D01*
X023045Y017920D02*
X025215Y017920D01*
X025215Y018038D02*
X023163Y018038D01*
X022926Y017801D02*
X023607Y017801D01*
X023763Y017801D02*
X025215Y017801D01*
X025215Y017683D02*
X023938Y017683D01*
X023992Y017564D02*
X025215Y017564D01*
X025215Y017446D02*
X023993Y017446D01*
X024294Y017327D02*
X025215Y017327D01*
X025215Y017209D02*
X024374Y017209D01*
X024393Y017090D02*
X025215Y017090D01*
X025215Y016972D02*
X024635Y016972D01*
X024755Y016853D02*
X025215Y016853D01*
X025215Y016735D02*
X024793Y016735D01*
X024784Y016616D02*
X025215Y016616D01*
X025215Y016498D02*
X025123Y016498D01*
X025186Y016379D02*
X025215Y016379D01*
X025215Y016261D02*
X025193Y016261D01*
X025187Y016142D02*
X025153Y016142D01*
X025068Y016024D02*
X025023Y016024D01*
X024950Y015905D02*
X024630Y015905D01*
X024512Y015787D02*
X024831Y015787D01*
X024713Y015668D02*
X024393Y015668D01*
X024275Y015550D02*
X024594Y015550D01*
X024476Y015431D02*
X024156Y015431D01*
X024038Y015313D02*
X024357Y015313D01*
X024239Y015194D02*
X023919Y015194D01*
X023801Y015076D02*
X024120Y015076D01*
X024002Y014957D02*
X023682Y014957D01*
X023593Y014839D02*
X023883Y014839D01*
X023765Y014720D02*
X023585Y014720D01*
X023646Y014602D02*
X023522Y014602D01*
X023528Y014483D02*
X023138Y014483D01*
X023048Y014602D02*
X022962Y014602D01*
X022632Y014483D02*
X017942Y014483D01*
X017824Y014602D02*
X021048Y014602D01*
X020985Y014720D02*
X017705Y014720D01*
X017587Y014839D02*
X020977Y014839D01*
X021017Y014957D02*
X017468Y014957D01*
X017350Y015076D02*
X021145Y015076D01*
X021439Y015194D02*
X017231Y015194D01*
X017113Y015313D02*
X021557Y015313D01*
X021676Y015431D02*
X016994Y015431D01*
X016876Y015550D02*
X021794Y015550D01*
X021913Y015668D02*
X016757Y015668D01*
X016639Y015787D02*
X022031Y015787D01*
X022150Y015905D02*
X016520Y015905D01*
X016402Y016024D02*
X022268Y016024D01*
X022387Y016142D02*
X016283Y016142D01*
X016165Y016261D02*
X022505Y016261D01*
X022624Y016379D02*
X016046Y016379D01*
X015928Y016498D02*
X022742Y016498D01*
X022861Y016616D02*
X015809Y016616D01*
X014588Y014957D02*
X013155Y014957D01*
X013155Y014839D02*
X014388Y014839D01*
X014301Y014720D02*
X013155Y014720D01*
X013155Y014602D02*
X014277Y014602D01*
X014300Y014483D02*
X013155Y014483D01*
X013155Y014365D02*
X014309Y014365D01*
X014191Y014246D02*
X013155Y014246D01*
X013155Y014128D02*
X014072Y014128D01*
X013954Y014009D02*
X013155Y014009D01*
X013155Y013891D02*
X013835Y013891D01*
X013717Y013772D02*
X013155Y013772D01*
X013155Y013654D02*
X013598Y013654D01*
X013480Y013535D02*
X013155Y013535D01*
X013142Y013417D02*
X013361Y013417D01*
X012815Y013772D02*
X012533Y013772D01*
X013612Y012587D02*
X016015Y012587D01*
X016015Y012469D02*
X013494Y012469D01*
X013375Y012350D02*
X016015Y012350D01*
X016015Y012232D02*
X007076Y012232D01*
X006975Y012113D02*
X016015Y012113D01*
X016015Y011995D02*
X014245Y011995D01*
X014265Y011975D02*
X014160Y012080D01*
X014010Y012080D01*
X013905Y011975D01*
X013905Y011756D01*
X013824Y011675D01*
X013822Y011670D01*
X013248Y011670D01*
X013246Y011675D01*
X013160Y011761D01*
X013046Y011808D01*
X012924Y011808D01*
X012811Y011761D01*
X012724Y011675D01*
X012677Y011561D01*
X012677Y011439D01*
X012724Y011325D01*
X012811Y011239D01*
X012924Y011192D01*
X013046Y011192D01*
X013160Y011239D01*
X013246Y011325D01*
X013248Y011330D01*
X013822Y011330D01*
X013824Y011325D01*
X013911Y011239D01*
X014024Y011192D01*
X014146Y011192D01*
X014260Y011239D01*
X014346Y011325D01*
X014393Y011439D01*
X014393Y011561D01*
X014346Y011675D01*
X014265Y011756D01*
X014265Y011975D01*
X014265Y011876D02*
X016015Y011876D01*
X016015Y011758D02*
X014265Y011758D01*
X014361Y011639D02*
X016015Y011639D01*
X016015Y011521D02*
X014393Y011521D01*
X014378Y011402D02*
X015947Y011402D01*
X015664Y011284D02*
X014304Y011284D01*
X014085Y011500D02*
X014085Y011900D01*
X013905Y011876D02*
X006255Y011876D01*
X006255Y011995D02*
X013925Y011995D01*
X013905Y011758D02*
X013163Y011758D01*
X012807Y011758D02*
X006368Y011758D01*
X006124Y011521D02*
X005786Y011521D01*
X005786Y011639D02*
X006006Y011639D01*
X005915Y011758D02*
X005786Y011758D01*
X005740Y011876D02*
X005915Y011876D01*
X005915Y011995D02*
X005691Y011995D01*
X005610Y012113D02*
X005915Y012113D01*
X005915Y012232D02*
X005492Y012232D01*
X005281Y012350D02*
X005915Y012350D01*
X005915Y012469D02*
X004220Y012469D01*
X004220Y012587D02*
X005915Y012587D01*
X005915Y012706D02*
X004220Y012706D01*
X004220Y012824D02*
X005969Y012824D01*
X006087Y012943D02*
X004220Y012943D01*
X004220Y013061D02*
X006206Y013061D01*
X006255Y012232D02*
X006296Y012232D01*
X006255Y012113D02*
X006397Y012113D01*
X006948Y011639D02*
X012709Y011639D01*
X012677Y011521D02*
X007064Y011521D01*
X007113Y011402D02*
X012692Y011402D01*
X012766Y011284D02*
X007131Y011284D01*
X007123Y011165D02*
X015520Y011165D01*
X015477Y011047D02*
X007074Y011047D01*
X006971Y010928D02*
X015481Y010928D01*
X013866Y011284D02*
X013204Y011284D01*
X013731Y012706D02*
X016015Y012706D01*
X016015Y012824D02*
X013849Y012824D01*
X013968Y012943D02*
X016015Y012943D01*
X016015Y013061D02*
X014086Y013061D01*
X014205Y013180D02*
X016015Y013180D01*
X016015Y013298D02*
X014323Y013298D01*
X014442Y013417D02*
X016015Y013417D01*
X016010Y013535D02*
X014560Y013535D01*
X014679Y013654D02*
X015891Y013654D01*
X015773Y013772D02*
X014797Y013772D01*
X014916Y013891D02*
X015654Y013891D01*
X015536Y014009D02*
X015230Y014009D01*
X015289Y014128D02*
X015417Y014128D01*
X015299Y014246D02*
X015293Y014246D01*
X018061Y014365D02*
X022578Y014365D01*
X022577Y014246D02*
X018179Y014246D01*
X018298Y014128D02*
X022623Y014128D01*
X022782Y014009D02*
X018416Y014009D01*
X018535Y013891D02*
X022877Y013891D01*
X022905Y013772D02*
X021229Y013772D01*
X021207Y013781D02*
X021279Y013751D01*
X021344Y013708D01*
X021399Y013653D01*
X021442Y013588D01*
X021472Y013516D01*
X021488Y013439D01*
X021488Y013419D01*
X021110Y013419D01*
X021073Y013419D01*
X021073Y013796D01*
X021052Y013796D01*
X020976Y013781D01*
X020904Y013751D01*
X020839Y013708D01*
X020784Y013653D01*
X020740Y013588D01*
X020710Y013516D01*
X020695Y013439D01*
X020695Y013419D01*
X021073Y013419D01*
X021073Y013381D01*
X021110Y013381D01*
X021110Y013004D01*
X021130Y013004D01*
X021207Y013019D01*
X021279Y013049D01*
X021344Y013092D01*
X021399Y013147D01*
X021442Y013212D01*
X021472Y013284D01*
X021488Y013361D01*
X021488Y013381D01*
X021110Y013381D01*
X021110Y013419D01*
X021110Y013796D01*
X021130Y013796D01*
X021207Y013781D01*
X021110Y013772D02*
X021073Y013772D01*
X021073Y013654D02*
X021110Y013654D01*
X021110Y013535D02*
X021073Y013535D01*
X021073Y013417D02*
X019009Y013417D01*
X018890Y013535D02*
X020718Y013535D01*
X020785Y013654D02*
X018772Y013654D01*
X018653Y013772D02*
X020954Y013772D01*
X021110Y013417D02*
X021523Y013417D01*
X021523Y013535D02*
X021464Y013535D01*
X021523Y013654D02*
X021398Y013654D01*
X021523Y013686D02*
X021593Y013756D01*
X022165Y013756D01*
X022235Y013686D01*
X022235Y013114D01*
X022165Y013044D01*
X021593Y013044D01*
X021523Y013114D01*
X021523Y013686D01*
X021523Y013298D02*
X021475Y013298D01*
X021523Y013180D02*
X021421Y013180D01*
X021297Y013061D02*
X021576Y013061D01*
X021110Y013061D02*
X021073Y013061D01*
X021073Y013004D02*
X021073Y013381D01*
X020695Y013381D01*
X020695Y013361D01*
X020710Y013284D01*
X020740Y013212D01*
X020784Y013147D01*
X020839Y013092D01*
X020904Y013049D01*
X020976Y013019D01*
X021052Y013004D01*
X021073Y013004D01*
X021073Y013180D02*
X021110Y013180D01*
X021110Y013298D02*
X021073Y013298D01*
X020885Y013061D02*
X019364Y013061D01*
X019246Y013180D02*
X020762Y013180D01*
X020708Y013298D02*
X019127Y013298D01*
X019483Y012943D02*
X023187Y012943D01*
X023306Y013061D02*
X022182Y013061D01*
X022235Y013180D02*
X023424Y013180D01*
X023540Y013298D02*
X022235Y013298D01*
X022235Y013417D02*
X023540Y013417D01*
X023540Y013535D02*
X022235Y013535D01*
X022235Y013654D02*
X022996Y013654D01*
X023374Y013654D02*
X023540Y013654D01*
X023540Y013772D02*
X023497Y013772D01*
X023069Y012824D02*
X019601Y012824D01*
X019720Y012706D02*
X023015Y012706D01*
X023015Y012587D02*
X019838Y012587D01*
X019957Y012469D02*
X023015Y012469D01*
X023015Y012350D02*
X020075Y012350D01*
X020194Y012232D02*
X023015Y012232D01*
X023015Y012113D02*
X020312Y012113D01*
X020431Y011995D02*
X023015Y011995D01*
X023015Y011876D02*
X020549Y011876D01*
X020668Y011758D02*
X023015Y011758D01*
X022984Y011639D02*
X020786Y011639D01*
X020905Y011521D02*
X022865Y011521D01*
X022747Y011402D02*
X021023Y011402D01*
X019286Y009625D02*
X025683Y009625D01*
X025743Y009506D02*
X019185Y009506D01*
X019185Y009388D02*
X025805Y009388D01*
X025805Y009269D02*
X019185Y009269D01*
X019185Y009151D02*
X025805Y009151D01*
X025805Y009032D02*
X019185Y009032D01*
X019185Y008914D02*
X025805Y008914D01*
X025805Y008795D02*
X019185Y008795D01*
X019185Y008677D02*
X025805Y008677D01*
X025805Y008558D02*
X019192Y008558D01*
X019185Y008440D02*
X025805Y008440D01*
X025805Y008321D02*
X019089Y008321D01*
X018939Y008203D02*
X025733Y008203D01*
X025614Y008084D02*
X018795Y008084D01*
X018735Y007966D02*
X025496Y007966D01*
X025377Y007847D02*
X018735Y007847D01*
X018735Y007729D02*
X025259Y007729D01*
X025531Y007492D02*
X027535Y007492D01*
X027535Y007410D02*
X027604Y007245D01*
X027730Y007119D01*
X027896Y007050D01*
X028075Y007050D01*
X028240Y007119D01*
X028367Y007245D01*
X028435Y007410D01*
X028435Y007590D01*
X028367Y007755D01*
X028240Y007881D01*
X028075Y007950D01*
X027896Y007950D01*
X027730Y007881D01*
X027604Y007755D01*
X027535Y007590D01*
X027535Y007410D01*
X027551Y007373D02*
X025413Y007373D01*
X025294Y007255D02*
X027600Y007255D01*
X027713Y007136D02*
X025176Y007136D01*
X025093Y007018D02*
X028899Y007018D01*
X028870Y007022D02*
X028946Y007010D01*
X028947Y007010D01*
X028947Y007462D01*
X029023Y007462D01*
X029023Y007010D01*
X029024Y007010D01*
X029100Y007022D01*
X029173Y007046D01*
X029242Y007081D01*
X029304Y007126D01*
X029359Y007181D01*
X029404Y007243D01*
X029439Y007312D01*
X029463Y007385D01*
X029475Y007461D01*
X029475Y007462D01*
X029023Y007462D01*
X029023Y007538D01*
X029475Y007538D01*
X029475Y007539D01*
X029463Y007615D01*
X029439Y007688D01*
X029404Y007757D01*
X029359Y007819D01*
X029304Y007874D01*
X029242Y007919D01*
X029173Y007954D01*
X029100Y007978D01*
X029024Y007990D01*
X029023Y007990D01*
X029023Y007538D01*
X028947Y007538D01*
X028947Y007462D01*
X028495Y007462D01*
X028495Y007461D01*
X028507Y007385D01*
X028531Y007312D01*
X028566Y007243D01*
X028611Y007181D01*
X028666Y007126D01*
X028728Y007081D01*
X028797Y007046D01*
X028870Y007022D01*
X028896Y006950D02*
X028730Y006881D01*
X028604Y006755D01*
X028535Y006590D01*
X028535Y006410D01*
X028604Y006245D01*
X028730Y006119D01*
X028896Y006050D01*
X029075Y006050D01*
X029240Y006119D01*
X029367Y006245D01*
X029435Y006410D01*
X029435Y006590D01*
X029367Y006755D01*
X029240Y006881D01*
X029075Y006950D01*
X028896Y006950D01*
X028947Y007018D02*
X029023Y007018D01*
X029071Y007018D02*
X029750Y007018D01*
X029750Y007136D02*
X029314Y007136D01*
X029410Y007255D02*
X029750Y007255D01*
X029750Y007373D02*
X029459Y007373D01*
X029464Y007610D02*
X029750Y007610D01*
X029750Y007492D02*
X029023Y007492D01*
X028947Y007492D02*
X028435Y007492D01*
X028495Y007538D02*
X028947Y007538D01*
X028947Y007990D01*
X028946Y007990D01*
X028870Y007978D01*
X028797Y007954D01*
X028728Y007919D01*
X028666Y007874D01*
X028611Y007819D01*
X028566Y007757D01*
X028531Y007688D01*
X028507Y007615D01*
X028495Y007539D01*
X028495Y007538D01*
X028506Y007610D02*
X028427Y007610D01*
X028377Y007729D02*
X028552Y007729D01*
X028639Y007847D02*
X028274Y007847D01*
X028365Y008050D02*
X028435Y008120D01*
X028435Y008880D01*
X028365Y008950D01*
X027605Y008950D01*
X027535Y008880D01*
X027535Y008120D01*
X027605Y008050D01*
X028365Y008050D01*
X028399Y008084D02*
X028813Y008084D01*
X028896Y008050D02*
X029075Y008050D01*
X029240Y008119D01*
X029367Y008245D01*
X029435Y008410D01*
X029435Y008590D01*
X029367Y008755D01*
X029240Y008881D01*
X029075Y008950D01*
X028896Y008950D01*
X028730Y008881D01*
X028604Y008755D01*
X028535Y008590D01*
X028535Y008410D01*
X028604Y008245D01*
X028730Y008119D01*
X028896Y008050D01*
X028947Y007966D02*
X029023Y007966D01*
X029138Y007966D02*
X029750Y007966D01*
X029750Y008084D02*
X029157Y008084D01*
X029324Y008203D02*
X029750Y008203D01*
X029750Y008321D02*
X029398Y008321D01*
X029435Y008440D02*
X029750Y008440D01*
X029750Y008558D02*
X029435Y008558D01*
X029399Y008677D02*
X029750Y008677D01*
X029750Y008795D02*
X029326Y008795D01*
X029163Y008914D02*
X029750Y008914D01*
X029750Y009032D02*
X026165Y009032D01*
X026165Y008914D02*
X027569Y008914D01*
X027535Y008795D02*
X026165Y008795D01*
X026165Y008677D02*
X027535Y008677D01*
X027535Y008558D02*
X026165Y008558D01*
X026165Y008440D02*
X027535Y008440D01*
X027535Y008321D02*
X026165Y008321D01*
X026165Y008203D02*
X027535Y008203D01*
X027571Y008084D02*
X026124Y008084D01*
X026005Y007966D02*
X028832Y007966D01*
X028947Y007847D02*
X029023Y007847D01*
X029023Y007729D02*
X028947Y007729D01*
X028947Y007610D02*
X029023Y007610D01*
X029023Y007373D02*
X028947Y007373D01*
X028947Y007255D02*
X029023Y007255D01*
X029023Y007136D02*
X028947Y007136D01*
X028656Y007136D02*
X028257Y007136D01*
X028370Y007255D02*
X028560Y007255D01*
X028511Y007373D02*
X028420Y007373D01*
X028240Y006881D02*
X028075Y006950D01*
X027896Y006950D01*
X027730Y006881D01*
X027604Y006755D01*
X027535Y006590D01*
X027535Y006410D01*
X027604Y006245D01*
X027730Y006119D01*
X027896Y006050D01*
X028075Y006050D01*
X028240Y006119D01*
X028367Y006245D01*
X028435Y006410D01*
X028435Y006590D01*
X028367Y006755D01*
X028240Y006881D01*
X028198Y006899D02*
X028772Y006899D01*
X028629Y006781D02*
X028341Y006781D01*
X028405Y006662D02*
X028565Y006662D01*
X028535Y006544D02*
X028435Y006544D01*
X028435Y006425D02*
X028535Y006425D01*
X028578Y006307D02*
X028392Y006307D01*
X028309Y006188D02*
X028661Y006188D01*
X028848Y006070D02*
X028122Y006070D01*
X027848Y006070D02*
X025040Y006070D01*
X025043Y005951D02*
X029750Y005951D01*
X029750Y005833D02*
X024999Y005833D01*
X024850Y005714D02*
X026163Y005714D01*
X026124Y005675D02*
X026211Y005761D01*
X026324Y005808D01*
X026446Y005808D01*
X026560Y005761D01*
X026646Y005675D01*
X026693Y005561D01*
X026693Y005439D01*
X026646Y005325D01*
X026560Y005239D01*
X026555Y005237D01*
X026555Y004863D01*
X026560Y004861D01*
X026646Y004775D01*
X026693Y004661D01*
X026693Y004539D01*
X026646Y004425D01*
X026560Y004339D01*
X026446Y004292D01*
X026324Y004292D01*
X026211Y004339D01*
X026124Y004425D01*
X026077Y004539D01*
X026077Y004661D01*
X026124Y004775D01*
X026211Y004861D01*
X026215Y004863D01*
X026215Y005237D01*
X026211Y005239D01*
X026124Y005325D01*
X026077Y005439D01*
X026077Y005561D01*
X026124Y005675D01*
X026091Y005596D02*
X022521Y005596D01*
X022639Y005714D02*
X024620Y005714D01*
X024487Y006188D02*
X021185Y006188D01*
X021185Y006070D02*
X022514Y006070D01*
X022396Y005951D02*
X021185Y005951D01*
X021185Y005833D02*
X022277Y005833D01*
X022159Y005714D02*
X021185Y005714D01*
X021185Y005596D02*
X022040Y005596D01*
X021922Y005477D02*
X021185Y005477D01*
X021185Y005359D02*
X021803Y005359D01*
X021685Y005240D02*
X021185Y005240D01*
X021185Y005122D02*
X021371Y005122D01*
X021294Y005003D02*
X021185Y005003D01*
X021185Y004885D02*
X021277Y004885D01*
X021307Y004766D02*
X021202Y004766D01*
X021320Y004648D02*
X021402Y004648D01*
X021639Y004529D02*
X022322Y004529D01*
X022324Y004525D02*
X022399Y004450D01*
X022324Y004375D01*
X022277Y004261D01*
X022277Y004139D01*
X022324Y004025D01*
X022411Y003939D01*
X022524Y003892D01*
X022646Y003892D01*
X022760Y003939D01*
X022846Y004025D01*
X022890Y004130D01*
X023522Y004130D01*
X023524Y004125D01*
X023611Y004039D01*
X023724Y003992D01*
X023846Y003992D01*
X023960Y004039D01*
X024046Y004125D01*
X024093Y004239D01*
X024093Y004361D01*
X024046Y004475D01*
X023971Y004550D01*
X024046Y004625D01*
X024093Y004739D01*
X024093Y004861D01*
X024046Y004975D01*
X023960Y005061D01*
X023846Y005108D01*
X023724Y005108D01*
X023611Y005061D01*
X023524Y004975D01*
X023522Y004970D01*
X022738Y004970D01*
X022646Y005008D01*
X022524Y005008D01*
X022411Y004961D01*
X022324Y004875D01*
X022277Y004761D01*
X022277Y004639D01*
X022324Y004525D01*
X022360Y004411D02*
X021757Y004411D01*
X021685Y004483D02*
X021685Y004483D01*
X021768Y004648D02*
X022277Y004648D01*
X022279Y004766D02*
X021863Y004766D01*
X021893Y004885D02*
X022334Y004885D01*
X022511Y005003D02*
X021928Y005003D01*
X022047Y005122D02*
X026215Y005122D01*
X026209Y005240D02*
X022165Y005240D01*
X022284Y005359D02*
X026110Y005359D01*
X026077Y005477D02*
X022402Y005477D01*
X022659Y005003D02*
X023552Y005003D01*
X024018Y005003D02*
X026215Y005003D01*
X026215Y004885D02*
X024084Y004885D01*
X024093Y004766D02*
X026120Y004766D01*
X026077Y004648D02*
X024055Y004648D01*
X023992Y004529D02*
X026081Y004529D01*
X026139Y004411D02*
X024073Y004411D01*
X024093Y004292D02*
X024656Y004292D01*
X024497Y004256D02*
X024497Y004256D01*
X024394Y004174D02*
X024066Y004174D01*
X023976Y004055D02*
X024267Y004055D01*
X024280Y004082D02*
X024280Y004082D01*
X024280Y004082D01*
X024210Y003937D02*
X022754Y003937D01*
X022858Y004055D02*
X023594Y004055D01*
X024159Y003818D02*
X021885Y003818D01*
X021885Y003700D02*
X024159Y003700D01*
X024159Y003581D02*
X021849Y003581D01*
X021768Y003500D02*
X021768Y003500D01*
X021402Y003700D02*
X021320Y003700D01*
X021283Y003581D02*
X021006Y003581D01*
X020763Y003818D02*
X020220Y003818D01*
X020220Y003700D02*
X020644Y003700D01*
X020526Y003581D02*
X020220Y003581D01*
X020220Y003937D02*
X020777Y003937D01*
X020816Y004055D02*
X020220Y004055D01*
X020220Y004174D02*
X020940Y004174D01*
X021110Y004292D02*
X020195Y004292D01*
X020146Y004411D02*
X020992Y004411D01*
X020873Y004529D02*
X020058Y004529D01*
X020124Y004462D02*
X020124Y004462D01*
X019947Y004639D02*
X019947Y004639D01*
X019928Y004648D02*
X020785Y004648D01*
X020785Y004766D02*
X016113Y004766D01*
X016075Y004750D02*
X016240Y004819D01*
X016367Y004945D01*
X016435Y005110D01*
X016435Y005290D01*
X016367Y005455D01*
X016240Y005581D01*
X016075Y005650D01*
X015896Y005650D01*
X015730Y005581D01*
X015604Y005455D01*
X015535Y005290D01*
X015535Y005110D01*
X015604Y004945D01*
X015730Y004819D01*
X015896Y004750D01*
X016075Y004750D01*
X015857Y004766D02*
X015113Y004766D01*
X015075Y004750D02*
X015240Y004819D01*
X015367Y004945D01*
X015435Y005110D01*
X015435Y005290D01*
X015367Y005455D01*
X015240Y005581D01*
X015075Y005650D01*
X014896Y005650D01*
X014730Y005581D01*
X014604Y005455D01*
X014535Y005290D01*
X014535Y005110D01*
X014604Y004945D01*
X014730Y004819D01*
X014896Y004750D01*
X015075Y004750D01*
X014857Y004766D02*
X014381Y004766D01*
X014435Y004885D02*
X014664Y004885D01*
X014580Y005003D02*
X014435Y005003D01*
X014435Y005122D02*
X014535Y005122D01*
X014535Y005240D02*
X014435Y005240D01*
X014435Y005359D02*
X014564Y005359D01*
X014626Y005477D02*
X014435Y005477D01*
X014419Y005596D02*
X014764Y005596D01*
X015206Y005596D02*
X015764Y005596D01*
X015626Y005477D02*
X015344Y005477D01*
X015406Y005359D02*
X015564Y005359D01*
X015535Y005240D02*
X015435Y005240D01*
X015435Y005122D02*
X015535Y005122D01*
X015580Y005003D02*
X015391Y005003D01*
X015306Y004885D02*
X015664Y004885D01*
X016306Y004885D02*
X020785Y004885D01*
X020785Y005003D02*
X016391Y005003D01*
X016435Y005122D02*
X020785Y005122D01*
X020785Y005240D02*
X016435Y005240D01*
X016406Y005359D02*
X017844Y005359D01*
X017725Y005477D02*
X016344Y005477D01*
X016206Y005596D02*
X017515Y005596D01*
X017935Y005833D02*
X019017Y005833D01*
X019125Y005951D02*
X017893Y005951D01*
X017848Y006070D02*
X019232Y006070D01*
X019340Y006188D02*
X017695Y006188D01*
X017475Y006188D02*
X007131Y006188D01*
X007131Y006307D02*
X019448Y006307D01*
X019556Y006425D02*
X007131Y006425D01*
X007131Y006544D02*
X019663Y006544D01*
X019771Y006662D02*
X007131Y006662D01*
X007131Y006781D02*
X019879Y006781D01*
X020001Y006899D02*
X007131Y006899D01*
X006734Y007373D02*
X006638Y007373D01*
X006638Y007492D02*
X006734Y007492D01*
X006734Y007610D02*
X006638Y007610D01*
X006241Y006899D02*
X005623Y006899D01*
X005696Y007018D02*
X020120Y007018D01*
X020330Y006662D02*
X020540Y006662D01*
X020659Y006544D02*
X020211Y006544D01*
X020096Y006425D02*
X020777Y006425D01*
X020785Y006307D02*
X019989Y006307D01*
X019881Y006188D02*
X020785Y006188D01*
X020785Y006070D02*
X019773Y006070D01*
X019665Y005951D02*
X020785Y005951D01*
X020785Y005833D02*
X019558Y005833D01*
X019450Y005714D02*
X020785Y005714D01*
X020785Y005596D02*
X019342Y005596D01*
X019234Y005477D02*
X020785Y005477D01*
X020785Y005359D02*
X019127Y005359D01*
X018909Y005714D02*
X018054Y005714D01*
X018023Y007729D02*
X017880Y007729D01*
X017957Y007847D02*
X018023Y007847D01*
X018023Y007966D02*
X017988Y007966D01*
X017979Y008084D02*
X018023Y008084D01*
X018023Y008203D02*
X017933Y008203D01*
X017824Y008321D02*
X018058Y008321D01*
X018209Y009388D02*
X004220Y009388D01*
X004220Y009506D02*
X018209Y009506D01*
X018209Y009862D02*
X007072Y009862D01*
X007121Y009980D02*
X018209Y009980D01*
X018209Y010099D02*
X007131Y010099D01*
X007115Y010217D02*
X018209Y010217D01*
X018209Y010336D02*
X007066Y010336D01*
X006951Y010454D02*
X018209Y010454D01*
X018209Y010573D02*
X004220Y010573D01*
X004220Y010691D02*
X018209Y010691D01*
X020750Y007018D02*
X021349Y007018D01*
X021230Y006899D02*
X020869Y006899D01*
X020987Y006781D02*
X021112Y006781D01*
X021356Y006544D02*
X027535Y006544D01*
X027535Y006425D02*
X021237Y006425D01*
X021185Y006307D02*
X024670Y006307D01*
X024800Y006307D02*
X027578Y006307D01*
X027661Y006188D02*
X024983Y006188D01*
X025001Y006781D02*
X027629Y006781D01*
X027565Y006662D02*
X023183Y006662D01*
X022787Y006662D02*
X021474Y006662D01*
X022785Y007136D02*
X005745Y007136D01*
X005504Y006781D02*
X006241Y006781D01*
X006241Y006662D02*
X005311Y006662D01*
X004220Y008558D02*
X006408Y008558D01*
X006301Y008677D02*
X004220Y008677D01*
X004220Y008795D02*
X006252Y008795D01*
X006241Y008914D02*
X004220Y008914D01*
X004220Y009032D02*
X006255Y009032D01*
X006304Y009151D02*
X004220Y009151D01*
X004220Y009269D02*
X006416Y009269D01*
X004817Y010810D02*
X004220Y010810D01*
X004220Y010928D02*
X004531Y010928D01*
X004413Y011047D02*
X004220Y011047D01*
X004220Y011165D02*
X004301Y011165D01*
X004252Y011284D02*
X004220Y011284D01*
X004220Y011876D02*
X004230Y011876D01*
X004220Y011995D02*
X004279Y011995D01*
X004220Y012113D02*
X004360Y012113D01*
X004478Y012232D02*
X004220Y012232D01*
X004220Y012350D02*
X004689Y012350D01*
X005767Y011402D02*
X006243Y011402D01*
X006241Y011284D02*
X005718Y011284D01*
X005669Y011165D02*
X006249Y011165D01*
X006298Y011047D02*
X005557Y011047D01*
X005884Y017209D02*
X004220Y017209D01*
X004220Y017327D02*
X005723Y017327D01*
X005677Y017446D02*
X004220Y017446D01*
X004220Y017564D02*
X005678Y017564D01*
X005732Y017683D02*
X004220Y017683D01*
X004220Y017801D02*
X005785Y017801D01*
X005785Y017920D02*
X004220Y017920D01*
X004220Y018038D02*
X005785Y018038D01*
X005785Y018157D02*
X004220Y018157D01*
X004220Y018275D02*
X005785Y018275D01*
X005785Y018394D02*
X004220Y018394D01*
X004220Y018512D02*
X005868Y018512D01*
X005986Y018631D02*
X004220Y018631D01*
X004220Y018749D02*
X006105Y018749D01*
X006223Y018868D02*
X004220Y018868D01*
X004220Y018986D02*
X006241Y018986D01*
X006241Y019105D02*
X005172Y019105D01*
X005447Y019223D02*
X006241Y019223D01*
X006241Y019342D02*
X005565Y019342D01*
X005672Y019460D02*
X006279Y019460D01*
X004798Y019105D02*
X004220Y019105D01*
X004220Y019223D02*
X004524Y019223D01*
X004405Y019342D02*
X004220Y019342D01*
X004220Y019460D02*
X004298Y019460D01*
X004249Y019579D02*
X004220Y019579D01*
X004220Y020171D02*
X004233Y020171D01*
X004220Y020290D02*
X004282Y020290D01*
X004220Y020408D02*
X004367Y020408D01*
X004486Y020527D02*
X004220Y020527D01*
X004220Y020645D02*
X004707Y020645D01*
X004669Y023371D02*
X004220Y023371D01*
X004220Y023489D02*
X004470Y023489D01*
X004352Y023608D02*
X004220Y023608D01*
X004220Y023726D02*
X004276Y023726D01*
X004227Y023845D02*
X004220Y023845D01*
X004220Y024437D02*
X004256Y024437D01*
X004220Y024556D02*
X004305Y024556D01*
X004220Y024674D02*
X004421Y024674D01*
X004550Y024793D02*
X004220Y024793D01*
X004220Y024911D02*
X006241Y024911D01*
X006241Y024864D02*
X006309Y024701D01*
X006434Y024576D01*
X006597Y024508D01*
X006774Y024508D01*
X006938Y024576D01*
X007063Y024701D01*
X007131Y024864D01*
X007131Y025041D01*
X007063Y025205D01*
X006938Y025330D01*
X006774Y025398D01*
X006597Y025398D01*
X006434Y025330D01*
X006309Y025205D01*
X006241Y025041D01*
X006241Y024864D01*
X006271Y024793D02*
X005420Y024793D01*
X005549Y024674D02*
X006335Y024674D01*
X006482Y024556D02*
X005665Y024556D01*
X005715Y024437D02*
X017329Y024437D01*
X017290Y024556D02*
X006889Y024556D01*
X007036Y024674D02*
X017290Y024674D01*
X017330Y024793D02*
X007101Y024793D01*
X007131Y024911D02*
X017415Y024911D01*
X017996Y024911D02*
X019974Y024911D01*
X019889Y024793D02*
X018081Y024793D01*
X018121Y024674D02*
X019849Y024674D01*
X019849Y024556D02*
X018121Y024556D01*
X018082Y024437D02*
X019888Y024437D01*
X019973Y024319D02*
X017997Y024319D01*
X017414Y024319D02*
X005764Y024319D01*
X006241Y025030D02*
X004220Y025030D01*
X004220Y025148D02*
X006285Y025148D01*
X006371Y025267D02*
X004220Y025267D01*
X004220Y025385D02*
X006567Y025385D01*
X006804Y025385D02*
X023986Y025385D01*
X023789Y025475D02*
X023789Y025475D01*
X023756Y025504D02*
X004220Y025504D01*
X004220Y025622D02*
X023619Y025622D01*
X023482Y025741D02*
X004220Y025741D01*
X004220Y025859D02*
X013596Y025859D01*
X013605Y025850D02*
X014365Y025850D01*
X014435Y025920D01*
X014435Y026680D01*
X014365Y026750D01*
X013605Y026750D01*
X013535Y026680D01*
X013535Y025920D01*
X013605Y025850D01*
X013535Y025978D02*
X004220Y025978D01*
X004220Y026096D02*
X013535Y026096D01*
X013535Y026215D02*
X004220Y026215D01*
X004220Y026333D02*
X013535Y026333D01*
X013535Y026452D02*
X004220Y026452D01*
X004220Y026570D02*
X013535Y026570D01*
X013544Y026689D02*
X004244Y026689D01*
X007001Y025267D02*
X024246Y025267D01*
X023399Y025813D02*
X023399Y025813D01*
X023369Y025859D02*
X016096Y025859D01*
X016075Y025850D02*
X016240Y025919D01*
X016367Y026045D01*
X016435Y026210D01*
X016435Y026390D01*
X016367Y026555D01*
X016240Y026681D01*
X016075Y026750D01*
X015896Y026750D01*
X015730Y026681D01*
X015604Y026555D01*
X015535Y026390D01*
X015535Y026210D01*
X015604Y026045D01*
X015730Y025919D01*
X015896Y025850D01*
X016075Y025850D01*
X015874Y025859D02*
X015096Y025859D01*
X015075Y025850D02*
X015240Y025919D01*
X015367Y026045D01*
X015435Y026210D01*
X015435Y026390D01*
X015367Y026555D01*
X015240Y026681D01*
X015075Y026750D01*
X014896Y026750D01*
X014730Y026681D01*
X014604Y026555D01*
X014535Y026390D01*
X014535Y026210D01*
X014604Y026045D01*
X014730Y025919D01*
X014896Y025850D01*
X015075Y025850D01*
X014874Y025859D02*
X014374Y025859D01*
X014435Y025978D02*
X014671Y025978D01*
X014582Y026096D02*
X014435Y026096D01*
X014435Y026215D02*
X014535Y026215D01*
X014535Y026333D02*
X014435Y026333D01*
X014435Y026452D02*
X014561Y026452D01*
X014619Y026570D02*
X014435Y026570D01*
X014426Y026689D02*
X014747Y026689D01*
X015223Y026689D02*
X015747Y026689D01*
X015619Y026570D02*
X015351Y026570D01*
X015409Y026452D02*
X015561Y026452D01*
X015535Y026333D02*
X015435Y026333D01*
X015435Y026215D02*
X015535Y026215D01*
X015582Y026096D02*
X015388Y026096D01*
X015299Y025978D02*
X015671Y025978D01*
X016299Y025978D02*
X017606Y025978D01*
X017805Y025978D02*
X020063Y025978D01*
X020090Y025964D02*
X020158Y025942D01*
X020226Y025931D01*
X020226Y026347D01*
X019810Y026347D01*
X019821Y026279D01*
X019843Y026211D01*
X019875Y026147D01*
X019917Y026089D01*
X019968Y026039D01*
X020026Y025996D01*
X020090Y025964D01*
X020226Y025978D02*
X020303Y025978D01*
X020303Y026096D02*
X020226Y026096D01*
X020226Y026215D02*
X020303Y026215D01*
X020303Y026333D02*
X020226Y026333D01*
X019912Y026096D02*
X018003Y026096D01*
X018084Y026215D02*
X019842Y026215D01*
X019812Y026333D02*
X018121Y026333D01*
X018121Y026452D02*
X019814Y026452D01*
X019847Y026570D02*
X018079Y026570D01*
X017990Y026689D02*
X019923Y026689D01*
X020606Y026689D02*
X022990Y026689D01*
X023025Y026570D02*
X020682Y026570D01*
X020715Y026452D02*
X023060Y026452D01*
X023095Y026333D02*
X020717Y026333D01*
X020688Y026215D02*
X023141Y026215D01*
X023120Y026247D02*
X023120Y026247D01*
X023217Y026096D02*
X020617Y026096D01*
X020466Y025978D02*
X023293Y025978D01*
X025291Y025267D02*
X029750Y025267D01*
X029750Y025385D02*
X025551Y025385D01*
X025781Y025504D02*
X029750Y025504D01*
X029750Y025622D02*
X025918Y025622D01*
X026055Y025741D02*
X029750Y025741D01*
X029750Y025859D02*
X026168Y025859D01*
X026138Y025813D02*
X026138Y025813D01*
X026244Y025978D02*
X029750Y025978D01*
X029750Y026096D02*
X026320Y026096D01*
X026396Y026215D02*
X029750Y026215D01*
X029750Y026333D02*
X026442Y026333D01*
X026417Y026247D02*
X026417Y026247D01*
X026477Y026452D02*
X029750Y026452D01*
X029750Y026570D02*
X026512Y026570D01*
X026547Y026689D02*
X029726Y026689D01*
X029750Y025148D02*
X007086Y025148D01*
X007131Y025030D02*
X029750Y025030D01*
X029750Y024674D02*
X028096Y024674D01*
X028143Y024556D02*
X029750Y024556D01*
X029750Y024437D02*
X028142Y024437D01*
X028089Y024319D02*
X029750Y024319D01*
X029750Y023015D02*
X025941Y023015D01*
X025855Y022897D02*
X029750Y022897D01*
X028892Y021949D02*
X028366Y021949D01*
X028435Y021830D02*
X028679Y021830D01*
X028586Y021712D02*
X028435Y021712D01*
X028435Y021593D02*
X028537Y021593D01*
X028535Y021475D02*
X028435Y021475D01*
X028435Y021356D02*
X028558Y021356D01*
X028611Y021238D02*
X028488Y021238D01*
X029239Y020882D02*
X029750Y020882D01*
X029750Y020764D02*
X029358Y020764D01*
X029412Y020645D02*
X029750Y020645D01*
X029750Y020527D02*
X029435Y020527D01*
X029434Y020408D02*
X029750Y020408D01*
X029750Y020290D02*
X029385Y020290D01*
X029292Y020171D02*
X029750Y020171D01*
X029750Y020053D02*
X029081Y020053D01*
X029100Y019978D02*
X029024Y019990D01*
X029023Y019990D01*
X029023Y019538D01*
X029475Y019538D01*
X029475Y019539D01*
X029463Y019615D01*
X029439Y019688D01*
X029404Y019757D01*
X029359Y019819D01*
X029304Y019874D01*
X029242Y019919D01*
X029173Y019954D01*
X029100Y019978D01*
X029023Y019934D02*
X028947Y019934D01*
X028947Y019816D02*
X029023Y019816D01*
X029023Y019697D02*
X028947Y019697D01*
X028947Y019579D02*
X029023Y019579D01*
X029023Y019460D02*
X028947Y019460D01*
X028947Y019342D02*
X029023Y019342D01*
X029023Y019223D02*
X028947Y019223D01*
X028947Y019105D02*
X029023Y019105D01*
X029274Y019105D02*
X029750Y019105D01*
X029750Y019223D02*
X029389Y019223D01*
X029449Y019342D02*
X029750Y019342D01*
X029750Y019460D02*
X029475Y019460D01*
X029469Y019579D02*
X029750Y019579D01*
X029750Y019697D02*
X029435Y019697D01*
X029361Y019816D02*
X029750Y019816D01*
X029750Y019934D02*
X029213Y019934D01*
X028889Y020053D02*
X028655Y020053D01*
X028655Y020171D02*
X028678Y020171D01*
X028655Y019934D02*
X028758Y019934D01*
X028315Y019934D02*
X028113Y019934D01*
X028081Y020053D02*
X028315Y020053D01*
X028315Y020171D02*
X028292Y020171D01*
X028306Y019816D02*
X028315Y019816D01*
X028655Y019105D02*
X028696Y019105D01*
X028611Y018986D02*
X029750Y018986D01*
X029750Y018868D02*
X028493Y018868D01*
X028374Y018749D02*
X029750Y018749D01*
X029750Y018631D02*
X027564Y018631D01*
X027593Y018512D02*
X029750Y018512D01*
X029750Y018394D02*
X027574Y018394D01*
X027496Y018275D02*
X027844Y018275D01*
X027811Y018261D02*
X027724Y018175D01*
X027677Y018061D01*
X027677Y017939D01*
X027724Y017825D01*
X027811Y017739D01*
X027865Y017716D01*
X027865Y017447D01*
X027788Y017447D01*
X027718Y017376D01*
X027718Y016750D01*
X027788Y016679D01*
X028282Y016679D01*
X028352Y016750D01*
X028352Y017376D01*
X028282Y017447D01*
X028205Y017447D01*
X028205Y017784D01*
X028246Y017825D01*
X028293Y017939D01*
X028293Y018061D01*
X028246Y018175D01*
X028160Y018261D01*
X028046Y018308D01*
X027924Y018308D01*
X027811Y018261D01*
X027716Y018157D02*
X027465Y018157D01*
X027465Y018038D02*
X027677Y018038D01*
X027685Y017920D02*
X027359Y017920D01*
X027241Y017801D02*
X027748Y017801D01*
X027865Y017683D02*
X027122Y017683D01*
X027004Y017564D02*
X027865Y017564D01*
X027787Y017446D02*
X026885Y017446D01*
X026767Y017327D02*
X027718Y017327D01*
X027718Y017209D02*
X026665Y017209D01*
X026665Y017090D02*
X027718Y017090D01*
X027718Y016972D02*
X026665Y016972D01*
X026665Y016853D02*
X027718Y016853D01*
X027733Y016735D02*
X026665Y016735D01*
X026665Y016616D02*
X029750Y016616D01*
X029750Y016498D02*
X026665Y016498D01*
X026665Y016379D02*
X029750Y016379D01*
X029750Y016261D02*
X028342Y016261D01*
X028352Y016250D02*
X028282Y016321D01*
X027788Y016321D01*
X027718Y016250D01*
X027718Y015624D01*
X027788Y015553D01*
X027865Y015553D01*
X027865Y010384D01*
X027811Y010361D01*
X027724Y010275D01*
X027677Y010161D01*
X027677Y010039D01*
X027724Y009925D01*
X027811Y009839D01*
X027924Y009792D01*
X028046Y009792D01*
X028160Y009839D01*
X028246Y009925D01*
X028293Y010039D01*
X028293Y010161D01*
X028246Y010275D01*
X028205Y010316D01*
X028205Y015553D01*
X028282Y015553D01*
X028352Y015624D01*
X028352Y016250D01*
X028352Y016142D02*
X029750Y016142D01*
X029750Y016024D02*
X028352Y016024D01*
X028352Y015905D02*
X029750Y015905D01*
X029750Y015787D02*
X028352Y015787D01*
X028352Y015668D02*
X029750Y015668D01*
X029750Y015550D02*
X028205Y015550D01*
X028205Y015431D02*
X029750Y015431D01*
X029750Y015313D02*
X028205Y015313D01*
X028205Y015194D02*
X029750Y015194D01*
X029750Y015076D02*
X028205Y015076D01*
X028205Y014957D02*
X029750Y014957D01*
X029750Y014839D02*
X028205Y014839D01*
X028205Y014720D02*
X029750Y014720D01*
X029750Y014602D02*
X028205Y014602D01*
X028205Y014483D02*
X029750Y014483D01*
X029750Y014365D02*
X028205Y014365D01*
X028205Y014246D02*
X029750Y014246D01*
X029750Y014128D02*
X028205Y014128D01*
X028205Y014009D02*
X029750Y014009D01*
X029750Y013891D02*
X028205Y013891D01*
X028205Y013772D02*
X029750Y013772D01*
X029750Y013654D02*
X028205Y013654D01*
X028205Y013535D02*
X029750Y013535D01*
X029750Y013417D02*
X028205Y013417D01*
X028205Y013298D02*
X029750Y013298D01*
X029750Y013180D02*
X028205Y013180D01*
X028205Y013061D02*
X029750Y013061D01*
X029750Y012943D02*
X028205Y012943D01*
X028205Y012824D02*
X029750Y012824D01*
X029750Y012706D02*
X028205Y012706D01*
X028205Y012587D02*
X029750Y012587D01*
X029750Y012469D02*
X028205Y012469D01*
X028205Y012350D02*
X029750Y012350D01*
X029750Y012232D02*
X028205Y012232D01*
X028205Y012113D02*
X029750Y012113D01*
X029750Y011995D02*
X028205Y011995D01*
X028205Y011876D02*
X029750Y011876D01*
X029750Y011758D02*
X028205Y011758D01*
X028205Y011639D02*
X029750Y011639D01*
X029750Y011521D02*
X028205Y011521D01*
X028205Y011402D02*
X029750Y011402D01*
X029750Y011284D02*
X028205Y011284D01*
X028205Y011165D02*
X029750Y011165D01*
X029750Y011047D02*
X028205Y011047D01*
X028205Y010928D02*
X029750Y010928D01*
X029750Y010810D02*
X028205Y010810D01*
X028205Y010691D02*
X029750Y010691D01*
X029750Y010573D02*
X028205Y010573D01*
X028205Y010454D02*
X029750Y010454D01*
X029750Y010336D02*
X028205Y010336D01*
X028270Y010217D02*
X029750Y010217D01*
X029750Y010099D02*
X029622Y010099D01*
X029685Y009980D02*
X029750Y009980D01*
X029750Y009862D02*
X029693Y009862D01*
X029654Y009743D02*
X029750Y009743D01*
X029750Y009625D02*
X029525Y009625D01*
X029750Y009506D02*
X029274Y009506D01*
X029155Y009388D02*
X029750Y009388D01*
X029750Y009269D02*
X026165Y009269D01*
X026165Y009151D02*
X029750Y009151D01*
X029064Y009862D02*
X028182Y009862D01*
X028269Y009980D02*
X029085Y009980D01*
X029148Y010099D02*
X028293Y010099D01*
X027865Y010454D02*
X025430Y010454D01*
X025430Y010573D02*
X027865Y010573D01*
X027865Y010691D02*
X025387Y010691D01*
X025305Y010810D02*
X027865Y010810D01*
X027865Y010928D02*
X025114Y010928D01*
X024856Y010928D02*
X024797Y010928D01*
X024679Y011047D02*
X027865Y011047D01*
X027865Y011165D02*
X025279Y011165D01*
X025377Y011284D02*
X027865Y011284D01*
X027865Y011402D02*
X025426Y011402D01*
X025430Y011521D02*
X027865Y011521D01*
X027865Y011639D02*
X025409Y011639D01*
X025357Y011758D02*
X027865Y011758D01*
X027865Y011876D02*
X025238Y011876D01*
X025277Y012113D02*
X027865Y012113D01*
X027865Y011995D02*
X024655Y011995D01*
X024655Y012113D02*
X024693Y012113D01*
X024655Y011876D02*
X024732Y011876D01*
X024937Y012113D02*
X025033Y012113D01*
X025033Y012232D02*
X024937Y012232D01*
X024937Y012350D02*
X025033Y012350D01*
X025033Y012469D02*
X027865Y012469D01*
X027865Y012587D02*
X025462Y012587D01*
X025458Y012614D02*
X025468Y012548D01*
X025033Y012548D01*
X025033Y012983D01*
X025099Y012973D01*
X025171Y012949D01*
X025239Y012915D01*
X025301Y012870D01*
X025355Y012816D01*
X025400Y012754D01*
X025434Y012686D01*
X025458Y012614D01*
X025424Y012706D02*
X027865Y012706D01*
X027865Y012824D02*
X025347Y012824D01*
X025184Y012943D02*
X027865Y012943D01*
X027865Y013061D02*
X025088Y013061D01*
X025033Y012943D02*
X024937Y012943D01*
X024937Y012824D02*
X025033Y012824D01*
X025033Y012706D02*
X024937Y012706D01*
X024937Y012587D02*
X025033Y012587D01*
X025446Y012350D02*
X027865Y012350D01*
X027865Y012232D02*
X025389Y012232D01*
X024786Y012943D02*
X024655Y012943D01*
X024655Y013061D02*
X024882Y013061D01*
X024676Y013180D02*
X024655Y013180D01*
X024985Y013500D02*
X024985Y014000D01*
X026485Y015500D01*
X026485Y017300D01*
X027285Y018100D01*
X027285Y018500D01*
X028126Y018275D02*
X029750Y018275D01*
X029750Y018157D02*
X028254Y018157D01*
X028293Y018038D02*
X029750Y018038D01*
X029750Y017920D02*
X028285Y017920D01*
X028222Y017801D02*
X029750Y017801D01*
X029750Y017683D02*
X028205Y017683D01*
X028205Y017564D02*
X029750Y017564D01*
X029750Y017446D02*
X028283Y017446D01*
X028352Y017327D02*
X029750Y017327D01*
X029750Y017209D02*
X028352Y017209D01*
X028352Y017090D02*
X029750Y017090D01*
X029750Y016972D02*
X028352Y016972D01*
X028352Y016853D02*
X029750Y016853D01*
X029750Y016735D02*
X028337Y016735D01*
X027728Y016261D02*
X026665Y016261D01*
X026665Y016142D02*
X027718Y016142D01*
X027718Y016024D02*
X026665Y016024D01*
X026665Y015905D02*
X027718Y015905D01*
X027718Y015787D02*
X026665Y015787D01*
X026665Y015668D02*
X027718Y015668D01*
X027865Y015550D02*
X026665Y015550D01*
X026665Y015431D02*
X027865Y015431D01*
X027865Y015313D02*
X026552Y015313D01*
X026434Y015194D02*
X027865Y015194D01*
X027865Y015076D02*
X026315Y015076D01*
X026197Y014957D02*
X027865Y014957D01*
X027865Y014839D02*
X026078Y014839D01*
X025960Y014720D02*
X027865Y014720D01*
X027865Y014602D02*
X025841Y014602D01*
X025723Y014483D02*
X027865Y014483D01*
X027865Y014365D02*
X025604Y014365D01*
X025486Y014246D02*
X027865Y014246D01*
X027865Y014128D02*
X025367Y014128D01*
X025249Y014009D02*
X027865Y014009D01*
X027865Y013891D02*
X025205Y013891D01*
X025342Y013772D02*
X027865Y013772D01*
X027865Y013654D02*
X025403Y013654D01*
X025430Y013535D02*
X027865Y013535D01*
X027865Y013417D02*
X025430Y013417D01*
X025383Y013298D02*
X027865Y013298D01*
X027865Y013180D02*
X025294Y013180D01*
X024691Y011165D02*
X024655Y011165D01*
X025398Y010336D02*
X027785Y010336D01*
X027700Y010217D02*
X026351Y010217D01*
X026469Y010099D02*
X027677Y010099D01*
X027701Y009980D02*
X026588Y009980D01*
X026706Y009862D02*
X027788Y009862D01*
X026825Y009743D02*
X028945Y009743D01*
X028807Y008914D02*
X028401Y008914D01*
X028435Y008795D02*
X028644Y008795D01*
X028571Y008677D02*
X028435Y008677D01*
X028435Y008558D02*
X028535Y008558D01*
X028535Y008440D02*
X028435Y008440D01*
X028435Y008321D02*
X028572Y008321D01*
X028646Y008203D02*
X028435Y008203D01*
X027696Y007847D02*
X025887Y007847D01*
X025768Y007729D02*
X027593Y007729D01*
X027544Y007610D02*
X025650Y007610D01*
X025985Y008200D02*
X024785Y007000D01*
X025077Y006899D02*
X027772Y006899D01*
X029198Y006899D02*
X029750Y006899D01*
X029750Y006781D02*
X029341Y006781D01*
X029405Y006662D02*
X029750Y006662D01*
X029750Y006544D02*
X029435Y006544D01*
X029435Y006425D02*
X029750Y006425D01*
X029750Y006307D02*
X029392Y006307D01*
X029309Y006188D02*
X029750Y006188D01*
X029750Y006070D02*
X029122Y006070D01*
X029750Y005714D02*
X026607Y005714D01*
X026679Y005596D02*
X029750Y005596D01*
X029750Y005477D02*
X026693Y005477D01*
X026660Y005359D02*
X029750Y005359D01*
X029750Y005240D02*
X026561Y005240D01*
X026555Y005122D02*
X029750Y005122D01*
X029750Y005003D02*
X026555Y005003D01*
X026555Y004885D02*
X029749Y004885D01*
X029684Y004766D02*
X026650Y004766D01*
X026693Y004648D02*
X028035Y004648D01*
X027904Y004529D02*
X026689Y004529D01*
X026631Y004411D02*
X027816Y004411D01*
X027838Y004462D02*
X027838Y004462D01*
X027767Y004292D02*
X026447Y004292D01*
X026323Y004292D02*
X024881Y004292D01*
X025040Y004256D02*
X025040Y004256D01*
X025143Y004174D02*
X027742Y004174D01*
X027742Y004055D02*
X025270Y004055D01*
X025327Y003937D02*
X027742Y003937D01*
X027742Y003818D02*
X025378Y003818D01*
X025378Y003700D02*
X027742Y003700D01*
X027742Y003581D02*
X025378Y003581D01*
X022416Y003937D02*
X021885Y003937D01*
X021885Y004055D02*
X022312Y004055D01*
X022277Y004174D02*
X021885Y004174D01*
X021876Y004292D02*
X022290Y004292D01*
X021485Y004055D02*
X021354Y004055D01*
X021393Y003937D02*
X021485Y003937D01*
X021485Y003818D02*
X021385Y003818D01*
X021429Y004174D02*
X021230Y004174D01*
X023185Y007136D02*
X024508Y007136D01*
X025985Y008200D02*
X025985Y009700D01*
X026227Y009506D02*
X026496Y009506D01*
X026378Y009625D02*
X026287Y009625D01*
X026165Y009388D02*
X026615Y009388D01*
X025619Y010217D02*
X025331Y010217D01*
X029331Y007847D02*
X029750Y007847D01*
X029750Y007729D02*
X029419Y007729D01*
X022448Y014602D02*
X022222Y014602D01*
X022285Y014720D02*
X022385Y014720D01*
X022377Y014839D02*
X022293Y014839D01*
X022382Y014957D02*
X022417Y014957D01*
X022501Y015076D02*
X022545Y015076D01*
X022619Y015194D02*
X022839Y015194D01*
X022738Y015313D02*
X022957Y015313D01*
X022856Y015431D02*
X023076Y015431D01*
X022975Y015550D02*
X023194Y015550D01*
X023093Y015668D02*
X023313Y015668D01*
X023212Y015787D02*
X023431Y015787D01*
X023330Y015905D02*
X023550Y015905D01*
X023449Y016024D02*
X023668Y016024D01*
X023567Y016142D02*
X023787Y016142D01*
X023686Y016261D02*
X023905Y016261D01*
X023804Y016379D02*
X024024Y016379D01*
X023923Y016498D02*
X024142Y016498D01*
X024186Y016616D02*
X024041Y016616D01*
X024160Y016735D02*
X024177Y016735D01*
X023798Y016853D02*
X023578Y016853D01*
X023679Y016735D02*
X023460Y016735D01*
X023561Y016616D02*
X023341Y016616D01*
X023442Y016498D02*
X023223Y016498D01*
X023324Y016379D02*
X023104Y016379D01*
X023205Y016261D02*
X022986Y016261D01*
X023087Y016142D02*
X022867Y016142D01*
X022968Y016024D02*
X022749Y016024D01*
X022850Y015905D02*
X022630Y015905D01*
X022731Y015787D02*
X022512Y015787D01*
X022613Y015668D02*
X022393Y015668D01*
X022494Y015550D02*
X022275Y015550D01*
X022376Y015431D02*
X022156Y015431D01*
X022257Y015313D02*
X022038Y015313D01*
X022139Y015194D02*
X021919Y015194D01*
X021845Y015076D02*
X021801Y015076D01*
X021717Y014957D02*
X021682Y014957D01*
X021677Y014839D02*
X021593Y014839D01*
X021585Y014720D02*
X021685Y014720D01*
X021748Y014602D02*
X021522Y014602D01*
X021860Y016735D02*
X022979Y016735D01*
X023098Y016853D02*
X021978Y016853D01*
X022097Y016972D02*
X023216Y016972D01*
X023335Y017090D02*
X022215Y017090D01*
X022334Y017209D02*
X023453Y017209D01*
X023423Y017327D02*
X022452Y017327D01*
X022571Y017446D02*
X023377Y017446D01*
X023378Y017564D02*
X022689Y017564D01*
X022808Y017683D02*
X023432Y017683D01*
X023697Y016972D02*
X023805Y016972D01*
X023591Y020290D02*
X021095Y020290D01*
X021095Y020408D02*
X022837Y020408D01*
X022738Y020527D02*
X021095Y020527D01*
X021095Y020645D02*
X022637Y020645D01*
X022535Y020764D02*
X021095Y020764D01*
X021095Y020882D02*
X022434Y020882D01*
X022332Y021001D02*
X021040Y021001D01*
X022881Y020882D02*
X023745Y020882D01*
X023620Y020764D02*
X022983Y020764D01*
X024228Y021119D02*
X024742Y021119D01*
X024618Y021238D02*
X024352Y021238D01*
X024407Y021356D02*
X024563Y021356D01*
X024540Y021475D02*
X024430Y021475D01*
X024428Y021593D02*
X024542Y021593D01*
X024591Y021712D02*
X024379Y021712D01*
X024284Y021830D02*
X024686Y021830D01*
X024767Y022067D02*
X024102Y022067D01*
X024300Y022186D02*
X024614Y022186D01*
X024541Y022304D02*
X024385Y022304D01*
X024430Y022423D02*
X024506Y022423D01*
X024430Y023134D02*
X024722Y023134D01*
X024606Y023252D02*
X024430Y023252D01*
X024430Y023371D02*
X024557Y023371D01*
X024540Y023489D02*
X024430Y023489D01*
X024430Y023608D02*
X024548Y023608D01*
X024597Y023726D02*
X024430Y023726D01*
X024430Y023845D02*
X024701Y023845D01*
X025270Y023845D02*
X025315Y023845D01*
X025408Y023963D02*
X007088Y023963D01*
X007005Y024082D02*
X025526Y024082D01*
X025770Y023845D02*
X026313Y023845D01*
X026274Y023726D02*
X025655Y023726D01*
X025655Y023608D02*
X026052Y023608D01*
X025934Y023489D02*
X025655Y023489D01*
X025655Y023371D02*
X025815Y023371D01*
X025697Y023252D02*
X025655Y023252D01*
X025315Y023134D02*
X025248Y023134D01*
X025855Y022778D02*
X026274Y022778D01*
X026104Y022660D02*
X025855Y022660D01*
X025855Y022541D02*
X025986Y022541D01*
X025867Y022423D02*
X025855Y022423D01*
X026111Y022186D02*
X026283Y022186D01*
X026274Y022304D02*
X026230Y022304D01*
X026869Y022304D02*
X027101Y022304D01*
X027101Y022423D02*
X026869Y022423D01*
X026869Y022541D02*
X027101Y022541D01*
X027101Y022660D02*
X026869Y022660D01*
X026869Y022778D02*
X027101Y022778D01*
X027162Y023134D02*
X026808Y023134D01*
X026869Y023252D02*
X027101Y023252D01*
X027101Y023371D02*
X026869Y023371D01*
X026869Y023489D02*
X027101Y023489D01*
X027101Y023608D02*
X026869Y023608D01*
X026869Y023726D02*
X027101Y023726D01*
X027140Y023845D02*
X026830Y023845D01*
X026274Y024200D02*
X026126Y024200D01*
X026244Y024319D02*
X026274Y024319D01*
X026274Y023252D02*
X026178Y023252D01*
X026059Y023134D02*
X026335Y023134D01*
X026860Y022186D02*
X027110Y022186D01*
X025315Y021830D02*
X025284Y021830D01*
X017408Y026096D02*
X016388Y026096D01*
X016435Y026215D02*
X017327Y026215D01*
X017290Y026333D02*
X016435Y026333D01*
X016409Y026452D02*
X017290Y026452D01*
X017332Y026570D02*
X016351Y026570D01*
X016223Y026689D02*
X017421Y026689D01*
D22*
X022985Y003900D02*
X022990Y003899D01*
X022993Y003896D01*
X022996Y003893D01*
X022997Y003888D01*
X022997Y001941D01*
X022603Y001941D02*
X022603Y003682D01*
X022601Y003702D01*
X022596Y003722D01*
X022587Y003741D01*
X022575Y003758D01*
X022561Y003772D01*
X022544Y003784D01*
X022525Y003793D01*
X022505Y003798D01*
X022485Y003800D01*
X023185Y003900D02*
X023212Y003898D01*
X023238Y003893D01*
X023264Y003884D01*
X023288Y003872D01*
X023310Y003857D01*
X023331Y003840D01*
X023348Y003819D01*
X023363Y003797D01*
X023375Y003773D01*
X023384Y003747D01*
X023389Y003721D01*
X023391Y003694D01*
X023391Y001941D01*
X023784Y001941D02*
X023784Y003801D01*
X023782Y003818D01*
X023778Y003835D01*
X023771Y003851D01*
X023761Y003865D01*
X023749Y003877D01*
X023735Y003887D01*
X023719Y003894D01*
X023702Y003898D01*
X023685Y003900D01*
D23*
X023785Y004300D03*
X023785Y004800D03*
X022585Y004700D03*
X022585Y004200D03*
X021585Y004900D03*
X021085Y003900D03*
X022985Y006900D03*
X024785Y007000D03*
X024735Y006000D03*
X026385Y005500D03*
X026385Y004600D03*
X025985Y009700D03*
X027985Y010100D03*
X029385Y009900D03*
X023185Y013900D03*
X022885Y014300D03*
X022685Y014800D03*
X023285Y014800D03*
X021985Y014800D03*
X021285Y014800D03*
X023685Y017500D03*
X024085Y017100D03*
X024485Y016700D03*
X024885Y016300D03*
X026085Y018200D03*
X027285Y018500D03*
X027985Y018000D03*
X027835Y022500D03*
X027835Y023500D03*
X027835Y024500D03*
X022985Y022000D03*
X022185Y020000D03*
X021985Y018600D03*
X021485Y018600D03*
X020985Y018600D03*
X020685Y017900D03*
X020285Y018200D03*
X019785Y018300D03*
X018385Y017500D03*
X017785Y017500D03*
X017185Y017500D03*
X015185Y019000D03*
X014185Y017800D03*
X013685Y017600D03*
X012985Y016800D03*
X013685Y016300D03*
X013285Y015900D03*
X014585Y014600D03*
X014985Y014200D03*
X015585Y013500D03*
X014085Y011500D03*
X012985Y011500D03*
X012385Y013500D03*
X010085Y013300D03*
X010085Y014800D03*
X011485Y016500D03*
X012085Y018100D03*
X012485Y018500D03*
X014285Y020400D03*
X014385Y021100D03*
X012285Y021200D03*
X011385Y020950D03*
X009985Y020900D03*
X005985Y017500D03*
X015785Y011000D03*
X016385Y011000D03*
X018785Y011900D03*
X017585Y005900D03*
D24*
X018379Y008000D02*
X018379Y011494D01*
X018785Y011900D01*
X020785Y010800D02*
X014485Y017100D01*
X013585Y017100D01*
X012485Y018200D01*
X012485Y018500D01*
X012185Y018100D02*
X012085Y018100D01*
X012185Y018100D02*
X013385Y016900D01*
X014385Y016900D01*
X020685Y010600D01*
X023885Y010600D01*
X023985Y010500D01*
X024485Y011000D02*
X024485Y014300D01*
X026085Y015900D01*
X026085Y018200D01*
X025685Y018600D02*
X025985Y018900D01*
X028285Y018900D01*
X028485Y019100D01*
X028485Y021000D01*
X027985Y021500D01*
X027835Y022500D02*
X027398Y022500D01*
X026572Y022500D02*
X026185Y022500D01*
X025885Y022200D01*
X025885Y020000D01*
X024285Y018400D01*
X023285Y018400D01*
X021785Y016900D01*
X017785Y016900D01*
X017185Y017500D01*
X017785Y017500D02*
X018185Y017100D01*
X021685Y017100D01*
X023185Y018600D01*
X024185Y018600D01*
X025685Y020100D01*
X025685Y023000D01*
X026185Y023500D01*
X026572Y023500D01*
X027398Y023500D02*
X027835Y023500D01*
X027835Y024500D02*
X027398Y024500D01*
X026572Y024500D02*
X026185Y024500D01*
X025485Y023800D01*
X025485Y020200D01*
X024085Y018800D01*
X023085Y018800D01*
X021785Y017500D01*
X018385Y017500D01*
X019785Y018300D02*
X020085Y018600D01*
X020985Y018600D01*
X021285Y018200D02*
X020285Y018200D01*
X020685Y017900D02*
X021685Y017900D01*
X021985Y018200D01*
X021985Y018600D01*
X021485Y018600D02*
X021485Y018400D01*
X021285Y018200D01*
X022985Y020500D02*
X022385Y021200D01*
X015085Y021200D01*
X014285Y020400D01*
X014385Y021100D02*
X014785Y021500D01*
X023985Y021500D01*
X023985Y020500D02*
X022985Y020500D01*
X022985Y022000D02*
X022985Y023100D01*
X023385Y023500D01*
X023985Y023500D01*
X026085Y019500D02*
X027985Y019500D01*
X027985Y018000D02*
X028035Y017950D01*
X028035Y017063D01*
X028035Y015937D02*
X028035Y010150D01*
X027985Y010100D01*
X024985Y010500D02*
X024485Y011000D01*
X023985Y011500D02*
X023285Y010800D01*
X020785Y010800D01*
X020885Y011000D02*
X014585Y017300D01*
X013985Y017300D01*
X013685Y017600D01*
X014185Y017800D02*
X014385Y017800D01*
X020985Y011200D01*
X022785Y011200D01*
X023185Y011600D01*
X023185Y012700D01*
X023985Y013500D01*
X023685Y014100D02*
X023585Y014100D01*
X023385Y013900D01*
X023185Y013900D01*
X022885Y014300D02*
X023585Y014300D01*
X025385Y016100D01*
X025385Y018800D01*
X026085Y019500D01*
X025685Y018600D02*
X025685Y016100D01*
X023685Y014100D01*
X023285Y014800D02*
X024785Y016300D01*
X024885Y016300D01*
X024485Y016600D02*
X022685Y014800D01*
X021985Y014800D02*
X024085Y016900D01*
X024085Y017100D01*
X023685Y017200D02*
X023685Y017500D01*
X023685Y017200D02*
X021285Y014800D01*
X023985Y012500D02*
X023385Y011900D01*
X023385Y011500D01*
X022885Y011000D01*
X020885Y011000D01*
X021472Y006900D02*
X022985Y006900D01*
X024685Y006900D01*
X024785Y007000D01*
X024735Y006000D02*
X022685Y006000D01*
X021585Y004900D01*
X022585Y004700D02*
X022685Y004800D01*
X023785Y004800D01*
X023785Y004300D02*
X022685Y004300D01*
X022585Y004200D01*
X021085Y003900D02*
X020635Y003450D01*
X020635Y002138D01*
X021028Y006457D02*
X021472Y006900D01*
X026385Y005500D02*
X026385Y004600D01*
X016385Y011000D02*
X016385Y013700D01*
X013785Y016300D01*
X013685Y016300D01*
X013885Y015900D02*
X013285Y015900D01*
X013885Y015900D02*
X016185Y013600D01*
X016185Y011400D01*
X015785Y011000D01*
X014085Y011500D02*
X012985Y011500D01*
X013238Y012453D02*
X006686Y012453D01*
X006385Y013000D02*
X006085Y012700D01*
X006085Y011800D01*
X006613Y011272D01*
X006686Y011272D01*
X007285Y012900D02*
X007185Y013000D01*
X006385Y013000D01*
X007285Y012900D02*
X013085Y012900D01*
X014585Y014400D01*
X014585Y014600D01*
X014985Y014200D02*
X013238Y012453D01*
X012985Y013500D02*
X012385Y013500D01*
X012985Y013500D02*
X012985Y016800D01*
X014785Y019000D02*
X013585Y020200D01*
X010685Y020200D01*
X009985Y020900D01*
X010285Y020900D01*
X011385Y020950D02*
X011885Y021200D01*
X012285Y021200D01*
X014785Y019000D02*
X015185Y019000D01*
X010085Y014800D02*
X010085Y013300D01*
X024485Y016600D02*
X024485Y016700D01*
D25*
X025785Y010100D02*
X026185Y010100D01*
X026785Y009500D01*
X028985Y009500D01*
X029385Y009900D01*
X025785Y010100D02*
X025585Y009900D01*
X019279Y009900D01*
X018985Y009606D01*
X018985Y008500D01*
X018379Y008000D01*
X019985Y006600D02*
X018985Y005500D01*
X017985Y005500D01*
X017585Y005900D01*
X019985Y006600D02*
X020285Y006900D01*
X020585Y006900D01*
X021028Y006457D01*
X020985Y006413D01*
X020985Y004700D01*
X021285Y004400D01*
X021485Y004400D01*
X021685Y004200D01*
X021685Y003700D01*
X021422Y003437D01*
X021422Y003400D01*
X021028Y003006D01*
X021028Y001941D01*
X021422Y001941D02*
X021422Y003400D01*
X005985Y017500D02*
X005985Y018346D01*
X006686Y019047D01*
M02*
