G75*
%MOIN*%
%OFA0B0*%
%FSLAX24Y24*%
%IPPOS*%
%LPD*%
%AMOC8*
5,1,8,0,0,1.08239X$1,22.5*
%
%ADD10R,0.0552X0.0552*%
%ADD11C,0.0552*%
%ADD12R,0.0740X0.0740*%
%ADD13C,0.0740*%
%ADD14C,0.0671*%
%ADD15R,0.0730X0.0730*%
%ADD16C,0.0730*%
%ADD17R,0.0356X0.1734*%
%ADD18R,0.0356X0.1340*%
%ADD19R,0.0434X0.0592*%
%ADD20C,0.1261*%
%ADD21R,0.0474X0.0608*%
%ADD22C,0.0456*%
D10*
X018379Y008000D03*
X021879Y013400D03*
D11*
X021091Y013400D03*
X017591Y008000D03*
D12*
X013985Y005200D03*
X027985Y008500D03*
X027985Y021500D03*
X013985Y026300D03*
D13*
X014985Y026300D03*
X015985Y026300D03*
X027985Y020500D03*
X027985Y019500D03*
X028985Y019500D03*
X028985Y020500D03*
X028985Y021500D03*
X028985Y008500D03*
X028985Y007500D03*
X028985Y006500D03*
X027985Y006500D03*
X027985Y007500D03*
X015985Y005200D03*
X014985Y005200D03*
D14*
X017706Y024614D03*
X017706Y026386D03*
X020265Y026386D03*
X020265Y024614D03*
D15*
X006686Y006547D03*
X006686Y019047D03*
X023985Y023500D03*
X023985Y013500D03*
D16*
X024985Y013500D03*
X024985Y012500D03*
X023985Y012500D03*
X023985Y011500D03*
X024985Y011500D03*
X024985Y010500D03*
X023985Y010500D03*
X023985Y020500D03*
X024985Y020500D03*
X024985Y021500D03*
X023985Y021500D03*
X023985Y022500D03*
X024985Y022500D03*
X024985Y023500D03*
X006686Y023772D03*
X006686Y024953D03*
X006686Y022591D03*
X006686Y021409D03*
X006686Y020228D03*
X006686Y012453D03*
X006686Y011272D03*
X006686Y010091D03*
X006686Y008909D03*
X006686Y007728D03*
D17*
X021028Y001941D03*
X021422Y001941D03*
X021816Y001941D03*
X022209Y001941D03*
X022603Y001941D03*
X022997Y001941D03*
X023391Y001941D03*
X023784Y001941D03*
X025753Y001941D03*
X026146Y001941D03*
X026540Y001941D03*
X026934Y001941D03*
X027328Y001941D03*
D18*
X020635Y002138D03*
D19*
X026572Y022500D03*
X027398Y022500D03*
X027398Y023500D03*
X026572Y023500D03*
X026572Y024500D03*
X027398Y024500D03*
D20*
X004985Y024106D03*
X004985Y019894D03*
X004985Y011606D03*
X004985Y007394D03*
D21*
X028035Y015937D03*
X028035Y017063D03*
D22*
X027985Y018000D03*
X027285Y018500D03*
X026085Y018200D03*
X024485Y016700D03*
X024885Y016300D03*
X024085Y017100D03*
X023685Y017500D03*
X021985Y018600D03*
X021485Y018600D03*
X020985Y018600D03*
X020685Y017900D03*
X020285Y018200D03*
X019785Y018300D03*
X018385Y017500D03*
X017785Y017500D03*
X017185Y017500D03*
X015185Y019000D03*
X014185Y017800D03*
X013685Y017600D03*
X012985Y016800D03*
X013685Y016300D03*
X013285Y015900D03*
X014585Y014600D03*
X014985Y014200D03*
X015585Y013500D03*
X014085Y011500D03*
X012985Y011500D03*
X012385Y013500D03*
X010085Y013300D03*
X010085Y014800D03*
X011485Y016500D03*
X012085Y018100D03*
X012485Y018500D03*
X014285Y020400D03*
X014385Y021100D03*
X012285Y021200D03*
X011385Y020950D03*
X009985Y020900D03*
X005985Y017500D03*
X015785Y011000D03*
X016385Y011000D03*
X018785Y011900D03*
X021285Y014800D03*
X021985Y014800D03*
X022685Y014800D03*
X022885Y014300D03*
X023185Y013900D03*
X023285Y014800D03*
X027985Y010100D03*
X029385Y009900D03*
X025985Y009700D03*
X024785Y007000D03*
X024735Y006000D03*
X023785Y004800D03*
X023785Y004300D03*
X022585Y004200D03*
X022585Y004700D03*
X021585Y004900D03*
X021085Y003900D03*
X022985Y006900D03*
X026385Y005500D03*
X026385Y004600D03*
X017585Y005900D03*
X022185Y020000D03*
X022985Y022000D03*
X027835Y022500D03*
X027835Y023500D03*
X027835Y024500D03*
M02*
