%
M48
M72
T01C0.0236
T02C0.0276
T03C0.0335
T04C0.0394
T05C0.0650
T06C0.0810
T07C0.0910
T08C0.0925
T09C0.1250
%
T01
X5150Y4650
X5650Y4650
X5650Y5150
X5150Y5150
X4650Y5150
X4650Y5650
X5150Y5650
X8850Y8250
X10650Y8250
X12850Y8050
X14150Y6950
X14850Y5850
X14850Y5150
X21750Y6450
X22650Y6450
X25050Y6050
X25050Y6850
X30550Y8150
X33150Y8150
X33850Y6650
X34150Y5150
X34650Y5150
X38650Y5150
X39150Y5150
X39650Y5150
X39650Y5650
X39150Y5650
X39150Y4650
X38650Y4650
X29550Y10050
X30550Y12150
X31150Y12150
X32150Y12150
X33150Y12150
X34250Y11950
X35050Y12750
X34250Y13150
X33950Y13850
X34650Y15350
X29450Y13850
X29303Y12697
X25150Y13150
X23150Y13150
X24950Y15350
X20150Y15350
X15450Y13850
X14150Y13450
X13650Y13850
X14150Y12450
X13150Y12150
X12150Y12150
X11150Y12150
X10347Y12150
X9550Y12550
X8850Y12150
X9350Y13950
X10950Y16150
X13350Y15350
X14350Y15850
X9450Y10150
T02
X8430Y10193
X7642Y9800
X6658Y9800
X5870Y10193
X6658Y10587
X5870Y10981
X6658Y11374
X5870Y11768
X6658Y12162
X5870Y12556
X6658Y12949
X5870Y13343
X6658Y13737
X7642Y13737
X8430Y13343
X7642Y12949
X8430Y12556
X7642Y12162
X8430Y11768
X7642Y11374
X8430Y10981
X7642Y10587
X8430Y8619
X7642Y8225
X8430Y7831
X7642Y7437
X8430Y7044
X7642Y6650
X8430Y6256
X6658Y6650
X5870Y6256
X5870Y7044
X6658Y7437
X5870Y7831
X6658Y8225
X5870Y8619
X15870Y8619
X16658Y8225
X15870Y7831
X16658Y7437
X15870Y7044
X16658Y6650
X15870Y6256
X17642Y6650
X18430Y6256
X18430Y7044
X17642Y7437
X18430Y7831
X17642Y8225
X18430Y8619
X17642Y9800
X18430Y10193
X17642Y10587
X18430Y10981
X17642Y11374
X18430Y11768
X17642Y12162
X18430Y12556
X17642Y12949
X18430Y13343
X17642Y13737
X16658Y13737
X15870Y13343
X16658Y12949
X15870Y12556
X16658Y12162
X15870Y11768
X16658Y11374
X15870Y10981
X16658Y10587
X15870Y10193
X16658Y9800
X25870Y10193
X26658Y9800
X27642Y9800
X28430Y10193
X27642Y10587
X28430Y10981
X27642Y11374
X28430Y11768
X27642Y12162
X28430Y12556
X27642Y12949
X28430Y13343
X27642Y13737
X26658Y13737
X25870Y13343
X26658Y12949
X25870Y12556
X26658Y12162
X25870Y11768
X26658Y11374
X25870Y10981
X26658Y10587
X25870Y8619
X26658Y8225
X25870Y7831
X26658Y7437
X25870Y7044
X26658Y6650
X25870Y6256
X27642Y6650
X28430Y6256
X28430Y7044
X27642Y7437
X28430Y7831
X27642Y8225
X28430Y8619
X35870Y8619
X36658Y8225
X35870Y7831
X36658Y7437
X35870Y7044
X36658Y6650
X35870Y6256
X37642Y6650
X38430Y6256
X38430Y7044
X37642Y7437
X38430Y7831
X37642Y8225
X38430Y8619
X37642Y9800
X38430Y10193
X37642Y10587
X38430Y10981
X37642Y11374
X38430Y11768
X37642Y12162
X38430Y12556
X37642Y12949
X38430Y13343
X37642Y13737
X36658Y13737
X35870Y13343
X36658Y12949
X35870Y12556
X36658Y12162
X35870Y11768
X36658Y11374
X35870Y10981
X36658Y10587
X35870Y10193
X36658Y9800
X13634Y16150
X11666Y16150
T03
X8134Y15587
X6166Y15587
T04
X5772Y16650
X8528Y16650
X3150Y14150
X3150Y13150
X3150Y12150
X3150Y11150
X3150Y10150
X3150Y9150
X3150Y8150
X3150Y7150
X3150Y6150
X3150Y5150
X41150Y5150
X41150Y6150
X41150Y7150
X41150Y8150
X41150Y9150
X41150Y10150
X41150Y11150
X41150Y12150
X41150Y13150
X41150Y14150
T05
X23471Y9961
X20829Y9961
X20829Y8150
X23471Y8150
X23471Y6339
X20829Y6339
T06
X17900Y16150
X16400Y16150
T07
X17150Y9150
X7150Y9150
X27150Y9150
X37150Y9150
T08
X37150Y5548
X27150Y5548
X17150Y5548
X7150Y5548
T09
X3150Y3150
X22150Y3150
X41150Y3150
X41150Y16150
X22150Y16150
X3150Y16150
M30
