G75*
%MOIN*%
%OFA0B0*%
%FSLAX24Y24*%
%IPPOS*%
%LPD*%
%AMOC8*
5,1,8,0,0,1.08239X$1,22.5*
%
%ADD10C,0.0030*%
%ADD11R,0.0250X0.0050*%
%ADD12R,0.0450X0.0050*%
%ADD13R,0.1100X0.0050*%
%ADD14R,0.1150X0.0050*%
%ADD15R,0.1350X0.0050*%
%ADD16R,0.1450X0.0050*%
%ADD17R,0.1600X0.0050*%
%ADD18R,0.1700X0.0050*%
%ADD19R,0.1750X0.0050*%
%ADD20R,0.1850X0.0050*%
%ADD21R,0.1950X0.0050*%
%ADD22R,0.2000X0.0050*%
%ADD23R,0.0950X0.0050*%
%ADD24R,0.0800X0.0050*%
%ADD25R,0.0900X0.0050*%
%ADD26R,0.0750X0.0050*%
%ADD27R,0.0850X0.0050*%
%ADD28R,0.0700X0.0050*%
%ADD29R,0.0600X0.0050*%
%ADD30R,0.0550X0.0050*%
%ADD31R,0.0500X0.0050*%
%ADD32R,0.0400X0.0050*%
%ADD33R,0.0100X0.0050*%
%ADD34R,0.0200X0.0050*%
%ADD35R,0.0350X0.0050*%
%ADD36R,0.2150X0.0050*%
%ADD37R,0.2100X0.0050*%
%ADD38R,0.2050X0.0050*%
%ADD39R,0.1300X0.0050*%
%ADD40R,0.1200X0.0050*%
%ADD41R,0.1050X0.0050*%
%ADD42R,0.0300X0.0050*%
%ADD43C,0.0040*%
D10*
X032327Y016515D02*
X032451Y016515D01*
X032512Y016577D01*
X032512Y016700D01*
X032451Y016762D01*
X032327Y016762D01*
X032265Y016700D01*
X032265Y016638D01*
X032512Y016638D01*
X032634Y016700D02*
X032634Y016515D01*
X032634Y016700D02*
X032695Y016762D01*
X032881Y016762D01*
X032881Y016515D01*
X033002Y016515D02*
X033187Y016515D01*
X033249Y016577D01*
X033187Y016638D01*
X033002Y016638D01*
X033002Y016700D02*
X033002Y016515D01*
X033002Y016700D02*
X033064Y016762D01*
X033187Y016762D01*
X033433Y016885D02*
X033433Y016515D01*
X033494Y016515D02*
X033371Y016515D01*
X033616Y016577D02*
X033678Y016515D01*
X033863Y016515D01*
X033985Y016515D02*
X034170Y016638D01*
X033985Y016762D01*
X033863Y016762D02*
X033678Y016762D01*
X033616Y016700D01*
X033616Y016577D01*
X033863Y016392D02*
X033863Y016762D01*
X034170Y016885D02*
X034170Y016515D01*
X034291Y016515D02*
X034476Y016515D01*
X034538Y016577D01*
X034538Y016700D01*
X034476Y016762D01*
X034291Y016762D01*
X034659Y016700D02*
X034659Y016515D01*
X034845Y016515D01*
X034906Y016577D01*
X034845Y016638D01*
X034659Y016638D01*
X034659Y016700D02*
X034721Y016762D01*
X034845Y016762D01*
X035028Y016762D02*
X035089Y016700D01*
X035275Y016700D01*
X035275Y016515D02*
X035275Y016885D01*
X035089Y016885D01*
X035028Y016824D01*
X035028Y016762D01*
X035089Y016700D02*
X035028Y016638D01*
X035028Y016577D01*
X035089Y016515D01*
X035275Y016515D01*
X035764Y016515D02*
X035764Y016700D01*
X035826Y016762D01*
X035888Y016700D01*
X035888Y016515D01*
X036011Y016515D02*
X036011Y016762D01*
X035950Y016762D01*
X035888Y016700D01*
X036133Y016700D02*
X036133Y016638D01*
X036380Y016638D01*
X036380Y016577D02*
X036380Y016700D01*
X036318Y016762D01*
X036194Y016762D01*
X036133Y016700D01*
X036194Y016515D02*
X036318Y016515D01*
X036380Y016577D01*
X036502Y016515D02*
X036563Y016577D01*
X036563Y016824D01*
X036502Y016762D02*
X036625Y016762D01*
X036747Y016762D02*
X036932Y016762D01*
X036993Y016700D01*
X036932Y016638D01*
X036808Y016638D01*
X036747Y016577D01*
X036808Y016515D01*
X036993Y016515D01*
X037115Y016515D02*
X037300Y016515D01*
X037362Y016577D01*
X037362Y016762D01*
X037483Y016762D02*
X037668Y016762D01*
X037730Y016700D01*
X037668Y016638D01*
X037545Y016638D01*
X037483Y016577D01*
X037545Y016515D01*
X037730Y016515D01*
X037851Y016577D02*
X037851Y016700D01*
X037913Y016762D01*
X038098Y016762D01*
X038220Y016762D02*
X038220Y016515D01*
X038405Y016515D01*
X038467Y016577D01*
X038467Y016762D01*
X038588Y016824D02*
X038650Y016885D01*
X038773Y016885D01*
X038835Y016824D01*
X038835Y016762D01*
X038773Y016700D01*
X038650Y016700D01*
X038588Y016638D01*
X038588Y016577D01*
X038650Y016515D01*
X038773Y016515D01*
X038835Y016577D01*
X038773Y016285D02*
X038835Y016224D01*
X038835Y016162D01*
X038773Y016100D01*
X038650Y016100D01*
X038588Y016038D01*
X038588Y015977D01*
X038650Y015915D01*
X038773Y015915D01*
X038835Y015977D01*
X038712Y015685D02*
X038588Y015685D01*
X038650Y015685D02*
X038650Y015377D01*
X038712Y015315D01*
X038773Y015315D01*
X038835Y015377D01*
X038467Y015377D02*
X038405Y015315D01*
X038220Y015315D01*
X038220Y015562D01*
X038098Y015685D02*
X038037Y015685D01*
X038037Y015315D01*
X038098Y015315D02*
X037975Y015315D01*
X037853Y015377D02*
X037791Y015315D01*
X037606Y015315D01*
X037606Y015253D02*
X037668Y015192D01*
X037729Y015192D01*
X037606Y015253D02*
X037606Y015562D01*
X037853Y015562D02*
X037853Y015377D01*
X038467Y015377D02*
X038467Y015562D01*
X038343Y015915D02*
X038405Y015977D01*
X038405Y016224D01*
X038467Y016162D02*
X038343Y016162D01*
X038221Y016100D02*
X038159Y016162D01*
X038036Y016162D01*
X037974Y016100D01*
X037974Y016038D01*
X038221Y016038D01*
X038221Y015977D02*
X038221Y016100D01*
X038221Y015977D02*
X038159Y015915D01*
X038036Y015915D01*
X037729Y015915D02*
X037606Y016162D01*
X037485Y016100D02*
X037423Y016162D01*
X037299Y016162D01*
X037238Y016100D01*
X037238Y016038D01*
X037485Y016038D01*
X037485Y015977D02*
X037485Y016100D01*
X037485Y015977D02*
X037423Y015915D01*
X037299Y015915D01*
X037116Y015915D02*
X037116Y016162D01*
X036931Y016162D01*
X036869Y016100D01*
X036869Y015915D01*
X036931Y015685D02*
X037054Y015685D01*
X037116Y015624D01*
X036931Y015685D02*
X036869Y015624D01*
X036869Y015562D01*
X037116Y015315D01*
X036869Y015315D01*
X036748Y015377D02*
X036501Y015624D01*
X036501Y015377D01*
X036563Y015315D01*
X036686Y015315D01*
X036748Y015377D01*
X036748Y015624D01*
X036686Y015685D01*
X036563Y015685D01*
X036501Y015624D01*
X036380Y015562D02*
X036256Y015685D01*
X036256Y015315D01*
X036133Y015315D02*
X036380Y015315D01*
X036011Y015377D02*
X035950Y015315D01*
X035826Y015315D01*
X035764Y015377D01*
X035764Y015438D01*
X035826Y015500D01*
X036011Y015500D01*
X036011Y015377D01*
X036011Y015500D02*
X035888Y015624D01*
X035764Y015685D01*
X035643Y015915D02*
X035704Y015977D01*
X035643Y016038D01*
X035457Y016038D01*
X035457Y016100D02*
X035457Y015915D01*
X035643Y015915D01*
X035643Y016162D02*
X035519Y016162D01*
X035457Y016100D01*
X035336Y016162D02*
X035336Y015915D01*
X035089Y015915D02*
X035089Y016100D01*
X035151Y016162D01*
X035336Y016162D01*
X034968Y016100D02*
X034968Y015977D01*
X034906Y015915D01*
X034721Y015915D01*
X034721Y016285D01*
X034721Y016162D02*
X034906Y016162D01*
X034968Y016100D01*
X034599Y016162D02*
X034476Y016162D01*
X034538Y016224D02*
X034538Y015977D01*
X034476Y015915D01*
X035826Y016162D02*
X035888Y016162D01*
X036011Y016038D01*
X036133Y016038D02*
X036133Y015977D01*
X036194Y015915D01*
X036380Y015915D01*
X036380Y016285D01*
X036194Y016285D01*
X036133Y016224D01*
X036133Y016162D01*
X036194Y016100D01*
X036380Y016100D01*
X036194Y016100D02*
X036133Y016038D01*
X036011Y015915D02*
X036011Y016162D01*
X037115Y016453D02*
X037177Y016392D01*
X037238Y016392D01*
X037115Y016453D02*
X037115Y016762D01*
X037851Y016577D02*
X037913Y016515D01*
X038098Y016515D01*
X038098Y016885D01*
X038650Y016285D02*
X038773Y016285D01*
X038650Y016285D02*
X038588Y016224D01*
X037853Y016162D02*
X037729Y015915D01*
X033494Y016885D02*
X033433Y016885D01*
D11*
X031250Y014150D03*
X031250Y014100D03*
X031250Y014050D03*
X030800Y014050D03*
X030800Y014100D03*
X030800Y014150D03*
D12*
X030700Y014200D03*
X030700Y014250D03*
X030700Y014300D03*
X030700Y014350D03*
X030700Y014400D03*
X031350Y014400D03*
X031350Y014350D03*
X031350Y014300D03*
X031350Y014250D03*
X031350Y014200D03*
X030100Y016200D03*
X031900Y016250D03*
D13*
X031025Y014500D03*
X031025Y014450D03*
D14*
X031000Y014550D03*
D15*
X031000Y014600D03*
D16*
X031000Y014650D03*
X031000Y016700D03*
D17*
X031025Y016650D03*
X031025Y014700D03*
D18*
X031025Y014750D03*
X031025Y016600D03*
D19*
X031050Y016550D03*
X031000Y014800D03*
D20*
X031000Y014850D03*
X031050Y016500D03*
D21*
X031050Y016450D03*
X031000Y014900D03*
D22*
X030975Y014950D03*
D23*
X030400Y015000D03*
X030350Y015050D03*
D24*
X030225Y015450D03*
X030225Y015500D03*
X030225Y015550D03*
X030225Y015600D03*
X030225Y015650D03*
X031575Y015000D03*
X031625Y015050D03*
X031725Y015200D03*
X031775Y015250D03*
X031775Y015300D03*
X031825Y015450D03*
D25*
X030325Y015100D03*
X030275Y015200D03*
X030225Y015850D03*
X030225Y015900D03*
X030225Y015950D03*
D26*
X031650Y015100D03*
X031700Y015150D03*
D27*
X031800Y015350D03*
X031800Y015400D03*
X031850Y015500D03*
X031850Y015550D03*
X031850Y015600D03*
X031850Y015650D03*
X031850Y015700D03*
X031850Y015750D03*
X031850Y015800D03*
X031800Y015850D03*
X031800Y015900D03*
X031800Y015950D03*
X030200Y015800D03*
X030200Y015750D03*
X030200Y015700D03*
X030250Y015400D03*
X030250Y015350D03*
X030250Y015300D03*
X030250Y015250D03*
X030300Y015150D03*
D28*
X030125Y016000D03*
D29*
X031875Y016000D03*
D30*
X030100Y016050D03*
D31*
X030075Y016100D03*
X030075Y016150D03*
X030125Y016250D03*
X031175Y016900D03*
X031925Y016050D03*
D32*
X031925Y016100D03*
X031925Y016150D03*
X031925Y016200D03*
D33*
X031275Y016150D03*
X030775Y016150D03*
D34*
X030775Y016200D03*
X031275Y016200D03*
D35*
X031300Y016250D03*
X030750Y016250D03*
D36*
X031000Y016300D03*
D37*
X031025Y016350D03*
D38*
X031000Y016400D03*
D39*
X030975Y016750D03*
D40*
X030975Y016800D03*
D41*
X031000Y016850D03*
D42*
X031175Y016950D03*
D43*
X022870Y010779D02*
X022870Y010626D01*
X022947Y010549D01*
X023254Y010549D01*
X023330Y010626D01*
X023330Y010779D01*
X023254Y010856D01*
X023254Y011010D02*
X023330Y011086D01*
X023330Y011240D01*
X023254Y011317D01*
X023177Y011317D01*
X022870Y011010D01*
X022870Y011317D01*
X022947Y010856D02*
X022870Y010779D01*
X024870Y010779D02*
X024870Y010626D01*
X024947Y010549D01*
X025254Y010549D01*
X025330Y010626D01*
X025330Y010779D01*
X025254Y010856D01*
X025177Y011010D02*
X025330Y011163D01*
X024870Y011163D01*
X024870Y011010D02*
X024870Y011317D01*
X024947Y010856D02*
X024870Y010779D01*
M02*
