G75*
%MOIN*%
%OFA0B0*%
%FSLAX24Y24*%
%IPPOS*%
%LPD*%
%AMOC8*
5,1,8,0,0,1.08239X$1,22.5*
%
%ADD10R,0.1378X0.0866*%
%ADD11R,0.0472X0.0866*%
%ADD12R,0.0512X0.0354*%
%ADD13R,0.0472X0.0472*%
%ADD14R,0.0799X0.0598*%
%ADD15R,0.0157X0.0531*%
%ADD16R,0.0472X0.0315*%
%ADD17R,0.0354X0.0315*%
D10*
X024150Y014370D03*
D11*
X024150Y011930D03*
X023244Y011930D03*
X025056Y011930D03*
D12*
X022150Y012737D03*
X022150Y013563D03*
X020150Y013563D03*
X020150Y012737D03*
X013150Y009563D03*
X012150Y009563D03*
X011150Y009563D03*
X011150Y008737D03*
X012150Y008737D03*
X013150Y008737D03*
X012150Y007563D03*
X011150Y007563D03*
X010150Y007563D03*
X010150Y006737D03*
X011150Y006737D03*
X012150Y006737D03*
X012150Y012737D03*
X011150Y012737D03*
X011150Y013563D03*
X012150Y013563D03*
X030150Y007563D03*
X031150Y007563D03*
X032150Y007563D03*
X032150Y006737D03*
X031150Y006737D03*
X030150Y006737D03*
X031150Y008737D03*
X032150Y008737D03*
X033150Y008737D03*
X033150Y009563D03*
X032150Y009563D03*
X031150Y009563D03*
X031150Y012737D03*
X032150Y012737D03*
X032150Y013563D03*
X031150Y013563D03*
D13*
X006737Y004150D03*
X007563Y004150D03*
X016737Y004150D03*
X017563Y004150D03*
X018737Y003150D03*
X019563Y003150D03*
X024737Y003150D03*
X025563Y003150D03*
X026737Y004150D03*
X027563Y004150D03*
X036737Y004150D03*
X037563Y004150D03*
D14*
X021150Y012552D03*
X021150Y013748D03*
D15*
X007662Y015587D03*
X007406Y015587D03*
X007150Y015587D03*
X006894Y015587D03*
X006638Y015587D03*
D16*
X010150Y015550D03*
X010150Y016750D03*
D17*
X010544Y013524D03*
X009756Y013150D03*
X010544Y012776D03*
X012756Y012776D03*
X013544Y013150D03*
X012756Y013524D03*
X010544Y009524D03*
X009756Y009150D03*
X010544Y008776D03*
X012756Y007524D03*
X013544Y007150D03*
X012756Y006776D03*
X029756Y009150D03*
X030544Y009524D03*
X030544Y008776D03*
X032756Y007524D03*
X033544Y007150D03*
X032756Y006776D03*
X032756Y012776D03*
X033544Y013150D03*
X032756Y013524D03*
X030544Y013524D03*
X029756Y013150D03*
X030544Y012776D03*
M02*
