G75*
%MOIN*%
%OFA0B0*%
%FSLAX24Y24*%
%IPPOS*%
%LPD*%
%AMOC8*
5,1,8,0,0,1.08239X$1,22.5*
%
%ADD10C,0.0700*%
%ADD11R,0.0700X0.0700*%
%ADD12C,0.0416*%
%ADD13R,0.0416X0.0416*%
%ADD14R,0.0512X0.0354*%
%ADD15C,0.1000*%
%ADD16C,0.0591*%
%ADD17C,0.0502*%
%ADD18C,0.1210*%
%ADD19C,0.0560*%
%ADD20C,0.0320*%
%ADD21C,0.0376*%
%ADD22C,0.0160*%
%ADD23C,0.0100*%
D10*
X003150Y005150D03*
X003150Y006150D03*
X003150Y007150D03*
X003150Y008150D03*
X003150Y009150D03*
X003150Y010150D03*
X003150Y011150D03*
X003150Y012150D03*
X003150Y013150D03*
X041150Y013150D03*
X041150Y012150D03*
X041150Y011150D03*
X041150Y010150D03*
X041150Y009150D03*
X041150Y008150D03*
X041150Y007150D03*
X041150Y006150D03*
X041150Y005150D03*
D11*
X041150Y014150D03*
X003150Y014150D03*
D12*
X005870Y013343D03*
X006658Y013737D03*
X006658Y012949D03*
X005870Y012556D03*
X006658Y012162D03*
X005870Y011768D03*
X006658Y011374D03*
X005870Y010981D03*
X006658Y010587D03*
X005870Y010193D03*
X006658Y009800D03*
X007642Y009800D03*
X008430Y010193D03*
X007642Y010587D03*
X008430Y010981D03*
X007642Y011374D03*
X008430Y011768D03*
X007642Y012162D03*
X008430Y012556D03*
X007642Y012949D03*
X008430Y013343D03*
X015870Y013343D03*
X016658Y013737D03*
X016658Y012949D03*
X015870Y012556D03*
X016658Y012162D03*
X015870Y011768D03*
X016658Y011374D03*
X015870Y010981D03*
X016658Y010587D03*
X015870Y010193D03*
X016658Y009800D03*
X017642Y009800D03*
X018430Y010193D03*
X017642Y010587D03*
X018430Y010981D03*
X017642Y011374D03*
X018430Y011768D03*
X017642Y012162D03*
X018430Y012556D03*
X017642Y012949D03*
X018430Y013343D03*
X025870Y013343D03*
X026658Y013737D03*
X026658Y012949D03*
X025870Y012556D03*
X026658Y012162D03*
X025870Y011768D03*
X026658Y011374D03*
X025870Y010981D03*
X026658Y010587D03*
X025870Y010193D03*
X026658Y009800D03*
X027642Y009800D03*
X028430Y010193D03*
X027642Y010587D03*
X028430Y010981D03*
X027642Y011374D03*
X028430Y011768D03*
X027642Y012162D03*
X028430Y012556D03*
X027642Y012949D03*
X028430Y013343D03*
X035870Y013343D03*
X036658Y013737D03*
X036658Y012949D03*
X035870Y012556D03*
X036658Y012162D03*
X035870Y011768D03*
X036658Y011374D03*
X035870Y010981D03*
X036658Y010587D03*
X035870Y010193D03*
X036658Y009800D03*
X037642Y009800D03*
X038430Y010193D03*
X037642Y010587D03*
X038430Y010981D03*
X037642Y011374D03*
X038430Y011768D03*
X037642Y012162D03*
X038430Y012556D03*
X037642Y012949D03*
X038430Y013343D03*
X038430Y008619D03*
X037642Y008225D03*
X038430Y007831D03*
X037642Y007437D03*
X038430Y007044D03*
X037642Y006650D03*
X038430Y006256D03*
X036658Y006650D03*
X035870Y006256D03*
X035870Y007044D03*
X036658Y007437D03*
X035870Y007831D03*
X036658Y008225D03*
X035870Y008619D03*
X028430Y008619D03*
X027642Y008225D03*
X028430Y007831D03*
X027642Y007437D03*
X028430Y007044D03*
X027642Y006650D03*
X028430Y006256D03*
X026658Y006650D03*
X025870Y006256D03*
X025870Y007044D03*
X026658Y007437D03*
X025870Y007831D03*
X026658Y008225D03*
X025870Y008619D03*
X018430Y008619D03*
X017642Y008225D03*
X018430Y007831D03*
X017642Y007437D03*
X018430Y007044D03*
X017642Y006650D03*
X018430Y006256D03*
X016658Y006650D03*
X015870Y006256D03*
X015870Y007044D03*
X016658Y007437D03*
X015870Y007831D03*
X016658Y008225D03*
X015870Y008619D03*
X008430Y008619D03*
X007642Y008225D03*
X008430Y007831D03*
X007642Y007437D03*
X008430Y007044D03*
X007642Y006650D03*
X008430Y006256D03*
X006658Y006650D03*
X005870Y006256D03*
X005870Y007044D03*
X006658Y007437D03*
X005870Y007831D03*
X006658Y008225D03*
X005870Y008619D03*
D13*
X007642Y013737D03*
X017642Y013737D03*
X027642Y013737D03*
X037642Y013737D03*
D14*
X025150Y012563D03*
X025150Y011737D03*
X023150Y011737D03*
X023150Y012563D03*
D15*
X023471Y009961D03*
X020829Y009961D03*
X020829Y008150D03*
X023471Y008150D03*
X023471Y006339D03*
X020829Y006339D03*
D16*
X008528Y016650D03*
X005772Y016650D03*
D17*
X006166Y015587D03*
X008134Y015587D03*
D18*
X016400Y016150D03*
X017900Y016150D03*
D19*
X013634Y016150D03*
X011666Y016150D03*
D20*
X013350Y015350D02*
X013350Y014950D01*
X020150Y014950D01*
X020350Y014950D01*
X021050Y014250D01*
X023250Y014250D01*
X023950Y014950D01*
X025050Y014950D01*
X024950Y015050D01*
X024950Y015350D01*
X025050Y014950D02*
X034650Y014950D01*
X034650Y015350D01*
X034650Y014950D02*
X039350Y014950D01*
X040150Y014150D01*
X041150Y014150D01*
X041150Y013150D02*
X040150Y013150D01*
X038950Y014350D01*
X029350Y014350D01*
X024850Y014350D01*
X024150Y013650D01*
X023150Y013650D01*
X023150Y013150D01*
X023150Y012563D01*
X025150Y012563D02*
X025150Y013150D01*
X023150Y013650D02*
X020150Y013650D01*
X019450Y014350D01*
X009350Y014350D01*
X005350Y014350D01*
X004150Y013150D01*
X003150Y013150D01*
X003150Y014150D02*
X004150Y014150D01*
X004950Y014950D01*
X013350Y014950D01*
X014150Y013450D02*
X014150Y012450D01*
X020150Y014950D02*
X020150Y015350D01*
X020829Y008150D02*
X023471Y008150D01*
X034250Y011950D02*
X034250Y013150D01*
D21*
X034250Y013150D03*
X035050Y012750D03*
X034250Y011950D03*
X033150Y012150D03*
X032150Y012150D03*
X031150Y012150D03*
X030550Y012150D03*
X029303Y012697D03*
X029450Y013850D03*
X025150Y013150D03*
X023150Y013150D03*
X024950Y015350D03*
X020150Y015350D03*
X015450Y013850D03*
X014150Y013450D03*
X013650Y013850D03*
X014150Y012450D03*
X013150Y012150D03*
X012150Y012150D03*
X011150Y012150D03*
X010347Y012150D03*
X009550Y012550D03*
X008850Y012150D03*
X009350Y013950D03*
X010950Y016150D03*
X013350Y015350D03*
X014350Y015850D03*
X009450Y010150D03*
X008850Y008250D03*
X010650Y008250D03*
X012850Y008050D03*
X014150Y006950D03*
X014850Y005850D03*
X014850Y005150D03*
X021750Y006450D03*
X022650Y006450D03*
X025050Y006050D03*
X025050Y006850D03*
X030550Y008150D03*
X033150Y008150D03*
X033850Y006650D03*
X034150Y005150D03*
X034650Y005150D03*
X038650Y005150D03*
X039150Y005150D03*
X039650Y005150D03*
X039650Y005650D03*
X039150Y005650D03*
X039150Y004650D03*
X038650Y004650D03*
X029550Y010050D03*
X033950Y013850D03*
X034650Y015350D03*
X005650Y005150D03*
X005150Y005150D03*
X004650Y005150D03*
X004650Y005650D03*
X005150Y005650D03*
X005150Y004650D03*
X005650Y004650D03*
D22*
X008250Y012150D02*
X008850Y012150D01*
X008430Y012556D02*
X008036Y012949D01*
X007642Y012949D01*
X007850Y012550D02*
X007350Y012550D01*
X006951Y012949D01*
X006658Y012949D01*
X006264Y013343D01*
X005870Y013343D01*
X007850Y012550D02*
X008250Y012150D01*
X008430Y012556D02*
X009544Y012556D01*
X009550Y012550D01*
X009350Y013950D02*
X009350Y014350D01*
X010950Y016150D02*
X010950Y016550D01*
X011150Y016750D01*
X014050Y016750D01*
X014350Y016450D01*
X014350Y015850D01*
X028430Y012556D02*
X029162Y012556D01*
X029303Y012697D01*
X029450Y013850D02*
X029350Y013950D01*
X029350Y014350D01*
D23*
X004679Y002678D02*
X004521Y002350D01*
X020781Y002350D01*
X020708Y002456D01*
X020708Y002456D01*
X020568Y002912D01*
X020568Y003388D01*
X020708Y003844D01*
X020708Y003844D01*
X020977Y004238D01*
X020977Y004238D01*
X020977Y004238D01*
X021350Y004536D01*
X021350Y004536D01*
X021794Y004710D01*
X021794Y004710D01*
X022270Y004746D01*
X022270Y004746D01*
X022735Y004639D01*
X022735Y004639D01*
X023148Y004401D01*
X023148Y004401D01*
X023472Y004051D01*
X023679Y003622D01*
X023750Y003150D01*
X023750Y003150D01*
X023679Y002678D01*
X023679Y002678D01*
X023521Y002350D01*
X039781Y002350D01*
X039708Y002456D01*
X039708Y002456D01*
X039568Y002912D01*
X039568Y003388D01*
X039708Y003844D01*
X039708Y003844D01*
X039977Y004238D01*
X039977Y004238D01*
X039977Y004238D01*
X040350Y004536D01*
X040350Y004536D01*
X040794Y004710D01*
X040794Y004710D01*
X040977Y004724D01*
X040889Y004760D01*
X040760Y004889D01*
X040690Y005058D01*
X040690Y005241D01*
X040732Y005342D01*
X039190Y006884D01*
X038707Y006884D01*
X038699Y006864D01*
X038610Y006774D01*
X038493Y006726D01*
X038366Y006726D01*
X038250Y006774D01*
X038160Y006864D01*
X038112Y006980D01*
X038112Y007107D01*
X038160Y007224D01*
X038250Y007313D01*
X038366Y007361D01*
X038493Y007361D01*
X038610Y007313D01*
X038699Y007224D01*
X038707Y007204D01*
X039323Y007204D01*
X040958Y005568D01*
X041058Y005610D01*
X041241Y005610D01*
X041411Y005540D01*
X041540Y005411D01*
X041610Y005241D01*
X041610Y005058D01*
X041540Y004889D01*
X041411Y004760D01*
X041338Y004730D01*
X041735Y004639D01*
X041735Y004639D01*
X041950Y004515D01*
X041950Y014785D01*
X041735Y014661D01*
X041735Y014661D01*
X041513Y014610D01*
X041546Y014610D01*
X041610Y014546D01*
X041610Y013754D01*
X041546Y013690D01*
X040754Y013690D01*
X040690Y013754D01*
X040690Y013880D01*
X040096Y013880D01*
X039997Y013921D01*
X039238Y014680D01*
X024062Y014680D01*
X023403Y014021D01*
X023304Y013980D01*
X020996Y013980D01*
X020897Y014021D01*
X020821Y014097D01*
X020238Y014680D01*
X005062Y014680D01*
X004303Y013921D01*
X004204Y013880D01*
X003610Y013880D01*
X003610Y013754D01*
X003546Y013690D01*
X002754Y013690D01*
X002690Y013754D01*
X002690Y014546D01*
X002751Y014607D01*
X002350Y014764D01*
X002350Y014764D01*
X002350Y014764D01*
X002350Y004536D01*
X002350Y004536D01*
X002794Y004710D01*
X002977Y004724D01*
X002889Y004760D01*
X002760Y004889D01*
X002690Y005058D01*
X002690Y005241D01*
X002760Y005411D01*
X002889Y005540D01*
X003058Y005610D01*
X003241Y005610D01*
X003411Y005540D01*
X003540Y005411D01*
X003553Y005379D01*
X004164Y005990D01*
X003582Y005990D01*
X003540Y005889D01*
X003411Y005760D01*
X003241Y005690D01*
X003058Y005690D01*
X002889Y005760D01*
X002760Y005889D01*
X002690Y006058D01*
X002690Y006241D01*
X002760Y006411D01*
X002889Y006540D01*
X003058Y006610D01*
X003241Y006610D01*
X003411Y006540D01*
X003540Y006411D01*
X003582Y006310D01*
X004084Y006310D01*
X004584Y006810D01*
X005655Y006810D01*
X005601Y006864D01*
X005553Y006980D01*
X005553Y006990D01*
X003582Y006990D01*
X003540Y006889D01*
X003411Y006760D01*
X003241Y006690D01*
X003058Y006690D01*
X002889Y006760D01*
X002760Y006889D01*
X002690Y007058D01*
X002690Y007241D01*
X002760Y007411D01*
X002889Y007540D01*
X003058Y007610D01*
X003241Y007610D01*
X003411Y007540D01*
X003540Y007411D01*
X003582Y007310D01*
X005687Y007310D01*
X005690Y007313D01*
X005807Y007361D01*
X005934Y007361D01*
X005954Y007353D01*
X006198Y007597D01*
X006380Y007597D01*
X006388Y007617D01*
X006478Y007707D01*
X006595Y007755D01*
X006721Y007755D01*
X006838Y007707D01*
X006890Y007655D01*
X006890Y007699D01*
X006984Y007793D01*
X007333Y008142D01*
X007324Y008162D01*
X007324Y008188D01*
X007235Y008108D01*
X007191Y008065D01*
X007186Y008065D01*
X007182Y008061D01*
X007120Y008065D01*
X006936Y008065D01*
X006927Y008045D01*
X006838Y007955D01*
X006721Y007907D01*
X006595Y007907D01*
X006478Y007955D01*
X006388Y008045D01*
X006380Y008065D01*
X006330Y008065D01*
X006180Y007914D01*
X006188Y007894D01*
X006188Y007768D01*
X006140Y007651D01*
X006050Y007562D01*
X005934Y007513D01*
X005807Y007513D01*
X005690Y007562D01*
X005601Y007651D01*
X005553Y007768D01*
X005553Y007894D01*
X005561Y007914D01*
X005485Y007990D01*
X003582Y007990D01*
X003540Y007889D01*
X003411Y007760D01*
X003241Y007690D01*
X003058Y007690D01*
X002889Y007760D01*
X002760Y007889D01*
X002690Y008058D01*
X002690Y008241D01*
X002760Y008411D01*
X002889Y008540D01*
X003058Y008610D01*
X003241Y008610D01*
X003411Y008540D01*
X003540Y008411D01*
X003582Y008310D01*
X005618Y008310D01*
X005787Y008141D01*
X005807Y008149D01*
X005934Y008149D01*
X005954Y008141D01*
X006198Y008385D01*
X006380Y008385D01*
X006388Y008405D01*
X006478Y008494D01*
X006595Y008543D01*
X006721Y008543D01*
X006838Y008494D01*
X006927Y008405D01*
X006936Y008385D01*
X007064Y008385D01*
X007187Y008495D01*
X007020Y008495D01*
X006779Y008595D01*
X006595Y008779D01*
X006495Y009020D01*
X006495Y009280D01*
X006581Y009488D01*
X006478Y009530D01*
X006388Y009620D01*
X006340Y009736D01*
X006340Y009863D01*
X006388Y009980D01*
X006478Y010069D01*
X006595Y010117D01*
X006721Y010117D01*
X006838Y010069D01*
X006927Y009980D01*
X006976Y009863D01*
X006976Y009787D01*
X007020Y009805D01*
X007280Y009805D01*
X007324Y009787D01*
X007324Y009863D01*
X007373Y009980D01*
X007383Y009990D01*
X007084Y009990D01*
X006990Y010084D01*
X006780Y010294D01*
X006721Y010269D01*
X006595Y010269D01*
X006478Y010318D01*
X006388Y010407D01*
X006380Y010427D01*
X006330Y010427D01*
X006180Y010277D01*
X006188Y010257D01*
X006188Y010130D01*
X006140Y010013D01*
X006050Y009924D01*
X005934Y009876D01*
X005807Y009876D01*
X005690Y009924D01*
X005601Y010013D01*
X005593Y010033D01*
X005260Y010033D01*
X004216Y008990D01*
X003582Y008990D01*
X003540Y008889D01*
X003411Y008760D01*
X003241Y008690D01*
X003058Y008690D01*
X002889Y008760D01*
X002760Y008889D01*
X002690Y009058D01*
X002690Y009241D01*
X002760Y009411D01*
X002889Y009540D01*
X003058Y009610D01*
X003241Y009610D01*
X003411Y009540D01*
X003540Y009411D01*
X003582Y009310D01*
X004084Y009310D01*
X005033Y010260D01*
X005127Y010353D01*
X005593Y010353D01*
X005601Y010373D01*
X005690Y010463D01*
X005807Y010511D01*
X005934Y010511D01*
X005954Y010503D01*
X006104Y010653D01*
X006198Y010747D01*
X006380Y010747D01*
X006388Y010767D01*
X006478Y010856D01*
X006595Y010905D01*
X006721Y010905D01*
X006838Y010856D01*
X006927Y010767D01*
X006976Y010650D01*
X006976Y010551D01*
X007216Y010310D01*
X007413Y010310D01*
X007364Y010359D01*
X007325Y010418D01*
X007298Y010483D01*
X007284Y010552D01*
X007284Y010568D01*
X007623Y010568D01*
X007623Y010606D01*
X007284Y010606D01*
X007284Y010622D01*
X007298Y010691D01*
X007325Y010756D01*
X007347Y010790D01*
X007184Y010790D01*
X007090Y010884D01*
X006853Y011120D01*
X006838Y011105D01*
X006721Y011057D01*
X006595Y011057D01*
X006478Y011105D01*
X006388Y011194D01*
X006380Y011214D01*
X006330Y011214D01*
X006180Y011064D01*
X006188Y011044D01*
X006188Y010917D01*
X007057Y010917D01*
X006959Y011015D02*
X006188Y011015D01*
X006188Y010917D02*
X006140Y010801D01*
X006050Y010711D01*
X005934Y010663D01*
X005807Y010663D01*
X005690Y010711D01*
X005601Y010801D01*
X005593Y010821D01*
X005047Y010821D01*
X004216Y009990D01*
X003582Y009990D01*
X003540Y009889D01*
X003411Y009760D01*
X003241Y009690D01*
X003058Y009690D01*
X002889Y009760D01*
X002760Y009889D01*
X002690Y010058D01*
X002690Y010241D01*
X002760Y010411D01*
X002889Y010540D01*
X003058Y010610D01*
X003241Y010610D01*
X003411Y010540D01*
X003540Y010411D01*
X003582Y010310D01*
X004084Y010310D01*
X004821Y011047D01*
X004914Y011141D01*
X005593Y011141D01*
X005601Y011161D01*
X005690Y011250D01*
X005807Y011299D01*
X005934Y011299D01*
X005954Y011290D01*
X006104Y011441D01*
X006198Y011534D01*
X006380Y011534D01*
X006388Y011554D01*
X006478Y011644D01*
X006595Y011692D01*
X006721Y011692D01*
X006838Y011644D01*
X006927Y011554D01*
X006966Y011460D01*
X007316Y011110D01*
X007401Y011110D01*
X007364Y011146D01*
X007325Y011205D01*
X007298Y011270D01*
X007284Y011339D01*
X007284Y011356D01*
X007623Y011356D01*
X007623Y011393D01*
X007284Y011393D01*
X007284Y011410D01*
X007298Y011479D01*
X007325Y011544D01*
X007356Y011590D01*
X007184Y011590D01*
X007090Y011684D01*
X006860Y011914D01*
X006838Y011892D01*
X006721Y011844D01*
X006595Y011844D01*
X006478Y011892D01*
X006388Y011982D01*
X006380Y012002D01*
X006330Y012002D01*
X006180Y011851D01*
X006188Y011831D01*
X006188Y011705D01*
X006140Y011588D01*
X006050Y011499D01*
X005934Y011450D01*
X005807Y011450D01*
X005690Y011499D01*
X005601Y011588D01*
X005593Y011608D01*
X004834Y011608D01*
X004216Y010990D01*
X003582Y010990D01*
X003540Y010889D01*
X003411Y010760D01*
X003241Y010690D01*
X003058Y010690D01*
X002889Y010760D01*
X002760Y010889D01*
X002690Y011058D01*
X002690Y011241D01*
X002760Y011411D01*
X002889Y011540D01*
X003058Y011610D01*
X003241Y011610D01*
X003411Y011540D01*
X003540Y011411D01*
X003582Y011310D01*
X004084Y011310D01*
X004608Y011834D01*
X004702Y011928D01*
X005593Y011928D01*
X005601Y011948D01*
X005690Y012038D01*
X005807Y012086D01*
X005934Y012086D01*
X005954Y012078D01*
X006104Y012228D01*
X006198Y012322D01*
X006380Y012322D01*
X006388Y012342D01*
X006478Y012431D01*
X006595Y012480D01*
X006721Y012480D01*
X006838Y012431D01*
X006927Y012342D01*
X006958Y012269D01*
X007316Y011910D01*
X007445Y011910D01*
X007373Y011982D01*
X007324Y012099D01*
X007324Y012225D01*
X007373Y012342D01*
X007391Y012360D01*
X007271Y012360D01*
X007160Y012471D01*
X006895Y012737D01*
X006838Y012680D01*
X006721Y012631D01*
X006595Y012631D01*
X006478Y012680D01*
X006388Y012769D01*
X006340Y012886D01*
X006340Y012998D01*
X006185Y013153D01*
X006130Y013153D01*
X006050Y013073D01*
X005934Y013025D01*
X005807Y013025D01*
X005690Y013073D01*
X005601Y013163D01*
X005553Y013280D01*
X005553Y013406D01*
X005601Y013523D01*
X005690Y013612D01*
X005807Y013661D01*
X005934Y013661D01*
X006050Y013612D01*
X006130Y013533D01*
X006343Y013533D01*
X006609Y013267D01*
X006721Y013267D01*
X006838Y013219D01*
X006917Y013139D01*
X007029Y013139D01*
X007354Y012815D01*
X007324Y012886D01*
X007324Y013012D01*
X007373Y013129D01*
X007462Y013219D01*
X007579Y013267D01*
X007705Y013267D01*
X007822Y013219D01*
X007902Y013139D01*
X008115Y013139D01*
X008226Y013028D01*
X008380Y012873D01*
X008493Y012873D01*
X008610Y012825D01*
X008689Y012746D01*
X009324Y012746D01*
X009381Y012803D01*
X009491Y012848D01*
X009609Y012848D01*
X009719Y012803D01*
X009803Y012719D01*
X009848Y012609D01*
X009848Y012491D01*
X009803Y012381D01*
X009719Y012297D01*
X009609Y012252D01*
X009491Y012252D01*
X009381Y012297D01*
X009313Y012366D01*
X009056Y012366D01*
X009103Y012319D01*
X009148Y012209D01*
X009148Y012091D01*
X009103Y011981D01*
X009019Y011897D01*
X008909Y011852D01*
X008791Y011852D01*
X008728Y011878D01*
X008747Y011831D01*
X008747Y011705D01*
X008699Y011588D01*
X008621Y011510D01*
X015386Y011510D01*
X015561Y011685D01*
X015553Y011705D01*
X015553Y011831D01*
X015601Y011948D01*
X015690Y012038D01*
X015807Y012086D01*
X015934Y012086D01*
X016050Y012038D01*
X016140Y011948D01*
X016148Y011928D01*
X016198Y011928D01*
X016348Y012079D01*
X016340Y012099D01*
X016340Y012225D01*
X016388Y012342D01*
X016478Y012431D01*
X016595Y012480D01*
X016721Y012480D01*
X016838Y012431D01*
X016927Y012342D01*
X016976Y012225D01*
X016976Y012099D01*
X016967Y012079D01*
X017136Y011910D01*
X017445Y011910D01*
X017373Y011982D01*
X017324Y012099D01*
X017324Y012225D01*
X017373Y012342D01*
X017462Y012431D01*
X017579Y012480D01*
X017705Y012480D01*
X017822Y012431D01*
X017912Y012342D01*
X017960Y012225D01*
X017960Y012099D01*
X017912Y011982D01*
X017840Y011910D01*
X017916Y011910D01*
X018112Y011715D01*
X018112Y011831D01*
X018160Y011948D01*
X018250Y012038D01*
X018366Y012086D01*
X018493Y012086D01*
X018610Y012038D01*
X018699Y011948D01*
X018747Y011831D01*
X018747Y011705D01*
X018699Y011588D01*
X018621Y011510D01*
X019116Y011510D01*
X019210Y011416D01*
X019210Y011416D01*
X019816Y010810D01*
X024884Y010810D01*
X025631Y011558D01*
X025601Y011588D01*
X025556Y011697D01*
X025556Y011540D01*
X025546Y011502D01*
X025526Y011467D01*
X025498Y011439D01*
X025464Y011420D01*
X025426Y011409D01*
X025189Y011409D01*
X025189Y011698D01*
X025111Y011698D01*
X024744Y011698D01*
X024744Y011540D01*
X024754Y011502D01*
X024774Y011467D01*
X024802Y011439D01*
X024836Y011420D01*
X024874Y011409D01*
X025111Y011409D01*
X025111Y011698D01*
X025111Y011775D01*
X024744Y011775D01*
X024744Y011934D01*
X024754Y011972D01*
X024774Y012006D01*
X024802Y012034D01*
X024836Y012054D01*
X024874Y012064D01*
X025111Y012064D01*
X025111Y011775D01*
X025189Y011775D01*
X025189Y012064D01*
X025426Y012064D01*
X025464Y012054D01*
X025498Y012034D01*
X025526Y012006D01*
X025546Y011972D01*
X025556Y011934D01*
X025556Y011839D01*
X025601Y011948D01*
X025690Y012038D01*
X025807Y012086D01*
X025934Y012086D01*
X026050Y012038D01*
X026140Y011948D01*
X026148Y011928D01*
X026198Y011928D01*
X026348Y012079D01*
X026340Y012099D01*
X026340Y012225D01*
X026388Y012342D01*
X026478Y012431D01*
X026595Y012480D01*
X026721Y012480D01*
X026838Y012431D01*
X026927Y012342D01*
X026936Y012322D01*
X027004Y012322D01*
X027416Y011910D01*
X027445Y011910D01*
X027373Y011982D01*
X027324Y012099D01*
X027324Y012225D01*
X027373Y012342D01*
X027462Y012431D01*
X027579Y012480D01*
X027705Y012480D01*
X027822Y012431D01*
X027912Y012342D01*
X027960Y012225D01*
X027960Y012099D01*
X027912Y011982D01*
X027840Y011910D01*
X027916Y011910D01*
X028112Y011715D01*
X028112Y011831D01*
X028160Y011948D01*
X028250Y012038D01*
X028366Y012086D01*
X028493Y012086D01*
X028610Y012038D01*
X028699Y011948D01*
X028747Y011831D01*
X028747Y011705D01*
X028699Y011588D01*
X028621Y011510D01*
X035386Y011510D01*
X035561Y011685D01*
X035553Y011705D01*
X035553Y011831D01*
X035601Y011948D01*
X035690Y012038D01*
X035807Y012086D01*
X035934Y012086D01*
X036050Y012038D01*
X036140Y011948D01*
X036148Y011928D01*
X036198Y011928D01*
X036348Y012079D01*
X036340Y012099D01*
X036340Y012225D01*
X036388Y012342D01*
X036478Y012431D01*
X036595Y012480D01*
X036721Y012480D01*
X036838Y012431D01*
X036927Y012342D01*
X036976Y012225D01*
X036976Y012099D01*
X036967Y012079D01*
X037136Y011910D01*
X037445Y011910D01*
X037373Y011982D01*
X037324Y012099D01*
X037324Y012225D01*
X037373Y012342D01*
X037462Y012431D01*
X037579Y012480D01*
X037705Y012480D01*
X037822Y012431D01*
X037912Y012342D01*
X037960Y012225D01*
X037960Y012099D01*
X037912Y011982D01*
X037840Y011910D01*
X037916Y011910D01*
X038010Y011816D01*
X038010Y011816D01*
X038112Y011715D01*
X038112Y011831D01*
X038160Y011948D01*
X038250Y012038D01*
X038366Y012086D01*
X038493Y012086D01*
X038610Y012038D01*
X038699Y011948D01*
X038747Y011831D01*
X038747Y011705D01*
X038699Y011588D01*
X038621Y011510D01*
X038816Y011510D01*
X039016Y011310D01*
X040718Y011310D01*
X040760Y011411D01*
X040889Y011540D01*
X041058Y011610D01*
X041241Y011610D01*
X041411Y011540D01*
X041540Y011411D01*
X041610Y011241D01*
X041610Y011058D01*
X041540Y010889D01*
X041411Y010760D01*
X041241Y010690D01*
X041058Y010690D01*
X040889Y010760D01*
X040760Y010889D01*
X040718Y010990D01*
X038884Y010990D01*
X038790Y011084D01*
X038763Y011111D01*
X038774Y011085D01*
X038787Y011016D01*
X038787Y011000D01*
X038448Y011000D01*
X038448Y010962D01*
X038787Y010962D01*
X038787Y010945D01*
X038774Y010876D01*
X038747Y010811D01*
X038707Y010753D01*
X038665Y010710D01*
X038916Y010710D01*
X039316Y010310D01*
X040718Y010310D01*
X040760Y010411D01*
X040889Y010540D01*
X041058Y010610D01*
X041241Y010610D01*
X041411Y010540D01*
X041540Y010411D01*
X041610Y010241D01*
X041610Y010058D01*
X041540Y009889D01*
X041411Y009760D01*
X041241Y009690D01*
X041058Y009690D01*
X040889Y009760D01*
X040760Y009889D01*
X040718Y009990D01*
X039184Y009990D01*
X039090Y010084D01*
X038784Y010390D01*
X038728Y010390D01*
X038747Y010363D01*
X038774Y010298D01*
X038787Y010229D01*
X038787Y010212D01*
X038448Y010212D01*
X038448Y010174D01*
X038787Y010174D01*
X038787Y010158D01*
X038774Y010089D01*
X038747Y010024D01*
X038707Y009965D01*
X038658Y009915D01*
X038599Y009876D01*
X038534Y009849D01*
X038486Y009840D01*
X039016Y009310D01*
X040718Y009310D01*
X040760Y009411D01*
X040889Y009540D01*
X041058Y009610D01*
X041241Y009610D01*
X041411Y009540D01*
X041540Y009411D01*
X041610Y009241D01*
X041610Y009058D01*
X041540Y008889D01*
X041411Y008760D01*
X041241Y008690D01*
X041058Y008690D01*
X040889Y008760D01*
X040760Y008889D01*
X040718Y008990D01*
X038936Y008990D01*
X039116Y008810D01*
X040716Y008810D01*
X040958Y008568D01*
X041058Y008610D01*
X041241Y008610D01*
X041411Y008540D01*
X041540Y008411D01*
X041610Y008241D01*
X041610Y008058D01*
X041540Y007889D01*
X041411Y007760D01*
X041241Y007690D01*
X041058Y007690D01*
X040889Y007760D01*
X040760Y007889D01*
X040690Y008058D01*
X040690Y008241D01*
X040732Y008342D01*
X040584Y008490D01*
X038984Y008490D01*
X038890Y008584D01*
X038716Y008758D01*
X038747Y008682D01*
X038747Y008555D01*
X038699Y008438D01*
X038670Y008410D01*
X039616Y008410D01*
X040716Y007310D01*
X040718Y007310D01*
X040760Y007411D01*
X040889Y007540D01*
X041058Y007610D01*
X041241Y007610D01*
X041411Y007540D01*
X041540Y007411D01*
X041610Y007241D01*
X041610Y007058D01*
X041540Y006889D01*
X041411Y006760D01*
X041241Y006690D01*
X041058Y006690D01*
X040889Y006760D01*
X040760Y006889D01*
X040718Y006990D01*
X040584Y006990D01*
X040490Y007084D01*
X039484Y008090D01*
X038620Y008090D01*
X038699Y008011D01*
X038707Y007991D01*
X039535Y007991D01*
X040958Y006568D01*
X041058Y006610D01*
X041241Y006610D01*
X041411Y006540D01*
X041540Y006411D01*
X041610Y006241D01*
X041610Y006058D01*
X041540Y005889D01*
X041411Y005760D01*
X041241Y005690D01*
X041058Y005690D01*
X040889Y005760D01*
X040760Y005889D01*
X040690Y006058D01*
X040690Y006241D01*
X040732Y006342D01*
X039403Y007671D01*
X038707Y007671D01*
X038699Y007651D01*
X038610Y007562D01*
X038493Y007513D01*
X038366Y007513D01*
X038250Y007562D01*
X038160Y007651D01*
X038112Y007768D01*
X038112Y007885D01*
X037916Y007690D01*
X037839Y007690D01*
X037912Y007617D01*
X037960Y007501D01*
X037960Y007374D01*
X037912Y007257D01*
X037822Y007168D01*
X037705Y007120D01*
X037579Y007120D01*
X037462Y007168D01*
X037373Y007257D01*
X037324Y007374D01*
X037324Y007501D01*
X037373Y007617D01*
X037445Y007690D01*
X037137Y007690D01*
X036967Y007521D01*
X036976Y007501D01*
X036976Y007374D01*
X036927Y007257D01*
X036838Y007168D01*
X036721Y007120D01*
X036595Y007120D01*
X036478Y007168D01*
X036388Y007257D01*
X036380Y007277D01*
X036330Y007277D01*
X036180Y007127D01*
X036188Y007107D01*
X036188Y006980D01*
X036140Y006864D01*
X036050Y006774D01*
X035934Y006726D01*
X035807Y006726D01*
X035690Y006774D01*
X035601Y006864D01*
X035593Y006884D01*
X035410Y006884D01*
X033436Y004910D01*
X033684Y004910D01*
X033856Y005082D01*
X033852Y005091D01*
X033852Y005209D01*
X033897Y005319D01*
X033981Y005403D01*
X034091Y005448D01*
X034209Y005448D01*
X034319Y005403D01*
X034400Y005322D01*
X034481Y005403D01*
X034591Y005448D01*
X034709Y005448D01*
X034819Y005403D01*
X034903Y005319D01*
X034948Y005209D01*
X034948Y005091D01*
X034903Y004981D01*
X034819Y004897D01*
X034709Y004852D01*
X034591Y004852D01*
X034582Y004856D01*
X034016Y004290D01*
X029584Y004290D01*
X029490Y004384D01*
X028690Y005184D01*
X028690Y006067D01*
X028610Y005987D01*
X028493Y005939D01*
X028366Y005939D01*
X028250Y005987D01*
X028160Y006076D01*
X028112Y006193D01*
X028112Y006320D01*
X028160Y006436D01*
X028250Y006526D01*
X028366Y006574D01*
X028493Y006574D01*
X028610Y006526D01*
X028690Y006445D01*
X028690Y006684D01*
X028602Y006771D01*
X028493Y006726D01*
X028366Y006726D01*
X028250Y006774D01*
X028160Y006864D01*
X028112Y006980D01*
X028112Y007107D01*
X028160Y007224D01*
X028250Y007313D01*
X028366Y007361D01*
X028493Y007361D01*
X028610Y007313D01*
X028699Y007224D01*
X028747Y007107D01*
X028747Y007079D01*
X028916Y006910D01*
X028990Y006836D01*
X028990Y007384D01*
X028706Y007668D01*
X028699Y007651D01*
X028610Y007562D01*
X028493Y007513D01*
X028366Y007513D01*
X028250Y007562D01*
X028160Y007651D01*
X028112Y007768D01*
X028112Y007885D01*
X027916Y007690D01*
X027839Y007690D01*
X027912Y007617D01*
X027960Y007501D01*
X027960Y007374D01*
X027912Y007257D01*
X027822Y007168D01*
X027705Y007120D01*
X027579Y007120D01*
X027462Y007168D01*
X027373Y007257D01*
X027324Y007374D01*
X027324Y007501D01*
X027373Y007617D01*
X027445Y007690D01*
X027416Y007690D01*
X027004Y007277D01*
X026936Y007277D01*
X026927Y007257D01*
X026838Y007168D01*
X026721Y007120D01*
X026595Y007120D01*
X026478Y007168D01*
X026388Y007257D01*
X026380Y007277D01*
X026330Y007277D01*
X026180Y007127D01*
X026188Y007107D01*
X026188Y006980D01*
X026140Y006864D01*
X026050Y006774D01*
X025934Y006726D01*
X025807Y006726D01*
X025690Y006774D01*
X025601Y006864D01*
X025553Y006980D01*
X025553Y007107D01*
X025561Y007127D01*
X025398Y007290D01*
X024136Y007290D01*
X024416Y007010D01*
X024794Y007010D01*
X024797Y007019D01*
X024881Y007103D01*
X024991Y007148D01*
X025109Y007148D01*
X025219Y007103D01*
X025303Y007019D01*
X025348Y006909D01*
X025348Y006791D01*
X025303Y006681D01*
X025219Y006597D01*
X025109Y006552D01*
X024991Y006552D01*
X024881Y006597D01*
X024797Y006681D01*
X024794Y006690D01*
X024436Y006690D01*
X024852Y006274D01*
X024881Y006303D01*
X024991Y006348D01*
X025109Y006348D01*
X025219Y006303D01*
X025303Y006219D01*
X025348Y006109D01*
X025348Y005991D01*
X025303Y005881D01*
X025219Y005797D01*
X025109Y005752D01*
X024991Y005752D01*
X024881Y005797D01*
X024797Y005881D01*
X024794Y005890D01*
X024784Y005890D01*
X023784Y006890D01*
X023735Y006890D01*
X023816Y006856D01*
X023988Y006685D01*
X024081Y006460D01*
X024081Y006218D01*
X023988Y005993D01*
X023816Y005822D01*
X023592Y005729D01*
X023350Y005729D01*
X023125Y005822D01*
X022954Y005993D01*
X022861Y006218D01*
X022861Y006239D01*
X022819Y006197D01*
X022709Y006152D01*
X022591Y006152D01*
X022481Y006197D01*
X022397Y006281D01*
X022394Y006290D01*
X022006Y006290D01*
X022003Y006281D01*
X021919Y006197D01*
X021809Y006152D01*
X021691Y006152D01*
X021581Y006197D01*
X021497Y006281D01*
X021452Y006391D01*
X021452Y006509D01*
X021497Y006619D01*
X021581Y006703D01*
X021691Y006748D01*
X021809Y006748D01*
X021919Y006703D01*
X022003Y006619D01*
X022006Y006610D01*
X022394Y006610D01*
X022397Y006619D01*
X022481Y006703D01*
X022591Y006748D01*
X022709Y006748D01*
X022819Y006703D01*
X022903Y006619D01*
X022915Y006590D01*
X022954Y006685D01*
X023125Y006856D01*
X023207Y006890D01*
X021093Y006890D01*
X021175Y006856D01*
X021346Y006685D01*
X021439Y006460D01*
X021439Y006218D01*
X021346Y005993D01*
X021175Y005822D01*
X020950Y005729D01*
X020708Y005729D01*
X020484Y005822D01*
X020312Y005993D01*
X020219Y006218D01*
X020219Y006460D01*
X020312Y006685D01*
X020484Y006856D01*
X020565Y006890D01*
X018710Y006890D01*
X018699Y006864D01*
X018610Y006774D01*
X018493Y006726D01*
X018366Y006726D01*
X018250Y006774D01*
X018160Y006864D01*
X018112Y006980D01*
X018112Y007107D01*
X018160Y007224D01*
X018250Y007313D01*
X018366Y007361D01*
X018493Y007361D01*
X018610Y007313D01*
X018699Y007224D01*
X018705Y007210D01*
X018824Y007210D01*
X018513Y007522D01*
X018493Y007513D01*
X018366Y007513D01*
X018250Y007562D01*
X018160Y007651D01*
X018112Y007768D01*
X018112Y007885D01*
X017916Y007690D01*
X017839Y007690D01*
X017912Y007617D01*
X017960Y007501D01*
X017960Y007374D01*
X017912Y007257D01*
X017822Y007168D01*
X017705Y007120D01*
X017579Y007120D01*
X017462Y007168D01*
X017373Y007257D01*
X017324Y007374D01*
X017324Y007498D01*
X017104Y007277D01*
X016936Y007277D01*
X016927Y007257D01*
X016838Y007168D01*
X016721Y007120D01*
X016595Y007120D01*
X016478Y007168D01*
X016388Y007257D01*
X016380Y007277D01*
X016330Y007277D01*
X016180Y007127D01*
X016188Y007107D01*
X016188Y006980D01*
X016140Y006864D01*
X016050Y006774D01*
X015934Y006726D01*
X015807Y006726D01*
X015690Y006774D01*
X015601Y006864D01*
X015598Y006872D01*
X014874Y006148D01*
X014909Y006148D01*
X015019Y006103D01*
X015103Y006019D01*
X015148Y005909D01*
X015148Y005791D01*
X015103Y005681D01*
X015019Y005597D01*
X014909Y005552D01*
X014791Y005552D01*
X014782Y005556D01*
X013936Y004710D01*
X013984Y004710D01*
X014490Y005216D01*
X014584Y005310D01*
X014594Y005310D01*
X014597Y005319D01*
X014681Y005403D01*
X014791Y005448D01*
X014909Y005448D01*
X015019Y005403D01*
X015103Y005319D01*
X015148Y005209D01*
X015148Y005091D01*
X015103Y004981D01*
X015019Y004897D01*
X014909Y004852D01*
X014791Y004852D01*
X014681Y004897D01*
X014652Y004926D01*
X014116Y004390D01*
X009684Y004390D01*
X009590Y004484D01*
X009590Y004484D01*
X009084Y004990D01*
X009084Y004990D01*
X008990Y005084D01*
X008990Y006684D01*
X008784Y006890D01*
X008710Y006890D01*
X008699Y006864D01*
X008610Y006774D01*
X008493Y006726D01*
X008366Y006726D01*
X008250Y006774D01*
X008160Y006864D01*
X008112Y006980D01*
X008112Y007107D01*
X008160Y007224D01*
X008250Y007313D01*
X008366Y007361D01*
X008493Y007361D01*
X008610Y007313D01*
X008699Y007224D01*
X008705Y007210D01*
X008916Y007210D01*
X009190Y006936D01*
X009190Y007284D01*
X008784Y007690D01*
X008715Y007690D01*
X008699Y007651D01*
X008610Y007562D01*
X008493Y007513D01*
X008366Y007513D01*
X008250Y007562D01*
X008160Y007651D01*
X008152Y007671D01*
X007970Y007671D01*
X007725Y007915D01*
X007705Y007907D01*
X007579Y007907D01*
X007559Y007915D01*
X007210Y007566D01*
X007210Y007336D01*
X007324Y007451D01*
X007324Y007501D01*
X007373Y007617D01*
X007462Y007707D01*
X007579Y007755D01*
X007705Y007755D01*
X007822Y007707D01*
X007912Y007617D01*
X007960Y007501D01*
X007960Y007374D01*
X007912Y007257D01*
X007822Y007168D01*
X007705Y007120D01*
X007579Y007120D01*
X007485Y007159D01*
X007410Y007084D01*
X007410Y006867D01*
X007462Y006919D01*
X007579Y006968D01*
X007705Y006968D01*
X007822Y006919D01*
X007912Y006830D01*
X007960Y006713D01*
X007960Y006587D01*
X007912Y006470D01*
X007822Y006381D01*
X007705Y006332D01*
X007579Y006332D01*
X007462Y006381D01*
X007373Y006470D01*
X007350Y006524D01*
X007037Y006210D01*
X007282Y006210D01*
X007525Y006109D01*
X007712Y005923D01*
X007813Y005679D01*
X007813Y005416D01*
X007712Y005172D01*
X007525Y004986D01*
X007282Y004885D01*
X007018Y004885D01*
X006775Y004986D01*
X006588Y005172D01*
X006487Y005416D01*
X006487Y005661D01*
X006416Y005590D01*
X005684Y005590D01*
X005590Y005684D01*
X005284Y005990D01*
X004616Y005990D01*
X003616Y004990D01*
X003582Y004990D01*
X003540Y004889D01*
X003411Y004760D01*
X003338Y004730D01*
X003735Y004639D01*
X003735Y004639D01*
X004148Y004401D01*
X004148Y004401D01*
X004472Y004051D01*
X004472Y004051D01*
X004679Y003622D01*
X004679Y003622D01*
X004750Y003150D01*
X004679Y002678D01*
X004679Y002678D01*
X004662Y002643D02*
X020651Y002643D01*
X020620Y002741D02*
X004688Y002741D01*
X004703Y002840D02*
X020590Y002840D01*
X020568Y002938D02*
X004718Y002938D01*
X004733Y003037D02*
X020568Y003037D01*
X020568Y003135D02*
X004748Y003135D01*
X004737Y003234D02*
X020568Y003234D01*
X020568Y003332D02*
X004723Y003332D01*
X004708Y003431D02*
X020581Y003431D01*
X020611Y003529D02*
X004693Y003529D01*
X004676Y003628D02*
X020642Y003628D01*
X020672Y003726D02*
X004629Y003726D01*
X004581Y003825D02*
X020702Y003825D01*
X020762Y003923D02*
X004534Y003923D01*
X004486Y004022D02*
X020829Y004022D01*
X020896Y004120D02*
X004408Y004120D01*
X004317Y004219D02*
X020964Y004219D01*
X021076Y004317D02*
X004225Y004317D01*
X004122Y004416D02*
X009658Y004416D01*
X009560Y004514D02*
X003952Y004514D01*
X003781Y004613D02*
X009461Y004613D01*
X009363Y004711D02*
X003421Y004711D01*
X003460Y004810D02*
X009264Y004810D01*
X009166Y004908D02*
X007337Y004908D01*
X007546Y005007D02*
X009067Y005007D01*
X008990Y005105D02*
X007644Y005105D01*
X007725Y005204D02*
X008990Y005204D01*
X008990Y005302D02*
X007765Y005302D01*
X007806Y005401D02*
X008990Y005401D01*
X008990Y005499D02*
X007813Y005499D01*
X007813Y005598D02*
X008990Y005598D01*
X008990Y005696D02*
X007806Y005696D01*
X007765Y005795D02*
X008990Y005795D01*
X008990Y005893D02*
X007724Y005893D01*
X007643Y005992D02*
X008245Y005992D01*
X008250Y005987D02*
X008366Y005939D01*
X008493Y005939D01*
X008610Y005987D01*
X008699Y006076D01*
X008747Y006193D01*
X008747Y006320D01*
X008699Y006436D01*
X008610Y006526D01*
X008493Y006574D01*
X008366Y006574D01*
X008250Y006526D01*
X008160Y006436D01*
X008112Y006320D01*
X008112Y006193D01*
X008160Y006076D01*
X008250Y005987D01*
X008154Y006090D02*
X007545Y006090D01*
X007334Y006189D02*
X008114Y006189D01*
X008112Y006287D02*
X007113Y006287D01*
X007212Y006386D02*
X007457Y006386D01*
X007367Y006484D02*
X007310Y006484D01*
X007250Y006650D02*
X006350Y005750D01*
X005750Y005750D01*
X005350Y006150D01*
X004550Y006150D01*
X003550Y005150D01*
X003150Y005150D01*
X002840Y004810D02*
X002350Y004810D01*
X002350Y004908D02*
X002752Y004908D01*
X002712Y005007D02*
X002350Y005007D01*
X002350Y005105D02*
X002690Y005105D01*
X002690Y005204D02*
X002350Y005204D01*
X002350Y005302D02*
X002715Y005302D01*
X002756Y005401D02*
X002350Y005401D01*
X002350Y005499D02*
X002848Y005499D01*
X003028Y005598D02*
X002350Y005598D01*
X002350Y005696D02*
X003044Y005696D01*
X003256Y005696D02*
X003870Y005696D01*
X003968Y005795D02*
X003445Y005795D01*
X003541Y005893D02*
X004067Y005893D01*
X004150Y006150D02*
X003150Y006150D01*
X002718Y005992D02*
X002350Y005992D01*
X002350Y006090D02*
X002690Y006090D01*
X002690Y006189D02*
X002350Y006189D01*
X002350Y006287D02*
X002709Y006287D01*
X002750Y006386D02*
X002350Y006386D01*
X002350Y006484D02*
X002833Y006484D01*
X002992Y006583D02*
X002350Y006583D01*
X002350Y006681D02*
X004455Y006681D01*
X004553Y006780D02*
X003430Y006780D01*
X003529Y006878D02*
X005595Y006878D01*
X005554Y006977D02*
X003576Y006977D01*
X003150Y007150D02*
X005764Y007150D01*
X005870Y007044D01*
X006264Y007437D01*
X006658Y007437D01*
X006879Y007666D02*
X006890Y007666D01*
X006956Y007765D02*
X006187Y007765D01*
X006188Y007863D02*
X007054Y007863D01*
X007153Y007962D02*
X006844Y007962D01*
X006934Y008060D02*
X007251Y008060D01*
X007291Y008159D02*
X007326Y008159D01*
X007125Y008225D02*
X008050Y009050D01*
X008850Y009050D01*
X009750Y008150D01*
X009750Y005950D01*
X010550Y005150D01*
X013150Y005150D01*
X014550Y006550D01*
X014550Y007550D01*
X014831Y007831D01*
X015870Y007831D01*
X016264Y008225D01*
X016658Y008225D01*
X017125Y008225D01*
X017450Y008550D01*
X017850Y008550D01*
X018250Y008950D01*
X019350Y008950D01*
X019450Y008850D01*
X024852Y008850D01*
X025870Y007831D01*
X026264Y008225D01*
X026658Y008225D01*
X027125Y008225D01*
X027450Y008550D01*
X027750Y008550D01*
X028150Y008950D01*
X028850Y008950D01*
X029750Y008050D01*
X029750Y005750D01*
X030150Y005350D01*
X033150Y005350D01*
X035650Y007850D01*
X035852Y007850D01*
X035870Y007831D01*
X036264Y008225D01*
X036658Y008225D01*
X036683Y008250D01*
X037150Y008250D01*
X037450Y008550D01*
X037850Y008550D01*
X038250Y009050D01*
X038650Y009050D01*
X039050Y008650D01*
X040650Y008650D01*
X041150Y008150D01*
X041050Y008250D01*
X040718Y008356D02*
X039671Y008356D01*
X039769Y008257D02*
X040696Y008257D01*
X040690Y008159D02*
X039868Y008159D01*
X039966Y008060D02*
X040690Y008060D01*
X040730Y007962D02*
X040065Y007962D01*
X040163Y007863D02*
X040786Y007863D01*
X040885Y007765D02*
X040262Y007765D01*
X040360Y007666D02*
X041950Y007666D01*
X041950Y007568D02*
X041344Y007568D01*
X041482Y007469D02*
X041950Y007469D01*
X041950Y007371D02*
X041557Y007371D01*
X041597Y007272D02*
X041950Y007272D01*
X041950Y007174D02*
X041610Y007174D01*
X041610Y007075D02*
X041950Y007075D01*
X041950Y006977D02*
X041576Y006977D01*
X041529Y006878D02*
X041950Y006878D01*
X041950Y006780D02*
X041430Y006780D01*
X041308Y006583D02*
X041950Y006583D01*
X041950Y006681D02*
X040845Y006681D01*
X040870Y006780D02*
X040747Y006780D01*
X040771Y006878D02*
X040648Y006878D01*
X040724Y006977D02*
X040550Y006977D01*
X040499Y007075D02*
X040451Y007075D01*
X040400Y007174D02*
X040353Y007174D01*
X040302Y007272D02*
X040254Y007272D01*
X040203Y007371D02*
X040156Y007371D01*
X040105Y007469D02*
X040057Y007469D01*
X040006Y007568D02*
X039959Y007568D01*
X039908Y007666D02*
X039860Y007666D01*
X039809Y007765D02*
X039762Y007765D01*
X039711Y007863D02*
X039663Y007863D01*
X039612Y007962D02*
X039565Y007962D01*
X039514Y008060D02*
X038650Y008060D01*
X038430Y007831D02*
X039469Y007831D01*
X041150Y006150D01*
X041582Y005992D02*
X041950Y005992D01*
X041950Y006090D02*
X041610Y006090D01*
X041610Y006189D02*
X041950Y006189D01*
X041950Y006287D02*
X041591Y006287D01*
X041550Y006386D02*
X041950Y006386D01*
X041950Y006484D02*
X041467Y006484D01*
X040992Y006583D02*
X040944Y006583D01*
X040688Y006386D02*
X040141Y006386D01*
X040042Y006484D02*
X040590Y006484D01*
X040491Y006583D02*
X039944Y006583D01*
X039845Y006681D02*
X040393Y006681D01*
X040294Y006780D02*
X039747Y006780D01*
X039648Y006878D02*
X040196Y006878D01*
X040097Y006977D02*
X039550Y006977D01*
X039451Y007075D02*
X039999Y007075D01*
X039900Y007174D02*
X039353Y007174D01*
X039256Y007044D02*
X041150Y005150D01*
X041460Y004810D02*
X041950Y004810D01*
X041950Y004908D02*
X041548Y004908D01*
X041588Y005007D02*
X041950Y005007D01*
X041950Y005105D02*
X041610Y005105D01*
X041610Y005204D02*
X041950Y005204D01*
X041950Y005302D02*
X041585Y005302D01*
X041544Y005401D02*
X041950Y005401D01*
X041950Y005499D02*
X041452Y005499D01*
X041272Y005598D02*
X041950Y005598D01*
X041950Y005696D02*
X041256Y005696D01*
X041044Y005696D02*
X040830Y005696D01*
X040855Y005795D02*
X040732Y005795D01*
X040759Y005893D02*
X040633Y005893D01*
X040718Y005992D02*
X040535Y005992D01*
X040436Y006090D02*
X040690Y006090D01*
X040690Y006189D02*
X040338Y006189D01*
X040239Y006287D02*
X040709Y006287D01*
X040082Y005992D02*
X038614Y005992D01*
X038610Y005987D02*
X038699Y006076D01*
X038747Y006193D01*
X038747Y006320D01*
X038699Y006436D01*
X038610Y006526D01*
X038493Y006574D01*
X038366Y006574D01*
X038250Y006526D01*
X038160Y006436D01*
X038112Y006320D01*
X038112Y006193D01*
X038160Y006076D01*
X038250Y005987D01*
X038366Y005939D01*
X038493Y005939D01*
X038610Y005987D01*
X038705Y006090D02*
X039984Y006090D01*
X039885Y006189D02*
X038745Y006189D01*
X038747Y006287D02*
X039787Y006287D01*
X039688Y006386D02*
X038720Y006386D01*
X038651Y006484D02*
X039590Y006484D01*
X039491Y006583D02*
X037958Y006583D01*
X037960Y006587D02*
X037912Y006470D01*
X037822Y006381D01*
X037705Y006332D01*
X037579Y006332D01*
X037462Y006381D01*
X037373Y006470D01*
X037324Y006587D01*
X037324Y006713D01*
X037373Y006830D01*
X037462Y006919D01*
X037579Y006968D01*
X037705Y006968D01*
X037822Y006919D01*
X037912Y006830D01*
X037960Y006713D01*
X037960Y006587D01*
X037960Y006681D02*
X039393Y006681D01*
X039294Y006780D02*
X038615Y006780D01*
X038705Y006878D02*
X039196Y006878D01*
X039256Y007044D02*
X038430Y007044D01*
X038651Y007272D02*
X039802Y007272D01*
X039703Y007371D02*
X037958Y007371D01*
X037960Y007469D02*
X039605Y007469D01*
X039506Y007568D02*
X038615Y007568D01*
X038705Y007666D02*
X039408Y007666D01*
X038244Y007568D02*
X037932Y007568D01*
X037863Y007666D02*
X038154Y007666D01*
X038113Y007765D02*
X037991Y007765D01*
X038089Y007863D02*
X038112Y007863D01*
X037850Y007850D02*
X038250Y008250D01*
X039550Y008250D01*
X040650Y007150D01*
X041150Y007150D01*
X040818Y007469D02*
X040557Y007469D01*
X040459Y007568D02*
X040956Y007568D01*
X040743Y007371D02*
X040656Y007371D01*
X041415Y007765D02*
X041950Y007765D01*
X041950Y007863D02*
X041514Y007863D01*
X041570Y007962D02*
X041950Y007962D01*
X041950Y008060D02*
X041610Y008060D01*
X041610Y008159D02*
X041950Y008159D01*
X041950Y008257D02*
X041604Y008257D01*
X041563Y008356D02*
X041950Y008356D01*
X041950Y008454D02*
X041497Y008454D01*
X041380Y008553D02*
X041950Y008553D01*
X041950Y008651D02*
X040875Y008651D01*
X040915Y008750D02*
X040777Y008750D01*
X040801Y008848D02*
X039078Y008848D01*
X038980Y008947D02*
X040736Y008947D01*
X040731Y009341D02*
X038986Y009341D01*
X038887Y009439D02*
X040788Y009439D01*
X040887Y009538D02*
X038789Y009538D01*
X038690Y009636D02*
X041950Y009636D01*
X041950Y009538D02*
X041413Y009538D01*
X041512Y009439D02*
X041950Y009439D01*
X041950Y009341D02*
X041569Y009341D01*
X041610Y009242D02*
X041950Y009242D01*
X041950Y009144D02*
X041610Y009144D01*
X041604Y009045D02*
X041950Y009045D01*
X041950Y008947D02*
X041564Y008947D01*
X041499Y008848D02*
X041950Y008848D01*
X041950Y008750D02*
X041385Y008750D01*
X041150Y009150D02*
X038950Y009150D01*
X037950Y010150D01*
X037250Y010150D01*
X036813Y010587D01*
X036658Y010587D01*
X036264Y010193D01*
X035870Y010193D01*
X035614Y010450D01*
X029350Y010450D01*
X028650Y009750D01*
X028250Y009750D01*
X027850Y010150D01*
X027095Y010150D01*
X026658Y010587D01*
X026264Y010193D01*
X025870Y010193D01*
X024727Y009050D01*
X019950Y009050D01*
X019250Y009750D01*
X018250Y009750D01*
X017850Y010150D01*
X017095Y010150D01*
X016658Y010587D01*
X016264Y010193D01*
X015870Y010193D01*
X015314Y010750D01*
X009350Y010750D01*
X008850Y010250D01*
X008850Y009950D01*
X008650Y009750D01*
X008250Y009750D01*
X007850Y010150D01*
X007150Y010150D01*
X006713Y010587D01*
X006658Y010587D01*
X006264Y010587D01*
X005870Y010193D01*
X005193Y010193D01*
X004150Y009150D01*
X003150Y009150D01*
X002690Y009144D02*
X002350Y009144D01*
X002350Y009242D02*
X002690Y009242D01*
X002731Y009341D02*
X002350Y009341D01*
X002350Y009439D02*
X002788Y009439D01*
X002887Y009538D02*
X002350Y009538D01*
X002350Y009636D02*
X004410Y009636D01*
X004508Y009735D02*
X003349Y009735D01*
X003484Y009833D02*
X004607Y009833D01*
X004705Y009932D02*
X003557Y009932D01*
X003150Y010150D02*
X004150Y010150D01*
X004981Y010981D01*
X005870Y010981D01*
X006264Y011374D01*
X006658Y011374D01*
X006826Y011374D01*
X007250Y010950D01*
X007850Y010950D01*
X008250Y010550D01*
X008650Y010550D01*
X009150Y011050D01*
X015801Y011050D01*
X015870Y010981D01*
X016264Y010981D01*
X016658Y011374D01*
X017082Y010950D01*
X017850Y010950D01*
X018250Y010550D01*
X019050Y010550D01*
X020350Y009250D01*
X024140Y009250D01*
X025870Y010981D01*
X026264Y010981D01*
X026658Y011374D01*
X026926Y011374D01*
X027350Y010950D01*
X027850Y010950D01*
X028250Y010550D01*
X028950Y010550D01*
X029381Y010981D01*
X035870Y010981D01*
X036264Y010981D01*
X036658Y011374D01*
X037082Y010950D01*
X037850Y010950D01*
X038250Y010550D01*
X038850Y010550D01*
X039250Y010150D01*
X041150Y010150D01*
X040725Y010326D02*
X039301Y010326D01*
X039202Y010424D02*
X040773Y010424D01*
X040872Y010523D02*
X039104Y010523D01*
X039005Y010621D02*
X041950Y010621D01*
X041950Y010523D02*
X041428Y010523D01*
X041527Y010424D02*
X041950Y010424D01*
X041950Y010326D02*
X041575Y010326D01*
X041610Y010227D02*
X041950Y010227D01*
X041950Y010129D02*
X041610Y010129D01*
X041598Y010030D02*
X041950Y010030D01*
X041950Y009932D02*
X041557Y009932D01*
X041484Y009833D02*
X041950Y009833D01*
X041950Y009735D02*
X041349Y009735D01*
X040951Y009735D02*
X038592Y009735D01*
X038493Y009833D02*
X040816Y009833D01*
X040743Y009932D02*
X038674Y009932D01*
X038749Y010030D02*
X039144Y010030D01*
X039045Y010129D02*
X038781Y010129D01*
X038787Y010227D02*
X038947Y010227D01*
X038848Y010326D02*
X038762Y010326D01*
X038674Y010720D02*
X040987Y010720D01*
X040831Y010818D02*
X038749Y010818D01*
X038782Y010917D02*
X040749Y010917D01*
X041150Y011150D02*
X038950Y011150D01*
X038750Y011350D01*
X038250Y011350D01*
X037850Y011750D01*
X037070Y011750D01*
X036658Y012162D01*
X036264Y011768D01*
X035870Y011768D01*
X035452Y011350D01*
X028250Y011350D01*
X027850Y011750D01*
X027350Y011750D01*
X026938Y012162D01*
X026658Y012162D01*
X026264Y011768D01*
X025870Y011768D01*
X025870Y011570D01*
X024950Y010650D01*
X019750Y010650D01*
X019050Y011350D01*
X018250Y011350D01*
X017850Y011750D01*
X017070Y011750D01*
X016658Y012162D01*
X016264Y011768D01*
X015870Y011768D01*
X015452Y011350D01*
X008250Y011350D01*
X007850Y011750D01*
X007250Y011750D01*
X006838Y012162D01*
X006658Y012162D01*
X006264Y012162D01*
X005870Y011768D01*
X004768Y011768D01*
X004150Y011150D01*
X003150Y011150D01*
X002831Y010818D02*
X002350Y010818D01*
X002350Y010720D02*
X002987Y010720D01*
X002872Y010523D02*
X002350Y010523D01*
X002350Y010621D02*
X004395Y010621D01*
X004493Y010720D02*
X003313Y010720D01*
X003469Y010818D02*
X004592Y010818D01*
X004690Y010917D02*
X003551Y010917D01*
X003428Y010523D02*
X004296Y010523D01*
X004198Y010424D02*
X003527Y010424D01*
X003575Y010326D02*
X004099Y010326D01*
X004355Y010129D02*
X004902Y010129D01*
X005001Y010227D02*
X004453Y010227D01*
X004552Y010326D02*
X005099Y010326D01*
X004847Y010621D02*
X006072Y010621D01*
X006059Y010720D02*
X006170Y010720D01*
X006147Y010818D02*
X006439Y010818D01*
X006469Y011114D02*
X006230Y011114D01*
X006328Y011212D02*
X006381Y011212D01*
X006171Y011508D02*
X006059Y011508D01*
X006073Y011409D02*
X004635Y011409D01*
X004537Y011311D02*
X005974Y011311D01*
X005652Y011212D02*
X004438Y011212D01*
X004340Y011114D02*
X004887Y011114D01*
X004789Y011015D02*
X004241Y011015D01*
X004084Y011311D02*
X003581Y011311D01*
X003541Y011409D02*
X004183Y011409D01*
X004281Y011508D02*
X003443Y011508D01*
X003342Y011687D02*
X003412Y011722D01*
X003476Y011769D01*
X003531Y011824D01*
X003578Y011888D01*
X003613Y011958D01*
X003638Y012033D01*
X003649Y012102D01*
X003198Y012102D01*
X003198Y012198D01*
X003649Y012198D01*
X003638Y012267D01*
X003613Y012342D01*
X003578Y012412D01*
X003531Y012476D01*
X003476Y012531D01*
X003412Y012578D01*
X003342Y012613D01*
X003267Y012638D01*
X003198Y012649D01*
X003198Y012198D01*
X003102Y012198D01*
X003102Y012102D01*
X003198Y012102D01*
X003198Y011651D01*
X003267Y011662D01*
X003342Y011687D01*
X003377Y011705D02*
X004478Y011705D01*
X004577Y011803D02*
X003510Y011803D01*
X003585Y011902D02*
X004675Y011902D01*
X004832Y011606D02*
X005594Y011606D01*
X005682Y011508D02*
X004734Y011508D01*
X004380Y011606D02*
X003251Y011606D01*
X003198Y011705D02*
X003102Y011705D01*
X003102Y011651D02*
X003102Y012102D01*
X002651Y012102D01*
X002662Y012033D01*
X002687Y011958D01*
X002722Y011888D01*
X002769Y011824D01*
X002824Y011769D01*
X002888Y011722D01*
X002958Y011687D01*
X003033Y011662D01*
X003102Y011651D01*
X003049Y011606D02*
X002350Y011606D01*
X002350Y011508D02*
X002857Y011508D01*
X002759Y011409D02*
X002350Y011409D01*
X002350Y011311D02*
X002719Y011311D01*
X002690Y011212D02*
X002350Y011212D01*
X002350Y011114D02*
X002690Y011114D01*
X002708Y011015D02*
X002350Y011015D01*
X002350Y010917D02*
X002749Y010917D01*
X002773Y010424D02*
X002350Y010424D01*
X002350Y010326D02*
X002725Y010326D01*
X002690Y010227D02*
X002350Y010227D01*
X002350Y010129D02*
X002690Y010129D01*
X002702Y010030D02*
X002350Y010030D01*
X002350Y009932D02*
X002743Y009932D01*
X002816Y009833D02*
X002350Y009833D01*
X002350Y009735D02*
X002951Y009735D01*
X003413Y009538D02*
X004311Y009538D01*
X004213Y009439D02*
X003512Y009439D01*
X003569Y009341D02*
X004114Y009341D01*
X004370Y009144D02*
X006495Y009144D01*
X006495Y009242D02*
X004468Y009242D01*
X004567Y009341D02*
X006520Y009341D01*
X006561Y009439D02*
X004665Y009439D01*
X004764Y009538D02*
X006471Y009538D01*
X006382Y009636D02*
X004862Y009636D01*
X004961Y009735D02*
X006341Y009735D01*
X006340Y009833D02*
X005059Y009833D01*
X005158Y009932D02*
X005683Y009932D01*
X005594Y010030D02*
X005256Y010030D01*
X004804Y010030D02*
X004256Y010030D01*
X004650Y010424D02*
X005652Y010424D01*
X005682Y010720D02*
X004946Y010720D01*
X005044Y010818D02*
X005594Y010818D01*
X005973Y010523D02*
X004749Y010523D01*
X006058Y009932D02*
X006369Y009932D01*
X006439Y010030D02*
X006147Y010030D01*
X006188Y010129D02*
X006945Y010129D01*
X006877Y010030D02*
X007044Y010030D01*
X006947Y009932D02*
X007353Y009932D01*
X007324Y009833D02*
X006976Y009833D01*
X006847Y010227D02*
X006188Y010227D01*
X006229Y010326D02*
X006470Y010326D01*
X006381Y010424D02*
X006327Y010424D01*
X006976Y010621D02*
X007284Y010621D01*
X007290Y010523D02*
X007004Y010523D01*
X007102Y010424D02*
X007322Y010424D01*
X007398Y010326D02*
X007201Y010326D01*
X007310Y010720D02*
X006947Y010720D01*
X006876Y010818D02*
X007156Y010818D01*
X007313Y011114D02*
X007397Y011114D01*
X007322Y011212D02*
X007214Y011212D01*
X007290Y011311D02*
X007116Y011311D01*
X007017Y011409D02*
X007284Y011409D01*
X007310Y011508D02*
X006947Y011508D01*
X006876Y011606D02*
X007168Y011606D01*
X007069Y011705D02*
X006188Y011705D01*
X006188Y011803D02*
X006971Y011803D01*
X006872Y011902D02*
X006847Y011902D01*
X007128Y012099D02*
X007324Y012099D01*
X007324Y012197D02*
X007029Y012197D01*
X006946Y012296D02*
X007354Y012296D01*
X007237Y012394D02*
X006875Y012394D01*
X007040Y012591D02*
X006188Y012591D01*
X006188Y012619D02*
X006140Y012736D01*
X006050Y012825D01*
X005934Y012873D01*
X005807Y012873D01*
X005690Y012825D01*
X005601Y012736D01*
X005553Y012619D01*
X005553Y012492D01*
X005601Y012375D01*
X005690Y012286D01*
X005807Y012238D01*
X005934Y012238D01*
X006050Y012286D01*
X006140Y012375D01*
X006188Y012492D01*
X006188Y012619D01*
X006159Y012690D02*
X006468Y012690D01*
X006381Y012788D02*
X006087Y012788D01*
X006340Y012887D02*
X004219Y012887D01*
X004204Y012880D02*
X004303Y012921D01*
X005462Y014080D01*
X009081Y014080D01*
X009052Y014009D01*
X009052Y013891D01*
X009097Y013781D01*
X009181Y013697D01*
X009291Y013652D01*
X009409Y013652D01*
X009519Y013697D01*
X009603Y013781D01*
X009648Y013891D01*
X009648Y014009D01*
X009619Y014080D01*
X013458Y014080D01*
X013397Y014019D01*
X013352Y013909D01*
X013352Y013791D01*
X013397Y013681D01*
X013481Y013597D01*
X013591Y013552D01*
X013709Y013552D01*
X013819Y013597D01*
X013903Y013681D01*
X013906Y013690D01*
X013968Y013690D01*
X013897Y013619D01*
X013852Y013509D01*
X013852Y013391D01*
X013880Y013323D01*
X013880Y012577D01*
X013852Y012509D01*
X013852Y012391D01*
X013897Y012281D01*
X013981Y012197D01*
X014091Y012152D01*
X014209Y012152D01*
X014319Y012197D01*
X014403Y012281D01*
X014448Y012391D01*
X014448Y012509D01*
X014420Y012577D01*
X014420Y013323D01*
X014448Y013391D01*
X014448Y013509D01*
X014403Y013619D01*
X014332Y013690D01*
X015194Y013690D01*
X015197Y013681D01*
X015281Y013597D01*
X015391Y013552D01*
X015509Y013552D01*
X015619Y013597D01*
X015703Y013681D01*
X015706Y013690D01*
X015884Y013690D01*
X015913Y013661D01*
X015807Y013661D01*
X015690Y013612D01*
X015601Y013523D01*
X015553Y013406D01*
X015553Y013280D01*
X015601Y013163D01*
X015690Y013073D01*
X015807Y013025D01*
X015934Y013025D01*
X016050Y013073D01*
X016140Y013163D01*
X016188Y013280D01*
X016188Y013385D01*
X016391Y013183D01*
X016442Y013183D01*
X016388Y013129D01*
X016340Y013012D01*
X016340Y012886D01*
X016388Y012769D01*
X016478Y012680D01*
X016595Y012631D01*
X016721Y012631D01*
X016838Y012680D01*
X016927Y012769D01*
X016976Y012886D01*
X016976Y013012D01*
X016927Y013129D01*
X016874Y013183D01*
X017426Y013183D01*
X017373Y013129D01*
X017324Y013012D01*
X017324Y012886D01*
X017373Y012769D01*
X017462Y012680D01*
X017579Y012631D01*
X017705Y012631D01*
X017822Y012680D01*
X017912Y012769D01*
X017960Y012886D01*
X017960Y013012D01*
X017912Y013129D01*
X017858Y013183D01*
X018152Y013183D01*
X018160Y013163D01*
X018250Y013073D01*
X018366Y013025D01*
X018493Y013025D01*
X018610Y013073D01*
X018699Y013163D01*
X018747Y013280D01*
X018747Y013406D01*
X018699Y013523D01*
X018610Y013612D01*
X018493Y013661D01*
X018366Y013661D01*
X018250Y013612D01*
X018160Y013523D01*
X018152Y013503D01*
X017960Y013503D01*
X017960Y013990D01*
X017895Y014054D01*
X017389Y014054D01*
X017324Y013990D01*
X017324Y013503D01*
X016874Y013503D01*
X016927Y013557D01*
X016976Y013673D01*
X016976Y013800D01*
X016927Y013917D01*
X016838Y014006D01*
X016721Y014054D01*
X016595Y014054D01*
X016478Y014006D01*
X016388Y013917D01*
X016340Y013800D01*
X016340Y013686D01*
X016110Y013916D01*
X016016Y014010D01*
X015706Y014010D01*
X015703Y014019D01*
X015642Y014080D01*
X019338Y014080D01*
X019921Y013497D01*
X019997Y013421D01*
X020096Y013380D01*
X022880Y013380D01*
X022880Y013277D01*
X022852Y013209D01*
X022852Y013091D01*
X022880Y013023D01*
X022880Y012851D01*
X022849Y012851D01*
X022784Y012786D01*
X022784Y012341D01*
X022849Y012276D01*
X023451Y012276D01*
X023516Y012341D01*
X023516Y012786D01*
X023451Y012851D01*
X023420Y012851D01*
X023420Y013023D01*
X023448Y013091D01*
X023448Y013209D01*
X023420Y013277D01*
X023420Y013380D01*
X024204Y013380D01*
X024303Y013421D01*
X024379Y013497D01*
X024962Y014080D01*
X029160Y014080D01*
X029160Y013929D01*
X029152Y013909D01*
X029152Y013791D01*
X029197Y013681D01*
X029281Y013597D01*
X029391Y013552D01*
X029509Y013552D01*
X029619Y013597D01*
X029703Y013681D01*
X029748Y013791D01*
X029748Y013909D01*
X029703Y014019D01*
X029642Y014080D01*
X033758Y014080D01*
X033697Y014019D01*
X033652Y013909D01*
X033652Y013791D01*
X033697Y013681D01*
X033781Y013597D01*
X033891Y013552D01*
X034009Y013552D01*
X034119Y013597D01*
X034203Y013681D01*
X034206Y013690D01*
X034990Y013690D01*
X034990Y013048D01*
X034881Y013003D01*
X034797Y012919D01*
X034752Y012809D01*
X034752Y012691D01*
X034797Y012581D01*
X034881Y012497D01*
X034991Y012452D01*
X035109Y012452D01*
X035219Y012497D01*
X035303Y012581D01*
X035348Y012691D01*
X035348Y012809D01*
X035310Y012901D01*
X035310Y013690D01*
X035884Y013690D01*
X035913Y013661D01*
X035807Y013661D01*
X035690Y013612D01*
X035601Y013523D01*
X035553Y013406D01*
X035553Y013280D01*
X035601Y013163D01*
X035690Y013073D01*
X035807Y013025D01*
X035934Y013025D01*
X036050Y013073D01*
X036140Y013163D01*
X036188Y013280D01*
X036188Y013385D01*
X036290Y013284D01*
X036384Y013190D01*
X036449Y013190D01*
X036388Y013129D01*
X036340Y013012D01*
X036340Y012886D01*
X036388Y012769D01*
X036478Y012680D01*
X036595Y012631D01*
X036721Y012631D01*
X036838Y012680D01*
X036927Y012769D01*
X036976Y012886D01*
X036976Y013012D01*
X036927Y013129D01*
X036874Y013183D01*
X037426Y013183D01*
X037373Y013129D01*
X037324Y013012D01*
X037324Y012886D01*
X037373Y012769D01*
X037462Y012680D01*
X037579Y012631D01*
X037705Y012631D01*
X037822Y012680D01*
X037912Y012769D01*
X037960Y012886D01*
X037960Y013012D01*
X037912Y013129D01*
X037858Y013183D01*
X038152Y013183D01*
X038160Y013163D01*
X038250Y013073D01*
X038366Y013025D01*
X038493Y013025D01*
X038610Y013073D01*
X038699Y013163D01*
X038747Y013280D01*
X038747Y013406D01*
X038699Y013523D01*
X038610Y013612D01*
X038493Y013661D01*
X038366Y013661D01*
X038250Y013612D01*
X038160Y013523D01*
X038152Y013503D01*
X037960Y013503D01*
X037960Y013990D01*
X037895Y014054D01*
X037389Y014054D01*
X037324Y013990D01*
X037324Y013503D01*
X036874Y013503D01*
X036927Y013557D01*
X036976Y013673D01*
X036976Y013800D01*
X036927Y013917D01*
X036838Y014006D01*
X036721Y014054D01*
X036595Y014054D01*
X036478Y014006D01*
X036388Y013917D01*
X036340Y013800D01*
X036340Y013686D01*
X036016Y014010D01*
X034206Y014010D01*
X034203Y014019D01*
X034142Y014080D01*
X038838Y014080D01*
X039921Y012997D01*
X039997Y012921D01*
X040096Y012880D01*
X040769Y012880D01*
X040889Y012760D01*
X041058Y012690D01*
X041241Y012690D01*
X041411Y012760D01*
X041540Y012889D01*
X041610Y013058D01*
X041610Y013241D01*
X041540Y013411D01*
X041411Y013540D01*
X041241Y013610D01*
X041058Y013610D01*
X040889Y013540D01*
X040769Y013420D01*
X040262Y013420D01*
X039103Y014579D01*
X039004Y014620D01*
X024796Y014620D01*
X024697Y014579D01*
X024038Y013920D01*
X020262Y013920D01*
X019603Y014579D01*
X019504Y014620D01*
X005296Y014620D01*
X005197Y014579D01*
X005121Y014503D01*
X004038Y013420D01*
X003531Y013420D01*
X003411Y013540D01*
X003241Y013610D01*
X003058Y013610D01*
X002889Y013540D01*
X002760Y013411D01*
X002690Y013241D01*
X002690Y013058D01*
X002760Y012889D01*
X002889Y012760D01*
X003058Y012690D01*
X003241Y012690D01*
X003411Y012760D01*
X003531Y012880D01*
X004204Y012880D01*
X004367Y012985D02*
X006340Y012985D01*
X006255Y013084D02*
X006061Y013084D01*
X005680Y013084D02*
X004465Y013084D01*
X004564Y013182D02*
X005593Y013182D01*
X005553Y013281D02*
X004662Y013281D01*
X004761Y013379D02*
X005553Y013379D01*
X005582Y013478D02*
X004859Y013478D01*
X004958Y013576D02*
X005654Y013576D01*
X006087Y013576D02*
X006380Y013576D01*
X006388Y013557D02*
X006478Y013467D01*
X006595Y013419D01*
X006721Y013419D01*
X006838Y013467D01*
X006927Y013557D01*
X006976Y013673D01*
X006976Y013800D01*
X006927Y013917D01*
X006838Y014006D01*
X006721Y014054D01*
X006595Y014054D01*
X006478Y014006D01*
X006388Y013917D01*
X006340Y013800D01*
X006340Y013673D01*
X006388Y013557D01*
X006398Y013478D02*
X006468Y013478D01*
X006497Y013379D02*
X008112Y013379D01*
X008112Y013406D02*
X008112Y013280D01*
X008160Y013163D01*
X008250Y013073D01*
X008366Y013025D01*
X008493Y013025D01*
X008513Y013033D01*
X008556Y012990D01*
X010084Y012990D01*
X010187Y012887D01*
X010187Y012406D01*
X010178Y012403D01*
X010094Y012319D01*
X010049Y012209D01*
X010049Y012091D01*
X010094Y011981D01*
X010178Y011897D01*
X010288Y011852D01*
X010406Y011852D01*
X010516Y011897D01*
X010600Y011981D01*
X010645Y012091D01*
X010645Y012209D01*
X010600Y012319D01*
X010516Y012403D01*
X010507Y012406D01*
X010507Y013019D01*
X010413Y013113D01*
X010216Y013310D01*
X008747Y013310D01*
X008747Y013406D01*
X008699Y013523D01*
X008610Y013612D01*
X008493Y013661D01*
X008366Y013661D01*
X008250Y013612D01*
X008160Y013523D01*
X008112Y013406D01*
X008141Y013478D02*
X007954Y013478D01*
X007960Y013483D02*
X007960Y013990D01*
X007895Y014054D01*
X007389Y014054D01*
X007324Y013990D01*
X007324Y013483D01*
X007389Y013419D01*
X007895Y013419D01*
X007960Y013483D01*
X007960Y013576D02*
X008213Y013576D01*
X007960Y013675D02*
X009236Y013675D01*
X009105Y013773D02*
X007960Y013773D01*
X007960Y013872D02*
X009060Y013872D01*
X009052Y013970D02*
X007960Y013970D01*
X007324Y013970D02*
X006874Y013970D01*
X006946Y013872D02*
X007324Y013872D01*
X007324Y013773D02*
X006976Y013773D01*
X006976Y013675D02*
X007324Y013675D01*
X007324Y013576D02*
X006935Y013576D01*
X006848Y013478D02*
X007330Y013478D01*
X007426Y013182D02*
X006874Y013182D01*
X007085Y013084D02*
X007354Y013084D01*
X007324Y012985D02*
X007184Y012985D01*
X007282Y012887D02*
X007324Y012887D01*
X006942Y012690D02*
X006848Y012690D01*
X007139Y012493D02*
X006188Y012493D01*
X006148Y012394D02*
X006441Y012394D01*
X006172Y012296D02*
X006060Y012296D01*
X006073Y012197D02*
X003198Y012197D01*
X003102Y012197D02*
X002350Y012197D01*
X002350Y012099D02*
X002652Y012099D01*
X002651Y012198D02*
X003102Y012198D01*
X003102Y012649D01*
X003033Y012638D01*
X002958Y012613D01*
X002888Y012578D01*
X002824Y012531D01*
X002769Y012476D01*
X002722Y012412D01*
X002687Y012342D01*
X002662Y012267D01*
X002651Y012198D01*
X002672Y012296D02*
X002350Y012296D01*
X002350Y012394D02*
X002713Y012394D01*
X002785Y012493D02*
X002350Y012493D01*
X002350Y012591D02*
X002914Y012591D01*
X003102Y012591D02*
X003198Y012591D01*
X003198Y012493D02*
X003102Y012493D01*
X003102Y012394D02*
X003198Y012394D01*
X003198Y012296D02*
X003102Y012296D01*
X003102Y012099D02*
X003198Y012099D01*
X003198Y012000D02*
X003102Y012000D01*
X003102Y011902D02*
X003198Y011902D01*
X003198Y011803D02*
X003102Y011803D01*
X002923Y011705D02*
X002350Y011705D01*
X002350Y011803D02*
X002790Y011803D01*
X002715Y011902D02*
X002350Y011902D01*
X002350Y012000D02*
X002673Y012000D01*
X003627Y012000D02*
X005653Y012000D01*
X005681Y012296D02*
X003628Y012296D01*
X003587Y012394D02*
X005593Y012394D01*
X005553Y012493D02*
X003515Y012493D01*
X003386Y012591D02*
X005553Y012591D01*
X005582Y012690D02*
X002350Y012690D01*
X002350Y012788D02*
X002861Y012788D01*
X002763Y012887D02*
X002350Y012887D01*
X002350Y012985D02*
X002720Y012985D01*
X002690Y013084D02*
X002350Y013084D01*
X002350Y013182D02*
X002690Y013182D01*
X002706Y013281D02*
X002350Y013281D01*
X002350Y013379D02*
X002747Y013379D01*
X002827Y013478D02*
X002350Y013478D01*
X002350Y013576D02*
X002976Y013576D01*
X002690Y013773D02*
X002350Y013773D01*
X002350Y013675D02*
X004293Y013675D01*
X004391Y013773D02*
X003610Y013773D01*
X003610Y013872D02*
X004490Y013872D01*
X004588Y013970D02*
X004352Y013970D01*
X004450Y014069D02*
X004687Y014069D01*
X004785Y014167D02*
X004549Y014167D01*
X004647Y014266D02*
X004884Y014266D01*
X004982Y014364D02*
X004746Y014364D01*
X004844Y014463D02*
X005081Y014463D01*
X005179Y014561D02*
X004943Y014561D01*
X005041Y014660D02*
X020259Y014660D01*
X020357Y014561D02*
X019621Y014561D01*
X019719Y014463D02*
X020456Y014463D01*
X020554Y014364D02*
X019818Y014364D01*
X019916Y014266D02*
X020653Y014266D01*
X020751Y014167D02*
X020015Y014167D01*
X020113Y014069D02*
X020850Y014069D01*
X021162Y014520D02*
X020503Y015179D01*
X020420Y015213D01*
X020420Y015223D01*
X020448Y015291D01*
X020448Y015409D01*
X020403Y015519D01*
X020319Y015603D01*
X020209Y015648D01*
X020091Y015648D01*
X019981Y015603D01*
X019897Y015519D01*
X019852Y015409D01*
X019852Y015291D01*
X019880Y015223D01*
X019880Y015220D01*
X013620Y015220D01*
X013620Y015223D01*
X013648Y015291D01*
X013648Y015409D01*
X013603Y015519D01*
X013519Y015603D01*
X013409Y015648D01*
X013291Y015648D01*
X013181Y015603D01*
X013097Y015519D01*
X013052Y015409D01*
X013052Y015291D01*
X013080Y015223D01*
X013080Y015220D01*
X004896Y015220D01*
X004797Y015179D01*
X004721Y015103D01*
X004038Y014420D01*
X003610Y014420D01*
X003610Y014546D01*
X003546Y014610D01*
X003513Y014610D01*
X003735Y014661D01*
X004148Y014899D01*
X004472Y015249D01*
X004679Y015678D01*
X004679Y015678D01*
X004750Y016150D01*
X004679Y016622D01*
X004521Y016950D01*
X005499Y016950D01*
X005428Y016880D01*
X005367Y016731D01*
X005367Y016569D01*
X005428Y016420D01*
X005542Y016306D01*
X005691Y016245D01*
X005853Y016245D01*
X006002Y016306D01*
X006116Y016420D01*
X006177Y016569D01*
X006177Y016731D01*
X006116Y016880D01*
X006045Y016950D01*
X008255Y016950D01*
X008184Y016880D01*
X008123Y016731D01*
X008123Y016569D01*
X008184Y016420D01*
X008298Y016306D01*
X008447Y016245D01*
X008609Y016245D01*
X008758Y016306D01*
X008872Y016420D01*
X008933Y016569D01*
X008933Y016731D01*
X008872Y016880D01*
X008801Y016950D01*
X020781Y016950D01*
X020708Y016844D01*
X020568Y016388D01*
X020568Y015912D01*
X020708Y015456D01*
X020977Y015062D01*
X020977Y015062D01*
X020977Y015062D01*
X021350Y014764D01*
X021794Y014590D01*
X022270Y014554D01*
X022735Y014661D01*
X023148Y014899D01*
X023472Y015249D01*
X023679Y015678D01*
X023750Y016150D01*
X023679Y016622D01*
X023521Y016950D01*
X039781Y016950D01*
X039708Y016844D01*
X039568Y016388D01*
X039568Y015912D01*
X039708Y015456D01*
X039977Y015062D01*
X039977Y015062D01*
X040350Y014764D01*
X040751Y014607D01*
X040690Y014546D01*
X040690Y014420D01*
X040262Y014420D01*
X039579Y015103D01*
X039503Y015179D01*
X039404Y015220D01*
X034920Y015220D01*
X034920Y015223D01*
X034948Y015291D01*
X034948Y015409D01*
X034903Y015519D01*
X034819Y015603D01*
X034709Y015648D01*
X034591Y015648D01*
X034481Y015603D01*
X034397Y015519D01*
X034352Y015409D01*
X034352Y015291D01*
X034380Y015223D01*
X034380Y015220D01*
X025220Y015220D01*
X025220Y015223D01*
X025248Y015291D01*
X025248Y015409D01*
X025203Y015519D01*
X025119Y015603D01*
X025009Y015648D01*
X024891Y015648D01*
X024781Y015603D01*
X024697Y015519D01*
X024652Y015409D01*
X024652Y015291D01*
X024680Y015223D01*
X024680Y015220D01*
X023896Y015220D01*
X023797Y015179D01*
X023721Y015103D01*
X023138Y014520D01*
X021162Y014520D01*
X021121Y014561D02*
X022182Y014561D01*
X022270Y014554D02*
X022270Y014554D01*
X022298Y014561D02*
X023179Y014561D01*
X023278Y014660D02*
X022730Y014660D01*
X022735Y014661D02*
X022735Y014661D01*
X022903Y014758D02*
X023376Y014758D01*
X023475Y014857D02*
X023074Y014857D01*
X023148Y014899D02*
X023148Y014899D01*
X023148Y014899D01*
X023200Y014955D02*
X023573Y014955D01*
X023672Y015054D02*
X023291Y015054D01*
X023382Y015152D02*
X023770Y015152D01*
X023473Y015251D02*
X024669Y015251D01*
X024652Y015349D02*
X023520Y015349D01*
X023568Y015448D02*
X024668Y015448D01*
X024724Y015546D02*
X023615Y015546D01*
X023663Y015645D02*
X024882Y015645D01*
X025018Y015645D02*
X034582Y015645D01*
X034718Y015645D02*
X039650Y015645D01*
X039620Y015743D02*
X023689Y015743D01*
X023704Y015842D02*
X039589Y015842D01*
X039568Y015940D02*
X023718Y015940D01*
X023733Y016039D02*
X039568Y016039D01*
X039568Y016137D02*
X023748Y016137D01*
X023750Y016150D02*
X023750Y016150D01*
X023737Y016236D02*
X039568Y016236D01*
X039568Y016334D02*
X023722Y016334D01*
X023707Y016433D02*
X039581Y016433D01*
X039612Y016531D02*
X023693Y016531D01*
X023679Y016622D02*
X023679Y016622D01*
X023675Y016630D02*
X039642Y016630D01*
X039673Y016728D02*
X023628Y016728D01*
X023580Y016827D02*
X039703Y016827D01*
X039708Y016844D02*
X039708Y016844D01*
X039764Y016925D02*
X023533Y016925D01*
X025176Y015546D02*
X034424Y015546D01*
X034368Y015448D02*
X025232Y015448D01*
X025248Y015349D02*
X034352Y015349D01*
X034369Y015251D02*
X025231Y015251D01*
X024041Y014660D02*
X039259Y014660D01*
X039357Y014561D02*
X039121Y014561D01*
X039219Y014463D02*
X039456Y014463D01*
X039554Y014364D02*
X039318Y014364D01*
X039416Y014266D02*
X039653Y014266D01*
X039751Y014167D02*
X039515Y014167D01*
X039613Y014069D02*
X039850Y014069D01*
X039948Y013970D02*
X039712Y013970D01*
X039810Y013872D02*
X040690Y013872D01*
X040690Y013773D02*
X039909Y013773D01*
X040007Y013675D02*
X041950Y013675D01*
X041950Y013773D02*
X041610Y013773D01*
X041610Y013872D02*
X041950Y013872D01*
X041950Y013970D02*
X041610Y013970D01*
X041610Y014069D02*
X041950Y014069D01*
X041950Y014167D02*
X041610Y014167D01*
X041610Y014266D02*
X041950Y014266D01*
X041950Y014364D02*
X041610Y014364D01*
X041610Y014463D02*
X041950Y014463D01*
X041950Y014561D02*
X041595Y014561D01*
X041730Y014660D02*
X041950Y014660D01*
X041950Y014758D02*
X041903Y014758D01*
X040705Y014561D02*
X040121Y014561D01*
X040219Y014463D02*
X040690Y014463D01*
X040617Y014660D02*
X040022Y014660D01*
X039924Y014758D02*
X040366Y014758D01*
X040234Y014857D02*
X039825Y014857D01*
X039727Y014955D02*
X040111Y014955D01*
X039987Y015054D02*
X039628Y015054D01*
X039579Y015103D02*
X039579Y015103D01*
X039530Y015152D02*
X039916Y015152D01*
X039848Y015251D02*
X034931Y015251D01*
X034948Y015349D02*
X039781Y015349D01*
X039714Y015448D02*
X034932Y015448D01*
X034876Y015546D02*
X039681Y015546D01*
X038850Y014069D02*
X034153Y014069D01*
X033950Y013850D02*
X035150Y013850D01*
X035150Y012850D01*
X035050Y012750D01*
X034784Y012887D02*
X034520Y012887D01*
X034520Y012985D02*
X034863Y012985D01*
X034990Y013084D02*
X034545Y013084D01*
X034548Y013091D02*
X034548Y013209D01*
X034503Y013319D01*
X034419Y013403D01*
X034309Y013448D01*
X034191Y013448D01*
X034081Y013403D01*
X033997Y013319D01*
X033952Y013209D01*
X033952Y013091D01*
X033980Y013023D01*
X033980Y012077D01*
X033952Y012009D01*
X033952Y011891D01*
X033997Y011781D01*
X034081Y011697D01*
X034191Y011652D01*
X034309Y011652D01*
X034419Y011697D01*
X034503Y011781D01*
X034548Y011891D01*
X034548Y012009D01*
X034520Y012077D01*
X034520Y013023D01*
X034548Y013091D01*
X034548Y013182D02*
X034990Y013182D01*
X034990Y013281D02*
X034519Y013281D01*
X034443Y013379D02*
X034990Y013379D01*
X034990Y013478D02*
X029449Y013478D01*
X029423Y013503D02*
X029517Y013409D01*
X030482Y012444D01*
X030491Y012448D01*
X030609Y012448D01*
X030719Y012403D01*
X030803Y012319D01*
X030848Y012209D01*
X030848Y012091D01*
X030803Y011981D01*
X030719Y011897D01*
X030609Y011852D01*
X030491Y011852D01*
X030381Y011897D01*
X030297Y011981D01*
X030252Y012091D01*
X030252Y012209D01*
X030256Y012218D01*
X029291Y013183D01*
X028707Y013183D01*
X028699Y013163D01*
X028610Y013073D01*
X028493Y013025D01*
X028366Y013025D01*
X028250Y013073D01*
X028160Y013163D01*
X028112Y013280D01*
X028112Y013406D01*
X028160Y013523D01*
X028250Y013612D01*
X028366Y013661D01*
X028493Y013661D01*
X028610Y013612D01*
X028699Y013523D01*
X028707Y013503D01*
X029423Y013503D01*
X029332Y013576D02*
X028646Y013576D01*
X028430Y013343D02*
X029357Y013343D01*
X030550Y012150D01*
X030812Y012296D02*
X033980Y012296D01*
X033980Y012394D02*
X030728Y012394D01*
X030848Y012197D02*
X033980Y012197D01*
X033980Y012099D02*
X030848Y012099D01*
X030811Y012000D02*
X033952Y012000D01*
X033952Y011902D02*
X030723Y011902D01*
X030377Y011902D02*
X028718Y011902D01*
X028747Y011803D02*
X033988Y011803D01*
X034074Y011705D02*
X028747Y011705D01*
X028706Y011606D02*
X035482Y011606D01*
X035553Y011705D02*
X034426Y011705D01*
X034512Y011803D02*
X035553Y011803D01*
X035582Y011902D02*
X034548Y011902D01*
X034548Y012000D02*
X035653Y012000D01*
X035807Y012238D02*
X035934Y012238D01*
X036050Y012286D01*
X036140Y012375D01*
X036188Y012492D01*
X036188Y012619D01*
X036140Y012736D01*
X036050Y012825D01*
X035934Y012873D01*
X035807Y012873D01*
X035690Y012825D01*
X035601Y012736D01*
X035553Y012619D01*
X035553Y012492D01*
X035601Y012375D01*
X035690Y012286D01*
X035807Y012238D01*
X035681Y012296D02*
X034520Y012296D01*
X034520Y012394D02*
X035593Y012394D01*
X035553Y012493D02*
X035207Y012493D01*
X035307Y012591D02*
X035553Y012591D01*
X035582Y012690D02*
X035348Y012690D01*
X035348Y012788D02*
X035654Y012788D01*
X035316Y012887D02*
X036340Y012887D01*
X036340Y012985D02*
X035310Y012985D01*
X035310Y013084D02*
X035680Y013084D01*
X035593Y013182D02*
X035310Y013182D01*
X035310Y013281D02*
X035553Y013281D01*
X035553Y013379D02*
X035310Y013379D01*
X035310Y013478D02*
X035582Y013478D01*
X035654Y013576D02*
X035310Y013576D01*
X035310Y013675D02*
X035899Y013675D01*
X035950Y013850D02*
X036450Y013350D01*
X036650Y013350D01*
X036657Y013343D01*
X038430Y013343D01*
X038646Y013576D02*
X039342Y013576D01*
X039244Y013675D02*
X037960Y013675D01*
X037960Y013773D02*
X039145Y013773D01*
X039047Y013872D02*
X037960Y013872D01*
X037960Y013970D02*
X038948Y013970D01*
X038213Y013576D02*
X037960Y013576D01*
X037324Y013576D02*
X036935Y013576D01*
X036976Y013675D02*
X037324Y013675D01*
X037324Y013773D02*
X036976Y013773D01*
X036946Y013872D02*
X037324Y013872D01*
X037324Y013970D02*
X036874Y013970D01*
X036442Y013970D02*
X036056Y013970D01*
X036155Y013872D02*
X036370Y013872D01*
X036340Y013773D02*
X036253Y013773D01*
X035950Y013850D02*
X035150Y013850D01*
X034990Y013675D02*
X034196Y013675D01*
X034068Y013576D02*
X034990Y013576D01*
X034057Y013379D02*
X029547Y013379D01*
X029646Y013281D02*
X033981Y013281D01*
X033952Y013182D02*
X029744Y013182D01*
X029843Y013084D02*
X033955Y013084D01*
X033980Y012985D02*
X029941Y012985D01*
X030040Y012887D02*
X033980Y012887D01*
X033980Y012788D02*
X030138Y012788D01*
X030237Y012690D02*
X033980Y012690D01*
X033980Y012591D02*
X030335Y012591D01*
X030434Y012493D02*
X033980Y012493D01*
X034520Y012493D02*
X034893Y012493D01*
X034793Y012591D02*
X034520Y012591D01*
X034520Y012690D02*
X034752Y012690D01*
X034752Y012788D02*
X034520Y012788D01*
X034520Y012197D02*
X036340Y012197D01*
X036340Y012099D02*
X034520Y012099D01*
X035519Y011190D02*
X035787Y011459D01*
X035807Y011450D01*
X035934Y011450D01*
X036050Y011499D01*
X036140Y011588D01*
X036148Y011608D01*
X036330Y011608D01*
X036575Y011852D01*
X036595Y011844D01*
X036721Y011844D01*
X036741Y011852D01*
X036910Y011684D01*
X037003Y011590D01*
X037356Y011590D01*
X037325Y011544D01*
X037298Y011479D01*
X037284Y011410D01*
X037284Y011393D01*
X037623Y011393D01*
X037623Y011356D01*
X037284Y011356D01*
X037284Y011339D01*
X037298Y011270D01*
X037325Y011205D01*
X037364Y011146D01*
X037401Y011110D01*
X037149Y011110D01*
X036967Y011291D01*
X036976Y011311D01*
X036976Y011438D01*
X036927Y011554D01*
X036838Y011644D01*
X036721Y011692D01*
X036595Y011692D01*
X036478Y011644D01*
X036388Y011554D01*
X036340Y011438D01*
X036340Y011311D01*
X036348Y011291D01*
X036198Y011141D01*
X036148Y011141D01*
X036140Y011161D01*
X036050Y011250D01*
X035934Y011299D01*
X035807Y011299D01*
X035690Y011250D01*
X035601Y011161D01*
X035593Y011141D01*
X029314Y011141D01*
X029221Y011047D01*
X028884Y010710D01*
X028665Y010710D01*
X028707Y010753D01*
X028747Y010811D01*
X028774Y010876D01*
X028787Y010945D01*
X028787Y010962D01*
X028448Y010962D01*
X028448Y011000D01*
X028787Y011000D01*
X028787Y011016D01*
X028774Y011085D01*
X028747Y011150D01*
X028720Y011190D01*
X035519Y011190D01*
X035541Y011212D02*
X035652Y011212D01*
X035639Y011311D02*
X036340Y011311D01*
X036340Y011409D02*
X035738Y011409D01*
X036059Y011508D02*
X036369Y011508D01*
X036440Y011606D02*
X036147Y011606D01*
X036427Y011705D02*
X036889Y011705D01*
X036876Y011606D02*
X036987Y011606D01*
X036947Y011508D02*
X037310Y011508D01*
X037284Y011409D02*
X036976Y011409D01*
X036975Y011311D02*
X037290Y011311D01*
X037322Y011212D02*
X037047Y011212D01*
X037145Y011114D02*
X037397Y011114D01*
X037347Y010790D02*
X037016Y010790D01*
X036922Y010884D01*
X036922Y010884D01*
X036741Y011065D01*
X036721Y011057D01*
X036595Y011057D01*
X036575Y011065D01*
X036424Y010914D01*
X036424Y010914D01*
X036330Y010821D01*
X036148Y010821D01*
X036140Y010801D01*
X036050Y010711D01*
X035934Y010663D01*
X035807Y010663D01*
X035690Y010711D01*
X035601Y010801D01*
X035593Y010821D01*
X029447Y010821D01*
X029016Y010390D01*
X028728Y010390D01*
X028747Y010363D01*
X028774Y010298D01*
X028787Y010229D01*
X028787Y010212D01*
X028448Y010212D01*
X028448Y010174D01*
X028787Y010174D01*
X028787Y010158D01*
X028776Y010103D01*
X029190Y010516D01*
X029190Y010516D01*
X029284Y010610D01*
X035680Y010610D01*
X035787Y010503D01*
X035807Y010511D01*
X035934Y010511D01*
X036050Y010463D01*
X036140Y010373D01*
X036148Y010353D01*
X036198Y010353D01*
X036348Y010504D01*
X036340Y010524D01*
X036340Y010650D01*
X036388Y010767D01*
X036478Y010856D01*
X036595Y010905D01*
X036721Y010905D01*
X036838Y010856D01*
X036927Y010767D01*
X036975Y010651D01*
X037316Y010310D01*
X037413Y010310D01*
X037364Y010359D01*
X037325Y010418D01*
X037298Y010483D01*
X037284Y010552D01*
X037284Y010568D01*
X037623Y010568D01*
X037623Y010606D01*
X037284Y010606D01*
X037284Y010622D01*
X037298Y010691D01*
X037325Y010756D01*
X037347Y010790D01*
X037310Y010720D02*
X036947Y010720D01*
X036988Y010818D02*
X036876Y010818D01*
X036889Y010917D02*
X036426Y010917D01*
X036439Y010818D02*
X036147Y010818D01*
X036059Y010720D02*
X036369Y010720D01*
X036340Y010621D02*
X029247Y010621D01*
X029196Y010523D02*
X029149Y010523D01*
X029098Y010424D02*
X029050Y010424D01*
X028999Y010326D02*
X028762Y010326D01*
X028787Y010227D02*
X028901Y010227D01*
X028802Y010129D02*
X028781Y010129D01*
X028411Y010174D02*
X028072Y010174D01*
X028072Y010158D01*
X028073Y010154D01*
X027916Y010310D01*
X027871Y010310D01*
X027920Y010359D01*
X027959Y010418D01*
X027986Y010483D01*
X028000Y010552D01*
X028000Y010568D01*
X027661Y010568D01*
X027661Y010606D01*
X027968Y010606D01*
X028090Y010484D01*
X028152Y010422D01*
X028152Y010421D01*
X028112Y010363D01*
X028085Y010298D01*
X028072Y010229D01*
X028072Y010212D01*
X028411Y010212D01*
X028411Y010174D01*
X028072Y010227D02*
X027999Y010227D01*
X028097Y010326D02*
X027887Y010326D01*
X027962Y010424D02*
X028150Y010424D01*
X028051Y010523D02*
X027994Y010523D01*
X027623Y010568D02*
X027284Y010568D01*
X027284Y010552D01*
X027298Y010483D01*
X027325Y010418D01*
X027364Y010359D01*
X027413Y010310D01*
X027161Y010310D01*
X026967Y010504D01*
X026976Y010524D01*
X026976Y010650D01*
X026927Y010767D01*
X026838Y010856D01*
X026721Y010905D01*
X026595Y010905D01*
X026478Y010856D01*
X026388Y010767D01*
X026340Y010650D01*
X026340Y010524D01*
X026348Y010504D01*
X026198Y010353D01*
X026148Y010353D01*
X026140Y010373D01*
X026050Y010463D01*
X025934Y010511D01*
X025807Y010511D01*
X025690Y010463D01*
X025601Y010373D01*
X025553Y010257D01*
X025553Y010130D01*
X025561Y010110D01*
X024661Y009210D01*
X024326Y009210D01*
X025787Y010671D01*
X025807Y010663D01*
X025934Y010663D01*
X026050Y010711D01*
X026140Y010801D01*
X026148Y010821D01*
X026330Y010821D01*
X026575Y011065D01*
X026595Y011057D01*
X026721Y011057D01*
X026838Y011105D01*
X026903Y011170D01*
X027190Y010884D01*
X027284Y010790D01*
X027347Y010790D01*
X027325Y010756D01*
X027298Y010691D01*
X027284Y010622D01*
X027284Y010606D01*
X027623Y010606D01*
X027623Y010568D01*
X027398Y010326D02*
X027146Y010326D01*
X027047Y010424D02*
X027322Y010424D01*
X027290Y010523D02*
X026975Y010523D01*
X026976Y010621D02*
X027284Y010621D01*
X027310Y010720D02*
X026947Y010720D01*
X026876Y010818D02*
X027256Y010818D01*
X027157Y010917D02*
X026426Y010917D01*
X026439Y010818D02*
X026147Y010818D01*
X026059Y010720D02*
X026369Y010720D01*
X026340Y010621D02*
X025737Y010621D01*
X025639Y010523D02*
X026341Y010523D01*
X026269Y010424D02*
X026089Y010424D01*
X025652Y010424D02*
X025540Y010424D01*
X025581Y010326D02*
X025442Y010326D01*
X025343Y010227D02*
X025553Y010227D01*
X025553Y010129D02*
X025245Y010129D01*
X025146Y010030D02*
X025481Y010030D01*
X025382Y009932D02*
X025048Y009932D01*
X024949Y009833D02*
X025284Y009833D01*
X025185Y009735D02*
X024851Y009735D01*
X024752Y009636D02*
X025087Y009636D01*
X024988Y009538D02*
X024654Y009538D01*
X024555Y009439D02*
X024890Y009439D01*
X024791Y009341D02*
X024457Y009341D01*
X024358Y009242D02*
X024693Y009242D01*
X026937Y007437D02*
X027350Y007850D01*
X027850Y007850D01*
X028150Y008150D01*
X028850Y008150D01*
X029450Y007550D01*
X029450Y005550D01*
X029950Y005050D01*
X033350Y005050D01*
X035344Y007044D01*
X035870Y007044D01*
X036264Y007437D01*
X036658Y007437D01*
X037070Y007850D01*
X037850Y007850D01*
X037421Y007666D02*
X037113Y007666D01*
X037014Y007568D02*
X037352Y007568D01*
X037324Y007469D02*
X036976Y007469D01*
X036974Y007371D02*
X037326Y007371D01*
X037367Y007272D02*
X036933Y007272D01*
X036843Y007174D02*
X037457Y007174D01*
X037421Y006878D02*
X036936Y006878D01*
X036886Y006928D01*
X036827Y006967D01*
X036762Y006994D01*
X036693Y007008D01*
X036677Y007008D01*
X036677Y006669D01*
X037016Y006669D01*
X037016Y006685D01*
X037002Y006754D01*
X036975Y006819D01*
X036936Y006878D01*
X036992Y006780D02*
X037352Y006780D01*
X037324Y006681D02*
X037016Y006681D01*
X037016Y006631D02*
X036677Y006631D01*
X036677Y006669D01*
X036639Y006669D01*
X036639Y007008D01*
X036623Y007008D01*
X036554Y006994D01*
X036488Y006967D01*
X036430Y006928D01*
X036380Y006878D01*
X036146Y006878D01*
X036187Y006977D02*
X036511Y006977D01*
X036639Y006977D02*
X036677Y006977D01*
X036677Y006878D02*
X036639Y006878D01*
X036639Y006780D02*
X036677Y006780D01*
X036677Y006681D02*
X036639Y006681D01*
X036639Y006669D02*
X036639Y006631D01*
X036677Y006631D01*
X036677Y006292D01*
X036693Y006292D01*
X036762Y006306D01*
X036827Y006333D01*
X036886Y006372D01*
X036936Y006422D01*
X036975Y006481D01*
X037002Y006546D01*
X037016Y006615D01*
X037016Y006631D01*
X037009Y006583D02*
X037326Y006583D01*
X037367Y006484D02*
X036976Y006484D01*
X036899Y006386D02*
X037457Y006386D01*
X037334Y006189D02*
X038114Y006189D01*
X038112Y006287D02*
X036188Y006287D01*
X036188Y006320D02*
X036140Y006436D01*
X036050Y006526D01*
X035934Y006574D01*
X035807Y006574D01*
X035690Y006526D01*
X035601Y006436D01*
X035553Y006320D01*
X035553Y006193D01*
X035601Y006076D01*
X035690Y005987D01*
X035807Y005939D01*
X035934Y005939D01*
X036050Y005987D01*
X036140Y006076D01*
X036188Y006193D01*
X036188Y006320D01*
X036161Y006386D02*
X036416Y006386D01*
X036430Y006372D02*
X036488Y006333D01*
X036554Y006306D01*
X036623Y006292D01*
X036639Y006292D01*
X036639Y006631D01*
X036300Y006631D01*
X036300Y006615D01*
X036314Y006546D01*
X036341Y006481D01*
X036380Y006422D01*
X036430Y006372D01*
X036339Y006484D02*
X036092Y006484D01*
X036306Y006583D02*
X035109Y006583D01*
X035207Y006681D02*
X036300Y006681D01*
X036300Y006685D02*
X036300Y006669D01*
X036639Y006669D01*
X036639Y006583D02*
X036677Y006583D01*
X036677Y006484D02*
X036639Y006484D01*
X036639Y006386D02*
X036677Y006386D01*
X036775Y006109D02*
X036588Y005923D01*
X036487Y005679D01*
X036487Y005416D01*
X036588Y005172D01*
X036775Y004986D01*
X037018Y004885D01*
X037282Y004885D01*
X037525Y004986D01*
X037712Y005172D01*
X037813Y005416D01*
X037813Y005679D01*
X037712Y005923D01*
X037525Y006109D01*
X037282Y006210D01*
X037018Y006210D01*
X036775Y006109D01*
X036755Y006090D02*
X036146Y006090D01*
X036186Y006189D02*
X036966Y006189D01*
X036657Y005992D02*
X036055Y005992D01*
X035686Y005992D02*
X034518Y005992D01*
X034616Y006090D02*
X035595Y006090D01*
X035555Y006189D02*
X034715Y006189D01*
X034813Y006287D02*
X035553Y006287D01*
X035580Y006386D02*
X034912Y006386D01*
X035010Y006484D02*
X035649Y006484D01*
X035685Y006780D02*
X035306Y006780D01*
X035404Y006878D02*
X035595Y006878D01*
X036056Y006780D02*
X036324Y006780D01*
X036314Y006754D02*
X036300Y006685D01*
X036314Y006754D02*
X036341Y006819D01*
X036380Y006878D01*
X036188Y007075D02*
X038112Y007075D01*
X038113Y006977D02*
X036805Y006977D01*
X036472Y007174D02*
X036227Y007174D01*
X036325Y007272D02*
X036382Y007272D01*
X037828Y007174D02*
X038139Y007174D01*
X038208Y007272D02*
X037918Y007272D01*
X037864Y006878D02*
X038154Y006878D01*
X038244Y006780D02*
X037932Y006780D01*
X037917Y006484D02*
X038208Y006484D01*
X038139Y006386D02*
X037827Y006386D01*
X037545Y006090D02*
X038154Y006090D01*
X038245Y005992D02*
X037643Y005992D01*
X037724Y005893D02*
X040181Y005893D01*
X040279Y005795D02*
X037765Y005795D01*
X037806Y005696D02*
X040378Y005696D01*
X040476Y005598D02*
X037813Y005598D01*
X037813Y005499D02*
X040575Y005499D01*
X040673Y005401D02*
X037806Y005401D01*
X037765Y005302D02*
X040715Y005302D01*
X040690Y005204D02*
X037725Y005204D01*
X037644Y005105D02*
X040690Y005105D01*
X040712Y005007D02*
X037546Y005007D01*
X037337Y004908D02*
X040752Y004908D01*
X040840Y004810D02*
X034536Y004810D01*
X034437Y004711D02*
X040809Y004711D01*
X040546Y004613D02*
X034339Y004613D01*
X034240Y004514D02*
X040323Y004514D01*
X040199Y004416D02*
X034142Y004416D01*
X034043Y004317D02*
X040076Y004317D01*
X039964Y004219D02*
X023317Y004219D01*
X023225Y004317D02*
X029557Y004317D01*
X029458Y004416D02*
X023122Y004416D01*
X022952Y004514D02*
X029360Y004514D01*
X029261Y004613D02*
X022781Y004613D01*
X022421Y004711D02*
X029163Y004711D01*
X029064Y004810D02*
X014536Y004810D01*
X014634Y004908D02*
X014670Y004908D01*
X014650Y005150D02*
X014850Y005150D01*
X014650Y005150D02*
X014050Y004550D01*
X009750Y004550D01*
X009150Y005150D01*
X009150Y006750D01*
X008850Y007050D01*
X008436Y007050D01*
X008430Y007044D01*
X008651Y007272D02*
X009190Y007272D01*
X009190Y007174D02*
X008953Y007174D01*
X009051Y007075D02*
X009190Y007075D01*
X009190Y006977D02*
X009150Y006977D01*
X008894Y006780D02*
X008615Y006780D01*
X008705Y006878D02*
X008796Y006878D01*
X008990Y006681D02*
X007960Y006681D01*
X007958Y006583D02*
X008990Y006583D01*
X008990Y006484D02*
X008651Y006484D01*
X008720Y006386D02*
X008990Y006386D01*
X008990Y006287D02*
X008747Y006287D01*
X008745Y006189D02*
X008990Y006189D01*
X008990Y006090D02*
X008705Y006090D01*
X008614Y005992D02*
X008990Y005992D01*
X009550Y005650D02*
X010250Y004950D01*
X013450Y004950D01*
X015544Y007044D01*
X015870Y007044D01*
X016264Y007437D01*
X016658Y007437D01*
X017037Y007437D01*
X017450Y007850D01*
X017850Y007850D01*
X018250Y008250D01*
X018650Y008250D01*
X019450Y007450D01*
X025464Y007450D01*
X025870Y007044D01*
X026264Y007437D01*
X026658Y007437D01*
X026937Y007437D01*
X026933Y007272D02*
X027367Y007272D01*
X027326Y007371D02*
X027097Y007371D01*
X027195Y007469D02*
X027324Y007469D01*
X027352Y007568D02*
X027294Y007568D01*
X027392Y007666D02*
X027421Y007666D01*
X027863Y007666D02*
X028154Y007666D01*
X028113Y007765D02*
X027991Y007765D01*
X028089Y007863D02*
X028112Y007863D01*
X028430Y007831D02*
X028769Y007831D01*
X029150Y007450D01*
X029150Y005350D01*
X029750Y004750D01*
X033750Y004750D01*
X034150Y005150D01*
X033890Y005302D02*
X033828Y005302D01*
X033852Y005204D02*
X033730Y005204D01*
X033631Y005105D02*
X033852Y005105D01*
X033780Y005007D02*
X033533Y005007D01*
X033927Y005401D02*
X033979Y005401D01*
X034025Y005499D02*
X036487Y005499D01*
X036487Y005598D02*
X034124Y005598D01*
X034222Y005696D02*
X036494Y005696D01*
X036535Y005795D02*
X034321Y005795D01*
X034419Y005893D02*
X036576Y005893D01*
X036494Y005401D02*
X034821Y005401D01*
X034910Y005302D02*
X036535Y005302D01*
X036575Y005204D02*
X034948Y005204D01*
X034948Y005105D02*
X036656Y005105D01*
X036754Y005007D02*
X034913Y005007D01*
X034830Y004908D02*
X036963Y004908D01*
X034650Y005150D02*
X033950Y004450D01*
X029650Y004450D01*
X028850Y005250D01*
X028850Y006750D01*
X028556Y007044D01*
X028430Y007044D01*
X028651Y007272D02*
X028990Y007272D01*
X028990Y007174D02*
X028720Y007174D01*
X028751Y007075D02*
X028990Y007075D01*
X028990Y006977D02*
X028850Y006977D01*
X028948Y006878D02*
X028990Y006878D01*
X028690Y006681D02*
X027960Y006681D01*
X027960Y006713D02*
X027912Y006830D01*
X027822Y006919D01*
X027705Y006968D01*
X027579Y006968D01*
X027462Y006919D01*
X027373Y006830D01*
X027324Y006713D01*
X027324Y006587D01*
X027373Y006470D01*
X027462Y006381D01*
X027579Y006332D01*
X027705Y006332D01*
X027822Y006381D01*
X027912Y006470D01*
X027960Y006587D01*
X027960Y006713D01*
X027932Y006780D02*
X028244Y006780D01*
X028154Y006878D02*
X027864Y006878D01*
X028113Y006977D02*
X026805Y006977D01*
X026827Y006967D02*
X026762Y006994D01*
X026693Y007008D01*
X026677Y007008D01*
X026677Y006669D01*
X027016Y006669D01*
X027016Y006685D01*
X027002Y006754D01*
X026975Y006819D01*
X026936Y006878D01*
X027421Y006878D01*
X027352Y006780D02*
X026992Y006780D01*
X027016Y006681D02*
X027324Y006681D01*
X027326Y006583D02*
X027009Y006583D01*
X027016Y006615D02*
X027016Y006631D01*
X026677Y006631D01*
X026677Y006669D01*
X026639Y006669D01*
X026639Y007008D01*
X026623Y007008D01*
X026554Y006994D01*
X026488Y006967D01*
X026430Y006928D01*
X026380Y006878D01*
X026146Y006878D01*
X026187Y006977D02*
X026511Y006977D01*
X026639Y006977D02*
X026677Y006977D01*
X026677Y006878D02*
X026639Y006878D01*
X026639Y006780D02*
X026677Y006780D01*
X026677Y006681D02*
X026639Y006681D01*
X026639Y006669D02*
X026639Y006631D01*
X026677Y006631D01*
X026677Y006292D01*
X026693Y006292D01*
X026762Y006306D01*
X026827Y006333D01*
X026886Y006372D01*
X026936Y006422D01*
X026975Y006481D01*
X027002Y006546D01*
X027016Y006615D01*
X026976Y006484D02*
X027367Y006484D01*
X027457Y006386D02*
X026899Y006386D01*
X026966Y006189D02*
X026186Y006189D01*
X026188Y006193D02*
X026140Y006076D01*
X026050Y005987D01*
X025934Y005939D01*
X025807Y005939D01*
X025690Y005987D01*
X025601Y006076D01*
X025553Y006193D01*
X025553Y006320D01*
X025601Y006436D01*
X025690Y006526D01*
X025807Y006574D01*
X025934Y006574D01*
X026050Y006526D01*
X026140Y006436D01*
X026188Y006320D01*
X026188Y006193D01*
X026188Y006287D02*
X028112Y006287D01*
X028114Y006189D02*
X027334Y006189D01*
X027282Y006210D02*
X027018Y006210D01*
X026775Y006109D01*
X026588Y005923D01*
X026487Y005679D01*
X026487Y005416D01*
X026588Y005172D01*
X026775Y004986D01*
X027018Y004885D01*
X027282Y004885D01*
X027525Y004986D01*
X027712Y005172D01*
X027813Y005416D01*
X027813Y005679D01*
X027712Y005923D01*
X027525Y006109D01*
X027282Y006210D01*
X027545Y006090D02*
X028154Y006090D01*
X028245Y005992D02*
X027643Y005992D01*
X027724Y005893D02*
X028690Y005893D01*
X028690Y005795D02*
X027765Y005795D01*
X027806Y005696D02*
X028690Y005696D01*
X028690Y005598D02*
X027813Y005598D01*
X027813Y005499D02*
X028690Y005499D01*
X028690Y005401D02*
X027806Y005401D01*
X027765Y005302D02*
X028690Y005302D01*
X028690Y005204D02*
X027725Y005204D01*
X027644Y005105D02*
X028769Y005105D01*
X028867Y005007D02*
X027546Y005007D01*
X027337Y004908D02*
X028966Y004908D01*
X028690Y005992D02*
X028614Y005992D01*
X028139Y006386D02*
X027827Y006386D01*
X027917Y006484D02*
X028208Y006484D01*
X027958Y006583D02*
X028690Y006583D01*
X028690Y006484D02*
X028651Y006484D01*
X028112Y007075D02*
X026188Y007075D01*
X026227Y007174D02*
X026472Y007174D01*
X026382Y007272D02*
X026325Y007272D01*
X026380Y006878D02*
X026341Y006819D01*
X026314Y006754D01*
X026300Y006685D01*
X026300Y006669D01*
X026639Y006669D01*
X026639Y006631D02*
X026300Y006631D01*
X026300Y006615D01*
X026314Y006546D01*
X026341Y006481D01*
X026380Y006422D01*
X026430Y006372D01*
X026488Y006333D01*
X026554Y006306D01*
X026623Y006292D01*
X026639Y006292D01*
X026639Y006631D01*
X026639Y006583D02*
X026677Y006583D01*
X026677Y006484D02*
X026639Y006484D01*
X026639Y006386D02*
X026677Y006386D01*
X026416Y006386D02*
X026161Y006386D01*
X026092Y006484D02*
X026339Y006484D01*
X026306Y006583D02*
X025183Y006583D01*
X025303Y006681D02*
X026300Y006681D01*
X026324Y006780D02*
X026056Y006780D01*
X025685Y006780D02*
X025343Y006780D01*
X025348Y006878D02*
X025595Y006878D01*
X025554Y006977D02*
X025320Y006977D01*
X025247Y007075D02*
X025553Y007075D01*
X025514Y007174D02*
X024253Y007174D01*
X024154Y007272D02*
X025416Y007272D01*
X024853Y007075D02*
X024351Y007075D01*
X024350Y006850D02*
X023950Y007250D01*
X019011Y007250D01*
X018430Y007831D01*
X018112Y007863D02*
X018089Y007863D01*
X018113Y007765D02*
X017991Y007765D01*
X017863Y007666D02*
X018154Y007666D01*
X018244Y007568D02*
X017932Y007568D01*
X017960Y007469D02*
X018565Y007469D01*
X018664Y007371D02*
X017958Y007371D01*
X017918Y007272D02*
X018208Y007272D01*
X018139Y007174D02*
X017828Y007174D01*
X017705Y006968D02*
X017579Y006968D01*
X017462Y006919D01*
X017373Y006830D01*
X017324Y006713D01*
X017324Y006587D01*
X017373Y006470D01*
X017462Y006381D01*
X017579Y006332D01*
X017705Y006332D01*
X017822Y006381D01*
X017912Y006470D01*
X017960Y006587D01*
X017960Y006713D01*
X017912Y006830D01*
X017822Y006919D01*
X017705Y006968D01*
X017864Y006878D02*
X018154Y006878D01*
X018113Y006977D02*
X016805Y006977D01*
X016827Y006967D02*
X016762Y006994D01*
X016693Y007008D01*
X016677Y007008D01*
X016677Y006669D01*
X017016Y006669D01*
X017016Y006685D01*
X017002Y006754D01*
X016975Y006819D01*
X016936Y006878D01*
X017421Y006878D01*
X017352Y006780D02*
X016992Y006780D01*
X017016Y006681D02*
X017324Y006681D01*
X017326Y006583D02*
X017009Y006583D01*
X017016Y006615D02*
X017016Y006631D01*
X016677Y006631D01*
X016677Y006669D01*
X016639Y006669D01*
X016639Y007008D01*
X016623Y007008D01*
X016554Y006994D01*
X016488Y006967D01*
X016430Y006928D01*
X016380Y006878D01*
X016146Y006878D01*
X016187Y006977D02*
X016511Y006977D01*
X016639Y006977D02*
X016677Y006977D01*
X016677Y006878D02*
X016639Y006878D01*
X016639Y006780D02*
X016677Y006780D01*
X016677Y006681D02*
X016639Y006681D01*
X016639Y006669D02*
X016639Y006631D01*
X016677Y006631D01*
X016677Y006292D01*
X016693Y006292D01*
X016762Y006306D01*
X016827Y006333D01*
X016886Y006372D01*
X016936Y006422D01*
X016975Y006481D01*
X017002Y006546D01*
X017016Y006615D01*
X016976Y006484D02*
X017367Y006484D01*
X017457Y006386D02*
X016899Y006386D01*
X016966Y006189D02*
X016186Y006189D01*
X016188Y006193D02*
X016140Y006076D01*
X016050Y005987D01*
X015934Y005939D01*
X015807Y005939D01*
X015690Y005987D01*
X015601Y006076D01*
X015553Y006193D01*
X015553Y006320D01*
X015601Y006436D01*
X015690Y006526D01*
X015807Y006574D01*
X015934Y006574D01*
X016050Y006526D01*
X016140Y006436D01*
X016188Y006320D01*
X016188Y006193D01*
X016188Y006287D02*
X018112Y006287D01*
X018112Y006320D02*
X018112Y006193D01*
X018160Y006076D01*
X018250Y005987D01*
X018366Y005939D01*
X018493Y005939D01*
X018610Y005987D01*
X018699Y006076D01*
X018747Y006193D01*
X018747Y006320D01*
X018699Y006436D01*
X018610Y006526D01*
X018493Y006574D01*
X018366Y006574D01*
X018250Y006526D01*
X018160Y006436D01*
X018112Y006320D01*
X018139Y006386D02*
X017827Y006386D01*
X017917Y006484D02*
X018208Y006484D01*
X017958Y006583D02*
X020270Y006583D01*
X020311Y006681D02*
X017960Y006681D01*
X017932Y006780D02*
X018244Y006780D01*
X018430Y007044D02*
X018436Y007050D01*
X023850Y007050D01*
X024850Y006050D01*
X025050Y006050D01*
X025315Y006189D02*
X025555Y006189D01*
X025553Y006287D02*
X025235Y006287D01*
X025348Y006090D02*
X025595Y006090D01*
X025686Y005992D02*
X025348Y005992D01*
X025308Y005893D02*
X026576Y005893D01*
X026535Y005795D02*
X025212Y005795D01*
X024888Y005795D02*
X023750Y005795D01*
X023888Y005893D02*
X024781Y005893D01*
X024682Y005992D02*
X023986Y005992D01*
X024028Y006090D02*
X024584Y006090D01*
X024485Y006189D02*
X024069Y006189D01*
X024081Y006287D02*
X024387Y006287D01*
X024288Y006386D02*
X024081Y006386D01*
X024071Y006484D02*
X024190Y006484D01*
X024091Y006583D02*
X024030Y006583D01*
X023993Y006681D02*
X023989Y006681D01*
X023893Y006780D02*
X023894Y006780D01*
X023796Y006878D02*
X023764Y006878D01*
X023178Y006878D02*
X021122Y006878D01*
X021251Y006780D02*
X023049Y006780D01*
X022952Y006681D02*
X022841Y006681D01*
X022650Y006450D02*
X021750Y006450D01*
X021482Y006583D02*
X021389Y006583D01*
X021348Y006681D02*
X021559Y006681D01*
X021452Y006484D02*
X021429Y006484D01*
X021439Y006386D02*
X021454Y006386D01*
X021439Y006287D02*
X021495Y006287D01*
X021427Y006189D02*
X021602Y006189D01*
X021386Y006090D02*
X022914Y006090D01*
X022873Y006189D02*
X022798Y006189D01*
X022956Y005992D02*
X021344Y005992D01*
X021246Y005893D02*
X023054Y005893D01*
X023191Y005795D02*
X021109Y005795D01*
X020550Y005795D02*
X017765Y005795D01*
X017724Y005893D02*
X020412Y005893D01*
X020314Y005992D02*
X018614Y005992D01*
X018705Y006090D02*
X020272Y006090D01*
X020231Y006189D02*
X018745Y006189D01*
X018747Y006287D02*
X020219Y006287D01*
X020219Y006386D02*
X018720Y006386D01*
X018651Y006484D02*
X020229Y006484D01*
X020407Y006780D02*
X018615Y006780D01*
X018705Y006878D02*
X020536Y006878D01*
X021941Y006681D02*
X022459Y006681D01*
X022395Y006287D02*
X022005Y006287D01*
X021898Y006189D02*
X022502Y006189D01*
X024350Y006850D02*
X025050Y006850D01*
X024917Y006583D02*
X024544Y006583D01*
X024445Y006681D02*
X024797Y006681D01*
X024642Y006484D02*
X025649Y006484D01*
X025580Y006386D02*
X024741Y006386D01*
X024839Y006287D02*
X024865Y006287D01*
X026055Y005992D02*
X026657Y005992D01*
X026755Y006090D02*
X026146Y006090D01*
X026494Y005696D02*
X017806Y005696D01*
X017813Y005679D02*
X017712Y005923D01*
X017525Y006109D01*
X017282Y006210D01*
X017018Y006210D01*
X016775Y006109D01*
X016588Y005923D01*
X016487Y005679D01*
X016487Y005416D01*
X016588Y005172D01*
X016775Y004986D01*
X017018Y004885D01*
X017282Y004885D01*
X017525Y004986D01*
X017712Y005172D01*
X017813Y005416D01*
X017813Y005679D01*
X017813Y005598D02*
X026487Y005598D01*
X026487Y005499D02*
X017813Y005499D01*
X017806Y005401D02*
X026494Y005401D01*
X026535Y005302D02*
X017765Y005302D01*
X017725Y005204D02*
X026575Y005204D01*
X026656Y005105D02*
X017644Y005105D01*
X017546Y005007D02*
X026754Y005007D01*
X026963Y004908D02*
X017337Y004908D01*
X016963Y004908D02*
X015030Y004908D01*
X015113Y005007D02*
X016754Y005007D01*
X016656Y005105D02*
X015148Y005105D01*
X015148Y005204D02*
X016575Y005204D01*
X016535Y005302D02*
X015110Y005302D01*
X015021Y005401D02*
X016494Y005401D01*
X016487Y005499D02*
X014725Y005499D01*
X014679Y005401D02*
X014627Y005401D01*
X014576Y005302D02*
X014528Y005302D01*
X014477Y005204D02*
X014430Y005204D01*
X014379Y005105D02*
X014331Y005105D01*
X014280Y005007D02*
X014233Y005007D01*
X014182Y004908D02*
X014134Y004908D01*
X014083Y004810D02*
X014036Y004810D01*
X013985Y004711D02*
X013937Y004711D01*
X013750Y004750D02*
X014850Y005850D01*
X015114Y005992D02*
X015686Y005992D01*
X015595Y006090D02*
X015032Y006090D01*
X014915Y006189D02*
X015555Y006189D01*
X015553Y006287D02*
X015013Y006287D01*
X015112Y006386D02*
X015580Y006386D01*
X015649Y006484D02*
X015210Y006484D01*
X015309Y006583D02*
X016306Y006583D01*
X016300Y006615D02*
X016314Y006546D01*
X016341Y006481D01*
X016380Y006422D01*
X016430Y006372D01*
X016488Y006333D01*
X016554Y006306D01*
X016623Y006292D01*
X016639Y006292D01*
X016639Y006631D01*
X016300Y006631D01*
X016300Y006615D01*
X016300Y006669D02*
X016639Y006669D01*
X016639Y006583D02*
X016677Y006583D01*
X016677Y006484D02*
X016639Y006484D01*
X016639Y006386D02*
X016677Y006386D01*
X016416Y006386D02*
X016161Y006386D01*
X016092Y006484D02*
X016339Y006484D01*
X016300Y006669D02*
X016300Y006685D01*
X016314Y006754D01*
X016341Y006819D01*
X016380Y006878D01*
X016324Y006780D02*
X016056Y006780D01*
X016300Y006681D02*
X015407Y006681D01*
X015506Y006780D02*
X015685Y006780D01*
X016188Y007075D02*
X018112Y007075D01*
X017457Y007174D02*
X016843Y007174D01*
X016933Y007272D02*
X017367Y007272D01*
X017326Y007371D02*
X017197Y007371D01*
X017295Y007469D02*
X017324Y007469D01*
X016886Y006928D02*
X016827Y006967D01*
X016886Y006928D02*
X016936Y006878D01*
X016472Y007174D02*
X016227Y007174D01*
X016325Y007272D02*
X016382Y007272D01*
X017334Y006189D02*
X018114Y006189D01*
X018154Y006090D02*
X017545Y006090D01*
X017643Y005992D02*
X018245Y005992D01*
X016755Y006090D02*
X016146Y006090D01*
X016055Y005992D02*
X016657Y005992D01*
X016576Y005893D02*
X015148Y005893D01*
X015148Y005795D02*
X016535Y005795D01*
X016494Y005696D02*
X015109Y005696D01*
X015019Y005598D02*
X016487Y005598D01*
X014437Y004711D02*
X021809Y004711D01*
X021546Y004613D02*
X014339Y004613D01*
X014240Y004514D02*
X021323Y004514D01*
X021199Y004416D02*
X014142Y004416D01*
X013750Y004750D02*
X009950Y004750D01*
X009350Y005350D01*
X009350Y007350D01*
X008850Y007850D01*
X008448Y007850D01*
X008430Y007831D01*
X008036Y007831D01*
X007642Y008225D01*
X007050Y007633D01*
X007050Y007250D01*
X006850Y007050D01*
X006450Y007050D01*
X006050Y006650D01*
X004650Y006650D01*
X004150Y006150D01*
X004159Y006386D02*
X003550Y006386D01*
X003467Y006484D02*
X004258Y006484D01*
X004356Y006583D02*
X003308Y006583D01*
X002870Y006780D02*
X002350Y006780D01*
X002350Y006878D02*
X002771Y006878D01*
X002724Y006977D02*
X002350Y006977D01*
X002350Y007075D02*
X002690Y007075D01*
X002690Y007174D02*
X002350Y007174D01*
X002350Y007272D02*
X002703Y007272D01*
X002743Y007371D02*
X002350Y007371D01*
X002350Y007469D02*
X002818Y007469D01*
X002956Y007568D02*
X002350Y007568D01*
X002350Y007666D02*
X005595Y007666D01*
X005554Y007765D02*
X003415Y007765D01*
X003514Y007863D02*
X005553Y007863D01*
X005514Y007962D02*
X003570Y007962D01*
X003344Y007568D02*
X005685Y007568D01*
X005870Y007831D02*
X006264Y008225D01*
X006658Y008225D01*
X007125Y008225D01*
X007141Y008454D02*
X006878Y008454D01*
X006881Y008553D02*
X006187Y008553D01*
X006188Y008555D02*
X006140Y008438D01*
X006050Y008349D01*
X005934Y008301D01*
X005807Y008301D01*
X005690Y008349D01*
X005601Y008438D01*
X005553Y008555D01*
X005553Y008682D01*
X005601Y008799D01*
X005690Y008888D01*
X005807Y008936D01*
X005934Y008936D01*
X006050Y008888D01*
X006140Y008799D01*
X006188Y008682D01*
X006188Y008555D01*
X006188Y008651D02*
X006723Y008651D01*
X006624Y008750D02*
X006160Y008750D01*
X006090Y008848D02*
X006566Y008848D01*
X006525Y008947D02*
X003564Y008947D01*
X003499Y008848D02*
X005651Y008848D01*
X005581Y008750D02*
X003385Y008750D01*
X003380Y008553D02*
X005554Y008553D01*
X005553Y008651D02*
X002350Y008651D01*
X002350Y008553D02*
X002920Y008553D01*
X002803Y008454D02*
X002350Y008454D01*
X002350Y008356D02*
X002737Y008356D01*
X002696Y008257D02*
X002350Y008257D01*
X002350Y008159D02*
X002690Y008159D01*
X002690Y008060D02*
X002350Y008060D01*
X002350Y007962D02*
X002730Y007962D01*
X002786Y007863D02*
X002350Y007863D01*
X002350Y007765D02*
X002885Y007765D01*
X003482Y007469D02*
X006070Y007469D01*
X006056Y007568D02*
X006168Y007568D01*
X006146Y007666D02*
X006437Y007666D01*
X006472Y007962D02*
X006227Y007962D01*
X006326Y008060D02*
X006382Y008060D01*
X006169Y008356D02*
X006057Y008356D01*
X006070Y008257D02*
X005671Y008257D01*
X005684Y008356D02*
X003563Y008356D01*
X003497Y008454D02*
X005595Y008454D01*
X005552Y008150D02*
X005870Y007831D01*
X005769Y008159D02*
X005972Y008159D01*
X006146Y008454D02*
X006438Y008454D01*
X005552Y008150D02*
X003150Y008150D01*
X002915Y008750D02*
X002350Y008750D01*
X002350Y008848D02*
X002801Y008848D01*
X002736Y008947D02*
X002350Y008947D01*
X002350Y009045D02*
X002696Y009045D01*
X004271Y009045D02*
X006495Y009045D01*
X007507Y007863D02*
X007778Y007863D01*
X007876Y007765D02*
X007408Y007765D01*
X007421Y007666D02*
X007310Y007666D01*
X007352Y007568D02*
X007211Y007568D01*
X007210Y007469D02*
X007324Y007469D01*
X007244Y007371D02*
X007210Y007371D01*
X007250Y007150D02*
X007250Y006650D01*
X007090Y006716D02*
X007005Y006631D01*
X006677Y006631D01*
X006677Y006669D01*
X007016Y006669D01*
X007016Y006685D01*
X007002Y006754D01*
X006975Y006819D01*
X006936Y006878D01*
X007090Y006878D01*
X007090Y006780D02*
X006992Y006780D01*
X007016Y006681D02*
X007055Y006681D01*
X007090Y006716D02*
X007090Y007064D01*
X007010Y006984D01*
X006920Y006894D01*
X006936Y006878D01*
X007003Y006977D02*
X007090Y006977D01*
X007250Y007150D02*
X007537Y007437D01*
X007642Y007437D01*
X007932Y007568D02*
X008244Y007568D01*
X008154Y007666D02*
X007863Y007666D01*
X007960Y007469D02*
X009005Y007469D01*
X009103Y007371D02*
X007958Y007371D01*
X007918Y007272D02*
X008208Y007272D01*
X008139Y007174D02*
X007828Y007174D01*
X007864Y006878D02*
X008154Y006878D01*
X008113Y006977D02*
X007410Y006977D01*
X007410Y007075D02*
X008112Y007075D01*
X008244Y006780D02*
X007932Y006780D01*
X007917Y006484D02*
X008208Y006484D01*
X008139Y006386D02*
X007827Y006386D01*
X006677Y006386D02*
X006639Y006386D01*
X006677Y006303D02*
X006284Y005910D01*
X005816Y005910D01*
X005774Y005952D01*
X005807Y005939D01*
X005934Y005939D01*
X006050Y005987D01*
X006140Y006076D01*
X006188Y006193D01*
X006188Y006320D01*
X006140Y006436D01*
X006086Y006490D01*
X006116Y006490D01*
X006210Y006584D01*
X006300Y006674D01*
X006300Y006669D01*
X006639Y006669D01*
X006639Y006631D01*
X006677Y006631D01*
X006677Y006303D01*
X006661Y006287D02*
X006188Y006287D01*
X006186Y006189D02*
X006562Y006189D01*
X006554Y006306D02*
X006623Y006292D01*
X006639Y006292D01*
X006639Y006631D01*
X006300Y006631D01*
X006300Y006615D01*
X006314Y006546D01*
X006341Y006481D01*
X006380Y006422D01*
X006430Y006372D01*
X006488Y006333D01*
X006554Y006306D01*
X006416Y006386D02*
X006161Y006386D01*
X006092Y006484D02*
X006339Y006484D01*
X006306Y006583D02*
X006209Y006583D01*
X006639Y006583D02*
X006677Y006583D01*
X006677Y006484D02*
X006639Y006484D01*
X006464Y006090D02*
X006146Y006090D01*
X006055Y005992D02*
X006365Y005992D01*
X006424Y005598D02*
X006487Y005598D01*
X006487Y005499D02*
X004125Y005499D01*
X004027Y005401D02*
X006494Y005401D01*
X006535Y005302D02*
X003928Y005302D01*
X003830Y005204D02*
X006575Y005204D01*
X006656Y005105D02*
X003731Y005105D01*
X003633Y005007D02*
X006754Y005007D01*
X006963Y004908D02*
X003548Y004908D01*
X003544Y005401D02*
X003574Y005401D01*
X003673Y005499D02*
X003452Y005499D01*
X003272Y005598D02*
X003771Y005598D01*
X004224Y005598D02*
X005676Y005598D01*
X005578Y005696D02*
X004322Y005696D01*
X004421Y005795D02*
X005479Y005795D01*
X005381Y005893D02*
X004519Y005893D01*
X002855Y005795D02*
X002350Y005795D01*
X002350Y005893D02*
X002759Y005893D01*
X002809Y004711D02*
X002350Y004711D01*
X002350Y004613D02*
X002546Y004613D01*
X004614Y002544D02*
X020681Y002544D01*
X020715Y002446D02*
X004567Y002446D01*
X009550Y005650D02*
X009550Y007550D01*
X008850Y008250D01*
X008808Y007666D02*
X008705Y007666D01*
X008615Y007568D02*
X008906Y007568D01*
X010550Y008250D02*
X009450Y009350D01*
X009450Y010150D01*
X008779Y010906D02*
X008787Y010945D01*
X008787Y010962D01*
X008448Y010962D01*
X008448Y011000D01*
X008787Y011000D01*
X008787Y011016D01*
X008774Y011085D01*
X008747Y011150D01*
X008720Y011190D01*
X009064Y011190D01*
X008990Y011116D01*
X008779Y010906D01*
X008782Y010917D02*
X008790Y010917D01*
X008787Y011015D02*
X008889Y011015D01*
X008987Y011114D02*
X008762Y011114D01*
X008411Y011000D02*
X008411Y010962D01*
X008072Y010962D01*
X008072Y010955D01*
X007916Y011110D01*
X007884Y011110D01*
X007920Y011146D01*
X007959Y011205D01*
X007986Y011270D01*
X008000Y011339D01*
X008000Y011356D01*
X007661Y011356D01*
X007661Y011393D01*
X007980Y011393D01*
X008090Y011284D01*
X008158Y011215D01*
X008152Y011209D01*
X008112Y011150D01*
X008085Y011085D01*
X008072Y011016D01*
X008072Y011000D01*
X008411Y011000D01*
X008155Y011212D02*
X007962Y011212D01*
X007994Y011311D02*
X008063Y011311D01*
X008097Y011114D02*
X007887Y011114D01*
X008011Y011015D02*
X008072Y011015D01*
X007968Y010606D02*
X008090Y010484D01*
X008152Y010422D01*
X008152Y010421D01*
X008112Y010363D01*
X008085Y010298D01*
X008072Y010229D01*
X008072Y010212D01*
X008411Y010212D01*
X008411Y010174D01*
X008072Y010174D01*
X008072Y010158D01*
X008073Y010154D01*
X007916Y010310D01*
X007871Y010310D01*
X007920Y010359D01*
X007959Y010418D01*
X007986Y010483D01*
X008000Y010552D01*
X008000Y010568D01*
X007661Y010568D01*
X007661Y010606D01*
X007968Y010606D01*
X007994Y010523D02*
X008051Y010523D01*
X007962Y010424D02*
X008150Y010424D01*
X008097Y010326D02*
X007887Y010326D01*
X007999Y010227D02*
X008072Y010227D01*
X006860Y011114D02*
X006846Y011114D01*
X006440Y011606D02*
X006147Y011606D01*
X006230Y011902D02*
X006469Y011902D01*
X006381Y012000D02*
X006329Y012000D01*
X005975Y012099D02*
X003648Y012099D01*
X003439Y012788D02*
X005654Y012788D01*
X006595Y013281D02*
X008112Y013281D01*
X008152Y013182D02*
X007859Y013182D01*
X008170Y013084D02*
X008239Y013084D01*
X008269Y012985D02*
X010089Y012985D01*
X010187Y012887D02*
X008367Y012887D01*
X008646Y012788D02*
X009366Y012788D01*
X009734Y012788D02*
X010187Y012788D01*
X010187Y012690D02*
X009815Y012690D01*
X009848Y012591D02*
X010187Y012591D01*
X010187Y012493D02*
X009848Y012493D01*
X009808Y012394D02*
X010169Y012394D01*
X010084Y012296D02*
X009715Y012296D01*
X009385Y012296D02*
X009112Y012296D01*
X009148Y012197D02*
X010049Y012197D01*
X010049Y012099D02*
X009148Y012099D01*
X009111Y012000D02*
X010086Y012000D01*
X010174Y011902D02*
X009023Y011902D01*
X008747Y011803D02*
X015553Y011803D01*
X015553Y011705D02*
X008747Y011705D01*
X008706Y011606D02*
X015482Y011606D01*
X015738Y011409D02*
X016340Y011409D01*
X016340Y011438D02*
X016340Y011311D01*
X016348Y011291D01*
X016198Y011141D01*
X016148Y011141D01*
X016140Y011161D01*
X016050Y011250D01*
X015934Y011299D01*
X015807Y011299D01*
X015690Y011250D01*
X015650Y011210D01*
X015539Y011210D01*
X015787Y011459D01*
X015807Y011450D01*
X015934Y011450D01*
X016050Y011499D01*
X016140Y011588D01*
X016148Y011608D01*
X016330Y011608D01*
X016575Y011852D01*
X016595Y011844D01*
X016721Y011844D01*
X016741Y011852D01*
X016910Y011684D01*
X017003Y011590D01*
X017356Y011590D01*
X017325Y011544D01*
X017298Y011479D01*
X017284Y011410D01*
X017284Y011393D01*
X017623Y011393D01*
X017623Y011356D01*
X017284Y011356D01*
X017284Y011339D01*
X017298Y011270D01*
X017325Y011205D01*
X017364Y011146D01*
X017401Y011110D01*
X017149Y011110D01*
X016967Y011291D01*
X016976Y011311D01*
X016976Y011438D01*
X016927Y011554D01*
X016838Y011644D01*
X016721Y011692D01*
X016595Y011692D01*
X016478Y011644D01*
X016388Y011554D01*
X016340Y011438D01*
X016369Y011508D02*
X016059Y011508D01*
X016147Y011606D02*
X016440Y011606D01*
X016427Y011705D02*
X016889Y011705D01*
X016876Y011606D02*
X016987Y011606D01*
X016947Y011508D02*
X017310Y011508D01*
X017284Y011409D02*
X016976Y011409D01*
X016975Y011311D02*
X017290Y011311D01*
X017322Y011212D02*
X017047Y011212D01*
X017145Y011114D02*
X017397Y011114D01*
X017347Y010790D02*
X017016Y010790D01*
X016922Y010884D01*
X016741Y011065D01*
X016721Y011057D01*
X016595Y011057D01*
X016575Y011065D01*
X016330Y010821D01*
X016148Y010821D01*
X016140Y010801D01*
X016050Y010711D01*
X015934Y010663D01*
X015807Y010663D01*
X015690Y010711D01*
X015601Y010801D01*
X015564Y010890D01*
X015400Y010890D01*
X015787Y010503D01*
X015807Y010511D01*
X015934Y010511D01*
X016050Y010463D01*
X016140Y010373D01*
X016148Y010353D01*
X016198Y010353D01*
X016348Y010504D01*
X016340Y010524D01*
X016340Y010650D01*
X016388Y010767D01*
X016478Y010856D01*
X016595Y010905D01*
X016721Y010905D01*
X016838Y010856D01*
X016927Y010767D01*
X016976Y010650D01*
X016976Y010524D01*
X016967Y010504D01*
X017161Y010310D01*
X017413Y010310D01*
X017364Y010359D01*
X017325Y010418D01*
X017298Y010483D01*
X017284Y010552D01*
X017284Y010568D01*
X017623Y010568D01*
X017623Y010606D01*
X017284Y010606D01*
X017284Y010622D01*
X017298Y010691D01*
X017325Y010756D01*
X017347Y010790D01*
X017310Y010720D02*
X016947Y010720D01*
X016976Y010621D02*
X017284Y010621D01*
X017290Y010523D02*
X016975Y010523D01*
X017047Y010424D02*
X017322Y010424D01*
X017398Y010326D02*
X017146Y010326D01*
X017661Y010568D02*
X017661Y010606D01*
X017968Y010606D01*
X018152Y010422D01*
X018152Y010421D01*
X018112Y010363D01*
X018085Y010298D01*
X018072Y010229D01*
X018072Y010212D01*
X018411Y010212D01*
X018411Y010174D01*
X018072Y010174D01*
X018072Y010158D01*
X018073Y010154D01*
X017916Y010310D01*
X017871Y010310D01*
X017920Y010359D01*
X017959Y010418D01*
X017986Y010483D01*
X018000Y010552D01*
X018000Y010568D01*
X017661Y010568D01*
X017887Y010326D02*
X018097Y010326D01*
X018072Y010227D02*
X017999Y010227D01*
X017962Y010424D02*
X018150Y010424D01*
X018051Y010523D02*
X017994Y010523D01*
X018072Y010955D02*
X017916Y011110D01*
X017884Y011110D01*
X017920Y011146D01*
X017959Y011205D01*
X017986Y011270D01*
X018000Y011339D01*
X018000Y011356D01*
X017661Y011356D01*
X017661Y011393D01*
X017980Y011393D01*
X018090Y011284D01*
X018158Y011215D01*
X018152Y011209D01*
X018112Y011150D01*
X018085Y011085D01*
X018072Y011016D01*
X018072Y011000D01*
X018411Y011000D01*
X018411Y010962D01*
X018072Y010962D01*
X018072Y010955D01*
X018072Y011015D02*
X018011Y011015D01*
X018097Y011114D02*
X017887Y011114D01*
X017962Y011212D02*
X018155Y011212D01*
X018063Y011311D02*
X017994Y011311D01*
X018448Y011000D02*
X018787Y011000D01*
X018787Y011016D01*
X018774Y011085D01*
X018747Y011150D01*
X018720Y011190D01*
X018984Y011190D01*
X019590Y010584D01*
X019684Y010490D01*
X020512Y010490D01*
X020484Y010478D01*
X020312Y010307D01*
X020219Y010082D01*
X020219Y009840D01*
X020312Y009615D01*
X020484Y009444D01*
X020565Y009410D01*
X020416Y009410D01*
X019210Y010616D01*
X019116Y010710D01*
X018665Y010710D01*
X018707Y010753D01*
X018747Y010811D01*
X018774Y010876D01*
X018787Y010945D01*
X018787Y010962D01*
X018448Y010962D01*
X018448Y011000D01*
X018762Y011114D02*
X019060Y011114D01*
X019159Y011015D02*
X018787Y011015D01*
X018782Y010917D02*
X019257Y010917D01*
X019356Y010818D02*
X018749Y010818D01*
X018674Y010720D02*
X019454Y010720D01*
X019553Y010621D02*
X019205Y010621D01*
X019304Y010523D02*
X019651Y010523D01*
X019501Y010326D02*
X020331Y010326D01*
X020279Y010227D02*
X019599Y010227D01*
X019698Y010129D02*
X020238Y010129D01*
X020219Y010030D02*
X019796Y010030D01*
X019895Y009932D02*
X020219Y009932D01*
X020222Y009833D02*
X019993Y009833D01*
X020092Y009735D02*
X020263Y009735D01*
X020303Y009636D02*
X020190Y009636D01*
X020289Y009538D02*
X020390Y009538D01*
X020387Y009439D02*
X020495Y009439D01*
X020164Y009210D02*
X020016Y009210D01*
X019410Y009816D01*
X019316Y009910D01*
X018650Y009910D01*
X018658Y009915D01*
X018707Y009965D01*
X018747Y010024D01*
X018774Y010089D01*
X018787Y010158D01*
X018787Y010174D01*
X018448Y010174D01*
X018448Y010212D01*
X018787Y010212D01*
X018787Y010229D01*
X018774Y010298D01*
X018747Y010363D01*
X018728Y010390D01*
X018984Y010390D01*
X020164Y009210D01*
X020132Y009242D02*
X019984Y009242D01*
X020033Y009341D02*
X019886Y009341D01*
X019935Y009439D02*
X019787Y009439D01*
X019836Y009538D02*
X019689Y009538D01*
X019738Y009636D02*
X019590Y009636D01*
X019639Y009735D02*
X019492Y009735D01*
X019541Y009833D02*
X019393Y009833D01*
X019442Y009932D02*
X018674Y009932D01*
X018749Y010030D02*
X019344Y010030D01*
X019245Y010129D02*
X018781Y010129D01*
X018787Y010227D02*
X019147Y010227D01*
X019048Y010326D02*
X018762Y010326D01*
X019402Y010424D02*
X020429Y010424D01*
X019808Y010818D02*
X024892Y010818D01*
X024990Y010917D02*
X019710Y010917D01*
X019611Y011015D02*
X025089Y011015D01*
X025187Y011114D02*
X019513Y011114D01*
X019414Y011212D02*
X025286Y011212D01*
X025384Y011311D02*
X019316Y011311D01*
X019217Y011409D02*
X025483Y011409D01*
X025547Y011508D02*
X025581Y011508D01*
X025594Y011606D02*
X025556Y011606D01*
X025189Y011606D02*
X025111Y011606D01*
X025111Y011508D02*
X025189Y011508D01*
X025111Y011705D02*
X023189Y011705D01*
X023189Y011698D02*
X023189Y011775D01*
X023556Y011775D01*
X023556Y011934D01*
X023546Y011972D01*
X023526Y012006D01*
X023498Y012034D01*
X023464Y012054D01*
X023426Y012064D01*
X023189Y012064D01*
X023189Y011775D01*
X023111Y011775D01*
X023111Y011698D01*
X022744Y011698D01*
X022744Y011540D01*
X022754Y011502D01*
X022774Y011467D01*
X022802Y011439D01*
X022836Y011420D01*
X022874Y011409D01*
X023111Y011409D01*
X023111Y011698D01*
X023189Y011698D01*
X023556Y011698D01*
X023556Y011540D01*
X023546Y011502D01*
X023526Y011467D01*
X023498Y011439D01*
X023464Y011420D01*
X023426Y011409D01*
X023189Y011409D01*
X023189Y011698D01*
X023111Y011705D02*
X018747Y011705D01*
X018747Y011803D02*
X022744Y011803D01*
X022744Y011775D02*
X023111Y011775D01*
X023111Y012064D01*
X022874Y012064D01*
X022836Y012054D01*
X022802Y012034D01*
X022774Y012006D01*
X022754Y011972D01*
X022744Y011934D01*
X022744Y011775D01*
X022744Y011902D02*
X018718Y011902D01*
X018647Y012000D02*
X022771Y012000D01*
X022829Y012296D02*
X018619Y012296D01*
X018610Y012286D02*
X018699Y012375D01*
X018747Y012492D01*
X018747Y012619D01*
X018699Y012736D01*
X018610Y012825D01*
X018493Y012873D01*
X018366Y012873D01*
X018250Y012825D01*
X018160Y012736D01*
X018112Y012619D01*
X018112Y012492D01*
X018160Y012375D01*
X018250Y012286D01*
X018366Y012238D01*
X018493Y012238D01*
X018610Y012286D01*
X018707Y012394D02*
X022784Y012394D01*
X022784Y012493D02*
X018747Y012493D01*
X018747Y012591D02*
X022784Y012591D01*
X022784Y012690D02*
X018718Y012690D01*
X018646Y012788D02*
X022786Y012788D01*
X022880Y012887D02*
X017960Y012887D01*
X017960Y012985D02*
X022880Y012985D01*
X022855Y013084D02*
X018620Y013084D01*
X018707Y013182D02*
X022852Y013182D01*
X022880Y013281D02*
X018747Y013281D01*
X018747Y013379D02*
X022880Y013379D01*
X023420Y013379D02*
X024957Y013379D01*
X024981Y013403D02*
X024897Y013319D01*
X024852Y013209D01*
X024852Y013091D01*
X024880Y013023D01*
X024880Y012851D01*
X024849Y012851D01*
X024784Y012786D01*
X024784Y012341D01*
X024849Y012276D01*
X025451Y012276D01*
X025516Y012341D01*
X025516Y012786D01*
X025451Y012851D01*
X025420Y012851D01*
X025420Y013023D01*
X025448Y013091D01*
X025448Y013209D01*
X025403Y013319D01*
X025319Y013403D01*
X025209Y013448D01*
X025091Y013448D01*
X024981Y013403D01*
X024881Y013281D02*
X023420Y013281D01*
X023448Y013182D02*
X024852Y013182D01*
X024855Y013084D02*
X023445Y013084D01*
X023420Y012985D02*
X024880Y012985D01*
X024880Y012887D02*
X023420Y012887D01*
X023514Y012788D02*
X024786Y012788D01*
X024784Y012690D02*
X023516Y012690D01*
X023516Y012591D02*
X024784Y012591D01*
X024784Y012493D02*
X023516Y012493D01*
X023516Y012394D02*
X024784Y012394D01*
X024829Y012296D02*
X023471Y012296D01*
X023529Y012000D02*
X024771Y012000D01*
X024744Y011902D02*
X023556Y011902D01*
X023556Y011803D02*
X024744Y011803D01*
X024744Y011606D02*
X023556Y011606D01*
X023547Y011508D02*
X024753Y011508D01*
X025111Y011803D02*
X025189Y011803D01*
X025189Y011902D02*
X025111Y011902D01*
X025111Y012000D02*
X025189Y012000D01*
X025529Y012000D02*
X025653Y012000D01*
X025582Y011902D02*
X025556Y011902D01*
X025471Y012296D02*
X025681Y012296D01*
X025690Y012286D02*
X025807Y012238D01*
X025934Y012238D01*
X026050Y012286D01*
X026140Y012375D01*
X026188Y012492D01*
X026188Y012619D01*
X026140Y012736D01*
X026050Y012825D01*
X025934Y012873D01*
X025807Y012873D01*
X025690Y012825D01*
X025601Y012736D01*
X025553Y012619D01*
X025553Y012492D01*
X025601Y012375D01*
X025690Y012286D01*
X025593Y012394D02*
X025516Y012394D01*
X025516Y012493D02*
X025553Y012493D01*
X025553Y012591D02*
X025516Y012591D01*
X025516Y012690D02*
X025582Y012690D01*
X025514Y012788D02*
X025654Y012788D01*
X025420Y012887D02*
X026340Y012887D01*
X026340Y012886D02*
X026388Y012769D01*
X026478Y012680D01*
X026595Y012631D01*
X026721Y012631D01*
X026838Y012680D01*
X026927Y012769D01*
X026976Y012886D01*
X026976Y013012D01*
X026927Y013129D01*
X026838Y013219D01*
X026721Y013267D01*
X026595Y013267D01*
X026478Y013219D01*
X026388Y013129D01*
X026340Y013012D01*
X026340Y012886D01*
X026340Y012985D02*
X025420Y012985D01*
X025445Y013084D02*
X025680Y013084D01*
X025690Y013073D02*
X025807Y013025D01*
X025934Y013025D01*
X026050Y013073D01*
X026140Y013163D01*
X026188Y013280D01*
X026188Y013406D01*
X026140Y013523D01*
X026050Y013612D01*
X025934Y013661D01*
X025807Y013661D01*
X025690Y013612D01*
X025601Y013523D01*
X025553Y013406D01*
X025553Y013280D01*
X025601Y013163D01*
X025690Y013073D01*
X025593Y013182D02*
X025448Y013182D01*
X025419Y013281D02*
X025553Y013281D01*
X025553Y013379D02*
X025343Y013379D01*
X025582Y013478D02*
X024359Y013478D01*
X024458Y013576D02*
X025654Y013576D01*
X026087Y013576D02*
X026380Y013576D01*
X026388Y013557D02*
X026478Y013467D01*
X026595Y013419D01*
X026721Y013419D01*
X026838Y013467D01*
X026927Y013557D01*
X026976Y013673D01*
X026976Y013800D01*
X026927Y013917D01*
X026838Y014006D01*
X026721Y014054D01*
X026595Y014054D01*
X026478Y014006D01*
X026388Y013917D01*
X026340Y013800D01*
X026340Y013673D01*
X026388Y013557D01*
X026468Y013478D02*
X026159Y013478D01*
X026188Y013379D02*
X028112Y013379D01*
X028112Y013281D02*
X026188Y013281D01*
X026148Y013182D02*
X026441Y013182D01*
X026370Y013084D02*
X026061Y013084D01*
X026087Y012788D02*
X026381Y012788D01*
X026468Y012690D02*
X026159Y012690D01*
X026188Y012591D02*
X028112Y012591D01*
X028112Y012619D02*
X028112Y012492D01*
X028160Y012375D01*
X028250Y012286D01*
X028366Y012238D01*
X028493Y012238D01*
X028610Y012286D01*
X028689Y012366D01*
X029241Y012366D01*
X029274Y012399D01*
X029362Y012399D01*
X029472Y012444D01*
X029556Y012528D01*
X029601Y012638D01*
X029601Y012756D01*
X029556Y012866D01*
X029472Y012950D01*
X029362Y012995D01*
X029244Y012995D01*
X029134Y012950D01*
X029050Y012866D01*
X029005Y012756D01*
X029005Y012746D01*
X028689Y012746D01*
X028610Y012825D01*
X028493Y012873D01*
X028366Y012873D01*
X028250Y012825D01*
X028160Y012736D01*
X028112Y012619D01*
X028141Y012690D02*
X027832Y012690D01*
X027822Y012680D02*
X027912Y012769D01*
X027960Y012886D01*
X027960Y013012D01*
X027912Y013129D01*
X027822Y013219D01*
X027705Y013267D01*
X027579Y013267D01*
X027462Y013219D01*
X027373Y013129D01*
X027324Y013012D01*
X027324Y012886D01*
X027373Y012769D01*
X027462Y012680D01*
X027579Y012631D01*
X027705Y012631D01*
X027822Y012680D01*
X027919Y012788D02*
X028213Y012788D01*
X027960Y012887D02*
X029071Y012887D01*
X029018Y012788D02*
X028646Y012788D01*
X029220Y012985D02*
X027960Y012985D01*
X027930Y013084D02*
X028239Y013084D01*
X028152Y013182D02*
X027859Y013182D01*
X027895Y013419D02*
X027389Y013419D01*
X027324Y013483D01*
X027324Y013990D01*
X027389Y014054D01*
X027895Y014054D01*
X027960Y013990D01*
X027960Y013483D01*
X027895Y013419D01*
X027954Y013478D02*
X028141Y013478D01*
X028213Y013576D02*
X027960Y013576D01*
X027960Y013675D02*
X029204Y013675D01*
X029159Y013773D02*
X027960Y013773D01*
X027960Y013872D02*
X029152Y013872D01*
X029160Y013970D02*
X027960Y013970D01*
X027324Y013970D02*
X026874Y013970D01*
X026946Y013872D02*
X027324Y013872D01*
X027324Y013773D02*
X026976Y013773D01*
X026976Y013675D02*
X027324Y013675D01*
X027324Y013576D02*
X026935Y013576D01*
X026848Y013478D02*
X027330Y013478D01*
X027426Y013182D02*
X026874Y013182D01*
X026946Y013084D02*
X027354Y013084D01*
X027324Y012985D02*
X026976Y012985D01*
X026976Y012887D02*
X027324Y012887D01*
X027365Y012788D02*
X026935Y012788D01*
X026848Y012690D02*
X027452Y012690D01*
X027425Y012394D02*
X026875Y012394D01*
X027031Y012296D02*
X027354Y012296D01*
X027324Y012197D02*
X027129Y012197D01*
X027228Y012099D02*
X027324Y012099D01*
X027326Y012000D02*
X027365Y012000D01*
X027071Y011803D02*
X026525Y011803D01*
X026575Y011852D02*
X026595Y011844D01*
X026721Y011844D01*
X026838Y011892D01*
X026910Y011964D01*
X027190Y011684D01*
X027284Y011590D01*
X027356Y011590D01*
X027325Y011544D01*
X027298Y011479D01*
X027284Y011410D01*
X027284Y011393D01*
X027623Y011393D01*
X027623Y011356D01*
X027284Y011356D01*
X027284Y011339D01*
X027298Y011270D01*
X027325Y011205D01*
X027333Y011194D01*
X026992Y011534D01*
X026936Y011534D01*
X026927Y011554D01*
X026838Y011644D01*
X026721Y011692D01*
X026595Y011692D01*
X026478Y011644D01*
X026388Y011554D01*
X026340Y011438D01*
X026340Y011311D01*
X026348Y011291D01*
X026198Y011141D01*
X026148Y011141D01*
X026140Y011161D01*
X026050Y011250D01*
X025934Y011299D01*
X025825Y011299D01*
X025937Y011410D01*
X026007Y011481D01*
X026050Y011499D01*
X026140Y011588D01*
X026148Y011608D01*
X026330Y011608D01*
X026575Y011852D01*
X026427Y011705D02*
X027169Y011705D01*
X027268Y011606D02*
X026876Y011606D01*
X027019Y011508D02*
X027310Y011508D01*
X027284Y011409D02*
X027117Y011409D01*
X027216Y011311D02*
X027290Y011311D01*
X027314Y011212D02*
X027322Y011212D01*
X027059Y011015D02*
X026525Y011015D01*
X026269Y011212D02*
X026089Y011212D01*
X025935Y011409D02*
X026340Y011409D01*
X026340Y011311D02*
X025837Y011311D01*
X026059Y011508D02*
X026369Y011508D01*
X026440Y011606D02*
X026147Y011606D01*
X026088Y012000D02*
X026270Y012000D01*
X026340Y012099D02*
X017960Y012099D01*
X017960Y012197D02*
X026340Y012197D01*
X026369Y012296D02*
X026060Y012296D01*
X026148Y012394D02*
X026441Y012394D01*
X026188Y012493D02*
X028112Y012493D01*
X028152Y012394D02*
X027859Y012394D01*
X027931Y012296D02*
X028240Y012296D01*
X027960Y012197D02*
X030252Y012197D01*
X030252Y012099D02*
X027960Y012099D01*
X027919Y012000D02*
X028212Y012000D01*
X028141Y011902D02*
X027925Y011902D01*
X028023Y011803D02*
X028112Y011803D01*
X028647Y012000D02*
X030289Y012000D01*
X030178Y012296D02*
X028619Y012296D01*
X029269Y012394D02*
X030080Y012394D01*
X029981Y012493D02*
X029520Y012493D01*
X029582Y012591D02*
X029883Y012591D01*
X029784Y012690D02*
X029601Y012690D01*
X029588Y012788D02*
X029686Y012788D01*
X029587Y012887D02*
X029535Y012887D01*
X029489Y012985D02*
X029386Y012985D01*
X029390Y013084D02*
X028620Y013084D01*
X028707Y013182D02*
X029292Y013182D01*
X029568Y013576D02*
X033832Y013576D01*
X033704Y013675D02*
X029696Y013675D01*
X029741Y013773D02*
X033659Y013773D01*
X033652Y013872D02*
X029748Y013872D01*
X029723Y013970D02*
X033677Y013970D01*
X033747Y014069D02*
X029653Y014069D01*
X029160Y014069D02*
X024950Y014069D01*
X024852Y013970D02*
X026442Y013970D01*
X026370Y013872D02*
X024753Y013872D01*
X024655Y013773D02*
X026340Y013773D01*
X026340Y013675D02*
X024556Y013675D01*
X024187Y014069D02*
X023450Y014069D01*
X023549Y014167D02*
X024285Y014167D01*
X024384Y014266D02*
X023647Y014266D01*
X023746Y014364D02*
X024482Y014364D01*
X024581Y014463D02*
X023844Y014463D01*
X023943Y014561D02*
X024679Y014561D01*
X024088Y013970D02*
X020212Y013970D01*
X019645Y013773D02*
X017960Y013773D01*
X017960Y013675D02*
X019744Y013675D01*
X019842Y013576D02*
X018646Y013576D01*
X018718Y013478D02*
X019941Y013478D01*
X019921Y013497D02*
X019921Y013497D01*
X019547Y013872D02*
X017960Y013872D01*
X017960Y013970D02*
X019448Y013970D01*
X019350Y014069D02*
X015653Y014069D01*
X015450Y013850D02*
X015950Y013850D01*
X016457Y013343D01*
X018430Y013343D01*
X018213Y013576D02*
X017960Y013576D01*
X017324Y013576D02*
X016935Y013576D01*
X016976Y013675D02*
X017324Y013675D01*
X017324Y013773D02*
X016976Y013773D01*
X016946Y013872D02*
X017324Y013872D01*
X017324Y013970D02*
X016874Y013970D01*
X016442Y013970D02*
X016056Y013970D01*
X016155Y013872D02*
X016370Y013872D01*
X016340Y013773D02*
X016253Y013773D01*
X015899Y013675D02*
X015696Y013675D01*
X015654Y013576D02*
X015568Y013576D01*
X015582Y013478D02*
X014448Y013478D01*
X014443Y013379D02*
X015553Y013379D01*
X015553Y013281D02*
X014420Y013281D01*
X014420Y013182D02*
X015593Y013182D01*
X015680Y013084D02*
X014420Y013084D01*
X014420Y012985D02*
X016340Y012985D01*
X016340Y012887D02*
X014420Y012887D01*
X014420Y012788D02*
X015654Y012788D01*
X015690Y012825D02*
X015601Y012736D01*
X015553Y012619D01*
X015553Y012492D01*
X015601Y012375D01*
X015690Y012286D01*
X015807Y012238D01*
X015934Y012238D01*
X016050Y012286D01*
X016140Y012375D01*
X016188Y012492D01*
X016188Y012619D01*
X016140Y012736D01*
X016050Y012825D01*
X015934Y012873D01*
X015807Y012873D01*
X015690Y012825D01*
X015582Y012690D02*
X014420Y012690D01*
X014420Y012591D02*
X015553Y012591D01*
X015553Y012493D02*
X014448Y012493D01*
X014448Y012394D02*
X015593Y012394D01*
X015681Y012296D02*
X014409Y012296D01*
X014318Y012197D02*
X016340Y012197D01*
X016340Y012099D02*
X010645Y012099D01*
X010645Y012197D02*
X013982Y012197D01*
X013891Y012296D02*
X010609Y012296D01*
X010524Y012394D02*
X013852Y012394D01*
X013852Y012493D02*
X010507Y012493D01*
X010507Y012591D02*
X013880Y012591D01*
X013880Y012690D02*
X010507Y012690D01*
X010507Y012788D02*
X013880Y012788D01*
X013880Y012887D02*
X010507Y012887D01*
X010507Y012985D02*
X013880Y012985D01*
X013880Y013084D02*
X010443Y013084D01*
X010344Y013182D02*
X013880Y013182D01*
X013880Y013281D02*
X010246Y013281D01*
X010150Y013150D02*
X010347Y012953D01*
X010347Y012150D01*
X010607Y012000D02*
X015653Y012000D01*
X015582Y011902D02*
X010520Y011902D01*
X010150Y013150D02*
X008622Y013150D01*
X008430Y013343D01*
X008646Y013576D02*
X013532Y013576D01*
X013404Y013675D02*
X009464Y013675D01*
X009595Y013773D02*
X013359Y013773D01*
X013352Y013872D02*
X009640Y013872D01*
X009648Y013970D02*
X013377Y013970D01*
X013447Y014069D02*
X009624Y014069D01*
X009076Y014069D02*
X005450Y014069D01*
X005352Y013970D02*
X006442Y013970D01*
X006370Y013872D02*
X005253Y013872D01*
X005155Y013773D02*
X006340Y013773D01*
X006340Y013675D02*
X005056Y013675D01*
X004194Y013576D02*
X003324Y013576D01*
X003473Y013478D02*
X004096Y013478D01*
X002690Y013872D02*
X002350Y013872D01*
X002350Y013970D02*
X002690Y013970D01*
X002690Y014069D02*
X002350Y014069D01*
X002350Y014167D02*
X002690Y014167D01*
X002690Y014266D02*
X002350Y014266D01*
X002350Y014364D02*
X002690Y014364D01*
X002690Y014463D02*
X002350Y014463D01*
X002350Y014561D02*
X002705Y014561D01*
X002617Y014660D02*
X002350Y014660D01*
X002350Y014758D02*
X002366Y014758D01*
X003595Y014561D02*
X004179Y014561D01*
X004081Y014463D02*
X003610Y014463D01*
X003730Y014660D02*
X004278Y014660D01*
X004376Y014758D02*
X003903Y014758D01*
X003735Y014661D02*
X003735Y014661D01*
X004074Y014857D02*
X004475Y014857D01*
X004573Y014955D02*
X004200Y014955D01*
X004148Y014899D02*
X004148Y014899D01*
X004148Y014899D01*
X004291Y015054D02*
X004672Y015054D01*
X004721Y015103D02*
X004721Y015103D01*
X004770Y015152D02*
X004382Y015152D01*
X004472Y015249D02*
X004472Y015249D01*
X004473Y015251D02*
X006035Y015251D01*
X006094Y015226D02*
X006238Y015226D01*
X006370Y015281D01*
X006472Y015383D01*
X006527Y015515D01*
X006527Y015659D01*
X006472Y015791D01*
X006370Y015893D01*
X006238Y015948D01*
X006094Y015948D01*
X005961Y015893D01*
X005860Y015791D01*
X005805Y015659D01*
X005805Y015515D01*
X005860Y015383D01*
X005961Y015281D01*
X006094Y015226D01*
X006297Y015251D02*
X008003Y015251D01*
X008062Y015226D02*
X008206Y015226D01*
X008339Y015281D01*
X008440Y015383D01*
X008495Y015515D01*
X008495Y015659D01*
X008440Y015791D01*
X008339Y015893D01*
X008206Y015948D01*
X008062Y015948D01*
X007930Y015893D01*
X007828Y015791D01*
X007773Y015659D01*
X007773Y015515D01*
X007828Y015383D01*
X007930Y015281D01*
X008062Y015226D01*
X008265Y015251D02*
X013069Y015251D01*
X013052Y015349D02*
X008407Y015349D01*
X008467Y015448D02*
X013068Y015448D01*
X013124Y015546D02*
X008495Y015546D01*
X008495Y015645D02*
X013282Y015645D01*
X013418Y015645D02*
X014134Y015645D01*
X014097Y015681D02*
X014181Y015597D01*
X014291Y015552D01*
X014409Y015552D01*
X014519Y015597D01*
X014603Y015681D01*
X014648Y015791D01*
X014648Y015909D01*
X014603Y016019D01*
X014540Y016082D01*
X014540Y016529D01*
X014429Y016640D01*
X014129Y016940D01*
X011071Y016940D01*
X010760Y016629D01*
X010760Y016382D01*
X010697Y016319D01*
X010652Y016209D01*
X010652Y016091D01*
X010697Y015981D01*
X010781Y015897D01*
X010891Y015852D01*
X011009Y015852D01*
X011119Y015897D01*
X011203Y015981D01*
X011242Y016076D01*
X011246Y016049D01*
X011267Y015985D01*
X011298Y015925D01*
X011338Y015870D01*
X011386Y015822D01*
X011440Y015782D01*
X011501Y015752D01*
X011565Y015731D01*
X011632Y015720D01*
X011647Y015720D01*
X011647Y016131D01*
X011685Y016131D01*
X011685Y016169D01*
X012096Y016169D01*
X012096Y016184D01*
X012085Y016251D01*
X012064Y016315D01*
X012034Y016375D01*
X011994Y016430D01*
X011946Y016478D01*
X011891Y016518D01*
X011831Y016548D01*
X011795Y016560D01*
X013971Y016560D01*
X014160Y016371D01*
X014160Y016082D01*
X014097Y016019D01*
X014052Y015909D01*
X014052Y015791D01*
X014097Y015681D01*
X014072Y015743D02*
X011805Y015743D01*
X011831Y015752D02*
X011891Y015782D01*
X011946Y015822D01*
X011994Y015870D01*
X012034Y015925D01*
X012064Y015985D01*
X012085Y016049D01*
X012096Y016116D01*
X012096Y016131D01*
X011685Y016131D01*
X011685Y015720D01*
X011700Y015720D01*
X011766Y015731D01*
X011831Y015752D01*
X011685Y015743D02*
X011647Y015743D01*
X011647Y015842D02*
X011685Y015842D01*
X011685Y015940D02*
X011647Y015940D01*
X011647Y016039D02*
X011685Y016039D01*
X011685Y016137D02*
X013244Y016137D01*
X013244Y016072D02*
X013304Y015929D01*
X013413Y015819D01*
X013557Y015760D01*
X013712Y015760D01*
X013855Y015819D01*
X013965Y015929D01*
X014024Y016072D01*
X014024Y016228D01*
X013965Y016371D01*
X013855Y016481D01*
X013712Y016540D01*
X013557Y016540D01*
X013413Y016481D01*
X013304Y016371D01*
X013244Y016228D01*
X013244Y016072D01*
X013258Y016039D02*
X012082Y016039D01*
X012041Y015940D02*
X013299Y015940D01*
X013391Y015842D02*
X011965Y015842D01*
X011527Y015743D02*
X008460Y015743D01*
X008390Y015842D02*
X011366Y015842D01*
X011290Y015940D02*
X011162Y015940D01*
X011227Y016039D02*
X011250Y016039D01*
X010738Y015940D02*
X008225Y015940D01*
X008043Y015940D02*
X006257Y015940D01*
X006075Y015940D02*
X004718Y015940D01*
X004704Y015842D02*
X005910Y015842D01*
X005840Y015743D02*
X004689Y015743D01*
X004663Y015645D02*
X005805Y015645D01*
X005805Y015546D02*
X004615Y015546D01*
X004568Y015448D02*
X005833Y015448D01*
X005893Y015349D02*
X004520Y015349D01*
X004733Y016039D02*
X010673Y016039D01*
X010652Y016137D02*
X004748Y016137D01*
X004737Y016236D02*
X010663Y016236D01*
X010712Y016334D02*
X008785Y016334D01*
X008877Y016433D02*
X010760Y016433D01*
X010760Y016531D02*
X008917Y016531D01*
X008933Y016630D02*
X010761Y016630D01*
X010859Y016728D02*
X008933Y016728D01*
X008893Y016827D02*
X010958Y016827D01*
X011056Y016925D02*
X008826Y016925D01*
X008230Y016925D02*
X006070Y016925D01*
X006138Y016827D02*
X008162Y016827D01*
X008123Y016728D02*
X006177Y016728D01*
X006177Y016630D02*
X008123Y016630D01*
X008139Y016531D02*
X006161Y016531D01*
X006121Y016433D02*
X008179Y016433D01*
X008271Y016334D02*
X006029Y016334D01*
X005515Y016334D02*
X004722Y016334D01*
X004707Y016433D02*
X005423Y016433D01*
X005383Y016531D02*
X004693Y016531D01*
X004679Y016622D02*
X004679Y016622D01*
X004675Y016630D02*
X005367Y016630D01*
X005367Y016728D02*
X004628Y016728D01*
X004580Y016827D02*
X005407Y016827D01*
X005474Y016925D02*
X004533Y016925D01*
X006422Y015842D02*
X007878Y015842D01*
X007808Y015743D02*
X006492Y015743D01*
X006527Y015645D02*
X007773Y015645D01*
X007773Y015546D02*
X006527Y015546D01*
X006499Y015448D02*
X007801Y015448D01*
X007862Y015349D02*
X006438Y015349D01*
X008718Y013478D02*
X013852Y013478D01*
X013857Y013379D02*
X008747Y013379D01*
X007365Y012000D02*
X007226Y012000D01*
X013650Y013850D02*
X015450Y013850D01*
X015332Y013576D02*
X014420Y013576D01*
X014347Y013675D02*
X015204Y013675D01*
X016188Y013379D02*
X016195Y013379D01*
X016188Y013281D02*
X016293Y013281D01*
X016148Y013182D02*
X016441Y013182D01*
X016370Y013084D02*
X016061Y013084D01*
X016087Y012788D02*
X016381Y012788D01*
X016468Y012690D02*
X016159Y012690D01*
X016188Y012591D02*
X018112Y012591D01*
X018112Y012493D02*
X016188Y012493D01*
X016148Y012394D02*
X016441Y012394D01*
X016369Y012296D02*
X016060Y012296D01*
X016088Y012000D02*
X016270Y012000D01*
X016525Y011803D02*
X016790Y011803D01*
X017046Y012000D02*
X017365Y012000D01*
X017324Y012099D02*
X016976Y012099D01*
X016976Y012197D02*
X017324Y012197D01*
X017354Y012296D02*
X016946Y012296D01*
X016875Y012394D02*
X017425Y012394D01*
X017452Y012690D02*
X016848Y012690D01*
X016935Y012788D02*
X017365Y012788D01*
X017324Y012887D02*
X016976Y012887D01*
X016976Y012985D02*
X017324Y012985D01*
X017354Y013084D02*
X016946Y013084D01*
X016874Y013182D02*
X017426Y013182D01*
X017859Y013182D02*
X018152Y013182D01*
X018239Y013084D02*
X017930Y013084D01*
X017919Y012788D02*
X018213Y012788D01*
X018141Y012690D02*
X017832Y012690D01*
X017859Y012394D02*
X018152Y012394D01*
X018240Y012296D02*
X017931Y012296D01*
X017919Y012000D02*
X018212Y012000D01*
X018141Y011902D02*
X017925Y011902D01*
X018023Y011803D02*
X018112Y011803D01*
X018706Y011606D02*
X022744Y011606D01*
X022753Y011508D02*
X019119Y011508D01*
X016988Y010818D02*
X016876Y010818D01*
X016889Y010917D02*
X016426Y010917D01*
X016439Y010818D02*
X016147Y010818D01*
X016059Y010720D02*
X016369Y010720D01*
X016340Y010621D02*
X015669Y010621D01*
X015682Y010720D02*
X015571Y010720D01*
X015594Y010818D02*
X015472Y010818D01*
X015768Y010523D02*
X016341Y010523D01*
X016269Y010424D02*
X016089Y010424D01*
X016525Y011015D02*
X016791Y011015D01*
X016340Y011311D02*
X015639Y011311D01*
X015652Y011212D02*
X015541Y011212D01*
X016089Y011212D02*
X016269Y011212D01*
X013880Y013576D02*
X013768Y013576D01*
X013896Y013675D02*
X013953Y013675D01*
X013631Y015251D02*
X019869Y015251D01*
X019852Y015349D02*
X013648Y015349D01*
X013632Y015448D02*
X016123Y015448D01*
X016157Y015434D02*
X016252Y015408D01*
X016350Y015395D01*
X016350Y016100D01*
X015645Y016100D01*
X015658Y016002D01*
X015684Y015907D01*
X015721Y015815D01*
X015771Y015730D01*
X015831Y015651D01*
X015901Y015581D01*
X015980Y015521D01*
X016065Y015471D01*
X016157Y015434D01*
X016350Y015448D02*
X016450Y015448D01*
X016450Y015395D02*
X016548Y015408D01*
X016643Y015434D01*
X016735Y015471D01*
X016820Y015521D01*
X016899Y015581D01*
X016969Y015651D01*
X017029Y015730D01*
X017079Y015815D01*
X017116Y015907D01*
X017142Y016002D01*
X017155Y016100D01*
X016450Y016100D01*
X016450Y016200D01*
X016350Y016200D01*
X016350Y016905D01*
X016252Y016892D01*
X016157Y016866D01*
X016065Y016829D01*
X015980Y016779D01*
X015901Y016719D01*
X015831Y016649D01*
X015771Y016570D01*
X015721Y016485D01*
X015684Y016393D01*
X015658Y016298D01*
X015645Y016200D01*
X016350Y016200D01*
X016350Y016100D01*
X016450Y016100D01*
X016450Y015395D01*
X016450Y015546D02*
X016350Y015546D01*
X016350Y015645D02*
X016450Y015645D01*
X016450Y015743D02*
X016350Y015743D01*
X016350Y015842D02*
X016450Y015842D01*
X016450Y015940D02*
X016350Y015940D01*
X016350Y016039D02*
X016450Y016039D01*
X016450Y016137D02*
X017185Y016137D01*
X017155Y016200D02*
X017142Y016298D01*
X017116Y016393D01*
X017079Y016485D01*
X017029Y016570D01*
X016969Y016649D01*
X016899Y016719D01*
X016820Y016779D01*
X016735Y016829D01*
X016643Y016866D01*
X016548Y016892D01*
X016450Y016905D01*
X016450Y016200D01*
X017155Y016200D01*
X017150Y016236D02*
X017185Y016236D01*
X017185Y016292D02*
X017185Y016008D01*
X017294Y015745D01*
X017495Y015544D01*
X017758Y015435D01*
X018042Y015435D01*
X018305Y015544D01*
X018506Y015745D01*
X018615Y016008D01*
X018615Y016292D01*
X018506Y016555D01*
X018305Y016756D01*
X018042Y016865D01*
X017758Y016865D01*
X017495Y016756D01*
X017294Y016555D01*
X017185Y016292D01*
X017202Y016334D02*
X017132Y016334D01*
X017100Y016433D02*
X017243Y016433D01*
X017284Y016531D02*
X017052Y016531D01*
X016984Y016630D02*
X017368Y016630D01*
X017467Y016728D02*
X016887Y016728D01*
X016738Y016827D02*
X017665Y016827D01*
X018135Y016827D02*
X020703Y016827D01*
X020708Y016844D02*
X020708Y016844D01*
X020764Y016925D02*
X014144Y016925D01*
X014242Y016827D02*
X016062Y016827D01*
X015913Y016728D02*
X014341Y016728D01*
X014439Y016630D02*
X015816Y016630D01*
X015748Y016531D02*
X014538Y016531D01*
X014540Y016433D02*
X015700Y016433D01*
X015668Y016334D02*
X014540Y016334D01*
X014540Y016236D02*
X015650Y016236D01*
X015653Y016039D02*
X014583Y016039D01*
X014540Y016137D02*
X016350Y016137D01*
X016350Y016236D02*
X016450Y016236D01*
X016450Y016334D02*
X016350Y016334D01*
X016350Y016433D02*
X016450Y016433D01*
X016450Y016531D02*
X016350Y016531D01*
X016350Y016630D02*
X016450Y016630D01*
X016450Y016728D02*
X016350Y016728D01*
X016350Y016827D02*
X016450Y016827D01*
X017147Y016039D02*
X017185Y016039D01*
X017213Y015940D02*
X017125Y015940D01*
X017089Y015842D02*
X017254Y015842D01*
X017296Y015743D02*
X017037Y015743D01*
X016962Y015645D02*
X017394Y015645D01*
X017493Y015546D02*
X016853Y015546D01*
X016677Y015448D02*
X017728Y015448D01*
X018072Y015448D02*
X019868Y015448D01*
X019924Y015546D02*
X018307Y015546D01*
X018406Y015645D02*
X020082Y015645D01*
X020218Y015645D02*
X020650Y015645D01*
X020620Y015743D02*
X018504Y015743D01*
X018546Y015842D02*
X020589Y015842D01*
X020568Y015940D02*
X018587Y015940D01*
X018615Y016039D02*
X020568Y016039D01*
X020568Y016137D02*
X018615Y016137D01*
X018615Y016236D02*
X020568Y016236D01*
X020568Y016334D02*
X018598Y016334D01*
X018557Y016433D02*
X020581Y016433D01*
X020612Y016531D02*
X018516Y016531D01*
X018432Y016630D02*
X020642Y016630D01*
X020673Y016728D02*
X018333Y016728D01*
X020376Y015546D02*
X020681Y015546D01*
X020708Y015456D02*
X020708Y015456D01*
X020714Y015448D02*
X020432Y015448D01*
X020448Y015349D02*
X020781Y015349D01*
X020848Y015251D02*
X020431Y015251D01*
X020530Y015152D02*
X020916Y015152D01*
X020987Y015054D02*
X020628Y015054D01*
X020727Y014955D02*
X021111Y014955D01*
X021234Y014857D02*
X020825Y014857D01*
X020924Y014758D02*
X021366Y014758D01*
X021350Y014764D02*
X021350Y014764D01*
X021617Y014660D02*
X021022Y014660D01*
X021794Y014590D02*
X021794Y014590D01*
X023472Y015249D02*
X023472Y015249D01*
X023189Y012000D02*
X023111Y012000D01*
X023111Y011902D02*
X023189Y011902D01*
X023189Y011803D02*
X023111Y011803D01*
X023111Y011606D02*
X023189Y011606D01*
X023189Y011508D02*
X023111Y011508D01*
X026846Y011114D02*
X026960Y011114D01*
X027661Y011356D02*
X027661Y011393D01*
X027980Y011393D01*
X028090Y011284D01*
X028158Y011215D01*
X028152Y011209D01*
X028112Y011150D01*
X028085Y011085D01*
X028072Y011016D01*
X028072Y011000D01*
X028411Y011000D01*
X028411Y010962D01*
X028072Y010962D01*
X028072Y010955D01*
X027916Y011110D01*
X027884Y011110D01*
X027920Y011146D01*
X027959Y011205D01*
X027986Y011270D01*
X028000Y011339D01*
X028000Y011356D01*
X027661Y011356D01*
X027887Y011114D02*
X028097Y011114D01*
X028072Y011015D02*
X028011Y011015D01*
X027962Y011212D02*
X028155Y011212D01*
X028063Y011311D02*
X027994Y011311D01*
X028762Y011114D02*
X029287Y011114D01*
X029189Y011015D02*
X028787Y011015D01*
X028782Y010917D02*
X029090Y010917D01*
X028992Y010818D02*
X028749Y010818D01*
X028674Y010720D02*
X028893Y010720D01*
X029346Y010720D02*
X035682Y010720D01*
X035594Y010818D02*
X029444Y010818D01*
X029550Y010050D02*
X029950Y010050D01*
X030550Y009450D01*
X030550Y008150D01*
X028990Y007371D02*
X027958Y007371D01*
X027960Y007469D02*
X028905Y007469D01*
X028806Y007568D02*
X028615Y007568D01*
X028705Y007666D02*
X028708Y007666D01*
X028244Y007568D02*
X027932Y007568D01*
X027918Y007272D02*
X028208Y007272D01*
X028139Y007174D02*
X027828Y007174D01*
X027457Y007174D02*
X026843Y007174D01*
X026827Y006967D02*
X026886Y006928D01*
X026936Y006878D01*
X023408Y004120D02*
X039896Y004120D01*
X039829Y004022D02*
X023486Y004022D01*
X023534Y003923D02*
X039762Y003923D01*
X039702Y003825D02*
X023581Y003825D01*
X023629Y003726D02*
X039672Y003726D01*
X039642Y003628D02*
X023676Y003628D01*
X023693Y003529D02*
X039611Y003529D01*
X039581Y003431D02*
X023708Y003431D01*
X023723Y003332D02*
X039568Y003332D01*
X039568Y003234D02*
X023737Y003234D01*
X023748Y003135D02*
X039568Y003135D01*
X039568Y003037D02*
X023733Y003037D01*
X023718Y002938D02*
X039568Y002938D01*
X039590Y002840D02*
X023703Y002840D01*
X023688Y002741D02*
X039620Y002741D01*
X039651Y002643D02*
X023662Y002643D01*
X023614Y002544D02*
X039681Y002544D01*
X039715Y002446D02*
X023567Y002446D01*
X032150Y006450D02*
X032450Y006150D01*
X033350Y006150D01*
X033850Y006650D01*
X033150Y008150D02*
X032150Y007150D01*
X032150Y006450D01*
X034321Y005401D02*
X034479Y005401D01*
X038705Y008454D02*
X040620Y008454D01*
X038921Y008553D02*
X038746Y008553D01*
X038747Y008651D02*
X038823Y008651D01*
X038724Y008750D02*
X038719Y008750D01*
X038076Y010250D02*
X038016Y010310D01*
X037871Y010310D01*
X037920Y010359D01*
X037959Y010418D01*
X037986Y010483D01*
X038000Y010552D01*
X038000Y010568D01*
X037661Y010568D01*
X037661Y010606D01*
X037968Y010606D01*
X038090Y010484D01*
X038152Y010422D01*
X038152Y010421D01*
X038112Y010363D01*
X038085Y010298D01*
X038076Y010250D01*
X038097Y010326D02*
X037887Y010326D01*
X037962Y010424D02*
X038150Y010424D01*
X038051Y010523D02*
X037994Y010523D01*
X038072Y010955D02*
X037916Y011110D01*
X037884Y011110D01*
X037920Y011146D01*
X037959Y011205D01*
X037986Y011270D01*
X038000Y011339D01*
X038000Y011356D01*
X037661Y011356D01*
X037661Y011393D01*
X037980Y011393D01*
X038090Y011284D01*
X038090Y011284D01*
X038158Y011215D01*
X038152Y011209D01*
X038112Y011150D01*
X038085Y011085D01*
X038072Y011016D01*
X038072Y011000D01*
X038411Y011000D01*
X038411Y010962D01*
X038072Y010962D01*
X038072Y010955D01*
X038072Y011015D02*
X038011Y011015D01*
X038097Y011114D02*
X037887Y011114D01*
X037962Y011212D02*
X038155Y011212D01*
X038063Y011311D02*
X037994Y011311D01*
X038023Y011803D02*
X038112Y011803D01*
X038141Y011902D02*
X037925Y011902D01*
X037919Y012000D02*
X038212Y012000D01*
X037960Y012099D02*
X040652Y012099D01*
X040651Y012102D02*
X040662Y012033D01*
X040687Y011958D01*
X040722Y011888D01*
X040769Y011824D01*
X040824Y011769D01*
X040888Y011722D01*
X040958Y011687D01*
X041033Y011662D01*
X041102Y011651D01*
X041102Y012102D01*
X041198Y012102D01*
X041198Y012198D01*
X041649Y012198D01*
X041638Y012267D01*
X041613Y012342D01*
X041578Y012412D01*
X041531Y012476D01*
X041476Y012531D01*
X041412Y012578D01*
X041342Y012613D01*
X041267Y012638D01*
X041198Y012649D01*
X041198Y012198D01*
X041102Y012198D01*
X041102Y012102D01*
X040651Y012102D01*
X040651Y012198D02*
X041102Y012198D01*
X041102Y012649D01*
X041033Y012638D01*
X040958Y012613D01*
X040888Y012578D01*
X040824Y012531D01*
X040769Y012476D01*
X040722Y012412D01*
X040687Y012342D01*
X040662Y012267D01*
X040651Y012198D01*
X040672Y012296D02*
X038619Y012296D01*
X038610Y012286D02*
X038699Y012375D01*
X038747Y012492D01*
X038747Y012619D01*
X038699Y012736D01*
X038610Y012825D01*
X038493Y012873D01*
X038366Y012873D01*
X038250Y012825D01*
X038160Y012736D01*
X038112Y012619D01*
X038112Y012492D01*
X038160Y012375D01*
X038250Y012286D01*
X038366Y012238D01*
X038493Y012238D01*
X038610Y012286D01*
X038707Y012394D02*
X040713Y012394D01*
X040785Y012493D02*
X038747Y012493D01*
X038747Y012591D02*
X040914Y012591D01*
X041102Y012591D02*
X041198Y012591D01*
X041198Y012493D02*
X041102Y012493D01*
X041102Y012394D02*
X041198Y012394D01*
X041198Y012296D02*
X041102Y012296D01*
X041102Y012197D02*
X037960Y012197D01*
X037931Y012296D02*
X038240Y012296D01*
X038152Y012394D02*
X037859Y012394D01*
X038112Y012493D02*
X036188Y012493D01*
X036188Y012591D02*
X038112Y012591D01*
X038141Y012690D02*
X037832Y012690D01*
X037919Y012788D02*
X038213Y012788D01*
X037960Y012887D02*
X040081Y012887D01*
X039933Y012985D02*
X037960Y012985D01*
X037930Y013084D02*
X038239Y013084D01*
X038152Y013182D02*
X037859Y013182D01*
X037426Y013182D02*
X036874Y013182D01*
X036946Y013084D02*
X037354Y013084D01*
X037324Y012985D02*
X036976Y012985D01*
X036976Y012887D02*
X037324Y012887D01*
X037365Y012788D02*
X036935Y012788D01*
X036848Y012690D02*
X037452Y012690D01*
X037425Y012394D02*
X036875Y012394D01*
X036946Y012296D02*
X037354Y012296D01*
X037324Y012197D02*
X036976Y012197D01*
X036976Y012099D02*
X037324Y012099D01*
X037365Y012000D02*
X037046Y012000D01*
X036790Y011803D02*
X036525Y011803D01*
X036270Y012000D02*
X036088Y012000D01*
X036060Y012296D02*
X036369Y012296D01*
X036441Y012394D02*
X036148Y012394D01*
X036159Y012690D02*
X036468Y012690D01*
X036381Y012788D02*
X036087Y012788D01*
X036061Y013084D02*
X036370Y013084D01*
X036441Y013182D02*
X036148Y013182D01*
X036188Y013281D02*
X036293Y013281D01*
X036195Y013379D02*
X036188Y013379D01*
X038620Y013084D02*
X039835Y013084D01*
X039736Y013182D02*
X038707Y013182D01*
X038747Y013281D02*
X039638Y013281D01*
X039539Y013379D02*
X038747Y013379D01*
X038718Y013478D02*
X039441Y013478D01*
X040106Y013576D02*
X040976Y013576D01*
X040827Y013478D02*
X040204Y013478D01*
X040861Y012788D02*
X038646Y012788D01*
X038718Y012690D02*
X041950Y012690D01*
X041950Y012788D02*
X041439Y012788D01*
X041537Y012887D02*
X041950Y012887D01*
X041950Y012985D02*
X041580Y012985D01*
X041610Y013084D02*
X041950Y013084D01*
X041950Y013182D02*
X041610Y013182D01*
X041594Y013281D02*
X041950Y013281D01*
X041950Y013379D02*
X041553Y013379D01*
X041473Y013478D02*
X041950Y013478D01*
X041950Y013576D02*
X041324Y013576D01*
X041386Y012591D02*
X041950Y012591D01*
X041950Y012493D02*
X041515Y012493D01*
X041587Y012394D02*
X041950Y012394D01*
X041950Y012296D02*
X041628Y012296D01*
X041649Y012102D02*
X041198Y012102D01*
X041198Y011651D01*
X041267Y011662D01*
X041342Y011687D01*
X041412Y011722D01*
X041476Y011769D01*
X041531Y011824D01*
X041578Y011888D01*
X041613Y011958D01*
X041638Y012033D01*
X041649Y012102D01*
X041648Y012099D02*
X041950Y012099D01*
X041950Y012197D02*
X041198Y012197D01*
X041198Y012099D02*
X041102Y012099D01*
X041102Y012000D02*
X041198Y012000D01*
X041198Y011902D02*
X041102Y011902D01*
X041102Y011803D02*
X041198Y011803D01*
X041198Y011705D02*
X041102Y011705D01*
X041049Y011606D02*
X038706Y011606D01*
X038747Y011705D02*
X040923Y011705D01*
X040790Y011803D02*
X038747Y011803D01*
X038718Y011902D02*
X040715Y011902D01*
X040673Y012000D02*
X038647Y012000D01*
X038819Y011508D02*
X040857Y011508D01*
X040759Y011409D02*
X038917Y011409D01*
X039016Y011311D02*
X040719Y011311D01*
X041251Y011606D02*
X041950Y011606D01*
X041950Y011508D02*
X041443Y011508D01*
X041541Y011409D02*
X041950Y011409D01*
X041950Y011311D02*
X041581Y011311D01*
X041610Y011212D02*
X041950Y011212D01*
X041950Y011114D02*
X041610Y011114D01*
X041592Y011015D02*
X041950Y011015D01*
X041950Y010917D02*
X041551Y010917D01*
X041469Y010818D02*
X041950Y010818D01*
X041950Y010720D02*
X041313Y010720D01*
X041377Y011705D02*
X041950Y011705D01*
X041950Y011803D02*
X041510Y011803D01*
X041585Y011902D02*
X041950Y011902D01*
X041950Y012000D02*
X041627Y012000D01*
X038859Y011015D02*
X038787Y011015D01*
X037398Y010326D02*
X037301Y010326D01*
X037322Y010424D02*
X037202Y010424D01*
X037290Y010523D02*
X037104Y010523D01*
X037005Y010621D02*
X037284Y010621D01*
X036791Y011015D02*
X036525Y011015D01*
X036269Y011212D02*
X036089Y011212D01*
X036341Y010523D02*
X035768Y010523D01*
X036089Y010424D02*
X036269Y010424D01*
X041445Y005795D02*
X041950Y005795D01*
X041950Y005893D02*
X041541Y005893D01*
X041028Y005598D02*
X040929Y005598D01*
X041421Y004711D02*
X041950Y004711D01*
X041950Y004613D02*
X041781Y004613D01*
X026972Y011902D02*
X026847Y011902D01*
X018762Y007272D02*
X018651Y007272D01*
X014150Y006950D02*
X013350Y006150D01*
X012750Y006150D01*
X012150Y006750D01*
X012150Y007350D01*
X012850Y008050D01*
X010650Y008250D02*
X010550Y008250D01*
X007421Y006878D02*
X007410Y006878D01*
X005971Y007371D02*
X003557Y007371D01*
X013576Y015546D02*
X015947Y015546D01*
X015838Y015645D02*
X014566Y015645D01*
X014628Y015743D02*
X015763Y015743D01*
X015711Y015842D02*
X014648Y015842D01*
X014635Y015940D02*
X015675Y015940D01*
X014160Y016137D02*
X014024Y016137D01*
X014021Y016236D02*
X014160Y016236D01*
X014160Y016334D02*
X013980Y016334D01*
X013903Y016433D02*
X014099Y016433D01*
X014000Y016531D02*
X013733Y016531D01*
X013535Y016531D02*
X011865Y016531D01*
X011991Y016433D02*
X013365Y016433D01*
X013288Y016334D02*
X012055Y016334D01*
X012088Y016236D02*
X013248Y016236D01*
X013877Y015842D02*
X014052Y015842D01*
X014065Y015940D02*
X013969Y015940D01*
X014010Y016039D02*
X014117Y016039D01*
M02*
