G75*
%MOIN*%
%OFA0B0*%
%FSLAX24Y24*%
%IPPOS*%
%LPD*%
%AMOC8*
5,1,8,0,0,1.08239X$1,22.5*
%
%ADD10C,0.1330*%
%ADD11C,0.0780*%
%ADD12R,0.0780X0.0780*%
%ADD13C,0.0990*%
%ADD14C,0.1005*%
%ADD15C,0.0496*%
%ADD16R,0.0496X0.0496*%
%ADD17R,0.0592X0.0434*%
%ADD18C,0.1080*%
%ADD19C,0.0671*%
%ADD20C,0.0582*%
%ADD21C,0.1290*%
%ADD22C,0.0640*%
%ADD23C,0.0456*%
D10*
X003150Y003150D03*
X022150Y003150D03*
X041150Y003150D03*
X041150Y016150D03*
X022150Y016150D03*
X003150Y016150D03*
D11*
X003150Y013150D03*
X003150Y012150D03*
X003150Y011150D03*
X003150Y010150D03*
X003150Y009150D03*
X003150Y008150D03*
X003150Y007150D03*
X003150Y006150D03*
X003150Y005150D03*
X041150Y005150D03*
X041150Y006150D03*
X041150Y007150D03*
X041150Y008150D03*
X041150Y009150D03*
X041150Y010150D03*
X041150Y011150D03*
X041150Y012150D03*
X041150Y013150D03*
D12*
X041150Y014150D03*
X003150Y014150D03*
D13*
X007150Y009150D03*
X017150Y009150D03*
X027150Y009150D03*
X037150Y009150D03*
D14*
X037150Y005548D03*
X027150Y005548D03*
X017150Y005548D03*
X007150Y005548D03*
D15*
X005870Y006256D03*
X006658Y006650D03*
X005870Y007044D03*
X006658Y007437D03*
X005870Y007831D03*
X006658Y008225D03*
X005870Y008619D03*
X007642Y008225D03*
X008430Y008619D03*
X008430Y007831D03*
X007642Y007437D03*
X008430Y007044D03*
X007642Y006650D03*
X008430Y006256D03*
X007642Y009800D03*
X008430Y010193D03*
X007642Y010587D03*
X008430Y010981D03*
X007642Y011374D03*
X008430Y011768D03*
X007642Y012162D03*
X008430Y012556D03*
X007642Y012949D03*
X008430Y013343D03*
X006658Y013737D03*
X005870Y013343D03*
X006658Y012949D03*
X005870Y012556D03*
X006658Y012162D03*
X005870Y011768D03*
X006658Y011374D03*
X005870Y010981D03*
X006658Y010587D03*
X005870Y010193D03*
X006658Y009800D03*
X015870Y010193D03*
X016658Y009800D03*
X017642Y009800D03*
X018430Y010193D03*
X017642Y010587D03*
X018430Y010981D03*
X017642Y011374D03*
X018430Y011768D03*
X017642Y012162D03*
X018430Y012556D03*
X017642Y012949D03*
X018430Y013343D03*
X016658Y013737D03*
X015870Y013343D03*
X016658Y012949D03*
X015870Y012556D03*
X016658Y012162D03*
X015870Y011768D03*
X016658Y011374D03*
X015870Y010981D03*
X016658Y010587D03*
X015870Y008619D03*
X016658Y008225D03*
X015870Y007831D03*
X016658Y007437D03*
X015870Y007044D03*
X016658Y006650D03*
X015870Y006256D03*
X017642Y006650D03*
X018430Y006256D03*
X018430Y007044D03*
X017642Y007437D03*
X018430Y007831D03*
X017642Y008225D03*
X018430Y008619D03*
X025870Y008619D03*
X026658Y008225D03*
X025870Y007831D03*
X026658Y007437D03*
X025870Y007044D03*
X026658Y006650D03*
X025870Y006256D03*
X027642Y006650D03*
X028430Y006256D03*
X028430Y007044D03*
X027642Y007437D03*
X028430Y007831D03*
X027642Y008225D03*
X028430Y008619D03*
X027642Y009800D03*
X028430Y010193D03*
X027642Y010587D03*
X028430Y010981D03*
X027642Y011374D03*
X028430Y011768D03*
X027642Y012162D03*
X028430Y012556D03*
X027642Y012949D03*
X028430Y013343D03*
X026658Y013737D03*
X025870Y013343D03*
X026658Y012949D03*
X025870Y012556D03*
X026658Y012162D03*
X025870Y011768D03*
X026658Y011374D03*
X025870Y010981D03*
X026658Y010587D03*
X025870Y010193D03*
X026658Y009800D03*
X035870Y010193D03*
X036658Y009800D03*
X037642Y009800D03*
X038430Y010193D03*
X037642Y010587D03*
X038430Y010981D03*
X037642Y011374D03*
X038430Y011768D03*
X037642Y012162D03*
X038430Y012556D03*
X037642Y012949D03*
X038430Y013343D03*
X036658Y013737D03*
X035870Y013343D03*
X036658Y012949D03*
X035870Y012556D03*
X036658Y012162D03*
X035870Y011768D03*
X036658Y011374D03*
X035870Y010981D03*
X036658Y010587D03*
X035870Y008619D03*
X036658Y008225D03*
X035870Y007831D03*
X036658Y007437D03*
X035870Y007044D03*
X036658Y006650D03*
X035870Y006256D03*
X037642Y006650D03*
X038430Y006256D03*
X038430Y007044D03*
X037642Y007437D03*
X038430Y007831D03*
X037642Y008225D03*
X038430Y008619D03*
D16*
X037642Y013737D03*
X027642Y013737D03*
X017642Y013737D03*
X007642Y013737D03*
D17*
X023150Y012563D03*
X023150Y011737D03*
X025150Y011737D03*
X025150Y012563D03*
D18*
X023471Y009961D03*
X020829Y009961D03*
X020829Y008150D03*
X023471Y008150D03*
X023471Y006339D03*
X020829Y006339D03*
D19*
X008528Y016650D03*
X005772Y016650D03*
D20*
X006166Y015587D03*
X008134Y015587D03*
D21*
X016400Y016150D03*
X017900Y016150D03*
D22*
X013634Y016150D03*
X011666Y016150D03*
D23*
X010950Y016150D03*
X013350Y015350D03*
X014350Y015850D03*
X013650Y013850D03*
X014150Y013450D03*
X015450Y013850D03*
X014150Y012450D03*
X013150Y012150D03*
X012150Y012150D03*
X011150Y012150D03*
X010347Y012150D03*
X009550Y012550D03*
X008850Y012150D03*
X009350Y013950D03*
X009450Y010150D03*
X008850Y008250D03*
X010650Y008250D03*
X012850Y008050D03*
X014150Y006950D03*
X014850Y005850D03*
X014850Y005150D03*
X021750Y006450D03*
X022650Y006450D03*
X025050Y006050D03*
X025050Y006850D03*
X030550Y008150D03*
X033150Y008150D03*
X033850Y006650D03*
X034150Y005150D03*
X034650Y005150D03*
X038650Y005150D03*
X039150Y005150D03*
X039650Y005150D03*
X039650Y005650D03*
X039150Y005650D03*
X039150Y004650D03*
X038650Y004650D03*
X029550Y010050D03*
X030550Y012150D03*
X031150Y012150D03*
X032150Y012150D03*
X033150Y012150D03*
X034250Y011950D03*
X035050Y012750D03*
X034250Y013150D03*
X033950Y013850D03*
X034650Y015350D03*
X029450Y013850D03*
X029303Y012697D03*
X025150Y013150D03*
X023150Y013150D03*
X024950Y015350D03*
X020150Y015350D03*
X005150Y005650D03*
X004650Y005650D03*
X004650Y005150D03*
X005150Y005150D03*
X005650Y005150D03*
X005650Y004650D03*
X005150Y004650D03*
M02*
