%
M48
M72
T01C0.0236
T02C0.0354
T03C0.0400
%
T01
X31025Y14850
X31825Y15950
X31025Y16750
X31725Y17950
X31025Y18750
X29125Y18650
X31725Y20050
X34125Y20150
X37125Y22150
X40125Y21850
X41025Y21750
X41125Y23150
X44125Y23150
X45125Y23150
X44125Y22150
X44125Y21150
X44125Y20650
X44125Y19150
X42725Y19450
X44225Y18150
X42725Y17450
X42725Y15450
X45125Y14150
X46125Y14150
X43125Y13550
X46625Y12050
X47825Y11650
X48925Y12350
X47825Y12550
X48125Y11150
X46825Y11150
X45625Y9150
X49525Y9250
X44425Y5950
X43925Y5950
X43125Y5550
X37125Y9150
X38125Y10450
X38525Y10850
X39125Y10450
X39125Y9650
X40125Y9650
X41125Y9650
X37825Y11050
X37225Y12550
X36625Y12550
X39125Y13450
X39725Y13450
X33625Y15850
X33125Y14150
X29125Y20750
X46625Y23250
X48725Y23250
T02
X47125Y24150
X47125Y25150
X46125Y25150
X45125Y25150
X44125Y25150
X43125Y25150
X43125Y24150
X44125Y24150
X45125Y24150
X46125Y24150
X42125Y24150
X41125Y24150
X40125Y24150
X39125Y24150
X39125Y25150
X40125Y25150
X41125Y25150
X42125Y25150
X38125Y25150
X38125Y24150
X35125Y10150
X34125Y10150
X38125Y8150
X38125Y7150
X39125Y7150
X40125Y7150
X41125Y7150
X42125Y7150
X42125Y8150
X41125Y8150
X40125Y8150
X39125Y8150
X43125Y8150
X44125Y8150
X45125Y8150
X46125Y8150
X46125Y7150
X45125Y7150
X44125Y7150
X43125Y7150
X47125Y7150
X47125Y8150
T03
X36125Y16150
X35125Y16150
X35125Y17150
X35125Y18150
X36125Y18150
X36125Y17150
M30
