G75*
%MOIN*%
%OFA0B0*%
%FSLAX24Y24*%
%IPPOS*%
%LPD*%
%AMOC8*
5,1,8,0,0,1.08239X$1,22.5*
%
%ADD10R,0.0315X0.0354*%
%ADD11R,0.0354X0.0512*%
%ADD12R,0.0276X0.1654*%
%ADD13R,0.0276X0.1260*%
%ADD14R,0.0571X0.0551*%
%ADD15R,0.0472X0.0472*%
%ADD16R,0.0528X0.0709*%
D10*
X031751Y014756D03*
X032499Y014756D03*
X032125Y015544D03*
X031751Y016756D03*
X032499Y016756D03*
X032125Y017544D03*
X031751Y018756D03*
X032499Y018756D03*
X032125Y019544D03*
D11*
X029712Y015150D03*
X030538Y015150D03*
X030538Y016150D03*
X029712Y016150D03*
X029712Y017150D03*
X030538Y017150D03*
X030538Y018150D03*
X029712Y018150D03*
X029712Y019150D03*
X030538Y019150D03*
X030538Y020150D03*
X029712Y020150D03*
X035712Y024150D03*
X036538Y024150D03*
X036538Y025150D03*
X035712Y025150D03*
X039712Y021150D03*
X040538Y021150D03*
X040538Y020150D03*
X039712Y020150D03*
X039712Y019150D03*
X040538Y019150D03*
X040538Y018150D03*
X039712Y018150D03*
X039712Y017150D03*
X040538Y017150D03*
X040538Y016150D03*
X039712Y016150D03*
X039712Y015150D03*
X040538Y015150D03*
X040538Y014150D03*
X039712Y014150D03*
X046712Y015150D03*
X047538Y015150D03*
X047538Y016150D03*
X046712Y016150D03*
X046712Y017150D03*
X047538Y017150D03*
X047538Y018150D03*
X046712Y018150D03*
X046712Y019150D03*
X047538Y019150D03*
X047538Y020150D03*
X046712Y020150D03*
X046712Y021150D03*
X047538Y021150D03*
X047538Y022150D03*
X046712Y022150D03*
X048712Y024150D03*
X049538Y024150D03*
X049538Y025150D03*
X048712Y025150D03*
D12*
X048680Y003591D03*
X048286Y003591D03*
X047893Y003591D03*
X049074Y003591D03*
X045924Y003591D03*
X045531Y003591D03*
X045137Y003591D03*
X044743Y003591D03*
X044349Y003591D03*
X043956Y003591D03*
X043562Y003591D03*
X043168Y003591D03*
X042775Y003591D03*
D13*
X049468Y003788D03*
D14*
X050512Y026650D03*
X051338Y026650D03*
X051338Y027650D03*
X050512Y027650D03*
D15*
X050712Y022150D03*
X051538Y022150D03*
X051538Y021150D03*
X050712Y021150D03*
X050712Y020150D03*
X051538Y020150D03*
X051538Y019150D03*
X050712Y019150D03*
X050712Y018150D03*
X051538Y018150D03*
X051538Y017150D03*
X050712Y017150D03*
X050712Y016150D03*
X051538Y016150D03*
X051538Y015150D03*
X050712Y015150D03*
D16*
X042688Y014150D03*
X041562Y014150D03*
X041562Y016150D03*
X042688Y016150D03*
X042688Y018150D03*
X041562Y018150D03*
X041562Y020150D03*
X042688Y020150D03*
M02*
