G75*
%MOIN*%
%OFA0B0*%
%FSLAX24Y24*%
%IPPOS*%
%LPD*%
%AMOC8*
5,1,8,0,0,1.08239X$1,22.5*
%
%ADD10R,0.0350X0.0050*%
%ADD11R,0.0300X0.0050*%
%ADD12R,0.0400X0.0050*%
%ADD13R,0.0250X0.0050*%
%ADD14R,0.0200X0.0050*%
%ADD15R,0.0500X0.0050*%
%ADD16R,0.0150X0.0050*%
%ADD17R,0.0600X0.0050*%
%ADD18R,0.0100X0.0050*%
%ADD19R,0.0550X0.0050*%
%ADD20R,0.0700X0.0050*%
%ADD21R,0.0650X0.0050*%
%ADD22R,0.0750X0.0050*%
%ADD23R,0.0800X0.0050*%
%ADD24R,0.0050X0.0050*%
%ADD25R,0.0450X0.0050*%
%ADD26R,0.0850X0.0050*%
%ADD27R,0.0900X0.0050*%
%ADD28C,0.0040*%
%ADD29R,0.1100X0.0050*%
%ADD30R,0.1150X0.0050*%
%ADD31R,0.1350X0.0050*%
%ADD32R,0.1450X0.0050*%
%ADD33R,0.1600X0.0050*%
%ADD34R,0.1700X0.0050*%
%ADD35R,0.1750X0.0050*%
%ADD36R,0.1850X0.0050*%
%ADD37R,0.1950X0.0050*%
%ADD38R,0.2000X0.0050*%
%ADD39R,0.0950X0.0050*%
%ADD40R,0.2150X0.0050*%
%ADD41R,0.2100X0.0050*%
%ADD42R,0.2050X0.0050*%
%ADD43R,0.1300X0.0050*%
%ADD44R,0.1200X0.0050*%
%ADD45R,0.1050X0.0050*%
%ADD46C,0.0100*%
%ADD47C,0.0060*%
%ADD48C,0.0050*%
D10*
X032575Y023450D03*
X033125Y023450D03*
X031475Y026800D03*
X030425Y026800D03*
X030725Y027800D03*
X031775Y027800D03*
X032775Y027600D03*
X034425Y027100D03*
X035625Y027600D03*
X038925Y026600D03*
X040275Y027750D03*
X043925Y026600D03*
X044725Y026600D03*
X029625Y027800D03*
X027475Y028000D03*
X027925Y026850D03*
X027925Y026800D03*
X027925Y026750D03*
X026975Y026800D03*
X026975Y026850D03*
D11*
X027000Y026750D03*
X027900Y026700D03*
X029350Y027350D03*
X029750Y027100D03*
X029800Y027050D03*
X030350Y026850D03*
X030400Y027600D03*
X031400Y027550D03*
X031450Y027600D03*
X032100Y027600D03*
X032750Y027550D03*
X033400Y027600D03*
X034000Y027350D03*
X034450Y026800D03*
X035600Y027550D03*
X036000Y027800D03*
X034300Y027800D03*
X032050Y026800D03*
X031400Y026850D03*
X027450Y028050D03*
X027450Y028100D03*
X033000Y024150D03*
X039900Y026750D03*
X040250Y026600D03*
X044700Y027200D03*
D12*
X044800Y027750D03*
X042600Y026650D03*
X041500Y026600D03*
X041500Y027750D03*
X034350Y027150D03*
X034100Y027300D03*
X029400Y027300D03*
X027950Y026900D03*
X027000Y026900D03*
X027450Y027850D03*
X027450Y027900D03*
X027450Y027950D03*
X033750Y023400D03*
X033750Y023350D03*
X033750Y023300D03*
D13*
X033075Y021350D03*
X033075Y021300D03*
X033075Y021250D03*
X032625Y021250D03*
X032625Y021300D03*
X032625Y021350D03*
X032125Y026850D03*
X032175Y026900D03*
X032175Y026950D03*
X032175Y027500D03*
X032125Y027550D03*
X032725Y027500D03*
X032725Y027450D03*
X032725Y027400D03*
X033175Y027800D03*
X033425Y027550D03*
X033475Y027500D03*
X033475Y027450D03*
X033475Y027400D03*
X033975Y027400D03*
X033975Y027600D03*
X034475Y027050D03*
X035575Y027500D03*
X036225Y027600D03*
X036275Y027550D03*
X036275Y027500D03*
X034975Y028150D03*
X034975Y028200D03*
X034975Y028250D03*
X037725Y027300D03*
X037875Y027450D03*
X038675Y027650D03*
X039875Y027550D03*
X040525Y027650D03*
X041225Y027650D03*
X041775Y027650D03*
X042625Y026600D03*
X043675Y026700D03*
X044625Y027250D03*
X044825Y027150D03*
X040475Y026700D03*
X039875Y026800D03*
X039175Y026700D03*
X038675Y026700D03*
X031375Y026900D03*
X031325Y026950D03*
X031325Y027000D03*
X031325Y027450D03*
X030375Y027550D03*
X030325Y027500D03*
X030275Y027450D03*
X030275Y027400D03*
X030275Y027000D03*
X030275Y026950D03*
X030325Y026900D03*
X029825Y026850D03*
X029775Y026800D03*
X029825Y027000D03*
X029275Y026800D03*
X029275Y027450D03*
X029275Y027500D03*
X029325Y027600D03*
X028775Y028150D03*
X028775Y028200D03*
X028775Y028250D03*
X028375Y028200D03*
X028375Y028150D03*
X028325Y028050D03*
X028325Y028000D03*
X028275Y027850D03*
X028175Y027500D03*
X028175Y027450D03*
X028125Y027300D03*
X028075Y027150D03*
X027775Y027100D03*
X027725Y027250D03*
X027625Y027650D03*
X027475Y028150D03*
X027475Y028200D03*
X026625Y027850D03*
X026625Y027800D03*
X026675Y027650D03*
X026725Y027500D03*
X026775Y027300D03*
X026775Y027250D03*
X026825Y027100D03*
X026975Y026700D03*
X026975Y026650D03*
X027925Y026650D03*
X026575Y028000D03*
X026525Y028150D03*
X026525Y028200D03*
D14*
X026550Y028100D03*
X026550Y028050D03*
X026600Y027950D03*
X026600Y027900D03*
X026650Y027750D03*
X026650Y027700D03*
X026700Y027600D03*
X026700Y027550D03*
X026750Y027450D03*
X026750Y027400D03*
X026750Y027350D03*
X026800Y027200D03*
X026800Y027150D03*
X026850Y027050D03*
X026850Y027000D03*
X027100Y027000D03*
X027100Y027050D03*
X027150Y027100D03*
X027150Y027150D03*
X027150Y027200D03*
X027150Y027250D03*
X027200Y027300D03*
X027200Y027350D03*
X027200Y027400D03*
X027250Y027450D03*
X027250Y027500D03*
X027250Y027550D03*
X027300Y027600D03*
X027300Y027650D03*
X027300Y027700D03*
X027300Y027750D03*
X027600Y027750D03*
X027600Y027700D03*
X027650Y027600D03*
X027650Y027550D03*
X027650Y027500D03*
X027700Y027450D03*
X027700Y027400D03*
X027700Y027350D03*
X027700Y027300D03*
X027750Y027200D03*
X027750Y027150D03*
X027800Y027050D03*
X027800Y027000D03*
X027800Y026950D03*
X028050Y026950D03*
X028050Y027000D03*
X028050Y027050D03*
X028050Y027100D03*
X028100Y027200D03*
X028100Y027250D03*
X028150Y027350D03*
X028150Y027400D03*
X028200Y027550D03*
X028200Y027600D03*
X028200Y027650D03*
X028250Y027700D03*
X028250Y027750D03*
X028250Y027800D03*
X028300Y027900D03*
X028300Y027950D03*
X028350Y028100D03*
X028800Y028100D03*
X028800Y027750D03*
X028800Y027700D03*
X028800Y027650D03*
X028800Y027600D03*
X028800Y027550D03*
X028800Y027500D03*
X028800Y027450D03*
X028800Y027400D03*
X028800Y027350D03*
X028800Y027300D03*
X028800Y027250D03*
X028800Y027200D03*
X028800Y027150D03*
X028800Y027100D03*
X028800Y027050D03*
X028800Y027000D03*
X028800Y026950D03*
X028800Y026900D03*
X028800Y026850D03*
X028800Y026800D03*
X028800Y026750D03*
X028800Y026700D03*
X028800Y026650D03*
X029300Y027400D03*
X029300Y027550D03*
X029850Y026950D03*
X029850Y026900D03*
X030250Y027050D03*
X030250Y027100D03*
X030250Y027150D03*
X030250Y027200D03*
X030250Y027250D03*
X030250Y027300D03*
X030250Y027350D03*
X031300Y027350D03*
X031300Y027300D03*
X031300Y027250D03*
X031300Y027200D03*
X031300Y027150D03*
X031300Y027100D03*
X031300Y027050D03*
X031300Y027400D03*
X031350Y027500D03*
X032200Y027450D03*
X032200Y027400D03*
X032200Y027350D03*
X032250Y027300D03*
X032250Y027250D03*
X032250Y027200D03*
X032250Y027150D03*
X032250Y027100D03*
X032200Y027050D03*
X032200Y027000D03*
X032700Y027000D03*
X032700Y027050D03*
X032700Y027100D03*
X032700Y027150D03*
X032700Y027200D03*
X032700Y027250D03*
X032700Y027300D03*
X032700Y027350D03*
X032700Y027650D03*
X032700Y027700D03*
X032700Y027750D03*
X032700Y026950D03*
X032700Y026900D03*
X032700Y026850D03*
X032700Y026800D03*
X032700Y026750D03*
X032700Y026700D03*
X032700Y026650D03*
X033500Y026650D03*
X033500Y026700D03*
X033500Y026750D03*
X033500Y026800D03*
X033500Y026850D03*
X033500Y026900D03*
X033500Y026950D03*
X033500Y027000D03*
X033500Y027050D03*
X033500Y027100D03*
X033500Y027150D03*
X033500Y027200D03*
X033500Y027250D03*
X033500Y027300D03*
X033500Y027350D03*
X033950Y027450D03*
X033950Y027500D03*
X033950Y027550D03*
X034500Y027000D03*
X034500Y026950D03*
X034500Y026900D03*
X034500Y026850D03*
X035000Y026850D03*
X035000Y026900D03*
X035000Y026950D03*
X035000Y027000D03*
X035000Y027050D03*
X035000Y027100D03*
X035000Y027150D03*
X035000Y027200D03*
X035000Y027250D03*
X035000Y027300D03*
X035000Y027350D03*
X035000Y027400D03*
X035000Y027450D03*
X035000Y027500D03*
X035000Y027550D03*
X035000Y027600D03*
X035000Y027650D03*
X035000Y027700D03*
X035000Y027750D03*
X035000Y028100D03*
X035550Y027750D03*
X035550Y027700D03*
X035550Y027450D03*
X035550Y027400D03*
X035550Y027350D03*
X035550Y027300D03*
X035550Y027250D03*
X035550Y027200D03*
X035550Y027150D03*
X035550Y027100D03*
X035550Y027050D03*
X035550Y027000D03*
X035550Y026950D03*
X035550Y026900D03*
X035550Y026850D03*
X035550Y026800D03*
X035550Y026750D03*
X035550Y026700D03*
X035550Y026650D03*
X035000Y026650D03*
X035000Y026700D03*
X035000Y026750D03*
X035000Y026800D03*
X033950Y026800D03*
X036300Y026800D03*
X036300Y026850D03*
X036300Y026900D03*
X036300Y026950D03*
X036300Y027000D03*
X036300Y027050D03*
X036300Y027100D03*
X036300Y027150D03*
X036300Y027200D03*
X036300Y027250D03*
X036300Y027300D03*
X036300Y027350D03*
X036300Y027400D03*
X036300Y027450D03*
X036300Y026750D03*
X036300Y026700D03*
X036300Y026650D03*
X037950Y026950D03*
X038100Y026650D03*
X038500Y026900D03*
X038550Y026800D03*
X038600Y026750D03*
X039250Y026750D03*
X039300Y026800D03*
X039850Y026850D03*
X040000Y026700D03*
X039400Y027350D03*
X039200Y027650D03*
X038600Y027600D03*
X038550Y027550D03*
X038000Y027550D03*
X037950Y027500D03*
X038000Y028000D03*
X037950Y028050D03*
X039850Y027500D03*
X040650Y027500D03*
X041150Y027600D03*
X041850Y027600D03*
X041950Y027400D03*
X041950Y026950D03*
X041800Y026750D03*
X041750Y026700D03*
X041250Y026700D03*
X043050Y028100D03*
X043050Y028150D03*
X043700Y027650D03*
X044500Y027550D03*
X044550Y027650D03*
X044550Y027300D03*
X044900Y027100D03*
X044950Y027050D03*
X044950Y026700D03*
X044500Y026700D03*
X044150Y026700D03*
X043600Y026750D03*
X033100Y023400D03*
X032600Y023400D03*
D15*
X031950Y023450D03*
X031900Y023350D03*
X031900Y023300D03*
X033000Y024100D03*
X033750Y023250D03*
X034150Y026650D03*
X034250Y027200D03*
X036000Y027750D03*
X040250Y026650D03*
X031750Y026650D03*
X030700Y026650D03*
X029500Y026650D03*
D16*
X030925Y026800D03*
X028775Y028300D03*
X034975Y028300D03*
X037275Y028050D03*
X037275Y028000D03*
X037275Y027950D03*
X037275Y027900D03*
X037275Y027850D03*
X037275Y027800D03*
X037275Y027750D03*
X037275Y027700D03*
X037275Y027650D03*
X037275Y027600D03*
X037275Y027550D03*
X037275Y027500D03*
X037275Y027450D03*
X037275Y027300D03*
X037275Y027250D03*
X037275Y027200D03*
X037275Y027150D03*
X037275Y027100D03*
X037275Y027050D03*
X037275Y027000D03*
X037275Y026950D03*
X037275Y026900D03*
X037275Y026850D03*
X037275Y026800D03*
X037275Y026750D03*
X037275Y026700D03*
X037275Y026650D03*
X037975Y026850D03*
X037975Y026900D03*
X038025Y026800D03*
X038025Y026750D03*
X038075Y026700D03*
X037925Y027000D03*
X037925Y027050D03*
X037875Y027100D03*
X037875Y027150D03*
X037825Y027200D03*
X037775Y027250D03*
X038025Y027600D03*
X038075Y027700D03*
X038075Y027750D03*
X038075Y027800D03*
X038075Y027850D03*
X038075Y027900D03*
X038025Y027950D03*
X038525Y027500D03*
X038475Y027450D03*
X038475Y027400D03*
X038475Y027350D03*
X038475Y027000D03*
X038475Y026950D03*
X038525Y026850D03*
X039325Y026850D03*
X039375Y026900D03*
X039375Y026950D03*
X039375Y027000D03*
X039425Y027050D03*
X039425Y027100D03*
X039425Y027150D03*
X039425Y027200D03*
X039425Y027250D03*
X039425Y027300D03*
X039375Y027400D03*
X039375Y027450D03*
X039375Y027500D03*
X039325Y027550D03*
X039275Y027600D03*
X039825Y027450D03*
X039825Y027400D03*
X039825Y027350D03*
X039975Y027600D03*
X040025Y027650D03*
X040575Y027600D03*
X040625Y027550D03*
X040675Y027450D03*
X040675Y027400D03*
X040675Y027350D03*
X040675Y027300D03*
X040675Y027250D03*
X040675Y027200D03*
X040675Y027150D03*
X040675Y027100D03*
X040675Y027050D03*
X040675Y027000D03*
X040675Y026950D03*
X040625Y026900D03*
X040625Y026850D03*
X040575Y026800D03*
X040525Y026750D03*
X041025Y026950D03*
X041025Y027000D03*
X041025Y027050D03*
X041025Y027100D03*
X041025Y027150D03*
X041025Y027200D03*
X041025Y027250D03*
X041025Y027300D03*
X041025Y027350D03*
X041025Y027400D03*
X041075Y027450D03*
X041075Y027500D03*
X041125Y027550D03*
X041875Y027550D03*
X041925Y027500D03*
X041925Y027450D03*
X041975Y027350D03*
X041975Y027300D03*
X041975Y027250D03*
X041975Y027200D03*
X041975Y027150D03*
X041975Y027100D03*
X041975Y027050D03*
X041975Y027000D03*
X041925Y026900D03*
X041925Y026850D03*
X041875Y026800D03*
X042425Y026800D03*
X042425Y026850D03*
X042425Y026900D03*
X042425Y026950D03*
X042425Y027000D03*
X042425Y027050D03*
X042425Y027100D03*
X042425Y027150D03*
X042425Y027200D03*
X042425Y027250D03*
X042425Y027300D03*
X042425Y027350D03*
X042425Y027400D03*
X042425Y027450D03*
X042425Y027500D03*
X042425Y027550D03*
X042425Y027600D03*
X042425Y027650D03*
X042425Y027800D03*
X042425Y027850D03*
X042425Y027900D03*
X042425Y027950D03*
X042425Y028000D03*
X042425Y028050D03*
X043075Y028200D03*
X043075Y027750D03*
X043075Y027700D03*
X043075Y027650D03*
X043075Y027600D03*
X043075Y027550D03*
X043075Y027500D03*
X043075Y027450D03*
X043075Y027400D03*
X043075Y027350D03*
X043075Y027300D03*
X043075Y027250D03*
X043075Y027200D03*
X043075Y027150D03*
X043075Y027100D03*
X043075Y027050D03*
X043075Y027000D03*
X043075Y026950D03*
X043075Y026900D03*
X043075Y026850D03*
X043075Y026800D03*
X043075Y026750D03*
X043075Y026700D03*
X043075Y026650D03*
X043475Y026900D03*
X043475Y026950D03*
X043475Y027000D03*
X043525Y026850D03*
X043575Y026800D03*
X043475Y027300D03*
X043475Y027350D03*
X043475Y027400D03*
X043525Y027450D03*
X043525Y027500D03*
X043575Y027550D03*
X043625Y027600D03*
X044175Y027650D03*
X044475Y027500D03*
X044475Y027450D03*
X044475Y027400D03*
X044525Y027350D03*
X044525Y027600D03*
X045025Y027000D03*
X045025Y026950D03*
X045025Y026900D03*
X045025Y026850D03*
X045025Y026800D03*
X044975Y026750D03*
X042475Y026700D03*
X042425Y026750D03*
X041175Y026750D03*
X041125Y026800D03*
X041075Y026850D03*
X041075Y026900D03*
X039825Y026900D03*
X039825Y026950D03*
X039825Y027000D03*
D17*
X040300Y027700D03*
X041500Y026650D03*
X043950Y026650D03*
X043950Y027700D03*
X038950Y026650D03*
X037500Y027350D03*
X036000Y027700D03*
X034250Y027700D03*
X033700Y023200D03*
D18*
X033100Y023350D03*
X032600Y023350D03*
X038450Y027050D03*
X038450Y027100D03*
X038450Y027150D03*
X038450Y027200D03*
X038450Y027250D03*
X038450Y027300D03*
X038050Y027650D03*
X039800Y027650D03*
X039800Y027700D03*
X039800Y027750D03*
X039800Y027800D03*
X039800Y027850D03*
X039800Y027900D03*
X039800Y027950D03*
X039800Y028000D03*
X039800Y028050D03*
X039800Y028100D03*
X039800Y028150D03*
X039800Y028200D03*
X039800Y028250D03*
X039800Y028300D03*
X039800Y027600D03*
X039800Y027300D03*
X039800Y027250D03*
X039800Y027200D03*
X039800Y027150D03*
X039800Y027100D03*
X039800Y027050D03*
X039800Y026700D03*
X039800Y026650D03*
X042750Y026700D03*
X043450Y027050D03*
X043450Y027100D03*
X043450Y027150D03*
X043450Y027200D03*
X043450Y027250D03*
X044200Y026750D03*
X044450Y026750D03*
X045000Y027650D03*
X043050Y028050D03*
X030950Y027600D03*
X029850Y027600D03*
D19*
X029625Y027750D03*
X030725Y027750D03*
X031775Y027750D03*
X034275Y027750D03*
X031925Y023250D03*
X044675Y026650D03*
X044775Y027700D03*
D20*
X041500Y027700D03*
X034200Y026750D03*
X031750Y026700D03*
X030650Y026750D03*
X030650Y027650D03*
X029550Y027650D03*
X029500Y026700D03*
X031950Y023200D03*
D21*
X030675Y026700D03*
X030675Y027700D03*
X029575Y027700D03*
X033175Y027700D03*
X033175Y027650D03*
X034225Y027650D03*
X034175Y026700D03*
X037525Y028200D03*
X038925Y027700D03*
X042475Y027700D03*
X042475Y027750D03*
D22*
X037575Y027400D03*
X037575Y028150D03*
X031775Y027700D03*
X029525Y026750D03*
X033525Y022350D03*
X033475Y022300D03*
D23*
X033450Y022250D03*
X033400Y022200D03*
X033550Y022400D03*
X033600Y022450D03*
X033600Y022500D03*
X033650Y022650D03*
X032050Y022650D03*
X032050Y022700D03*
X032050Y022750D03*
X032050Y022800D03*
X032050Y022850D03*
X031750Y026750D03*
X037600Y028100D03*
D24*
X034525Y027600D03*
X033875Y026850D03*
X030975Y026850D03*
X029175Y026850D03*
D25*
X029475Y027250D03*
X029575Y027200D03*
X029675Y027150D03*
X027475Y027800D03*
X026975Y026950D03*
X033175Y027750D03*
X034175Y027250D03*
X038925Y027750D03*
X043975Y027750D03*
X033725Y023450D03*
X031925Y023400D03*
X032525Y021600D03*
X032525Y021550D03*
X032525Y021500D03*
X032525Y021450D03*
X032525Y021400D03*
X033175Y021400D03*
X033175Y021450D03*
X033175Y021500D03*
X033175Y021550D03*
X033175Y021600D03*
D26*
X032125Y022350D03*
X032075Y022450D03*
X032075Y022500D03*
X032075Y022550D03*
X032075Y022600D03*
X032025Y022900D03*
X032025Y022950D03*
X032025Y023000D03*
X033625Y023050D03*
X033625Y023100D03*
X033625Y023150D03*
X033675Y023000D03*
X033675Y022950D03*
X033675Y022900D03*
X033675Y022850D03*
X033675Y022800D03*
X033675Y022750D03*
X033675Y022700D03*
X033625Y022600D03*
X033625Y022550D03*
X031775Y027650D03*
D27*
X035900Y027650D03*
X032050Y023150D03*
X032050Y023100D03*
X032050Y023050D03*
X032100Y022400D03*
X032150Y022300D03*
D28*
X028064Y015380D02*
X028064Y014920D01*
X028064Y015073D02*
X028294Y015073D01*
X028371Y015150D01*
X028371Y015304D01*
X028294Y015380D01*
X028064Y015380D01*
X028217Y015073D02*
X028371Y014920D01*
X028524Y014920D02*
X028831Y015227D01*
X028831Y015304D01*
X028754Y015380D01*
X028601Y015380D01*
X028524Y015304D01*
X028524Y014920D02*
X028831Y014920D01*
X028985Y014997D02*
X029061Y014920D01*
X029215Y014920D01*
X029292Y014997D01*
X029292Y015150D01*
X029215Y015227D01*
X029138Y015227D01*
X028985Y015150D01*
X028985Y015380D01*
X029292Y015380D01*
X029215Y015920D02*
X029215Y016380D01*
X028985Y016150D01*
X029292Y016150D01*
X028831Y016227D02*
X028831Y016304D01*
X028754Y016380D01*
X028601Y016380D01*
X028524Y016304D01*
X028371Y016304D02*
X028371Y016150D01*
X028294Y016073D01*
X028064Y016073D01*
X028064Y015920D02*
X028064Y016380D01*
X028294Y016380D01*
X028371Y016304D01*
X028217Y016073D02*
X028371Y015920D01*
X028524Y015920D02*
X028831Y016227D01*
X028831Y015920D02*
X028524Y015920D01*
X028524Y016920D02*
X028524Y017380D01*
X028754Y017380D01*
X028831Y017304D01*
X028831Y017150D01*
X028754Y017073D01*
X028524Y017073D01*
X028678Y017073D02*
X028831Y016920D01*
X028985Y017150D02*
X029292Y017150D01*
X029215Y016920D02*
X029215Y017380D01*
X028985Y017150D01*
X029061Y017920D02*
X028985Y017997D01*
X029061Y017920D02*
X029215Y017920D01*
X029292Y017997D01*
X029292Y018073D01*
X029215Y018150D01*
X029138Y018150D01*
X029215Y018150D02*
X029292Y018227D01*
X029292Y018304D01*
X029215Y018380D01*
X029061Y018380D01*
X028985Y018304D01*
X028831Y018304D02*
X028831Y018150D01*
X028754Y018073D01*
X028524Y018073D01*
X028524Y017920D02*
X028524Y018380D01*
X028754Y018380D01*
X028831Y018304D01*
X028678Y018073D02*
X028831Y017920D01*
X028831Y018920D02*
X028678Y019073D01*
X028754Y019073D02*
X028524Y019073D01*
X028524Y018920D02*
X028524Y019380D01*
X028754Y019380D01*
X028831Y019304D01*
X028831Y019150D01*
X028754Y019073D01*
X028985Y018920D02*
X029292Y019227D01*
X029292Y019304D01*
X029215Y019380D01*
X029061Y019380D01*
X028985Y019304D01*
X028985Y018920D02*
X029292Y018920D01*
X029292Y019920D02*
X028985Y019920D01*
X029138Y019920D02*
X029138Y020380D01*
X028985Y020227D01*
X028831Y020304D02*
X028754Y020380D01*
X028524Y020380D01*
X028524Y019920D01*
X028524Y020073D02*
X028754Y020073D01*
X028831Y020150D01*
X028831Y020304D01*
X028678Y020073D02*
X028831Y019920D01*
X032845Y019304D02*
X032845Y018997D01*
X032922Y018920D01*
X033075Y018920D01*
X033152Y018997D01*
X033152Y019304D01*
X033075Y019380D01*
X032922Y019380D01*
X032845Y019304D01*
X032998Y019073D02*
X033152Y018920D01*
X033305Y018920D02*
X033612Y018920D01*
X033459Y018920D02*
X033459Y019380D01*
X033305Y019227D01*
X034685Y018947D02*
X034761Y018870D01*
X034838Y018870D01*
X034915Y018947D01*
X034915Y019330D01*
X034838Y019330D02*
X034992Y019330D01*
X035145Y019177D02*
X035298Y019330D01*
X035298Y018870D01*
X035145Y018870D02*
X035452Y018870D01*
X035685Y018947D02*
X035761Y018870D01*
X035838Y018870D01*
X035915Y018947D01*
X035915Y019330D01*
X035838Y019330D02*
X035992Y019330D01*
X036145Y019254D02*
X036222Y019330D01*
X036375Y019330D01*
X036452Y019254D01*
X036452Y019177D01*
X036145Y018870D01*
X036452Y018870D01*
X038064Y018920D02*
X038064Y019380D01*
X038294Y019380D01*
X038371Y019304D01*
X038371Y019150D01*
X038294Y019073D01*
X038064Y019073D01*
X038217Y019073D02*
X038371Y018920D01*
X038524Y018920D02*
X038831Y018920D01*
X038678Y018920D02*
X038678Y019380D01*
X038524Y019227D01*
X038985Y019227D02*
X038985Y019304D01*
X039061Y019380D01*
X039215Y019380D01*
X039292Y019304D01*
X039292Y019227D01*
X039215Y019150D01*
X039061Y019150D01*
X038985Y019227D01*
X039061Y019150D02*
X038985Y019073D01*
X038985Y018997D01*
X039061Y018920D01*
X039215Y018920D01*
X039292Y018997D01*
X039292Y019073D01*
X039215Y019150D01*
X039215Y018380D02*
X039061Y018380D01*
X038985Y018304D01*
X038985Y018227D01*
X039061Y018150D01*
X039292Y018150D01*
X039292Y017997D02*
X039292Y018304D01*
X039215Y018380D01*
X039292Y017997D02*
X039215Y017920D01*
X039061Y017920D01*
X038985Y017997D01*
X038831Y017920D02*
X038524Y017920D01*
X038371Y017920D02*
X038217Y018073D01*
X038294Y018073D02*
X038064Y018073D01*
X038064Y017920D02*
X038064Y018380D01*
X038294Y018380D01*
X038371Y018304D01*
X038371Y018150D01*
X038294Y018073D01*
X038524Y018227D02*
X038678Y018380D01*
X038678Y017920D01*
X038754Y017380D02*
X038601Y017380D01*
X038524Y017304D01*
X038371Y017304D02*
X038371Y017150D01*
X038294Y017073D01*
X038064Y017073D01*
X038064Y016920D02*
X038064Y017380D01*
X038294Y017380D01*
X038371Y017304D01*
X038217Y017073D02*
X038371Y016920D01*
X038524Y016920D02*
X038831Y017227D01*
X038831Y017304D01*
X038754Y017380D01*
X038985Y017304D02*
X039061Y017380D01*
X039215Y017380D01*
X039292Y017304D01*
X038985Y016997D01*
X039061Y016920D01*
X039215Y016920D01*
X039292Y016997D01*
X039292Y017304D01*
X038985Y017304D02*
X038985Y016997D01*
X038831Y016920D02*
X038524Y016920D01*
X038601Y016380D02*
X038524Y016304D01*
X038601Y016380D02*
X038754Y016380D01*
X038831Y016304D01*
X038831Y016227D01*
X038524Y015920D01*
X038831Y015920D01*
X038985Y015920D02*
X039292Y015920D01*
X039138Y015920D02*
X039138Y016380D01*
X038985Y016227D01*
X038371Y016304D02*
X038371Y016150D01*
X038294Y016073D01*
X038064Y016073D01*
X038064Y015920D02*
X038064Y016380D01*
X038294Y016380D01*
X038371Y016304D01*
X038217Y016073D02*
X038371Y015920D01*
X038294Y015380D02*
X038371Y015304D01*
X038371Y015150D01*
X038294Y015073D01*
X038064Y015073D01*
X038064Y014920D02*
X038064Y015380D01*
X038294Y015380D01*
X038524Y015304D02*
X038601Y015380D01*
X038754Y015380D01*
X038831Y015304D01*
X038831Y015227D01*
X038524Y014920D01*
X038831Y014920D01*
X038985Y014920D02*
X039292Y015227D01*
X039292Y015304D01*
X039215Y015380D01*
X039061Y015380D01*
X038985Y015304D01*
X038985Y014920D02*
X039292Y014920D01*
X039215Y014380D02*
X039061Y014380D01*
X038985Y014304D01*
X038831Y014304D02*
X038754Y014380D01*
X038601Y014380D01*
X038524Y014304D01*
X038371Y014304D02*
X038371Y014150D01*
X038294Y014073D01*
X038064Y014073D01*
X038064Y013920D02*
X038064Y014380D01*
X038294Y014380D01*
X038371Y014304D01*
X038217Y014073D02*
X038371Y013920D01*
X038524Y013920D02*
X038831Y014227D01*
X038831Y014304D01*
X039138Y014150D02*
X039215Y014150D01*
X039292Y014073D01*
X039292Y013997D01*
X039215Y013920D01*
X039061Y013920D01*
X038985Y013997D01*
X038831Y013920D02*
X038524Y013920D01*
X039215Y014150D02*
X039292Y014227D01*
X039292Y014304D01*
X039215Y014380D01*
X038371Y014920D02*
X038217Y015073D01*
X033612Y015073D02*
X033612Y014997D01*
X033536Y014920D01*
X033382Y014920D01*
X033305Y014997D01*
X033152Y014997D02*
X033075Y014920D01*
X032922Y014920D01*
X032845Y014997D01*
X032845Y015304D01*
X032922Y015380D01*
X033075Y015380D01*
X033152Y015304D01*
X033152Y014997D01*
X033152Y014920D02*
X032998Y015073D01*
X033305Y015304D02*
X033382Y015380D01*
X033536Y015380D01*
X033612Y015304D01*
X033612Y015227D01*
X033536Y015150D01*
X033612Y015073D01*
X033536Y015150D02*
X033459Y015150D01*
X033612Y016920D02*
X033305Y016920D01*
X033612Y017227D01*
X033612Y017304D01*
X033536Y017380D01*
X033382Y017380D01*
X033305Y017304D01*
X033152Y017304D02*
X033152Y016997D01*
X033075Y016920D01*
X032922Y016920D01*
X032845Y016997D01*
X032845Y017304D01*
X032922Y017380D01*
X033075Y017380D01*
X033152Y017304D01*
X032998Y017073D02*
X033152Y016920D01*
X038064Y019920D02*
X038064Y020380D01*
X038294Y020380D01*
X038371Y020304D01*
X038371Y020150D01*
X038294Y020073D01*
X038064Y020073D01*
X038217Y020073D02*
X038371Y019920D01*
X038524Y019920D02*
X038831Y019920D01*
X038678Y019920D02*
X038678Y020380D01*
X038524Y020227D01*
X038985Y020380D02*
X039292Y020380D01*
X039292Y020304D01*
X038985Y019997D01*
X038985Y019920D01*
X039061Y020920D02*
X039215Y020920D01*
X039292Y020997D01*
X039292Y021073D01*
X039215Y021150D01*
X038985Y021150D01*
X038985Y020997D01*
X039061Y020920D01*
X038831Y020920D02*
X038524Y020920D01*
X038371Y020920D02*
X038217Y021073D01*
X038294Y021073D02*
X038064Y021073D01*
X038064Y020920D02*
X038064Y021380D01*
X038294Y021380D01*
X038371Y021304D01*
X038371Y021150D01*
X038294Y021073D01*
X038524Y021227D02*
X038678Y021380D01*
X038678Y020920D01*
X038985Y021150D02*
X039138Y021304D01*
X039292Y021380D01*
X043158Y020361D02*
X043158Y019901D01*
X043388Y019901D01*
X043465Y019978D01*
X043465Y020285D01*
X043388Y020361D01*
X043158Y020361D01*
X043618Y020208D02*
X043771Y020361D01*
X043771Y019901D01*
X043618Y019901D02*
X043925Y019901D01*
X045064Y019920D02*
X045064Y020380D01*
X045294Y020380D01*
X045371Y020304D01*
X045371Y020150D01*
X045294Y020073D01*
X045064Y020073D01*
X045217Y020073D02*
X045371Y019920D01*
X045524Y019920D02*
X045831Y019920D01*
X045678Y019920D02*
X045678Y020380D01*
X045524Y020227D01*
X045985Y020304D02*
X046061Y020380D01*
X046215Y020380D01*
X046292Y020304D01*
X045985Y019997D01*
X046061Y019920D01*
X046215Y019920D01*
X046292Y019997D01*
X046292Y020304D01*
X045985Y020304D02*
X045985Y019997D01*
X046138Y019380D02*
X046138Y018920D01*
X045985Y018920D02*
X046292Y018920D01*
X045985Y019227D02*
X046138Y019380D01*
X045678Y019380D02*
X045678Y018920D01*
X045831Y018920D02*
X045524Y018920D01*
X045371Y018920D02*
X045217Y019073D01*
X045294Y019073D02*
X045064Y019073D01*
X045064Y018920D02*
X045064Y019380D01*
X045294Y019380D01*
X045371Y019304D01*
X045371Y019150D01*
X045294Y019073D01*
X045524Y019227D02*
X045678Y019380D01*
X045678Y018380D02*
X045678Y017920D01*
X045831Y017920D02*
X045524Y017920D01*
X045371Y017920D02*
X045217Y018073D01*
X045294Y018073D02*
X045064Y018073D01*
X045064Y017920D02*
X045064Y018380D01*
X045294Y018380D01*
X045371Y018304D01*
X045371Y018150D01*
X045294Y018073D01*
X045524Y018227D02*
X045678Y018380D01*
X045985Y018304D02*
X046061Y018380D01*
X046215Y018380D01*
X046292Y018304D01*
X046292Y018227D01*
X045985Y017920D01*
X046292Y017920D01*
X046215Y017380D02*
X046061Y017380D01*
X045985Y017304D01*
X046138Y017150D02*
X046215Y017150D01*
X046292Y017073D01*
X046292Y016997D01*
X046215Y016920D01*
X046061Y016920D01*
X045985Y016997D01*
X045831Y016920D02*
X045524Y016920D01*
X045371Y016920D02*
X045217Y017073D01*
X045294Y017073D02*
X045064Y017073D01*
X045064Y016920D02*
X045064Y017380D01*
X045294Y017380D01*
X045371Y017304D01*
X045371Y017150D01*
X045294Y017073D01*
X045524Y017227D02*
X045678Y017380D01*
X045678Y016920D01*
X045678Y016380D02*
X045678Y015920D01*
X045831Y015920D02*
X045524Y015920D01*
X045371Y015920D02*
X045217Y016073D01*
X045294Y016073D02*
X045064Y016073D01*
X045064Y015920D02*
X045064Y016380D01*
X045294Y016380D01*
X045371Y016304D01*
X045371Y016150D01*
X045294Y016073D01*
X045524Y016227D02*
X045678Y016380D01*
X045985Y016150D02*
X046292Y016150D01*
X046215Y015920D02*
X046215Y016380D01*
X045985Y016150D01*
X045985Y015380D02*
X045985Y015150D01*
X046138Y015227D01*
X046215Y015227D01*
X046292Y015150D01*
X046292Y014997D01*
X046215Y014920D01*
X046061Y014920D01*
X045985Y014997D01*
X045831Y014920D02*
X045524Y014920D01*
X045371Y014920D02*
X045217Y015073D01*
X045294Y015073D02*
X045064Y015073D01*
X045064Y014920D02*
X045064Y015380D01*
X045294Y015380D01*
X045371Y015304D01*
X045371Y015150D01*
X045294Y015073D01*
X045524Y015227D02*
X045678Y015380D01*
X045678Y014920D01*
X045985Y015380D02*
X046292Y015380D01*
X048503Y015380D02*
X048503Y014920D01*
X048810Y014920D01*
X048964Y014920D02*
X049271Y014920D01*
X049424Y014920D02*
X049654Y014920D01*
X049731Y014997D01*
X049731Y015304D01*
X049654Y015380D01*
X049424Y015380D01*
X049424Y014920D01*
X049117Y015150D02*
X048964Y015150D01*
X048964Y015380D02*
X048964Y014920D01*
X049885Y014920D02*
X049885Y014997D01*
X050192Y015304D01*
X050192Y015380D01*
X049885Y015380D01*
X049961Y015920D02*
X050115Y015920D01*
X050192Y015997D01*
X050192Y016073D01*
X050115Y016150D01*
X049885Y016150D01*
X049885Y015997D01*
X049961Y015920D01*
X049731Y015997D02*
X049731Y016304D01*
X049654Y016380D01*
X049424Y016380D01*
X049424Y015920D01*
X049654Y015920D01*
X049731Y015997D01*
X049885Y016150D02*
X050038Y016304D01*
X050192Y016380D01*
X050115Y016920D02*
X049961Y016920D01*
X049885Y016997D01*
X049885Y017150D02*
X050038Y017227D01*
X050115Y017227D01*
X050192Y017150D01*
X050192Y016997D01*
X050115Y016920D01*
X049885Y017150D02*
X049885Y017380D01*
X050192Y017380D01*
X049731Y017304D02*
X049654Y017380D01*
X049424Y017380D01*
X049424Y016920D01*
X049654Y016920D01*
X049731Y016997D01*
X049731Y017304D01*
X049271Y017380D02*
X048964Y017380D01*
X048964Y016920D01*
X049271Y016920D01*
X049117Y017150D02*
X048964Y017150D01*
X048810Y016920D02*
X048503Y016920D01*
X048503Y017380D01*
X048503Y017920D02*
X048810Y017920D01*
X048964Y017920D02*
X049271Y017920D01*
X049424Y017920D02*
X049424Y018380D01*
X049654Y018380D01*
X049731Y018304D01*
X049731Y017997D01*
X049654Y017920D01*
X049424Y017920D01*
X049117Y018150D02*
X048964Y018150D01*
X048964Y018380D02*
X048964Y017920D01*
X048964Y018380D02*
X049271Y018380D01*
X049271Y018920D02*
X048964Y018920D01*
X048964Y019380D01*
X049271Y019380D01*
X049424Y019380D02*
X049424Y018920D01*
X049654Y018920D01*
X049731Y018997D01*
X049731Y019304D01*
X049654Y019380D01*
X049424Y019380D01*
X049117Y019150D02*
X048964Y019150D01*
X048810Y018920D02*
X048503Y018920D01*
X048503Y019380D01*
X048503Y019920D02*
X048810Y019920D01*
X048964Y019920D02*
X049271Y019920D01*
X049424Y019920D02*
X049424Y020380D01*
X049654Y020380D01*
X049731Y020304D01*
X049731Y019997D01*
X049654Y019920D01*
X049424Y019920D01*
X049117Y020150D02*
X048964Y020150D01*
X048964Y020380D02*
X048964Y019920D01*
X048964Y020380D02*
X049271Y020380D01*
X049271Y020920D02*
X048964Y020920D01*
X048964Y021380D01*
X049271Y021380D01*
X049424Y021380D02*
X049424Y020920D01*
X049654Y020920D01*
X049731Y020997D01*
X049731Y021304D01*
X049654Y021380D01*
X049424Y021380D01*
X049117Y021150D02*
X048964Y021150D01*
X048810Y020920D02*
X048503Y020920D01*
X048503Y021380D01*
X048503Y021920D02*
X048810Y021920D01*
X048964Y021920D02*
X049271Y021920D01*
X049424Y021920D02*
X049424Y022380D01*
X049654Y022380D01*
X049731Y022304D01*
X049731Y021997D01*
X049654Y021920D01*
X049424Y021920D01*
X049117Y022150D02*
X048964Y022150D01*
X048964Y022380D02*
X048964Y021920D01*
X048964Y022380D02*
X049271Y022380D01*
X049885Y022304D02*
X049961Y022380D01*
X050115Y022380D01*
X050192Y022304D01*
X049885Y021997D01*
X049961Y021920D01*
X050115Y021920D01*
X050192Y021997D01*
X050192Y022304D01*
X049885Y022304D02*
X049885Y021997D01*
X050038Y021380D02*
X050038Y020920D01*
X049885Y020920D02*
X050192Y020920D01*
X049885Y021227D02*
X050038Y021380D01*
X049961Y020380D02*
X049885Y020304D01*
X049961Y020380D02*
X050115Y020380D01*
X050192Y020304D01*
X050192Y020227D01*
X049885Y019920D01*
X050192Y019920D01*
X050115Y019380D02*
X049961Y019380D01*
X049885Y019304D01*
X050038Y019150D02*
X050115Y019150D01*
X050192Y019073D01*
X050192Y018997D01*
X050115Y018920D01*
X049961Y018920D01*
X049885Y018997D01*
X050115Y019150D02*
X050192Y019227D01*
X050192Y019304D01*
X050115Y019380D01*
X050115Y018380D02*
X049885Y018150D01*
X050192Y018150D01*
X050115Y017920D02*
X050115Y018380D01*
X048503Y018380D02*
X048503Y017920D01*
X046292Y017304D02*
X046292Y017227D01*
X046215Y017150D01*
X046292Y017304D02*
X046215Y017380D01*
X048503Y016380D02*
X048503Y015920D01*
X048810Y015920D01*
X048964Y015920D02*
X049271Y015920D01*
X049117Y016150D02*
X048964Y016150D01*
X048964Y016380D02*
X048964Y015920D01*
X048964Y016380D02*
X049271Y016380D01*
X049271Y015380D02*
X048964Y015380D01*
X043925Y015978D02*
X043848Y015901D01*
X043695Y015901D01*
X043618Y015978D01*
X043465Y015978D02*
X043465Y016285D01*
X043388Y016361D01*
X043158Y016361D01*
X043158Y015901D01*
X043388Y015901D01*
X043465Y015978D01*
X043771Y016131D02*
X043848Y016131D01*
X043925Y016055D01*
X043925Y015978D01*
X043848Y016131D02*
X043925Y016208D01*
X043925Y016285D01*
X043848Y016361D01*
X043695Y016361D01*
X043618Y016285D01*
X043618Y017901D02*
X043925Y018208D01*
X043925Y018285D01*
X043848Y018361D01*
X043695Y018361D01*
X043618Y018285D01*
X043465Y018285D02*
X043388Y018361D01*
X043158Y018361D01*
X043158Y017901D01*
X043388Y017901D01*
X043465Y017978D01*
X043465Y018285D01*
X043618Y017901D02*
X043925Y017901D01*
X048503Y019920D02*
X048503Y020380D01*
X046292Y020997D02*
X046292Y021304D01*
X046215Y021380D01*
X046061Y021380D01*
X045985Y021304D01*
X045985Y021227D01*
X046061Y021150D01*
X046292Y021150D01*
X046292Y020997D02*
X046215Y020920D01*
X046061Y020920D01*
X045985Y020997D01*
X045831Y020920D02*
X045678Y021073D01*
X045754Y021073D02*
X045524Y021073D01*
X045524Y020920D02*
X045524Y021380D01*
X045754Y021380D01*
X045831Y021304D01*
X045831Y021150D01*
X045754Y021073D01*
X045831Y021920D02*
X045678Y022073D01*
X045754Y022073D02*
X045524Y022073D01*
X045524Y021920D02*
X045524Y022380D01*
X045754Y022380D01*
X045831Y022304D01*
X045831Y022150D01*
X045754Y022073D01*
X045985Y022073D02*
X046061Y022150D01*
X046215Y022150D01*
X046292Y022073D01*
X046292Y021997D01*
X046215Y021920D01*
X046061Y021920D01*
X045985Y021997D01*
X045985Y022073D01*
X046061Y022150D02*
X045985Y022227D01*
X045985Y022304D01*
X046061Y022380D01*
X046215Y022380D01*
X046292Y022304D01*
X046292Y022227D01*
X046215Y022150D01*
X048503Y022380D02*
X048503Y021920D01*
X049945Y023920D02*
X049945Y024380D01*
X050175Y024380D01*
X050252Y024304D01*
X050252Y024150D01*
X050175Y024073D01*
X049945Y024073D01*
X050098Y024073D02*
X050252Y023920D01*
X050405Y023920D02*
X050405Y023997D01*
X050712Y024304D01*
X050712Y024380D01*
X050405Y024380D01*
X050482Y024920D02*
X050636Y024920D01*
X050712Y024997D01*
X050712Y025073D01*
X050636Y025150D01*
X050405Y025150D01*
X050405Y024997D01*
X050482Y024920D01*
X050252Y024920D02*
X050098Y025073D01*
X050175Y025073D02*
X049945Y025073D01*
X049945Y024920D02*
X049945Y025380D01*
X050175Y025380D01*
X050252Y025304D01*
X050252Y025150D01*
X050175Y025073D01*
X050405Y025150D02*
X050559Y025304D01*
X050712Y025380D01*
X049938Y026420D02*
X049938Y026650D01*
X050092Y026804D01*
X050092Y026880D01*
X049938Y026650D02*
X049785Y026804D01*
X049785Y026880D01*
X049631Y026880D02*
X049324Y026573D01*
X049401Y026650D02*
X049631Y026420D01*
X049324Y026420D02*
X049324Y026880D01*
X049171Y026880D02*
X049171Y026420D01*
X048864Y026880D01*
X048864Y026420D01*
X048710Y026420D02*
X048557Y026420D01*
X048634Y026420D02*
X048634Y026880D01*
X048710Y026880D02*
X048557Y026880D01*
X048096Y026880D02*
X048096Y026420D01*
X048403Y026420D01*
X047943Y026497D02*
X047866Y026420D01*
X047636Y026420D01*
X047636Y026880D01*
X047866Y026880D01*
X047943Y026804D01*
X047943Y026727D01*
X047866Y026650D01*
X047636Y026650D01*
X047866Y026650D02*
X047943Y026573D01*
X047943Y026497D01*
X048864Y027420D02*
X048864Y027880D01*
X049094Y027880D01*
X049171Y027804D01*
X049171Y027650D01*
X049094Y027573D01*
X048864Y027573D01*
X049324Y027420D02*
X049324Y027880D01*
X049631Y027880D02*
X049631Y027420D01*
X049478Y027573D01*
X049324Y027420D01*
X049785Y027420D02*
X049785Y027880D01*
X050015Y027880D01*
X050092Y027804D01*
X050092Y027650D01*
X050015Y027573D01*
X049785Y027573D01*
X049938Y027573D02*
X050092Y027420D01*
X034992Y025380D02*
X034685Y025380D01*
X034685Y025150D01*
X034838Y025227D01*
X034915Y025227D01*
X034992Y025150D01*
X034992Y024997D01*
X034915Y024920D01*
X034761Y024920D01*
X034685Y024997D01*
X034531Y024920D02*
X034378Y025073D01*
X034454Y025073D02*
X034224Y025073D01*
X034224Y024920D02*
X034224Y025380D01*
X034454Y025380D01*
X034531Y025304D01*
X034531Y025150D01*
X034454Y025073D01*
X034454Y024380D02*
X034301Y024380D01*
X034224Y024304D01*
X034224Y023997D01*
X034301Y023920D01*
X034454Y023920D01*
X034531Y023997D01*
X034685Y023920D02*
X034992Y023920D01*
X034838Y023920D02*
X034838Y024380D01*
X034685Y024227D01*
X034531Y024304D02*
X034454Y024380D01*
X033604Y025420D02*
X033604Y025727D01*
X033604Y025573D02*
X033758Y025727D01*
X033835Y025727D01*
X033451Y025650D02*
X033451Y025573D01*
X033144Y025573D01*
X033144Y025497D02*
X033144Y025650D01*
X033221Y025727D01*
X033374Y025727D01*
X033451Y025650D01*
X033374Y025420D02*
X033221Y025420D01*
X033144Y025497D01*
X032990Y025420D02*
X032837Y025420D01*
X032914Y025420D02*
X032914Y025727D01*
X032837Y025727D01*
X032684Y025727D02*
X032607Y025727D01*
X032453Y025573D01*
X032453Y025420D02*
X032453Y025727D01*
X032300Y025727D02*
X032223Y025727D01*
X032070Y025573D01*
X032070Y025420D02*
X032070Y025727D01*
X031916Y025650D02*
X031840Y025727D01*
X031686Y025727D01*
X031686Y025573D02*
X031916Y025573D01*
X031916Y025650D02*
X031916Y025420D01*
X031686Y025420D01*
X031609Y025497D01*
X031686Y025573D01*
X031456Y025497D02*
X031379Y025420D01*
X031226Y025420D01*
X031149Y025497D01*
X031149Y025804D01*
X031226Y025880D01*
X031379Y025880D01*
X031456Y025804D01*
X030535Y025880D02*
X030535Y025420D01*
X030305Y025420D01*
X030228Y025497D01*
X030228Y025650D01*
X030305Y025727D01*
X030535Y025727D01*
X030075Y025650D02*
X030075Y025420D01*
X029844Y025420D01*
X029768Y025497D01*
X029844Y025573D01*
X030075Y025573D01*
X030075Y025650D02*
X029998Y025727D01*
X029844Y025727D01*
X029614Y025804D02*
X029614Y025650D01*
X029538Y025573D01*
X029307Y025573D01*
X029307Y025420D02*
X029307Y025880D01*
X029538Y025880D01*
X029614Y025804D01*
X029154Y025650D02*
X029077Y025727D01*
X028924Y025727D01*
X028847Y025650D01*
X028693Y025727D02*
X028463Y025727D01*
X028387Y025650D01*
X028387Y025497D01*
X028463Y025420D01*
X028693Y025420D01*
X028847Y025420D02*
X028847Y025880D01*
X029154Y025650D02*
X029154Y025420D01*
X029614Y024880D02*
X029844Y024880D01*
X029921Y024804D01*
X029921Y024727D01*
X029844Y024650D01*
X029614Y024650D01*
X029614Y024420D02*
X029844Y024420D01*
X029921Y024497D01*
X029921Y024573D01*
X029844Y024650D01*
X030075Y024573D02*
X030228Y024727D01*
X030305Y024727D01*
X030535Y024727D02*
X030689Y024727D01*
X030765Y024650D01*
X030765Y024420D01*
X030535Y024420D01*
X030458Y024497D01*
X030535Y024573D01*
X030765Y024573D01*
X030919Y024420D02*
X030919Y024727D01*
X031149Y024727D01*
X031226Y024650D01*
X031226Y024420D01*
X031379Y024497D02*
X031379Y024650D01*
X031456Y024727D01*
X031686Y024727D01*
X031686Y024880D02*
X031686Y024420D01*
X031456Y024420D01*
X031379Y024497D01*
X031840Y024727D02*
X031993Y024727D01*
X031916Y024804D02*
X031916Y024497D01*
X031993Y024420D01*
X031302Y023880D02*
X031149Y023804D01*
X030995Y023650D01*
X031226Y023650D01*
X031302Y023573D01*
X031302Y023497D01*
X031226Y023420D01*
X031072Y023420D01*
X030995Y023497D01*
X030995Y023650D01*
X030842Y023420D02*
X030535Y023420D01*
X030689Y023420D02*
X030689Y023880D01*
X030535Y023727D01*
X030382Y023804D02*
X030075Y023497D01*
X030151Y023420D01*
X030305Y023420D01*
X030382Y023497D01*
X030382Y023804D01*
X030305Y023880D01*
X030151Y023880D01*
X030075Y023804D01*
X030075Y023497D01*
X029921Y023420D02*
X029614Y023420D01*
X029921Y023727D01*
X029921Y023804D01*
X029844Y023880D01*
X029691Y023880D01*
X029614Y023804D01*
X029614Y024420D02*
X029614Y024880D01*
X030075Y024727D02*
X030075Y024420D01*
X029000Y024420D02*
X029000Y024650D01*
X028924Y024727D01*
X028693Y024727D01*
X028693Y024420D01*
X028540Y024573D02*
X028233Y024573D01*
X028233Y024497D02*
X028233Y024650D01*
X028310Y024727D01*
X028463Y024727D01*
X028540Y024650D01*
X028540Y024573D01*
X028463Y024420D02*
X028310Y024420D01*
X028233Y024497D01*
X028080Y024727D02*
X027926Y024420D01*
X027773Y024727D01*
X027619Y024650D02*
X027619Y024573D01*
X027312Y024573D01*
X027312Y024497D02*
X027312Y024650D01*
X027389Y024727D01*
X027543Y024727D01*
X027619Y024650D01*
X027543Y024420D02*
X027389Y024420D01*
X027312Y024497D01*
X027159Y024420D02*
X027082Y024497D01*
X027082Y024804D01*
X027005Y024727D02*
X027159Y024727D01*
X026852Y024804D02*
X026775Y024880D01*
X026622Y024880D01*
X026545Y024804D01*
X026545Y024727D01*
X026622Y024650D01*
X026775Y024650D01*
X026852Y024573D01*
X026852Y024497D01*
X026775Y024420D01*
X026622Y024420D01*
X026545Y024497D01*
X026698Y023880D02*
X026545Y023727D01*
X026545Y023420D01*
X026545Y023650D02*
X026852Y023650D01*
X026852Y023727D02*
X026852Y023420D01*
X027005Y023497D02*
X027082Y023420D01*
X027312Y023420D01*
X027312Y023727D01*
X027466Y023650D02*
X027466Y023497D01*
X027543Y023420D01*
X027773Y023420D01*
X027773Y023343D02*
X027773Y023727D01*
X027543Y023727D01*
X027466Y023650D01*
X027619Y023267D02*
X027696Y023267D01*
X027773Y023343D01*
X027926Y023497D02*
X028003Y023420D01*
X028233Y023420D01*
X028233Y023727D01*
X028387Y023650D02*
X028463Y023727D01*
X028693Y023727D01*
X028847Y023727D02*
X029000Y023727D01*
X028924Y023804D02*
X028924Y023497D01*
X029000Y023420D01*
X028693Y023497D02*
X028617Y023573D01*
X028463Y023573D01*
X028387Y023650D01*
X028387Y023420D02*
X028617Y023420D01*
X028693Y023497D01*
X027926Y023497D02*
X027926Y023727D01*
X027005Y023727D02*
X027005Y023497D01*
X026852Y023727D02*
X026698Y023880D01*
X026545Y025420D02*
X026852Y025420D01*
X027005Y025497D02*
X027082Y025573D01*
X027312Y025573D01*
X027312Y025650D02*
X027312Y025420D01*
X027082Y025420D01*
X027005Y025497D01*
X027082Y025727D02*
X027236Y025727D01*
X027312Y025650D01*
X027466Y025727D02*
X027466Y025497D01*
X027543Y025420D01*
X027773Y025420D01*
X027773Y025727D01*
X027926Y025727D02*
X028156Y025727D01*
X028233Y025650D01*
X028233Y025420D01*
X027926Y025420D02*
X027926Y025727D01*
X026545Y025880D02*
X026545Y025420D01*
X032914Y025880D02*
X032914Y025957D01*
X043158Y014361D02*
X043388Y014361D01*
X043465Y014285D01*
X043465Y013978D01*
X043388Y013901D01*
X043158Y013901D01*
X043158Y014361D01*
X043618Y014131D02*
X043925Y014131D01*
X043848Y013901D02*
X043848Y014361D01*
X043618Y014131D01*
D29*
X032850Y021650D03*
X032850Y021700D03*
D30*
X032825Y021750D03*
D31*
X032825Y021800D03*
D32*
X032825Y021850D03*
X032825Y023900D03*
D33*
X032850Y023850D03*
X032850Y021900D03*
D34*
X032850Y021950D03*
X032850Y023800D03*
D35*
X032875Y023750D03*
X032825Y022000D03*
D36*
X032825Y022050D03*
X032875Y023700D03*
D37*
X032875Y023650D03*
X032825Y022100D03*
D38*
X032800Y022150D03*
D39*
X032225Y022200D03*
X032175Y022250D03*
D40*
X032825Y023500D03*
D41*
X032850Y023550D03*
D42*
X032825Y023600D03*
D43*
X032800Y023950D03*
D44*
X032800Y024000D03*
D45*
X032825Y024050D03*
D46*
X036825Y018050D02*
X037125Y018050D01*
X037125Y017250D01*
X036825Y017250D01*
X036825Y017050D02*
X037125Y017050D01*
X037125Y016250D01*
X036825Y016250D01*
D47*
X037355Y016330D02*
X037782Y016330D01*
X037569Y016650D02*
X037355Y016650D01*
X037355Y016330D02*
X037355Y016971D01*
X037782Y016971D01*
X037782Y017330D02*
X037782Y017757D01*
X037569Y017971D01*
X037355Y017757D01*
X037355Y017330D01*
X037355Y017650D02*
X037782Y017650D01*
X050804Y012657D02*
X050804Y012336D01*
X051445Y012336D01*
X051445Y012657D01*
X051338Y012763D01*
X050911Y012763D01*
X050804Y012657D01*
X051018Y012119D02*
X051445Y012119D01*
X051125Y012119D02*
X051125Y011692D01*
X051018Y011692D02*
X050804Y011905D01*
X051018Y012119D01*
X051018Y011692D02*
X051445Y011692D01*
X051125Y011474D02*
X051231Y011368D01*
X051231Y011047D01*
X051445Y011047D02*
X050804Y011047D01*
X050804Y011368D01*
X050911Y011474D01*
X051125Y011474D01*
X051125Y010830D02*
X051125Y010403D01*
X051338Y010185D02*
X051445Y010078D01*
X051445Y009865D01*
X051338Y009758D01*
X050911Y009758D01*
X050804Y009865D01*
X050804Y010078D01*
X050911Y010185D01*
X050804Y010403D02*
X051445Y010403D01*
X051445Y010830D02*
X050804Y010830D01*
X050804Y009541D02*
X051445Y009541D01*
X050804Y009114D01*
X051445Y009114D01*
X051338Y008896D02*
X050804Y008896D01*
X050804Y008469D02*
X051338Y008469D01*
X051445Y008576D01*
X051445Y008789D01*
X051338Y008896D01*
X051445Y008252D02*
X051018Y008252D01*
X050804Y008038D01*
X051018Y007825D01*
X051445Y007825D01*
X051445Y007607D02*
X051445Y007180D01*
X050804Y007180D01*
X051125Y007825D02*
X051125Y008252D01*
D48*
X042282Y013835D02*
X042282Y014150D01*
X042440Y014150D01*
X042282Y014150D02*
X042282Y014465D01*
X041928Y014150D01*
X041810Y014150D01*
X041928Y014150D02*
X042282Y013835D01*
X041928Y013835D02*
X041928Y014150D01*
X041928Y014465D01*
X041928Y015835D02*
X041928Y016150D01*
X041810Y016150D01*
X041928Y016150D02*
X042282Y016465D01*
X042282Y016150D01*
X042440Y016150D01*
X042282Y016150D02*
X042282Y015835D01*
X041928Y016150D01*
X041928Y016465D01*
X041928Y017835D02*
X041928Y018150D01*
X041810Y018150D01*
X041928Y018150D02*
X042282Y018465D01*
X042282Y018150D01*
X042440Y018150D01*
X042282Y018150D02*
X042282Y017835D01*
X041928Y018150D01*
X041928Y018465D01*
X041928Y019835D02*
X041928Y020150D01*
X041810Y020150D01*
X041928Y020150D02*
X042282Y020465D01*
X042282Y020150D01*
X042440Y020150D01*
X042282Y020150D02*
X042282Y019835D01*
X041928Y020150D01*
X041928Y020465D01*
X036625Y018650D02*
X036625Y015650D01*
X035625Y015650D01*
X035625Y018650D01*
X036625Y018650D01*
X035625Y018650D02*
X035625Y015650D01*
X034625Y015650D01*
X034625Y018650D01*
X035625Y018650D01*
X032617Y018953D02*
X032617Y019347D01*
X031633Y019347D01*
X031633Y018953D01*
X032617Y018953D01*
X032617Y017347D02*
X031633Y017347D01*
X031633Y016953D01*
X032617Y016953D01*
X032617Y017347D01*
X032617Y015347D02*
X031633Y015347D01*
X031633Y014953D01*
X032617Y014953D01*
X032617Y015347D01*
X050975Y015350D02*
X051275Y015150D01*
X050975Y014950D01*
X050975Y015350D01*
X051275Y015350D02*
X051275Y015150D01*
X051275Y014950D01*
X051275Y015950D02*
X051275Y016150D01*
X050975Y016350D01*
X050975Y015950D01*
X051275Y016150D01*
X051275Y016350D01*
X051275Y016950D02*
X051275Y017150D01*
X050975Y017350D01*
X050975Y016950D01*
X051275Y017150D01*
X051275Y017350D01*
X051275Y017950D02*
X051275Y018150D01*
X050975Y018350D01*
X050975Y017950D01*
X051275Y018150D01*
X051275Y018350D01*
X051275Y018950D02*
X051275Y019150D01*
X050975Y019350D01*
X050975Y018950D01*
X051275Y019150D01*
X051275Y019350D01*
X051275Y019950D02*
X051275Y020150D01*
X050975Y020350D01*
X050975Y019950D01*
X051275Y020150D01*
X051275Y020350D01*
X051275Y020950D02*
X051275Y021150D01*
X050975Y021350D01*
X050975Y020950D01*
X051275Y021150D01*
X051275Y021350D01*
X051275Y021950D02*
X051275Y022150D01*
X050975Y022350D01*
X050975Y021950D01*
X051275Y022150D01*
X051275Y022350D01*
X051025Y026450D02*
X051025Y026650D01*
X050825Y026450D01*
X050825Y026850D01*
X051025Y026650D01*
X051025Y026850D01*
X051025Y027450D02*
X051025Y027650D01*
X050825Y027450D01*
X050825Y027850D01*
X051025Y027650D01*
X051025Y027850D01*
M02*
