G75*
%MOIN*%
%OFA0B0*%
%FSLAX24Y24*%
%IPPOS*%
%LPD*%
%AMOC8*
5,1,8,0,0,1.08239X$1,22.5*
%
%ADD10C,0.0100*%
%ADD11C,0.0060*%
D10*
X034125Y016250D02*
X034125Y017050D01*
X034425Y017050D01*
X034425Y017250D02*
X034125Y017250D01*
X034125Y018050D01*
X034425Y018050D01*
X034425Y016250D02*
X034125Y016250D01*
X036825Y016250D02*
X037125Y016250D01*
X037125Y017050D01*
X036825Y017050D01*
X036825Y017250D02*
X037125Y017250D01*
X037125Y018050D01*
X036825Y018050D01*
D11*
X033895Y016330D02*
X033468Y016330D01*
X033681Y016650D02*
X033895Y016650D01*
X033895Y016330D02*
X033895Y016971D01*
X033468Y016971D01*
X033468Y017330D02*
X033468Y017757D01*
X033681Y017971D01*
X033895Y017757D01*
X033895Y017330D01*
X033895Y017650D02*
X033468Y017650D01*
X037313Y017650D02*
X037740Y017650D01*
X037740Y017757D02*
X037526Y017971D01*
X037313Y017757D01*
X037313Y017330D01*
X037313Y016971D02*
X037740Y016971D01*
X037740Y016330D01*
X037313Y016330D01*
X037526Y016650D02*
X037740Y016650D01*
X037740Y017330D02*
X037740Y017757D01*
M02*
