G75*
%MOIN*%
%OFA0B0*%
%FSLAX24Y24*%
%IPPOS*%
%LPD*%
%AMOC8*
5,1,8,0,0,1.08239X$1,22.5*
%
%ADD10R,0.0315X0.0354*%
%ADD11R,0.0354X0.0512*%
%ADD12R,0.0660X0.0660*%
%ADD13C,0.0660*%
%ADD14R,0.0276X0.1654*%
%ADD15R,0.0276X0.1260*%
%ADD16R,0.0571X0.0551*%
%ADD17R,0.0472X0.0472*%
%ADD18R,0.0528X0.0709*%
%ADD19C,0.0100*%
%ADD20C,0.0376*%
%ADD21C,0.0120*%
%ADD22C,0.0240*%
D10*
X031751Y014756D03*
X032499Y014756D03*
X032125Y015544D03*
X031751Y016756D03*
X032499Y016756D03*
X032125Y017544D03*
X031751Y018756D03*
X032499Y018756D03*
X032125Y019544D03*
D11*
X030538Y019150D03*
X029712Y019150D03*
X029712Y020150D03*
X030538Y020150D03*
X030538Y018150D03*
X029712Y018150D03*
X029712Y017150D03*
X030538Y017150D03*
X030538Y016150D03*
X029712Y016150D03*
X029712Y015150D03*
X030538Y015150D03*
X039712Y015150D03*
X040538Y015150D03*
X040538Y014150D03*
X039712Y014150D03*
X039712Y016150D03*
X040538Y016150D03*
X040538Y017150D03*
X039712Y017150D03*
X039712Y018150D03*
X040538Y018150D03*
X040538Y019150D03*
X039712Y019150D03*
X039712Y020150D03*
X040538Y020150D03*
X040538Y021150D03*
X039712Y021150D03*
X036538Y024150D03*
X035712Y024150D03*
X035712Y025150D03*
X036538Y025150D03*
X046712Y022150D03*
X047538Y022150D03*
X047538Y021150D03*
X046712Y021150D03*
X046712Y020150D03*
X047538Y020150D03*
X047538Y019150D03*
X046712Y019150D03*
X046712Y018150D03*
X047538Y018150D03*
X047538Y017150D03*
X046712Y017150D03*
X046712Y016150D03*
X047538Y016150D03*
X047538Y015150D03*
X046712Y015150D03*
X048712Y024150D03*
X049538Y024150D03*
X049538Y025150D03*
X048712Y025150D03*
D12*
X038125Y025150D03*
X038125Y024150D03*
X036125Y018150D03*
X035125Y018150D03*
X038125Y008150D03*
X038125Y007150D03*
D13*
X039125Y007150D03*
X040125Y007150D03*
X041125Y007150D03*
X042125Y007150D03*
X042125Y008150D03*
X041125Y008150D03*
X040125Y008150D03*
X039125Y008150D03*
X043125Y008150D03*
X044125Y008150D03*
X045125Y008150D03*
X046125Y008150D03*
X046125Y007150D03*
X045125Y007150D03*
X044125Y007150D03*
X043125Y007150D03*
X047125Y007150D03*
X047125Y008150D03*
X035125Y010150D03*
X034125Y010150D03*
X035125Y016150D03*
X036125Y016150D03*
X036125Y017150D03*
X035125Y017150D03*
X039125Y024150D03*
X040125Y024150D03*
X041125Y024150D03*
X042125Y024150D03*
X042125Y025150D03*
X041125Y025150D03*
X040125Y025150D03*
X039125Y025150D03*
X043125Y025150D03*
X044125Y025150D03*
X045125Y025150D03*
X046125Y025150D03*
X046125Y024150D03*
X045125Y024150D03*
X044125Y024150D03*
X043125Y024150D03*
X047125Y024150D03*
X047125Y025150D03*
D14*
X047893Y003591D03*
X048286Y003591D03*
X048680Y003591D03*
X049074Y003591D03*
X045924Y003591D03*
X045531Y003591D03*
X045137Y003591D03*
X044743Y003591D03*
X044349Y003591D03*
X043956Y003591D03*
X043562Y003591D03*
X043168Y003591D03*
X042775Y003591D03*
D15*
X049468Y003788D03*
D16*
X050512Y026650D03*
X051338Y026650D03*
X051338Y027650D03*
X050512Y027650D03*
D17*
X050712Y022150D03*
X051538Y022150D03*
X051538Y021150D03*
X050712Y021150D03*
X050712Y020150D03*
X051538Y020150D03*
X051538Y019150D03*
X050712Y019150D03*
X050712Y018150D03*
X051538Y018150D03*
X051538Y017150D03*
X050712Y017150D03*
X050712Y016150D03*
X051538Y016150D03*
X051538Y015150D03*
X050712Y015150D03*
D18*
X042688Y014150D03*
X041562Y014150D03*
X041562Y016150D03*
X042688Y016150D03*
X042688Y018150D03*
X041562Y018150D03*
X041562Y020150D03*
X042688Y020150D03*
D19*
X026350Y028256D02*
X026350Y002607D01*
X026353Y002574D01*
X026378Y002513D01*
X026425Y002466D01*
X026486Y002441D01*
X026519Y002438D01*
X039763Y002438D01*
X039796Y002441D01*
X039857Y002466D01*
X039903Y002513D01*
X039928Y002574D01*
X039931Y002607D01*
X039931Y005879D01*
X040026Y006107D01*
X040026Y006107D01*
X040139Y006220D01*
X037430Y006220D01*
X036930Y006720D01*
X036795Y006855D01*
X036795Y007845D01*
X036940Y007990D01*
X033059Y007990D01*
X030602Y010447D01*
X030508Y010540D01*
X030508Y014127D01*
X029851Y014784D01*
X029489Y014784D01*
X029424Y014849D01*
X029424Y014980D01*
X028655Y014980D01*
X028055Y015580D01*
X027955Y015680D01*
X027955Y016720D01*
X028385Y017150D01*
X027955Y017580D01*
X027955Y018720D01*
X028055Y018820D01*
X028555Y019320D01*
X029424Y019320D01*
X029424Y019451D01*
X029489Y019516D01*
X029933Y019516D01*
X029865Y019584D01*
X029665Y019784D01*
X029489Y019784D01*
X029424Y019849D01*
X029424Y020451D01*
X029489Y020516D01*
X029542Y020516D01*
X029542Y020630D01*
X029398Y020630D01*
X029378Y020581D01*
X029294Y020497D01*
X029184Y020452D01*
X029066Y020452D01*
X028956Y020497D01*
X028872Y020581D01*
X028827Y020691D01*
X028827Y020809D01*
X028872Y020919D01*
X028956Y021003D01*
X029066Y021048D01*
X029184Y021048D01*
X029294Y021003D01*
X029327Y020970D01*
X029705Y020970D01*
X030055Y021320D01*
X032641Y021320D01*
X035424Y024103D01*
X035424Y024451D01*
X035489Y024516D01*
X035934Y024516D01*
X035999Y024451D01*
X035999Y024103D01*
X036251Y023851D01*
X036251Y024451D01*
X036316Y024516D01*
X036378Y024516D01*
X036378Y024784D01*
X036316Y024784D01*
X036251Y024849D01*
X036251Y025451D01*
X036316Y025516D01*
X036678Y025516D01*
X037072Y025910D01*
X041691Y025910D01*
X041785Y025816D01*
X042019Y025582D01*
X042037Y025590D01*
X042213Y025590D01*
X042374Y025523D01*
X042498Y025399D01*
X042565Y025238D01*
X042565Y025062D01*
X042498Y024901D01*
X042374Y024777D01*
X042213Y024710D01*
X042037Y024710D01*
X041876Y024777D01*
X041752Y024901D01*
X041685Y025062D01*
X041685Y025238D01*
X041751Y025397D01*
X041559Y025590D01*
X038557Y025590D01*
X038575Y025572D01*
X038595Y025538D01*
X038605Y025500D01*
X038605Y025189D01*
X038164Y025189D01*
X038164Y025111D01*
X038605Y025111D01*
X038605Y024800D01*
X038595Y024762D01*
X038575Y024728D01*
X038547Y024700D01*
X038513Y024680D01*
X038475Y024670D01*
X038164Y024670D01*
X038164Y025111D01*
X038086Y025111D01*
X038086Y024670D01*
X037775Y024670D01*
X037737Y024680D01*
X037703Y024700D01*
X037675Y024728D01*
X037655Y024762D01*
X037645Y024800D01*
X037645Y025111D01*
X038086Y025111D01*
X038086Y025189D01*
X037645Y025189D01*
X037645Y025500D01*
X037655Y025538D01*
X037675Y025572D01*
X037693Y025590D01*
X037205Y025590D01*
X036826Y025211D01*
X036826Y024849D01*
X036761Y024784D01*
X036698Y024784D01*
X036698Y024516D01*
X036761Y024516D01*
X036826Y024451D01*
X036826Y023849D01*
X036761Y023784D01*
X036318Y023784D01*
X037782Y022320D01*
X038195Y022320D01*
X039195Y021320D01*
X039424Y021320D01*
X039424Y021451D01*
X039489Y021516D01*
X039934Y021516D01*
X039965Y021485D01*
X039965Y021594D01*
X039956Y021597D01*
X039872Y021681D01*
X039827Y021791D01*
X039827Y021909D01*
X039872Y022019D01*
X039956Y022103D01*
X040066Y022148D01*
X040184Y022148D01*
X040294Y022103D01*
X040378Y022019D01*
X040423Y021909D01*
X040423Y021791D01*
X040378Y021681D01*
X040294Y021597D01*
X040285Y021594D01*
X040285Y021485D01*
X040316Y021516D01*
X040761Y021516D01*
X040826Y021451D01*
X040826Y021310D01*
X040991Y021310D01*
X041391Y020910D01*
X042391Y020910D01*
X042687Y020614D01*
X042997Y020614D01*
X043062Y020550D01*
X043062Y019750D01*
X042997Y019686D01*
X042911Y019686D01*
X042978Y019619D01*
X043023Y019509D01*
X043023Y019391D01*
X042978Y019281D01*
X042894Y019197D01*
X042830Y019171D01*
X043391Y018610D01*
X043465Y018536D01*
X043465Y020184D01*
X042659Y020990D01*
X041559Y020990D01*
X041465Y021084D01*
X041093Y021456D01*
X041084Y021452D01*
X040966Y021452D01*
X040856Y021497D01*
X040772Y021581D01*
X040727Y021691D01*
X040727Y021809D01*
X040772Y021919D01*
X040856Y022003D01*
X040966Y022048D01*
X041084Y022048D01*
X041194Y022003D01*
X041278Y021919D01*
X041323Y021809D01*
X041323Y021691D01*
X041319Y021682D01*
X041691Y021310D01*
X042739Y021310D01*
X041859Y022190D01*
X039859Y022190D01*
X039765Y022284D01*
X039465Y022584D01*
X039465Y023868D01*
X039374Y023777D01*
X039213Y023710D01*
X039037Y023710D01*
X038876Y023777D01*
X038752Y023901D01*
X038685Y024062D01*
X038685Y024238D01*
X038752Y024399D01*
X038876Y024523D01*
X039037Y024590D01*
X039213Y024590D01*
X039374Y024523D01*
X039465Y024432D01*
X039465Y024584D01*
X039302Y024747D01*
X039213Y024710D01*
X039037Y024710D01*
X038876Y024777D01*
X038752Y024901D01*
X038685Y025062D01*
X038685Y025238D01*
X038752Y025399D01*
X038876Y025523D01*
X039037Y025590D01*
X039213Y025590D01*
X039374Y025523D01*
X039498Y025399D01*
X039565Y025238D01*
X039565Y025062D01*
X039528Y024973D01*
X039691Y024810D01*
X039785Y024716D01*
X039785Y024432D01*
X039876Y024523D01*
X040037Y024590D01*
X040213Y024590D01*
X040374Y024523D01*
X040498Y024399D01*
X040565Y024238D01*
X040565Y024062D01*
X040498Y023901D01*
X040374Y023777D01*
X040285Y023740D01*
X040285Y023216D01*
X040691Y022810D01*
X042091Y022810D01*
X042185Y022716D01*
X042185Y022716D01*
X043838Y021063D01*
X043827Y021091D01*
X043827Y021209D01*
X043872Y021319D01*
X043956Y021403D01*
X044066Y021448D01*
X044184Y021448D01*
X044294Y021403D01*
X044378Y021319D01*
X044381Y021310D01*
X046424Y021310D01*
X046424Y021451D01*
X046489Y021516D01*
X046934Y021516D01*
X046999Y021451D01*
X046999Y020849D01*
X046934Y020784D01*
X046489Y020784D01*
X046424Y020849D01*
X046424Y020990D01*
X044381Y020990D01*
X044378Y020981D01*
X044297Y020900D01*
X044378Y020819D01*
X044423Y020709D01*
X044423Y020591D01*
X044378Y020481D01*
X044294Y020397D01*
X044184Y020352D01*
X044149Y020352D01*
X044191Y020310D01*
X046424Y020310D01*
X046424Y020451D01*
X046489Y020516D01*
X046934Y020516D01*
X046999Y020451D01*
X046999Y019849D01*
X046934Y019784D01*
X046489Y019784D01*
X046424Y019849D01*
X046424Y019990D01*
X044059Y019990D01*
X043965Y020084D01*
X043785Y020264D01*
X043785Y017716D01*
X044191Y017310D01*
X046424Y017310D01*
X046424Y017451D01*
X046489Y017516D01*
X046934Y017516D01*
X046999Y017451D01*
X046999Y016849D01*
X046934Y016784D01*
X046489Y016784D01*
X046424Y016849D01*
X046424Y016990D01*
X044059Y016990D01*
X043485Y017564D01*
X043485Y017516D01*
X043533Y017516D01*
X043485Y017516D02*
X044285Y016716D01*
X044285Y014016D01*
X045191Y013110D01*
X048191Y013110D01*
X048591Y012710D01*
X048685Y012616D01*
X048685Y012532D01*
X048756Y012603D01*
X048866Y012648D01*
X048984Y012648D01*
X049094Y012603D01*
X049178Y012519D01*
X049223Y012409D01*
X049223Y012291D01*
X049219Y012282D01*
X049234Y012267D01*
X049234Y009326D01*
X049272Y009419D01*
X049356Y009503D01*
X049466Y009548D01*
X049584Y009548D01*
X049694Y009503D01*
X049778Y009419D01*
X049823Y009309D01*
X049823Y009191D01*
X049778Y009081D01*
X049694Y008997D01*
X049685Y008994D01*
X049685Y004650D01*
X049892Y004650D01*
X049892Y005879D01*
X049986Y006107D01*
X049986Y006107D01*
X050160Y006281D01*
X050160Y006281D01*
X050388Y006375D01*
X051731Y006375D01*
X051764Y006378D01*
X051825Y006403D01*
X051872Y006450D01*
X051897Y006511D01*
X051900Y006544D01*
X051900Y014831D01*
X051895Y014822D01*
X051867Y014794D01*
X051833Y014774D01*
X051794Y014764D01*
X051588Y014764D01*
X051588Y015100D01*
X051488Y015100D01*
X051152Y015100D01*
X051152Y014894D01*
X051162Y014856D01*
X051182Y014822D01*
X051210Y014794D01*
X051244Y014774D01*
X051282Y014764D01*
X051488Y014764D01*
X051488Y015100D01*
X051488Y015200D01*
X051152Y015200D01*
X051152Y015406D01*
X051162Y015444D01*
X051182Y015478D01*
X051210Y015506D01*
X051244Y015526D01*
X051282Y015536D01*
X051488Y015536D01*
X051488Y015200D01*
X051588Y015200D01*
X051588Y015536D01*
X051794Y015536D01*
X051833Y015526D01*
X051867Y015506D01*
X051895Y015478D01*
X051900Y015469D01*
X051900Y015831D01*
X051895Y015822D01*
X051867Y015794D01*
X051833Y015774D01*
X051794Y015764D01*
X051588Y015764D01*
X051588Y016100D01*
X051488Y016100D01*
X051152Y016100D01*
X051152Y015894D01*
X051162Y015856D01*
X051182Y015822D01*
X051210Y015794D01*
X051244Y015774D01*
X051282Y015764D01*
X051488Y015764D01*
X051488Y016100D01*
X051488Y016200D01*
X051152Y016200D01*
X051152Y016406D01*
X051162Y016444D01*
X051182Y016478D01*
X051210Y016506D01*
X051244Y016526D01*
X051282Y016536D01*
X051488Y016536D01*
X051488Y016200D01*
X051588Y016200D01*
X051588Y016536D01*
X051794Y016536D01*
X051833Y016526D01*
X051867Y016506D01*
X051895Y016478D01*
X051900Y016469D01*
X051900Y016831D01*
X051895Y016822D01*
X051867Y016794D01*
X051833Y016774D01*
X051794Y016764D01*
X051588Y016764D01*
X051588Y017100D01*
X051488Y017100D01*
X051152Y017100D01*
X051152Y016894D01*
X051162Y016856D01*
X051182Y016822D01*
X051210Y016794D01*
X051244Y016774D01*
X051282Y016764D01*
X051488Y016764D01*
X051488Y017100D01*
X051488Y017200D01*
X051152Y017200D01*
X051152Y017406D01*
X051162Y017444D01*
X051182Y017478D01*
X051210Y017506D01*
X051244Y017526D01*
X051282Y017536D01*
X051488Y017536D01*
X051488Y017200D01*
X051588Y017200D01*
X051588Y017536D01*
X051794Y017536D01*
X051833Y017526D01*
X051867Y017506D01*
X051895Y017478D01*
X051900Y017469D01*
X051900Y017831D01*
X051895Y017822D01*
X051867Y017794D01*
X051833Y017774D01*
X051794Y017764D01*
X051588Y017764D01*
X051588Y018100D01*
X051488Y018100D01*
X051152Y018100D01*
X051152Y017894D01*
X051162Y017856D01*
X051182Y017822D01*
X051210Y017794D01*
X051244Y017774D01*
X051282Y017764D01*
X051488Y017764D01*
X051488Y018100D01*
X051488Y018200D01*
X051152Y018200D01*
X051152Y018406D01*
X051162Y018444D01*
X051182Y018478D01*
X051210Y018506D01*
X051244Y018526D01*
X051282Y018536D01*
X051488Y018536D01*
X051488Y018200D01*
X051588Y018200D01*
X051588Y018536D01*
X051794Y018536D01*
X051833Y018526D01*
X051867Y018506D01*
X051895Y018478D01*
X051900Y018469D01*
X051900Y018831D01*
X051895Y018822D01*
X051867Y018794D01*
X051833Y018774D01*
X051794Y018764D01*
X051588Y018764D01*
X051588Y019100D01*
X051488Y019100D01*
X051152Y019100D01*
X051152Y018894D01*
X051162Y018856D01*
X051182Y018822D01*
X051210Y018794D01*
X051244Y018774D01*
X051282Y018764D01*
X051488Y018764D01*
X051488Y019100D01*
X051488Y019200D01*
X051152Y019200D01*
X051152Y019406D01*
X051162Y019444D01*
X051182Y019478D01*
X051210Y019506D01*
X051244Y019526D01*
X051282Y019536D01*
X051488Y019536D01*
X051488Y019200D01*
X051588Y019200D01*
X051588Y019536D01*
X051794Y019536D01*
X051833Y019526D01*
X051867Y019506D01*
X051895Y019478D01*
X051900Y019469D01*
X051900Y019831D01*
X051895Y019822D01*
X051867Y019794D01*
X051833Y019774D01*
X051794Y019764D01*
X051588Y019764D01*
X051588Y020100D01*
X051488Y020100D01*
X051152Y020100D01*
X051152Y019894D01*
X051162Y019856D01*
X051182Y019822D01*
X051210Y019794D01*
X051244Y019774D01*
X051282Y019764D01*
X051488Y019764D01*
X051488Y020100D01*
X051488Y020200D01*
X051152Y020200D01*
X051152Y020406D01*
X051162Y020444D01*
X051182Y020478D01*
X051210Y020506D01*
X051244Y020526D01*
X051282Y020536D01*
X051488Y020536D01*
X051488Y020200D01*
X051588Y020200D01*
X051588Y020536D01*
X051794Y020536D01*
X051833Y020526D01*
X051867Y020506D01*
X051895Y020478D01*
X051900Y020469D01*
X051900Y020831D01*
X051895Y020822D01*
X051867Y020794D01*
X051833Y020774D01*
X051794Y020764D01*
X051588Y020764D01*
X051588Y021100D01*
X051488Y021100D01*
X051152Y021100D01*
X051152Y020894D01*
X051162Y020856D01*
X051182Y020822D01*
X051210Y020794D01*
X051244Y020774D01*
X051282Y020764D01*
X051488Y020764D01*
X051488Y021100D01*
X051488Y021200D01*
X051152Y021200D01*
X051152Y021406D01*
X051162Y021444D01*
X051182Y021478D01*
X051210Y021506D01*
X051244Y021526D01*
X051282Y021536D01*
X051488Y021536D01*
X051488Y021200D01*
X051588Y021200D01*
X051588Y021536D01*
X051794Y021536D01*
X051833Y021526D01*
X051867Y021506D01*
X051895Y021478D01*
X051900Y021469D01*
X051900Y021831D01*
X051895Y021822D01*
X051867Y021794D01*
X051833Y021774D01*
X051794Y021764D01*
X051588Y021764D01*
X051588Y022100D01*
X051488Y022100D01*
X051152Y022100D01*
X051152Y021894D01*
X051162Y021856D01*
X051182Y021822D01*
X051210Y021794D01*
X051244Y021774D01*
X051282Y021764D01*
X051488Y021764D01*
X051488Y022100D01*
X051488Y022200D01*
X051152Y022200D01*
X051152Y022406D01*
X051162Y022444D01*
X051182Y022478D01*
X051210Y022506D01*
X051244Y022526D01*
X051282Y022536D01*
X051488Y022536D01*
X051488Y022200D01*
X051588Y022200D01*
X051588Y022536D01*
X051794Y022536D01*
X051833Y022526D01*
X051867Y022506D01*
X051895Y022478D01*
X051900Y022469D01*
X051900Y028256D01*
X051897Y028289D01*
X051872Y028350D01*
X051825Y028397D01*
X051764Y028422D01*
X051731Y028425D01*
X048693Y028425D01*
X048693Y028393D01*
X048548Y027901D01*
X048548Y027901D01*
X048271Y027470D01*
X048271Y027470D01*
X047883Y027134D01*
X047416Y026921D01*
X046908Y026848D01*
X046908Y026848D01*
X046401Y026921D01*
X046401Y026921D01*
X045934Y027134D01*
X045934Y027134D01*
X045546Y027470D01*
X045546Y027470D01*
X045269Y027901D01*
X045269Y027901D01*
X045124Y028393D01*
X045124Y028425D01*
X026519Y028425D01*
X026486Y028422D01*
X026425Y028397D01*
X026378Y028350D01*
X026353Y028289D01*
X026350Y028256D01*
X026350Y028253D02*
X045166Y028253D01*
X045137Y028351D02*
X026379Y028351D01*
X026350Y028154D02*
X045195Y028154D01*
X045224Y028056D02*
X026350Y028056D01*
X026350Y027957D02*
X045253Y027957D01*
X045296Y027859D02*
X026350Y027859D01*
X026350Y027760D02*
X045360Y027760D01*
X045423Y027662D02*
X026350Y027662D01*
X026350Y027563D02*
X045486Y027563D01*
X045552Y027465D02*
X026350Y027465D01*
X026350Y027366D02*
X045666Y027366D01*
X045780Y027268D02*
X026350Y027268D01*
X026350Y027169D02*
X045893Y027169D01*
X046072Y027071D02*
X026350Y027071D01*
X026350Y026972D02*
X046288Y026972D01*
X046728Y026874D02*
X026350Y026874D01*
X026350Y026775D02*
X049410Y026775D01*
X049378Y026743D02*
X049378Y025516D01*
X049316Y025516D01*
X049251Y025451D01*
X049251Y024849D01*
X049316Y024784D01*
X049761Y024784D01*
X049826Y024849D01*
X049826Y025451D01*
X049761Y025516D01*
X049698Y025516D01*
X049698Y026610D01*
X050352Y027264D01*
X050843Y027264D01*
X050907Y027329D01*
X050907Y027339D01*
X050913Y027317D01*
X050933Y027282D01*
X050961Y027254D01*
X050995Y027235D01*
X051033Y027224D01*
X051288Y027224D01*
X051288Y027600D01*
X051388Y027600D01*
X051388Y027224D01*
X051644Y027224D01*
X051682Y027235D01*
X051716Y027254D01*
X051744Y027282D01*
X051764Y027317D01*
X051774Y027355D01*
X051774Y027600D01*
X051388Y027600D01*
X051388Y027700D01*
X051288Y027700D01*
X051288Y028076D01*
X051033Y028076D01*
X050995Y028065D01*
X050961Y028046D01*
X050933Y028018D01*
X050913Y027983D01*
X050907Y027961D01*
X050907Y027971D01*
X050843Y028036D01*
X050181Y028036D01*
X050116Y027971D01*
X050116Y027481D01*
X049472Y026837D01*
X049378Y026743D01*
X049378Y026677D02*
X026350Y026677D01*
X026350Y026578D02*
X049378Y026578D01*
X049378Y026480D02*
X026350Y026480D01*
X026350Y026381D02*
X049378Y026381D01*
X049378Y026283D02*
X026350Y026283D01*
X026350Y026184D02*
X049378Y026184D01*
X049378Y026086D02*
X026350Y026086D01*
X026350Y025987D02*
X049378Y025987D01*
X049378Y025889D02*
X041713Y025889D01*
X041811Y025790D02*
X049378Y025790D01*
X049378Y025692D02*
X041910Y025692D01*
X042008Y025593D02*
X049378Y025593D01*
X049294Y025495D02*
X048956Y025495D01*
X048934Y025516D02*
X048489Y025516D01*
X048424Y025451D01*
X048424Y025276D01*
X048059Y024910D01*
X047965Y024816D01*
X047965Y023716D01*
X047159Y022910D01*
X045307Y022910D01*
X045378Y022981D01*
X045423Y023091D01*
X045423Y023209D01*
X045378Y023319D01*
X045294Y023403D01*
X045184Y023448D01*
X045066Y023448D01*
X044956Y023403D01*
X044872Y023319D01*
X044869Y023310D01*
X044381Y023310D01*
X044378Y023319D01*
X044294Y023403D01*
X044184Y023448D01*
X044066Y023448D01*
X043956Y023403D01*
X043872Y023319D01*
X043827Y023209D01*
X043827Y023091D01*
X043872Y022981D01*
X043943Y022910D01*
X042591Y022910D01*
X042191Y023310D01*
X041381Y023310D01*
X041378Y023319D01*
X041294Y023403D01*
X041184Y023448D01*
X041066Y023448D01*
X040956Y023403D01*
X040872Y023319D01*
X040827Y023209D01*
X040827Y023091D01*
X040872Y022981D01*
X040956Y022897D01*
X041066Y022852D01*
X041184Y022852D01*
X041294Y022897D01*
X041378Y022981D01*
X041381Y022990D01*
X042059Y022990D01*
X042459Y022590D01*
X047291Y022590D01*
X047385Y022684D01*
X048285Y023584D01*
X048285Y024684D01*
X048437Y024836D01*
X048489Y024784D01*
X048934Y024784D01*
X048999Y024849D01*
X048999Y025451D01*
X048934Y025516D01*
X048999Y025396D02*
X049251Y025396D01*
X049251Y025298D02*
X048999Y025298D01*
X048999Y025199D02*
X049251Y025199D01*
X049251Y025101D02*
X048999Y025101D01*
X048999Y025002D02*
X049251Y025002D01*
X049251Y024904D02*
X048999Y024904D01*
X048955Y024805D02*
X049295Y024805D01*
X049316Y024516D02*
X049251Y024451D01*
X049251Y023849D01*
X049316Y023784D01*
X049761Y023784D01*
X049826Y023849D01*
X049826Y023990D01*
X050191Y023990D01*
X050285Y024084D01*
X050672Y024470D01*
X050672Y026264D01*
X050843Y026264D01*
X050907Y026329D01*
X050907Y026339D01*
X050913Y026317D01*
X050933Y026282D01*
X050961Y026254D01*
X050995Y026235D01*
X051033Y026224D01*
X051288Y026224D01*
X051288Y026600D01*
X051388Y026600D01*
X051388Y026224D01*
X051644Y026224D01*
X051682Y026235D01*
X051716Y026254D01*
X051744Y026282D01*
X051764Y026317D01*
X051774Y026355D01*
X051774Y026600D01*
X051388Y026600D01*
X051388Y026700D01*
X051288Y026700D01*
X051288Y027076D01*
X051033Y027076D01*
X050995Y027065D01*
X050961Y027046D01*
X050933Y027018D01*
X050913Y026983D01*
X050907Y026961D01*
X050907Y026971D01*
X050843Y027036D01*
X050181Y027036D01*
X050116Y026971D01*
X050116Y026329D01*
X050181Y026264D01*
X050352Y026264D01*
X050352Y024603D01*
X050059Y024310D01*
X049826Y024310D01*
X049826Y024451D01*
X049761Y024516D01*
X049316Y024516D01*
X049309Y024510D02*
X048941Y024510D01*
X048934Y024516D02*
X048489Y024516D01*
X048424Y024451D01*
X048424Y023849D01*
X048489Y023784D01*
X048565Y023784D01*
X048565Y023506D01*
X048556Y023503D01*
X048472Y023419D01*
X048427Y023309D01*
X048427Y023191D01*
X048472Y023081D01*
X048556Y022997D01*
X048666Y022952D01*
X048784Y022952D01*
X048894Y022997D01*
X048978Y023081D01*
X049023Y023191D01*
X049023Y023309D01*
X048978Y023419D01*
X048894Y023503D01*
X048885Y023506D01*
X048885Y023784D01*
X048934Y023784D01*
X048999Y023849D01*
X048999Y024451D01*
X048934Y024516D01*
X048999Y024411D02*
X049251Y024411D01*
X049251Y024313D02*
X048999Y024313D01*
X048999Y024214D02*
X049251Y024214D01*
X049251Y024116D02*
X048999Y024116D01*
X048999Y024017D02*
X049251Y024017D01*
X049251Y023919D02*
X048999Y023919D01*
X048970Y023820D02*
X049280Y023820D01*
X048885Y023722D02*
X051900Y023722D01*
X051900Y023820D02*
X049797Y023820D01*
X049826Y023919D02*
X051900Y023919D01*
X051900Y024017D02*
X050218Y024017D01*
X050317Y024116D02*
X051900Y024116D01*
X051900Y024214D02*
X050415Y024214D01*
X050514Y024313D02*
X051900Y024313D01*
X051900Y024411D02*
X050612Y024411D01*
X050672Y024510D02*
X051900Y024510D01*
X051900Y024608D02*
X050672Y024608D01*
X050672Y024707D02*
X051900Y024707D01*
X051900Y024805D02*
X050672Y024805D01*
X050672Y024904D02*
X051900Y024904D01*
X051900Y025002D02*
X050672Y025002D01*
X050672Y025101D02*
X051900Y025101D01*
X051900Y025199D02*
X050672Y025199D01*
X050672Y025298D02*
X051900Y025298D01*
X051900Y025396D02*
X050672Y025396D01*
X050672Y025495D02*
X051900Y025495D01*
X051900Y025593D02*
X050672Y025593D01*
X050672Y025692D02*
X051900Y025692D01*
X051900Y025790D02*
X050672Y025790D01*
X050672Y025889D02*
X051900Y025889D01*
X051900Y025987D02*
X050672Y025987D01*
X050672Y026086D02*
X051900Y026086D01*
X051900Y026184D02*
X050672Y026184D01*
X050861Y026283D02*
X050933Y026283D01*
X051288Y026283D02*
X051388Y026283D01*
X051388Y026381D02*
X051288Y026381D01*
X051288Y026480D02*
X051388Y026480D01*
X051388Y026578D02*
X051288Y026578D01*
X051388Y026677D02*
X051900Y026677D01*
X051900Y026775D02*
X051774Y026775D01*
X051774Y026700D02*
X051774Y026945D01*
X051764Y026983D01*
X051744Y027018D01*
X051716Y027046D01*
X051682Y027065D01*
X051644Y027076D01*
X051388Y027076D01*
X051388Y026700D01*
X051774Y026700D01*
X051774Y026578D02*
X051900Y026578D01*
X051900Y026480D02*
X051774Y026480D01*
X051774Y026381D02*
X051900Y026381D01*
X051900Y026283D02*
X051744Y026283D01*
X051774Y026874D02*
X051900Y026874D01*
X051900Y026972D02*
X051767Y026972D01*
X051662Y027071D02*
X051900Y027071D01*
X051900Y027169D02*
X050257Y027169D01*
X050158Y027071D02*
X051014Y027071D01*
X050910Y026972D02*
X050906Y026972D01*
X050948Y027268D02*
X050846Y027268D01*
X051288Y027268D02*
X051388Y027268D01*
X051388Y027366D02*
X051288Y027366D01*
X051288Y027465D02*
X051388Y027465D01*
X051388Y027563D02*
X051288Y027563D01*
X051388Y027662D02*
X051900Y027662D01*
X051900Y027760D02*
X051774Y027760D01*
X051774Y027700D02*
X051774Y027945D01*
X051764Y027983D01*
X051744Y028018D01*
X051716Y028046D01*
X051682Y028065D01*
X051644Y028076D01*
X051388Y028076D01*
X051388Y027700D01*
X051774Y027700D01*
X051774Y027563D02*
X051900Y027563D01*
X051900Y027465D02*
X051774Y027465D01*
X051774Y027366D02*
X051900Y027366D01*
X051900Y027268D02*
X051729Y027268D01*
X051388Y027071D02*
X051288Y027071D01*
X051288Y026972D02*
X051388Y026972D01*
X051388Y026874D02*
X051288Y026874D01*
X051288Y026775D02*
X051388Y026775D01*
X050512Y026650D02*
X050512Y024537D01*
X050125Y024150D01*
X049538Y024150D01*
X049826Y024313D02*
X050061Y024313D01*
X050160Y024411D02*
X049826Y024411D01*
X049767Y024510D02*
X050258Y024510D01*
X050352Y024608D02*
X048285Y024608D01*
X048285Y024510D02*
X048483Y024510D01*
X048424Y024411D02*
X048285Y024411D01*
X048285Y024313D02*
X048424Y024313D01*
X048424Y024214D02*
X048285Y024214D01*
X048285Y024116D02*
X048424Y024116D01*
X048424Y024017D02*
X048285Y024017D01*
X048285Y023919D02*
X048424Y023919D01*
X048453Y023820D02*
X048285Y023820D01*
X048285Y023722D02*
X048565Y023722D01*
X048565Y023623D02*
X048285Y023623D01*
X048226Y023525D02*
X048565Y023525D01*
X048479Y023426D02*
X048127Y023426D01*
X048029Y023328D02*
X048434Y023328D01*
X048427Y023229D02*
X047930Y023229D01*
X047832Y023131D02*
X048452Y023131D01*
X048521Y023032D02*
X047733Y023032D01*
X047635Y022934D02*
X051900Y022934D01*
X051900Y023032D02*
X048929Y023032D01*
X048998Y023131D02*
X051900Y023131D01*
X051900Y023229D02*
X049023Y023229D01*
X049016Y023328D02*
X051900Y023328D01*
X051900Y023426D02*
X048971Y023426D01*
X048885Y023525D02*
X051900Y023525D01*
X051900Y023623D02*
X048885Y023623D01*
X048725Y023250D02*
X048725Y024137D01*
X048712Y024150D01*
X048308Y024707D02*
X050352Y024707D01*
X050352Y024805D02*
X049782Y024805D01*
X049826Y024904D02*
X050352Y024904D01*
X050352Y025002D02*
X049826Y025002D01*
X049826Y025101D02*
X050352Y025101D01*
X050352Y025199D02*
X049826Y025199D01*
X049826Y025298D02*
X050352Y025298D01*
X050352Y025396D02*
X049826Y025396D01*
X049782Y025495D02*
X050352Y025495D01*
X050352Y025593D02*
X049698Y025593D01*
X049698Y025692D02*
X050352Y025692D01*
X050352Y025790D02*
X049698Y025790D01*
X049698Y025889D02*
X050352Y025889D01*
X050352Y025987D02*
X049698Y025987D01*
X049698Y026086D02*
X050352Y026086D01*
X050352Y026184D02*
X049698Y026184D01*
X049698Y026283D02*
X050162Y026283D01*
X050116Y026381D02*
X049698Y026381D01*
X049698Y026480D02*
X050116Y026480D01*
X050116Y026578D02*
X049698Y026578D01*
X049764Y026677D02*
X050116Y026677D01*
X050116Y026775D02*
X049863Y026775D01*
X049961Y026874D02*
X050116Y026874D01*
X050117Y026972D02*
X050060Y026972D01*
X049804Y027169D02*
X047924Y027169D01*
X048037Y027268D02*
X049903Y027268D01*
X050001Y027366D02*
X048151Y027366D01*
X048265Y027465D02*
X050100Y027465D01*
X050116Y027563D02*
X048331Y027563D01*
X048394Y027662D02*
X050116Y027662D01*
X050116Y027760D02*
X048457Y027760D01*
X048521Y027859D02*
X050116Y027859D01*
X050116Y027957D02*
X048564Y027957D01*
X048593Y028056D02*
X050978Y028056D01*
X051288Y028056D02*
X051388Y028056D01*
X051388Y027957D02*
X051288Y027957D01*
X051288Y027859D02*
X051388Y027859D01*
X051388Y027760D02*
X051288Y027760D01*
X051774Y027859D02*
X051900Y027859D01*
X051900Y027957D02*
X051771Y027957D01*
X051699Y028056D02*
X051900Y028056D01*
X051900Y028154D02*
X048622Y028154D01*
X048651Y028253D02*
X051900Y028253D01*
X051871Y028351D02*
X048680Y028351D01*
X049538Y026677D02*
X050512Y027650D01*
X049706Y027071D02*
X047745Y027071D01*
X047529Y026972D02*
X049607Y026972D01*
X049509Y026874D02*
X047089Y026874D01*
X047037Y025590D02*
X046876Y025523D01*
X046752Y025399D01*
X046685Y025238D01*
X046685Y025062D01*
X046752Y024901D01*
X046876Y024777D01*
X047037Y024710D01*
X047213Y024710D01*
X047374Y024777D01*
X047498Y024901D01*
X047565Y025062D01*
X047565Y025238D01*
X047498Y025399D01*
X047374Y025523D01*
X047213Y025590D01*
X047037Y025590D01*
X046847Y025495D02*
X046403Y025495D01*
X046374Y025523D02*
X046213Y025590D01*
X046037Y025590D01*
X045876Y025523D01*
X045752Y025399D01*
X045685Y025238D01*
X045685Y025062D01*
X045752Y024901D01*
X045876Y024777D01*
X046037Y024710D01*
X046213Y024710D01*
X046374Y024777D01*
X046498Y024901D01*
X046565Y025062D01*
X046565Y025238D01*
X046498Y025399D01*
X046374Y025523D01*
X046499Y025396D02*
X046751Y025396D01*
X046710Y025298D02*
X046540Y025298D01*
X046565Y025199D02*
X046685Y025199D01*
X046685Y025101D02*
X046565Y025101D01*
X046540Y025002D02*
X046710Y025002D01*
X046751Y024904D02*
X046499Y024904D01*
X046402Y024805D02*
X046848Y024805D01*
X046876Y024523D02*
X046752Y024399D01*
X046685Y024238D01*
X046685Y024062D01*
X046752Y023901D01*
X046876Y023777D01*
X047037Y023710D01*
X047213Y023710D01*
X047374Y023777D01*
X047498Y023901D01*
X047565Y024062D01*
X047565Y024238D01*
X047498Y024399D01*
X047374Y024523D01*
X047213Y024590D01*
X047037Y024590D01*
X046876Y024523D01*
X046862Y024510D02*
X046388Y024510D01*
X046374Y024523D02*
X046213Y024590D01*
X046037Y024590D01*
X045876Y024523D01*
X045752Y024399D01*
X045685Y024238D01*
X045685Y024062D01*
X045752Y023901D01*
X045843Y023810D01*
X045407Y023810D01*
X045498Y023901D01*
X045565Y024062D01*
X045565Y024238D01*
X045498Y024399D01*
X045374Y024523D01*
X045213Y024590D01*
X045037Y024590D01*
X044876Y024523D01*
X044752Y024399D01*
X044685Y024238D01*
X044685Y024062D01*
X044752Y023901D01*
X044843Y023810D01*
X044407Y023810D01*
X044498Y023901D01*
X044565Y024062D01*
X044565Y024238D01*
X044498Y024399D01*
X044374Y024523D01*
X044213Y024590D01*
X044037Y024590D01*
X043876Y024523D01*
X043752Y024399D01*
X043685Y024238D01*
X043685Y024062D01*
X043752Y023901D01*
X043843Y023810D01*
X043407Y023810D01*
X043498Y023901D01*
X043565Y024062D01*
X043565Y024238D01*
X043498Y024399D01*
X043374Y024523D01*
X043213Y024590D01*
X043037Y024590D01*
X042876Y024523D01*
X042752Y024399D01*
X042685Y024238D01*
X042685Y024062D01*
X042752Y023901D01*
X042843Y023810D01*
X042691Y023810D01*
X042528Y023973D01*
X042565Y024062D01*
X042565Y024238D01*
X042498Y024399D01*
X042374Y024523D01*
X042213Y024590D01*
X042037Y024590D01*
X041876Y024523D01*
X041752Y024399D01*
X041685Y024238D01*
X041685Y024062D01*
X041752Y023901D01*
X041876Y023777D01*
X042037Y023710D01*
X042213Y023710D01*
X042302Y023747D01*
X042465Y023584D01*
X042559Y023490D01*
X046159Y023490D01*
X046331Y023318D01*
X046327Y023309D01*
X046327Y023191D01*
X046372Y023081D01*
X046456Y022997D01*
X046566Y022952D01*
X046684Y022952D01*
X046794Y022997D01*
X046878Y023081D01*
X046923Y023191D01*
X046923Y023309D01*
X046878Y023419D01*
X046794Y023503D01*
X046684Y023548D01*
X046566Y023548D01*
X046557Y023544D01*
X046339Y023762D01*
X046374Y023777D01*
X046498Y023901D01*
X046565Y024062D01*
X046565Y024238D01*
X046498Y024399D01*
X046374Y024523D01*
X046486Y024411D02*
X046764Y024411D01*
X046716Y024313D02*
X046534Y024313D01*
X046565Y024214D02*
X046685Y024214D01*
X046685Y024116D02*
X046565Y024116D01*
X046546Y024017D02*
X046704Y024017D01*
X046745Y023919D02*
X046505Y023919D01*
X046417Y023820D02*
X046833Y023820D01*
X047010Y023722D02*
X046380Y023722D01*
X046478Y023623D02*
X047872Y023623D01*
X047965Y023722D02*
X047240Y023722D01*
X047417Y023820D02*
X047965Y023820D01*
X047965Y023919D02*
X047505Y023919D01*
X047546Y024017D02*
X047965Y024017D01*
X047965Y024116D02*
X047565Y024116D01*
X047565Y024214D02*
X047965Y024214D01*
X047965Y024313D02*
X047534Y024313D01*
X047486Y024411D02*
X047965Y024411D01*
X047965Y024510D02*
X047388Y024510D01*
X047402Y024805D02*
X047965Y024805D01*
X047965Y024707D02*
X039785Y024707D01*
X039785Y024608D02*
X047965Y024608D01*
X048125Y024750D02*
X048125Y023650D01*
X047225Y022750D01*
X042525Y022750D01*
X042125Y023150D01*
X041125Y023150D01*
X041012Y023426D02*
X040285Y023426D01*
X040285Y023328D02*
X040881Y023328D01*
X040835Y023229D02*
X040285Y023229D01*
X040371Y023131D02*
X040827Y023131D01*
X040851Y023032D02*
X040469Y023032D01*
X040568Y022934D02*
X040920Y022934D01*
X040666Y022835D02*
X042214Y022835D01*
X042165Y022737D02*
X042312Y022737D01*
X042263Y022638D02*
X042411Y022638D01*
X042362Y022540D02*
X051900Y022540D01*
X051900Y022638D02*
X047339Y022638D01*
X047316Y022516D02*
X047251Y022451D01*
X047251Y021849D01*
X047316Y021784D01*
X047761Y021784D01*
X047826Y021849D01*
X047826Y021990D01*
X050365Y021990D01*
X050365Y021868D01*
X050430Y021804D01*
X050993Y021804D01*
X051058Y021868D01*
X051058Y022432D01*
X050993Y022496D01*
X050430Y022496D01*
X050365Y022432D01*
X050365Y022310D01*
X047826Y022310D01*
X047826Y022451D01*
X047761Y022516D01*
X047316Y022516D01*
X047251Y022441D02*
X046999Y022441D01*
X046999Y022451D02*
X046934Y022516D01*
X046489Y022516D01*
X046424Y022451D01*
X046424Y022310D01*
X044381Y022310D01*
X044378Y022319D01*
X044294Y022403D01*
X044184Y022448D01*
X044066Y022448D01*
X043956Y022403D01*
X043872Y022319D01*
X043827Y022209D01*
X043827Y022091D01*
X043872Y021981D01*
X043956Y021897D01*
X044066Y021852D01*
X044184Y021852D01*
X044294Y021897D01*
X044378Y021981D01*
X044381Y021990D01*
X046424Y021990D01*
X046424Y021849D01*
X046489Y021784D01*
X046934Y021784D01*
X046999Y021849D01*
X046999Y022451D01*
X046999Y022343D02*
X047251Y022343D01*
X047251Y022244D02*
X046999Y022244D01*
X046999Y022146D02*
X047251Y022146D01*
X047251Y022047D02*
X046999Y022047D01*
X046999Y021949D02*
X047251Y021949D01*
X047251Y021850D02*
X046999Y021850D01*
X046994Y021456D02*
X047256Y021456D01*
X047251Y021451D02*
X047251Y020849D01*
X047316Y020784D01*
X047761Y020784D01*
X047826Y020849D01*
X047826Y020990D01*
X050365Y020990D01*
X050365Y020868D01*
X050430Y020804D01*
X050993Y020804D01*
X051058Y020868D01*
X051058Y021432D01*
X050993Y021496D01*
X050430Y021496D01*
X050365Y021432D01*
X050365Y021310D01*
X047826Y021310D01*
X047826Y021451D01*
X047761Y021516D01*
X047316Y021516D01*
X047251Y021451D01*
X047251Y021358D02*
X046999Y021358D01*
X046999Y021259D02*
X047251Y021259D01*
X047251Y021161D02*
X046999Y021161D01*
X046999Y021062D02*
X047251Y021062D01*
X047251Y020964D02*
X046999Y020964D01*
X046999Y020865D02*
X047251Y020865D01*
X047316Y020516D02*
X047251Y020451D01*
X047251Y019849D01*
X047316Y019784D01*
X047761Y019784D01*
X047826Y019849D01*
X047826Y019990D01*
X050365Y019990D01*
X050365Y019868D01*
X050430Y019804D01*
X050993Y019804D01*
X051058Y019868D01*
X051058Y020432D01*
X050993Y020496D01*
X050430Y020496D01*
X050365Y020432D01*
X050365Y020310D01*
X047826Y020310D01*
X047826Y020451D01*
X047761Y020516D01*
X047316Y020516D01*
X047271Y020471D02*
X046979Y020471D01*
X046999Y020373D02*
X047251Y020373D01*
X047251Y020274D02*
X046999Y020274D01*
X046999Y020176D02*
X047251Y020176D01*
X047251Y020077D02*
X046999Y020077D01*
X046999Y019979D02*
X047251Y019979D01*
X047251Y019880D02*
X046999Y019880D01*
X046934Y019516D02*
X046999Y019451D01*
X046999Y018849D01*
X046934Y018784D01*
X046489Y018784D01*
X046424Y018849D01*
X046424Y018990D01*
X044381Y018990D01*
X044378Y018981D01*
X044294Y018897D01*
X044184Y018852D01*
X044066Y018852D01*
X043956Y018897D01*
X043872Y018981D01*
X043827Y019091D01*
X043827Y019209D01*
X043872Y019319D01*
X043956Y019403D01*
X044066Y019448D01*
X044184Y019448D01*
X044294Y019403D01*
X044378Y019319D01*
X044381Y019310D01*
X046424Y019310D01*
X046424Y019451D01*
X046489Y019516D01*
X046934Y019516D01*
X046964Y019486D02*
X047286Y019486D01*
X047316Y019516D02*
X047251Y019451D01*
X047251Y018849D01*
X047316Y018784D01*
X047761Y018784D01*
X047826Y018849D01*
X047826Y018990D01*
X050365Y018990D01*
X050365Y018868D01*
X050430Y018804D01*
X050993Y018804D01*
X051058Y018868D01*
X051058Y019432D01*
X050993Y019496D01*
X050430Y019496D01*
X050365Y019432D01*
X050365Y019310D01*
X047826Y019310D01*
X047826Y019451D01*
X047761Y019516D01*
X047316Y019516D01*
X047251Y019388D02*
X046999Y019388D01*
X046999Y019289D02*
X047251Y019289D01*
X047251Y019191D02*
X046999Y019191D01*
X046999Y019092D02*
X047251Y019092D01*
X047251Y018994D02*
X046999Y018994D01*
X046999Y018895D02*
X047251Y018895D01*
X047303Y018797D02*
X046947Y018797D01*
X046934Y018516D02*
X046489Y018516D01*
X046424Y018451D01*
X046424Y018310D01*
X044481Y018310D01*
X044478Y018319D01*
X044394Y018403D01*
X044284Y018448D01*
X044166Y018448D01*
X044056Y018403D01*
X043972Y018319D01*
X043927Y018209D01*
X043927Y018091D01*
X043972Y017981D01*
X044056Y017897D01*
X044166Y017852D01*
X044284Y017852D01*
X044394Y017897D01*
X044478Y017981D01*
X044481Y017990D01*
X046424Y017990D01*
X046424Y017849D01*
X046489Y017784D01*
X046934Y017784D01*
X046999Y017849D01*
X046999Y018451D01*
X046934Y018516D01*
X046949Y018501D02*
X047301Y018501D01*
X047316Y018516D02*
X047251Y018451D01*
X047251Y017849D01*
X047316Y017784D01*
X047761Y017784D01*
X047826Y017849D01*
X047826Y017990D01*
X050365Y017990D01*
X050365Y017868D01*
X050430Y017804D01*
X050993Y017804D01*
X051058Y017868D01*
X051058Y018432D01*
X050993Y018496D01*
X050430Y018496D01*
X050365Y018432D01*
X050365Y018310D01*
X047826Y018310D01*
X047826Y018451D01*
X047761Y018516D01*
X047316Y018516D01*
X047251Y018403D02*
X046999Y018403D01*
X046999Y018304D02*
X047251Y018304D01*
X047251Y018206D02*
X046999Y018206D01*
X046999Y018107D02*
X047251Y018107D01*
X047251Y018009D02*
X046999Y018009D01*
X046999Y017910D02*
X047251Y017910D01*
X047288Y017812D02*
X046962Y017812D01*
X046999Y017418D02*
X047251Y017418D01*
X047251Y017451D02*
X047251Y016849D01*
X047316Y016784D01*
X047761Y016784D01*
X047826Y016849D01*
X047826Y016990D01*
X050365Y016990D01*
X050365Y016868D01*
X050430Y016804D01*
X050993Y016804D01*
X051058Y016868D01*
X051058Y017432D01*
X050993Y017496D01*
X050430Y017496D01*
X050365Y017432D01*
X050365Y017310D01*
X047826Y017310D01*
X047826Y017451D01*
X047761Y017516D01*
X047316Y017516D01*
X047251Y017451D01*
X047251Y017319D02*
X046999Y017319D01*
X046999Y017221D02*
X047251Y017221D01*
X047251Y017122D02*
X046999Y017122D01*
X046999Y017024D02*
X047251Y017024D01*
X047251Y016925D02*
X046999Y016925D01*
X046977Y016827D02*
X047273Y016827D01*
X047316Y016516D02*
X047251Y016451D01*
X047251Y015849D01*
X047316Y015784D01*
X047761Y015784D01*
X047826Y015849D01*
X047826Y015990D01*
X050365Y015990D01*
X050365Y015868D01*
X050430Y015804D01*
X050993Y015804D01*
X051058Y015868D01*
X051058Y016432D01*
X050993Y016496D01*
X050430Y016496D01*
X050365Y016432D01*
X050365Y016310D01*
X047826Y016310D01*
X047826Y016451D01*
X047761Y016516D01*
X047316Y016516D01*
X047251Y016433D02*
X046999Y016433D01*
X046999Y016451D02*
X046934Y016516D01*
X046489Y016516D01*
X046424Y016451D01*
X046424Y016310D01*
X045559Y016310D01*
X045465Y016216D01*
X044965Y015716D01*
X044965Y014406D01*
X044956Y014403D01*
X044872Y014319D01*
X044827Y014209D01*
X044827Y014091D01*
X044872Y013981D01*
X044956Y013897D01*
X045066Y013852D01*
X045184Y013852D01*
X045294Y013897D01*
X045378Y013981D01*
X045423Y014091D01*
X045423Y014209D01*
X045378Y014319D01*
X045294Y014403D01*
X045285Y014406D01*
X045285Y015584D01*
X045691Y015990D01*
X046424Y015990D01*
X046424Y015849D01*
X046489Y015784D01*
X046934Y015784D01*
X046999Y015849D01*
X046999Y016451D01*
X046999Y016334D02*
X047251Y016334D01*
X047251Y016236D02*
X046999Y016236D01*
X046999Y016137D02*
X047251Y016137D01*
X047251Y016039D02*
X046999Y016039D01*
X046999Y015940D02*
X047251Y015940D01*
X047258Y015842D02*
X046992Y015842D01*
X046934Y015516D02*
X046489Y015516D01*
X046424Y015451D01*
X046424Y015310D01*
X046359Y015310D01*
X046265Y015216D01*
X045965Y014916D01*
X045965Y014406D01*
X045956Y014403D01*
X045872Y014319D01*
X045827Y014209D01*
X045827Y014091D01*
X045872Y013981D01*
X045956Y013897D01*
X046066Y013852D01*
X046184Y013852D01*
X046294Y013897D01*
X046378Y013981D01*
X046423Y014091D01*
X046423Y014209D01*
X046378Y014319D01*
X046294Y014403D01*
X046285Y014406D01*
X046285Y014784D01*
X046424Y014923D01*
X046424Y014849D01*
X046489Y014784D01*
X046934Y014784D01*
X046999Y014849D01*
X046999Y015451D01*
X046934Y015516D01*
X046999Y015448D02*
X047251Y015448D01*
X047251Y015451D02*
X047251Y014849D01*
X047316Y014784D01*
X047761Y014784D01*
X047826Y014849D01*
X047826Y014990D01*
X050365Y014990D01*
X050365Y014868D01*
X050430Y014804D01*
X050993Y014804D01*
X051058Y014868D01*
X051058Y015432D01*
X050993Y015496D01*
X050430Y015496D01*
X050365Y015432D01*
X050365Y015310D01*
X047826Y015310D01*
X047826Y015451D01*
X047761Y015516D01*
X047316Y015516D01*
X047251Y015451D01*
X047251Y015349D02*
X046999Y015349D01*
X046999Y015251D02*
X047251Y015251D01*
X047251Y015152D02*
X046999Y015152D01*
X046999Y015054D02*
X047251Y015054D01*
X047251Y014955D02*
X046999Y014955D01*
X046999Y014857D02*
X047251Y014857D01*
X047538Y015150D02*
X050712Y015150D01*
X051058Y015152D02*
X051488Y015152D01*
X051488Y015054D02*
X051588Y015054D01*
X051588Y014955D02*
X051488Y014955D01*
X051488Y014857D02*
X051588Y014857D01*
X051900Y014758D02*
X046285Y014758D01*
X046285Y014660D02*
X051900Y014660D01*
X051900Y014561D02*
X046285Y014561D01*
X046285Y014463D02*
X051900Y014463D01*
X051900Y014364D02*
X046333Y014364D01*
X046400Y014266D02*
X051900Y014266D01*
X051900Y014167D02*
X046423Y014167D01*
X046414Y014069D02*
X051900Y014069D01*
X051900Y013970D02*
X046367Y013970D01*
X046232Y013872D02*
X051900Y013872D01*
X051900Y013773D02*
X044528Y013773D01*
X044430Y013872D02*
X045018Y013872D01*
X044883Y013970D02*
X044331Y013970D01*
X044285Y014069D02*
X044836Y014069D01*
X044827Y014167D02*
X044285Y014167D01*
X044285Y014266D02*
X044850Y014266D01*
X044917Y014364D02*
X044285Y014364D01*
X044285Y014463D02*
X044965Y014463D01*
X044965Y014561D02*
X044285Y014561D01*
X044285Y014660D02*
X044965Y014660D01*
X044965Y014758D02*
X044285Y014758D01*
X044285Y014857D02*
X044965Y014857D01*
X044965Y014955D02*
X044285Y014955D01*
X044285Y015054D02*
X044965Y015054D01*
X044965Y015152D02*
X044285Y015152D01*
X044285Y015251D02*
X044965Y015251D01*
X044965Y015349D02*
X044285Y015349D01*
X044285Y015448D02*
X044965Y015448D01*
X044965Y015546D02*
X044285Y015546D01*
X044285Y015645D02*
X044965Y015645D01*
X044992Y015743D02*
X044285Y015743D01*
X044285Y015842D02*
X045090Y015842D01*
X045189Y015940D02*
X044285Y015940D01*
X044285Y016039D02*
X045287Y016039D01*
X045386Y016137D02*
X044285Y016137D01*
X044285Y016236D02*
X045484Y016236D01*
X045625Y016150D02*
X046712Y016150D01*
X046424Y016334D02*
X044285Y016334D01*
X044285Y016433D02*
X046424Y016433D01*
X046446Y016827D02*
X044175Y016827D01*
X044076Y016925D02*
X046424Y016925D01*
X046712Y017150D02*
X044125Y017150D01*
X043625Y017650D01*
X043625Y020250D01*
X042725Y021150D01*
X041625Y021150D01*
X041025Y021750D01*
X041323Y021752D02*
X042297Y021752D01*
X042199Y021850D02*
X041306Y021850D01*
X041248Y021949D02*
X042100Y021949D01*
X042002Y022047D02*
X041087Y022047D01*
X040963Y022047D02*
X040350Y022047D01*
X040407Y021949D02*
X040802Y021949D01*
X040744Y021850D02*
X040423Y021850D01*
X040407Y021752D02*
X040727Y021752D01*
X040742Y021653D02*
X040350Y021653D01*
X040285Y021555D02*
X040799Y021555D01*
X040821Y021456D02*
X040956Y021456D01*
X040826Y021358D02*
X041191Y021358D01*
X041290Y021259D02*
X041042Y021259D01*
X041141Y021161D02*
X041388Y021161D01*
X041487Y021062D02*
X041239Y021062D01*
X041338Y020964D02*
X042685Y020964D01*
X042784Y020865D02*
X042436Y020865D01*
X042535Y020767D02*
X042882Y020767D01*
X042981Y020668D02*
X042633Y020668D01*
X042325Y020750D02*
X042725Y020350D01*
X042725Y020187D01*
X042688Y020150D01*
X042725Y020113D01*
X042725Y019450D01*
X042992Y019585D02*
X043465Y019585D01*
X043465Y019683D02*
X042914Y019683D01*
X043062Y019782D02*
X043465Y019782D01*
X043465Y019880D02*
X043062Y019880D01*
X043062Y019979D02*
X043465Y019979D01*
X043465Y020077D02*
X043062Y020077D01*
X043062Y020176D02*
X043465Y020176D01*
X043375Y020274D02*
X043062Y020274D01*
X043062Y020373D02*
X043276Y020373D01*
X043178Y020471D02*
X043062Y020471D01*
X043079Y020570D02*
X043042Y020570D01*
X042325Y020750D02*
X041325Y020750D01*
X040925Y021150D01*
X040538Y021150D01*
X039965Y021555D02*
X038961Y021555D01*
X038862Y021653D02*
X039900Y021653D01*
X039843Y021752D02*
X038764Y021752D01*
X038665Y021850D02*
X039827Y021850D01*
X039843Y021949D02*
X038567Y021949D01*
X038468Y022047D02*
X039900Y022047D01*
X040060Y022146D02*
X038370Y022146D01*
X038271Y022244D02*
X039805Y022244D01*
X039706Y022343D02*
X037759Y022343D01*
X037661Y022441D02*
X039608Y022441D01*
X039509Y022540D02*
X037562Y022540D01*
X037464Y022638D02*
X039465Y022638D01*
X039465Y022737D02*
X037365Y022737D01*
X037267Y022835D02*
X039465Y022835D01*
X039465Y022934D02*
X037168Y022934D01*
X037070Y023032D02*
X039465Y023032D01*
X039465Y023131D02*
X036971Y023131D01*
X036873Y023229D02*
X039465Y023229D01*
X039465Y023328D02*
X036774Y023328D01*
X036676Y023426D02*
X039465Y023426D01*
X039465Y023525D02*
X036577Y023525D01*
X036479Y023623D02*
X039465Y023623D01*
X039465Y023722D02*
X039240Y023722D01*
X039417Y023820D02*
X039465Y023820D01*
X039010Y023722D02*
X038512Y023722D01*
X038501Y023710D02*
X038565Y023774D01*
X038565Y024526D01*
X038501Y024590D01*
X037749Y024590D01*
X037685Y024526D01*
X037685Y023774D01*
X037749Y023710D01*
X038501Y023710D01*
X038565Y023820D02*
X038833Y023820D01*
X038745Y023919D02*
X038565Y023919D01*
X038565Y024017D02*
X038704Y024017D01*
X038685Y024116D02*
X038565Y024116D01*
X038565Y024214D02*
X038685Y024214D01*
X038716Y024313D02*
X038565Y024313D01*
X038565Y024411D02*
X038764Y024411D01*
X038862Y024510D02*
X038565Y024510D01*
X038554Y024707D02*
X039342Y024707D01*
X039441Y024608D02*
X036698Y024608D01*
X036698Y024707D02*
X037696Y024707D01*
X037645Y024805D02*
X036782Y024805D01*
X036826Y024904D02*
X037645Y024904D01*
X037645Y025002D02*
X036826Y025002D01*
X036826Y025101D02*
X037645Y025101D01*
X037645Y025199D02*
X036826Y025199D01*
X036912Y025298D02*
X037645Y025298D01*
X037645Y025396D02*
X037011Y025396D01*
X037109Y025495D02*
X037645Y025495D01*
X037138Y025750D02*
X036538Y025150D01*
X036538Y024150D01*
X036251Y024116D02*
X035999Y024116D01*
X035999Y024214D02*
X036251Y024214D01*
X036251Y024313D02*
X035999Y024313D01*
X035999Y024411D02*
X036251Y024411D01*
X036309Y024510D02*
X035941Y024510D01*
X035909Y024744D02*
X035947Y024754D01*
X035981Y024774D01*
X036009Y024802D01*
X036029Y024836D01*
X036039Y024874D01*
X036039Y025111D01*
X035750Y025111D01*
X035750Y024744D01*
X035909Y024744D01*
X036011Y024805D02*
X036295Y024805D01*
X036251Y024904D02*
X036039Y024904D01*
X036039Y025002D02*
X036251Y025002D01*
X036251Y025101D02*
X036039Y025101D01*
X036039Y025189D02*
X036039Y025426D01*
X036029Y025464D01*
X036009Y025498D01*
X035981Y025526D01*
X035947Y025546D01*
X035909Y025556D01*
X035750Y025556D01*
X035750Y025189D01*
X035673Y025189D01*
X035673Y025556D01*
X035515Y025556D01*
X035477Y025546D01*
X035442Y025526D01*
X035414Y025498D01*
X035395Y025464D01*
X035384Y025426D01*
X035384Y025189D01*
X035673Y025189D01*
X035673Y025111D01*
X035750Y025111D01*
X035750Y025189D01*
X036039Y025189D01*
X036039Y025199D02*
X036251Y025199D01*
X036251Y025298D02*
X036039Y025298D01*
X036039Y025396D02*
X036251Y025396D01*
X036294Y025495D02*
X036011Y025495D01*
X035750Y025495D02*
X035673Y025495D01*
X035673Y025396D02*
X035750Y025396D01*
X035750Y025298D02*
X035673Y025298D01*
X035673Y025199D02*
X035750Y025199D01*
X035750Y025101D02*
X035673Y025101D01*
X035673Y025111D02*
X035673Y024744D01*
X035515Y024744D01*
X035477Y024754D01*
X035442Y024774D01*
X035414Y024802D01*
X035395Y024836D01*
X035384Y024874D01*
X035384Y025111D01*
X035673Y025111D01*
X035673Y025002D02*
X035750Y025002D01*
X035750Y024904D02*
X035673Y024904D01*
X035673Y024805D02*
X035750Y024805D01*
X035413Y024805D02*
X026350Y024805D01*
X026350Y024707D02*
X036378Y024707D01*
X036378Y024608D02*
X026350Y024608D01*
X026350Y024510D02*
X035483Y024510D01*
X035424Y024411D02*
X026350Y024411D01*
X026350Y024313D02*
X035424Y024313D01*
X035424Y024214D02*
X026350Y024214D01*
X026350Y024116D02*
X035424Y024116D01*
X035338Y024017D02*
X026350Y024017D01*
X026350Y023919D02*
X035240Y023919D01*
X035141Y023820D02*
X026350Y023820D01*
X026350Y023722D02*
X035043Y023722D01*
X034944Y023623D02*
X026350Y023623D01*
X026350Y023525D02*
X034846Y023525D01*
X034747Y023426D02*
X026350Y023426D01*
X026350Y023328D02*
X034649Y023328D01*
X034550Y023229D02*
X026350Y023229D01*
X026350Y023131D02*
X034452Y023131D01*
X034353Y023032D02*
X026350Y023032D01*
X026350Y022934D02*
X034255Y022934D01*
X034156Y022835D02*
X026350Y022835D01*
X026350Y022737D02*
X034058Y022737D01*
X033959Y022638D02*
X026350Y022638D01*
X026350Y022540D02*
X033861Y022540D01*
X033762Y022441D02*
X026350Y022441D01*
X026350Y022343D02*
X033664Y022343D01*
X033565Y022244D02*
X026350Y022244D01*
X026350Y022146D02*
X033467Y022146D01*
X033368Y022047D02*
X026350Y022047D01*
X026350Y021949D02*
X033270Y021949D01*
X033171Y021850D02*
X026350Y021850D01*
X026350Y021752D02*
X033073Y021752D01*
X032974Y021653D02*
X026350Y021653D01*
X026350Y021555D02*
X032876Y021555D01*
X032777Y021456D02*
X026350Y021456D01*
X026350Y021358D02*
X032679Y021358D01*
X034125Y021150D02*
X034125Y020150D01*
X032125Y019544D02*
X031725Y020050D01*
X031538Y019150D02*
X030538Y020150D01*
X030725Y019650D02*
X030025Y019650D01*
X029712Y019963D01*
X029712Y020150D01*
X029424Y020176D02*
X026350Y020176D01*
X026350Y020274D02*
X029424Y020274D01*
X029424Y020373D02*
X026350Y020373D01*
X026350Y020471D02*
X029019Y020471D01*
X028884Y020570D02*
X026350Y020570D01*
X026350Y020668D02*
X028836Y020668D01*
X028827Y020767D02*
X026350Y020767D01*
X026350Y020865D02*
X028850Y020865D01*
X028917Y020964D02*
X026350Y020964D01*
X026350Y021062D02*
X029797Y021062D01*
X029895Y021161D02*
X026350Y021161D01*
X026350Y021259D02*
X029994Y021259D01*
X029542Y020570D02*
X029366Y020570D01*
X029444Y020471D02*
X029231Y020471D01*
X029424Y020077D02*
X026350Y020077D01*
X026350Y019979D02*
X029424Y019979D01*
X029424Y019880D02*
X026350Y019880D01*
X026350Y019782D02*
X029667Y019782D01*
X029766Y019683D02*
X026350Y019683D01*
X026350Y019585D02*
X029864Y019585D01*
X029459Y019486D02*
X026350Y019486D01*
X026350Y019388D02*
X029424Y019388D01*
X028524Y019289D02*
X026350Y019289D01*
X026350Y019191D02*
X028425Y019191D01*
X028327Y019092D02*
X026350Y019092D01*
X026350Y018994D02*
X028228Y018994D01*
X028130Y018895D02*
X026350Y018895D01*
X026350Y018797D02*
X028031Y018797D01*
X027955Y018698D02*
X026350Y018698D01*
X026350Y018600D02*
X027955Y018600D01*
X027955Y018501D02*
X026350Y018501D01*
X026350Y018403D02*
X027955Y018403D01*
X027955Y018304D02*
X026350Y018304D01*
X026350Y018206D02*
X027955Y018206D01*
X027955Y018107D02*
X026350Y018107D01*
X026350Y018009D02*
X027955Y018009D01*
X027955Y017910D02*
X026350Y017910D01*
X026350Y017812D02*
X027955Y017812D01*
X027955Y017713D02*
X026350Y017713D01*
X026350Y017615D02*
X027955Y017615D01*
X028019Y017516D02*
X026350Y017516D01*
X026350Y017418D02*
X028117Y017418D01*
X028216Y017319D02*
X026350Y017319D01*
X026350Y017221D02*
X028314Y017221D01*
X028357Y017122D02*
X026350Y017122D01*
X026350Y017024D02*
X028258Y017024D01*
X028160Y016925D02*
X026350Y016925D01*
X026350Y016827D02*
X028061Y016827D01*
X027963Y016728D02*
X026350Y016728D01*
X026350Y016630D02*
X027955Y016630D01*
X027955Y016531D02*
X026350Y016531D01*
X026350Y016433D02*
X027955Y016433D01*
X027955Y016334D02*
X026350Y016334D01*
X026350Y016236D02*
X027955Y016236D01*
X027955Y016137D02*
X026350Y016137D01*
X026350Y016039D02*
X027955Y016039D01*
X027955Y015940D02*
X026350Y015940D01*
X026350Y015842D02*
X027955Y015842D01*
X027955Y015743D02*
X026350Y015743D01*
X026350Y015645D02*
X027990Y015645D01*
X028089Y015546D02*
X026350Y015546D01*
X026350Y015448D02*
X028187Y015448D01*
X028286Y015349D02*
X026350Y015349D01*
X026350Y015251D02*
X028384Y015251D01*
X028483Y015152D02*
X026350Y015152D01*
X026350Y015054D02*
X028581Y015054D01*
X028795Y015320D02*
X028295Y015820D01*
X028295Y016580D01*
X028695Y016980D01*
X029424Y016980D01*
X029424Y016849D01*
X029489Y016784D01*
X029934Y016784D01*
X029999Y016849D01*
X029999Y017451D01*
X029960Y017490D01*
X030290Y017490D01*
X030251Y017451D01*
X030251Y016849D01*
X030316Y016784D01*
X030727Y016784D01*
X030727Y016691D01*
X030772Y016581D01*
X030856Y016497D01*
X030966Y016452D01*
X031084Y016452D01*
X031093Y016456D01*
X031359Y016190D01*
X031643Y016190D01*
X031572Y016119D01*
X031527Y016009D01*
X031527Y015891D01*
X031572Y015781D01*
X031656Y015697D01*
X031766Y015652D01*
X031846Y015652D01*
X031858Y015637D01*
X031858Y015321D01*
X031922Y015257D01*
X032328Y015257D01*
X032392Y015321D01*
X032392Y015585D01*
X032598Y015790D01*
X032659Y015790D01*
X034059Y014390D01*
X035859Y014390D01*
X037839Y012410D01*
X037591Y012410D01*
X037519Y012482D01*
X037523Y012491D01*
X037523Y012609D01*
X037478Y012719D01*
X037394Y012803D01*
X037284Y012848D01*
X037166Y012848D01*
X037056Y012803D01*
X036972Y012719D01*
X036927Y012609D01*
X036927Y012491D01*
X036972Y012381D01*
X037056Y012297D01*
X037166Y012252D01*
X037284Y012252D01*
X037293Y012256D01*
X037339Y012210D01*
X036991Y012210D01*
X036849Y012352D01*
X036878Y012381D01*
X036923Y012491D01*
X036923Y012609D01*
X036878Y012719D01*
X036794Y012803D01*
X036684Y012848D01*
X036566Y012848D01*
X036456Y012803D01*
X036372Y012719D01*
X036327Y012609D01*
X036327Y012491D01*
X036372Y012381D01*
X036456Y012297D01*
X036465Y012294D01*
X036465Y012284D01*
X036559Y012190D01*
X036839Y011910D01*
X034859Y011910D01*
X034459Y011510D01*
X034365Y011416D01*
X034365Y010616D01*
X034302Y010553D01*
X034213Y010590D01*
X034037Y010590D01*
X033876Y010523D01*
X033752Y010399D01*
X033685Y010238D01*
X033685Y010062D01*
X033752Y009901D01*
X033876Y009777D01*
X034037Y009710D01*
X034213Y009710D01*
X034374Y009777D01*
X034498Y009901D01*
X034565Y010062D01*
X034565Y010238D01*
X034528Y010327D01*
X034625Y010424D01*
X034722Y010327D01*
X034685Y010238D01*
X034685Y010062D01*
X034752Y009901D01*
X034876Y009777D01*
X035037Y009710D01*
X035213Y009710D01*
X035374Y009777D01*
X035498Y009901D01*
X035565Y010062D01*
X035565Y010238D01*
X035498Y010399D01*
X035374Y010523D01*
X035213Y010590D01*
X035037Y010590D01*
X034948Y010553D01*
X034885Y010616D01*
X034885Y011184D01*
X035091Y011390D01*
X042859Y011390D01*
X044165Y010084D01*
X044165Y009416D01*
X043559Y008810D01*
X043465Y008716D01*
X043465Y008432D01*
X043374Y008523D01*
X043213Y008590D01*
X043037Y008590D01*
X042876Y008523D01*
X042785Y008432D01*
X042785Y009816D01*
X041385Y011216D01*
X041291Y011310D01*
X037976Y011310D01*
X037884Y011348D01*
X037766Y011348D01*
X037656Y011303D01*
X037572Y011219D01*
X037527Y011109D01*
X037527Y010991D01*
X037572Y010881D01*
X037656Y010797D01*
X037766Y010752D01*
X037884Y010752D01*
X037994Y010797D01*
X038078Y010881D01*
X038123Y010990D01*
X038260Y010990D01*
X038227Y010909D01*
X038227Y010791D01*
X038257Y010718D01*
X038184Y010748D01*
X038066Y010748D01*
X037956Y010703D01*
X037872Y010619D01*
X037827Y010509D01*
X037827Y010392D01*
X036955Y009520D01*
X036955Y009402D01*
X036872Y009319D01*
X036827Y009209D01*
X036827Y009091D01*
X036872Y008981D01*
X036956Y008897D01*
X037066Y008852D01*
X037184Y008852D01*
X037294Y008897D01*
X037378Y008981D01*
X037423Y009091D01*
X037423Y009209D01*
X037378Y009319D01*
X037306Y009391D01*
X038067Y010152D01*
X038184Y010152D01*
X038294Y010197D01*
X038378Y010281D01*
X038423Y010391D01*
X038423Y010509D01*
X038393Y010582D01*
X038466Y010552D01*
X038584Y010552D01*
X038694Y010597D01*
X038778Y010681D01*
X038823Y010790D01*
X040959Y010790D01*
X041465Y010284D01*
X041465Y008432D01*
X041374Y008523D01*
X041213Y008590D01*
X041037Y008590D01*
X040876Y008523D01*
X040785Y008432D01*
X040785Y009084D01*
X041057Y009356D01*
X041066Y009352D01*
X041184Y009352D01*
X041294Y009397D01*
X041378Y009481D01*
X041423Y009591D01*
X041423Y009709D01*
X041378Y009819D01*
X041294Y009903D01*
X041184Y009948D01*
X041066Y009948D01*
X040956Y009903D01*
X040872Y009819D01*
X040827Y009709D01*
X040827Y009591D01*
X040831Y009582D01*
X040465Y009216D01*
X040465Y008432D01*
X040374Y008523D01*
X040213Y008590D01*
X040037Y008590D01*
X039876Y008523D01*
X039785Y008432D01*
X039785Y009084D01*
X040057Y009356D01*
X040066Y009352D01*
X040184Y009352D01*
X040294Y009397D01*
X040378Y009481D01*
X040423Y009591D01*
X040423Y009709D01*
X040378Y009819D01*
X040294Y009903D01*
X040184Y009948D01*
X040066Y009948D01*
X039956Y009903D01*
X039872Y009819D01*
X039827Y009709D01*
X039827Y009591D01*
X039831Y009582D01*
X039465Y009216D01*
X039465Y008489D01*
X039438Y008516D01*
X039377Y008561D01*
X039309Y008595D01*
X039237Y008618D01*
X039164Y008630D01*
X039164Y008189D01*
X039086Y008189D01*
X039086Y008630D01*
X039013Y008618D01*
X038941Y008595D01*
X038873Y008561D01*
X038812Y008516D01*
X038785Y008489D01*
X038785Y009084D01*
X039057Y009356D01*
X039066Y009352D01*
X039184Y009352D01*
X039294Y009397D01*
X039378Y009481D01*
X039423Y009591D01*
X039423Y009709D01*
X039378Y009819D01*
X039294Y009903D01*
X039184Y009948D01*
X039066Y009948D01*
X038956Y009903D01*
X038872Y009819D01*
X038827Y009709D01*
X038827Y009591D01*
X038831Y009582D01*
X038465Y009216D01*
X038465Y008590D01*
X038285Y008590D01*
X038285Y009384D01*
X039057Y010156D01*
X039066Y010152D01*
X039184Y010152D01*
X039294Y010197D01*
X039378Y010281D01*
X039423Y010391D01*
X039423Y010509D01*
X039378Y010619D01*
X039294Y010703D01*
X039184Y010748D01*
X039066Y010748D01*
X038956Y010703D01*
X038872Y010619D01*
X038827Y010509D01*
X038827Y010391D01*
X038831Y010382D01*
X037965Y009516D01*
X037965Y008590D01*
X037749Y008590D01*
X037685Y008526D01*
X037685Y008380D01*
X037330Y008380D01*
X037260Y008310D01*
X033191Y008310D01*
X030828Y010673D01*
X030828Y014260D01*
X030735Y014353D01*
X030735Y014353D01*
X029999Y015089D01*
X029999Y015451D01*
X029960Y015490D01*
X030290Y015490D01*
X030251Y015451D01*
X030251Y014849D01*
X030316Y014784D01*
X030730Y014784D01*
X030772Y014681D01*
X030856Y014597D01*
X030966Y014552D01*
X031084Y014552D01*
X031194Y014597D01*
X031278Y014681D01*
X031323Y014791D01*
X031323Y014826D01*
X031459Y014690D01*
X031484Y014665D01*
X031484Y014534D01*
X031548Y014469D01*
X031812Y014469D01*
X032291Y013990D01*
X032869Y013990D01*
X032872Y013981D01*
X032956Y013897D01*
X033066Y013852D01*
X033184Y013852D01*
X033294Y013897D01*
X033378Y013981D01*
X033423Y014091D01*
X033423Y014209D01*
X033378Y014319D01*
X033294Y014403D01*
X033184Y014448D01*
X033066Y014448D01*
X032956Y014403D01*
X032872Y014319D01*
X032869Y014310D01*
X032424Y014310D01*
X032298Y014435D01*
X032322Y014429D01*
X032470Y014429D01*
X032470Y014728D01*
X032192Y014728D01*
X032192Y014559D01*
X032198Y014536D01*
X032018Y014715D01*
X032018Y014979D01*
X031954Y015043D01*
X031558Y015043D01*
X030817Y015784D01*
X030836Y015802D01*
X030855Y015836D01*
X030866Y015874D01*
X030866Y016111D01*
X030577Y016111D01*
X030577Y016189D01*
X030500Y016189D01*
X030500Y016556D01*
X030341Y016556D01*
X030303Y016546D01*
X030269Y016526D01*
X030241Y016498D01*
X030221Y016464D01*
X030211Y016426D01*
X030211Y016189D01*
X030500Y016189D01*
X030500Y016111D01*
X030211Y016111D01*
X030211Y015874D01*
X030221Y015836D01*
X030237Y015810D01*
X029991Y015810D01*
X029976Y015826D01*
X029999Y015849D01*
X029999Y016451D01*
X029934Y016516D01*
X029489Y016516D01*
X029424Y016451D01*
X029424Y015849D01*
X029489Y015784D01*
X029565Y015784D01*
X029765Y015584D01*
X029833Y015516D01*
X029489Y015516D01*
X029424Y015451D01*
X029424Y015320D01*
X028795Y015320D01*
X028766Y015349D02*
X029424Y015349D01*
X029424Y015448D02*
X028668Y015448D01*
X028569Y015546D02*
X029803Y015546D01*
X029704Y015645D02*
X028471Y015645D01*
X028372Y015743D02*
X029606Y015743D01*
X029712Y015863D02*
X029925Y015650D01*
X030725Y015650D01*
X031619Y014756D01*
X031751Y014756D01*
X032357Y014150D01*
X033125Y014150D01*
X033400Y014266D02*
X035983Y014266D01*
X035885Y014364D02*
X033333Y014364D01*
X033423Y014167D02*
X036082Y014167D01*
X036180Y014069D02*
X033414Y014069D01*
X033367Y013970D02*
X036279Y013970D01*
X036377Y013872D02*
X033232Y013872D01*
X033018Y013872D02*
X030828Y013872D01*
X030828Y013970D02*
X032883Y013970D01*
X032917Y014364D02*
X032370Y014364D01*
X032470Y014463D02*
X032528Y014463D01*
X032528Y014429D02*
X032676Y014429D01*
X032714Y014439D01*
X032749Y014459D01*
X032777Y014487D01*
X032796Y014521D01*
X032806Y014559D01*
X032806Y014728D01*
X032528Y014728D01*
X032528Y014785D01*
X032806Y014785D01*
X032806Y014953D01*
X032796Y014991D01*
X032777Y015026D01*
X032749Y015053D01*
X032714Y015073D01*
X032676Y015083D01*
X032528Y015083D01*
X032528Y014785D01*
X032470Y014785D01*
X032470Y014728D01*
X032528Y014728D01*
X032528Y014429D01*
X032528Y014561D02*
X032470Y014561D01*
X032470Y014660D02*
X032528Y014660D01*
X032528Y014758D02*
X033691Y014758D01*
X033789Y014660D02*
X032806Y014660D01*
X032806Y014561D02*
X033888Y014561D01*
X033986Y014463D02*
X032752Y014463D01*
X032499Y014756D02*
X032499Y014776D01*
X032125Y015150D01*
X031538Y015150D01*
X030538Y016150D01*
X030500Y016137D02*
X029999Y016137D01*
X029999Y016039D02*
X030211Y016039D01*
X030211Y015940D02*
X029999Y015940D01*
X029992Y015842D02*
X030220Y015842D01*
X030211Y016236D02*
X029999Y016236D01*
X029999Y016334D02*
X030211Y016334D01*
X030213Y016433D02*
X029999Y016433D01*
X030278Y016531D02*
X028295Y016531D01*
X028295Y016433D02*
X029424Y016433D01*
X029424Y016334D02*
X028295Y016334D01*
X028295Y016236D02*
X029424Y016236D01*
X029424Y016137D02*
X028295Y016137D01*
X028295Y016039D02*
X029424Y016039D01*
X029424Y015940D02*
X028295Y015940D01*
X028295Y015842D02*
X029431Y015842D01*
X029712Y015863D02*
X029712Y016150D01*
X029999Y015448D02*
X030251Y015448D01*
X030251Y015349D02*
X029999Y015349D01*
X029999Y015251D02*
X030251Y015251D01*
X030251Y015152D02*
X029999Y015152D01*
X030034Y015054D02*
X030251Y015054D01*
X030251Y014955D02*
X030133Y014955D01*
X030231Y014857D02*
X030251Y014857D01*
X030330Y014758D02*
X030740Y014758D01*
X030794Y014660D02*
X030428Y014660D01*
X030527Y014561D02*
X030944Y014561D01*
X031106Y014561D02*
X031484Y014561D01*
X031484Y014660D02*
X031256Y014660D01*
X031310Y014758D02*
X031391Y014758D01*
X031548Y015054D02*
X032250Y015054D01*
X032249Y015053D02*
X032222Y015026D01*
X032202Y014991D01*
X032192Y014953D01*
X032192Y014785D01*
X032470Y014785D01*
X032470Y015083D01*
X032322Y015083D01*
X032284Y015073D01*
X032249Y015053D01*
X032192Y014955D02*
X032018Y014955D01*
X032018Y014857D02*
X032192Y014857D01*
X032192Y014660D02*
X032074Y014660D01*
X032018Y014758D02*
X032470Y014758D01*
X032470Y014857D02*
X032528Y014857D01*
X032528Y014955D02*
X032470Y014955D01*
X032470Y015054D02*
X032528Y015054D01*
X032749Y015054D02*
X033395Y015054D01*
X033297Y015152D02*
X031449Y015152D01*
X031351Y015251D02*
X033198Y015251D01*
X033100Y015349D02*
X032392Y015349D01*
X032392Y015448D02*
X033001Y015448D01*
X032903Y015546D02*
X032392Y015546D01*
X032452Y015645D02*
X032804Y015645D01*
X032706Y015743D02*
X032551Y015743D01*
X032531Y015950D02*
X032125Y015544D01*
X031825Y015950D01*
X031610Y015743D02*
X030858Y015743D01*
X030857Y015842D02*
X031547Y015842D01*
X031527Y015940D02*
X030866Y015940D01*
X030866Y016039D02*
X031539Y016039D01*
X031590Y016137D02*
X030577Y016137D01*
X030577Y016189D02*
X030866Y016189D01*
X030866Y016426D01*
X030855Y016464D01*
X030836Y016498D01*
X030808Y016526D01*
X030773Y016546D01*
X030735Y016556D01*
X030577Y016556D01*
X030577Y016189D01*
X030577Y016236D02*
X030500Y016236D01*
X030500Y016334D02*
X030577Y016334D01*
X030577Y016433D02*
X030500Y016433D01*
X030500Y016531D02*
X030577Y016531D01*
X030752Y016630D02*
X028345Y016630D01*
X028443Y016728D02*
X030727Y016728D01*
X030799Y016531D02*
X030822Y016531D01*
X030864Y016433D02*
X031116Y016433D01*
X031215Y016334D02*
X030866Y016334D01*
X030866Y016236D02*
X031313Y016236D01*
X031425Y016350D02*
X031025Y016750D01*
X030625Y017150D01*
X030538Y017150D01*
X030251Y017122D02*
X029999Y017122D01*
X029999Y017024D02*
X030251Y017024D01*
X030251Y016925D02*
X029999Y016925D01*
X029977Y016827D02*
X030273Y016827D01*
X030251Y017221D02*
X029999Y017221D01*
X029999Y017319D02*
X030251Y017319D01*
X030251Y017418D02*
X029999Y017418D01*
X029925Y017650D02*
X030725Y017650D01*
X031619Y016756D01*
X031751Y016756D01*
X031538Y017150D02*
X032125Y017150D01*
X032499Y016776D01*
X032499Y016756D01*
X034619Y016756D01*
X034725Y016650D01*
X035625Y016650D01*
X036125Y017150D01*
X035125Y017150D02*
X034825Y017150D01*
X033219Y018756D01*
X032499Y018756D01*
X032499Y018776D01*
X032125Y019150D01*
X031538Y019150D01*
X031619Y018756D02*
X030725Y019650D01*
X030625Y019150D02*
X031025Y018750D01*
X030625Y019150D02*
X030538Y019150D01*
X031619Y018756D02*
X031751Y018756D01*
X031725Y017950D02*
X032125Y017544D01*
X031538Y017150D02*
X030538Y018150D01*
X029925Y017650D02*
X029712Y017863D01*
X029712Y018150D01*
X029424Y016925D02*
X028640Y016925D01*
X028542Y016827D02*
X029446Y016827D01*
X030957Y015645D02*
X031852Y015645D01*
X031858Y015546D02*
X031055Y015546D01*
X031154Y015448D02*
X031858Y015448D01*
X031858Y015349D02*
X031252Y015349D01*
X031025Y014850D02*
X030725Y015150D01*
X030538Y015150D01*
X029976Y014660D02*
X026350Y014660D01*
X026350Y014758D02*
X029877Y014758D01*
X030074Y014561D02*
X026350Y014561D01*
X026350Y014463D02*
X030173Y014463D01*
X030271Y014364D02*
X026350Y014364D01*
X026350Y014266D02*
X030370Y014266D01*
X030468Y014167D02*
X026350Y014167D01*
X026350Y014069D02*
X030508Y014069D01*
X030508Y013970D02*
X026350Y013970D01*
X026350Y013872D02*
X030508Y013872D01*
X030508Y013773D02*
X026350Y013773D01*
X026350Y013675D02*
X030508Y013675D01*
X030508Y013576D02*
X026350Y013576D01*
X026350Y013478D02*
X030508Y013478D01*
X030508Y013379D02*
X026350Y013379D01*
X026350Y013281D02*
X030508Y013281D01*
X030508Y013182D02*
X026350Y013182D01*
X026350Y013084D02*
X030508Y013084D01*
X030508Y012985D02*
X026350Y012985D01*
X026350Y012887D02*
X030508Y012887D01*
X030508Y012788D02*
X026350Y012788D01*
X026350Y012690D02*
X030508Y012690D01*
X030508Y012591D02*
X026350Y012591D01*
X026350Y012493D02*
X030508Y012493D01*
X030508Y012394D02*
X026350Y012394D01*
X026350Y012296D02*
X030508Y012296D01*
X030508Y012197D02*
X026350Y012197D01*
X026350Y012099D02*
X030508Y012099D01*
X030508Y012000D02*
X026350Y012000D01*
X026350Y011902D02*
X030508Y011902D01*
X030508Y011803D02*
X026350Y011803D01*
X026350Y011705D02*
X030508Y011705D01*
X030508Y011606D02*
X026350Y011606D01*
X026350Y011508D02*
X030508Y011508D01*
X030508Y011409D02*
X026350Y011409D01*
X026350Y011311D02*
X030508Y011311D01*
X030508Y011212D02*
X026350Y011212D01*
X026350Y011114D02*
X030508Y011114D01*
X030508Y011015D02*
X026350Y011015D01*
X026350Y010917D02*
X030508Y010917D01*
X030508Y010818D02*
X026350Y010818D01*
X026350Y010720D02*
X030508Y010720D01*
X030508Y010621D02*
X026350Y010621D01*
X026350Y010523D02*
X030526Y010523D01*
X030625Y010424D02*
X026350Y010424D01*
X026350Y010326D02*
X030723Y010326D01*
X030822Y010227D02*
X026350Y010227D01*
X026350Y010129D02*
X030920Y010129D01*
X031019Y010030D02*
X026350Y010030D01*
X026350Y009932D02*
X031117Y009932D01*
X031216Y009833D02*
X026350Y009833D01*
X026350Y009735D02*
X031314Y009735D01*
X031413Y009636D02*
X026350Y009636D01*
X026350Y009538D02*
X031511Y009538D01*
X031610Y009439D02*
X026350Y009439D01*
X026350Y009341D02*
X031708Y009341D01*
X031807Y009242D02*
X026350Y009242D01*
X026350Y009144D02*
X031905Y009144D01*
X032004Y009045D02*
X026350Y009045D01*
X026350Y008947D02*
X032102Y008947D01*
X032201Y008848D02*
X026350Y008848D01*
X026350Y008750D02*
X032299Y008750D01*
X032398Y008651D02*
X026350Y008651D01*
X026350Y008553D02*
X032496Y008553D01*
X032595Y008454D02*
X026350Y008454D01*
X026350Y008356D02*
X032693Y008356D01*
X032792Y008257D02*
X026350Y008257D01*
X026350Y008159D02*
X032890Y008159D01*
X032989Y008060D02*
X026350Y008060D01*
X026350Y007962D02*
X036911Y007962D01*
X036813Y007863D02*
X026350Y007863D01*
X026350Y007765D02*
X036795Y007765D01*
X036795Y007666D02*
X026350Y007666D01*
X026350Y007568D02*
X036795Y007568D01*
X036795Y007469D02*
X026350Y007469D01*
X026350Y007371D02*
X036795Y007371D01*
X036795Y007272D02*
X026350Y007272D01*
X026350Y007174D02*
X036795Y007174D01*
X036795Y007075D02*
X026350Y007075D01*
X026350Y006977D02*
X036795Y006977D01*
X036795Y006878D02*
X026350Y006878D01*
X026350Y006780D02*
X036870Y006780D01*
X036969Y006681D02*
X026350Y006681D01*
X026350Y006583D02*
X037067Y006583D01*
X037166Y006484D02*
X026350Y006484D01*
X026350Y006386D02*
X037264Y006386D01*
X037363Y006287D02*
X026350Y006287D01*
X026350Y006189D02*
X040107Y006189D01*
X040019Y006090D02*
X026350Y006090D01*
X026350Y005992D02*
X039978Y005992D01*
X039937Y005893D02*
X026350Y005893D01*
X026350Y005795D02*
X039931Y005795D01*
X039931Y005696D02*
X026350Y005696D01*
X026350Y005598D02*
X039931Y005598D01*
X039931Y005499D02*
X026350Y005499D01*
X026350Y005401D02*
X039931Y005401D01*
X039931Y005302D02*
X026350Y005302D01*
X026350Y005204D02*
X039931Y005204D01*
X039931Y005105D02*
X026350Y005105D01*
X026350Y005007D02*
X039931Y005007D01*
X039931Y004908D02*
X026350Y004908D01*
X026350Y004810D02*
X039931Y004810D01*
X039931Y004711D02*
X026350Y004711D01*
X026350Y004613D02*
X039931Y004613D01*
X039931Y004514D02*
X026350Y004514D01*
X026350Y004416D02*
X039931Y004416D01*
X039931Y004317D02*
X026350Y004317D01*
X026350Y004219D02*
X039931Y004219D01*
X039931Y004120D02*
X026350Y004120D01*
X026350Y004022D02*
X039931Y004022D01*
X039931Y003923D02*
X026350Y003923D01*
X026350Y003825D02*
X039931Y003825D01*
X039931Y003726D02*
X026350Y003726D01*
X026350Y003628D02*
X039931Y003628D01*
X039931Y003529D02*
X026350Y003529D01*
X026350Y003431D02*
X039931Y003431D01*
X039931Y003332D02*
X026350Y003332D01*
X026350Y003234D02*
X039931Y003234D01*
X039931Y003135D02*
X026350Y003135D01*
X026350Y003037D02*
X039931Y003037D01*
X039931Y002938D02*
X026350Y002938D01*
X026350Y002840D02*
X039931Y002840D01*
X039931Y002741D02*
X026350Y002741D01*
X026350Y002643D02*
X039931Y002643D01*
X039916Y002544D02*
X026366Y002544D01*
X026475Y002446D02*
X039806Y002446D01*
X043925Y003350D02*
X043925Y004450D01*
X044349Y004874D01*
X046125Y006650D01*
X047425Y006650D01*
X047825Y007050D01*
X047825Y009850D01*
X047325Y010350D01*
X045825Y010350D01*
X043725Y012450D01*
X038025Y012450D01*
X035925Y014550D01*
X034125Y014550D01*
X032725Y015950D01*
X032531Y015950D01*
X033625Y015850D02*
X034525Y014950D01*
X036125Y014950D01*
X038425Y012650D01*
X043825Y012650D01*
X045925Y010550D01*
X047425Y010550D01*
X048025Y009950D01*
X048025Y006950D01*
X047525Y006450D01*
X046725Y006450D01*
X045137Y004862D01*
X044743Y004468D01*
X044743Y003591D01*
X044349Y003591D02*
X044325Y003567D01*
X044325Y003450D01*
X044349Y003591D02*
X044349Y004874D01*
X045137Y004862D02*
X045137Y003591D01*
X045525Y003596D02*
X045531Y003591D01*
X045525Y003596D02*
X045525Y004650D01*
X045924Y005049D01*
X046125Y005250D01*
X046125Y005550D01*
X046825Y006250D01*
X047625Y006250D01*
X048225Y006850D01*
X048225Y010050D01*
X047525Y010750D01*
X046025Y010750D01*
X043925Y012850D01*
X038725Y012850D01*
X036225Y015350D01*
X034825Y015350D01*
X033825Y016350D01*
X031425Y016350D01*
X032806Y014955D02*
X033494Y014955D01*
X033592Y014857D02*
X032806Y014857D01*
X032192Y014561D02*
X032173Y014561D01*
X031917Y014364D02*
X030724Y014364D01*
X030822Y014266D02*
X032015Y014266D01*
X032114Y014167D02*
X030828Y014167D01*
X030828Y014069D02*
X032212Y014069D01*
X031818Y014463D02*
X030625Y014463D01*
X030668Y014193D02*
X030668Y010607D01*
X033125Y008150D01*
X038125Y008150D01*
X038125Y009450D01*
X039125Y010450D01*
X039396Y010326D02*
X041423Y010326D01*
X041465Y010227D02*
X039324Y010227D01*
X039423Y010424D02*
X041325Y010424D01*
X041226Y010523D02*
X039418Y010523D01*
X039376Y010621D02*
X041128Y010621D01*
X041029Y010720D02*
X039253Y010720D01*
X038997Y010720D02*
X038794Y010720D01*
X038718Y010621D02*
X038874Y010621D01*
X038832Y010523D02*
X038418Y010523D01*
X038423Y010424D02*
X038827Y010424D01*
X038774Y010326D02*
X038396Y010326D01*
X038324Y010227D02*
X038676Y010227D01*
X038577Y010129D02*
X038044Y010129D01*
X037945Y010030D02*
X038479Y010030D01*
X038380Y009932D02*
X037847Y009932D01*
X037748Y009833D02*
X038282Y009833D01*
X038183Y009735D02*
X037650Y009735D01*
X037551Y009636D02*
X038085Y009636D01*
X037986Y009538D02*
X037453Y009538D01*
X037354Y009439D02*
X037965Y009439D01*
X037965Y009341D02*
X037356Y009341D01*
X037410Y009242D02*
X037965Y009242D01*
X037965Y009144D02*
X037423Y009144D01*
X037404Y009045D02*
X037965Y009045D01*
X037965Y008947D02*
X037343Y008947D01*
X036907Y008947D02*
X032555Y008947D01*
X032456Y009045D02*
X036846Y009045D01*
X036827Y009144D02*
X032358Y009144D01*
X032259Y009242D02*
X036840Y009242D01*
X036894Y009341D02*
X032161Y009341D01*
X032062Y009439D02*
X036955Y009439D01*
X036972Y009538D02*
X031964Y009538D01*
X031865Y009636D02*
X037071Y009636D01*
X037169Y009735D02*
X035272Y009735D01*
X035430Y009833D02*
X037268Y009833D01*
X037366Y009932D02*
X035511Y009932D01*
X035552Y010030D02*
X037465Y010030D01*
X037563Y010129D02*
X035565Y010129D01*
X035565Y010227D02*
X037662Y010227D01*
X037760Y010326D02*
X035529Y010326D01*
X035473Y010424D02*
X037827Y010424D01*
X037832Y010523D02*
X035375Y010523D01*
X035125Y010150D02*
X034725Y010550D01*
X034725Y011250D01*
X035025Y011550D01*
X042925Y011550D01*
X044325Y010150D01*
X044325Y009350D01*
X043625Y008650D01*
X043625Y006750D01*
X043331Y006456D01*
X043331Y006150D01*
X043531Y005950D01*
X043925Y005950D01*
X043743Y005710D02*
X043381Y005710D01*
X043378Y005719D01*
X043294Y005803D01*
X043184Y005848D01*
X043066Y005848D01*
X042956Y005803D01*
X042905Y005751D01*
X042905Y005996D01*
X042355Y006545D01*
X042220Y006680D01*
X037620Y006680D01*
X037255Y007045D01*
X037255Y007655D01*
X037520Y007920D01*
X037685Y007920D01*
X037685Y007774D01*
X037749Y007710D01*
X038465Y007710D01*
X038465Y007590D01*
X037749Y007590D01*
X037685Y007526D01*
X037685Y006774D01*
X037749Y006710D01*
X038501Y006710D01*
X038565Y006774D01*
X038565Y007484D01*
X038722Y007327D01*
X038685Y007238D01*
X038685Y007062D01*
X038752Y006901D01*
X038876Y006777D01*
X039037Y006710D01*
X039213Y006710D01*
X039374Y006777D01*
X039498Y006901D01*
X039565Y007062D01*
X039565Y007238D01*
X039498Y007399D01*
X039374Y007523D01*
X039213Y007590D01*
X039037Y007590D01*
X038948Y007553D01*
X038785Y007716D01*
X038785Y007811D01*
X038812Y007784D01*
X038873Y007739D01*
X038941Y007705D01*
X039013Y007682D01*
X039086Y007670D01*
X039086Y008111D01*
X039164Y008111D01*
X039164Y007670D01*
X039237Y007682D01*
X039309Y007705D01*
X039377Y007739D01*
X039438Y007784D01*
X039465Y007811D01*
X039465Y007584D01*
X039559Y007490D01*
X039722Y007327D01*
X039685Y007238D01*
X039685Y007062D01*
X039752Y006901D01*
X039876Y006777D01*
X040037Y006710D01*
X040213Y006710D01*
X040374Y006777D01*
X040498Y006901D01*
X040565Y007062D01*
X040565Y007238D01*
X040498Y007399D01*
X040374Y007523D01*
X040213Y007590D01*
X040037Y007590D01*
X039948Y007553D01*
X039785Y007716D01*
X039785Y007868D01*
X039876Y007777D01*
X040037Y007710D01*
X040213Y007710D01*
X040374Y007777D01*
X040465Y007868D01*
X040465Y007584D01*
X040559Y007490D01*
X040722Y007327D01*
X040685Y007238D01*
X040685Y007062D01*
X040752Y006901D01*
X040876Y006777D01*
X041037Y006710D01*
X041213Y006710D01*
X041374Y006777D01*
X041498Y006901D01*
X041565Y007062D01*
X041565Y007238D01*
X041498Y007399D01*
X041374Y007523D01*
X041213Y007590D01*
X041037Y007590D01*
X040948Y007553D01*
X040785Y007716D01*
X040785Y007868D01*
X040876Y007777D01*
X041037Y007710D01*
X041213Y007710D01*
X041374Y007777D01*
X041465Y007868D01*
X041465Y007584D01*
X041559Y007490D01*
X041722Y007327D01*
X041685Y007238D01*
X041685Y007062D01*
X041752Y006901D01*
X041876Y006777D01*
X042037Y006710D01*
X042213Y006710D01*
X042374Y006777D01*
X042498Y006901D01*
X042565Y007062D01*
X042565Y007238D01*
X042498Y007399D01*
X042374Y007523D01*
X042213Y007590D01*
X042037Y007590D01*
X041948Y007553D01*
X041785Y007716D01*
X041785Y007868D01*
X041876Y007777D01*
X042037Y007710D01*
X042213Y007710D01*
X042374Y007777D01*
X042465Y007868D01*
X042465Y007584D01*
X042559Y007490D01*
X042722Y007327D01*
X042685Y007238D01*
X042685Y007062D01*
X042752Y006901D01*
X042876Y006777D01*
X043037Y006710D01*
X043213Y006710D01*
X043374Y006777D01*
X043465Y006868D01*
X043465Y006816D01*
X043171Y006523D01*
X043171Y006390D01*
X043171Y006084D01*
X043265Y005990D01*
X043465Y005790D01*
X043669Y005790D01*
X043672Y005781D01*
X043743Y005710D01*
X043461Y005795D02*
X043302Y005795D01*
X043362Y005893D02*
X042905Y005893D01*
X042905Y005795D02*
X042948Y005795D01*
X042905Y005992D02*
X043264Y005992D01*
X043171Y006090D02*
X042810Y006090D01*
X042712Y006189D02*
X043171Y006189D01*
X043171Y006287D02*
X042613Y006287D01*
X042515Y006386D02*
X043171Y006386D01*
X043171Y006484D02*
X042416Y006484D01*
X042318Y006583D02*
X043231Y006583D01*
X043330Y006681D02*
X037619Y006681D01*
X037685Y006780D02*
X037521Y006780D01*
X037422Y006878D02*
X037685Y006878D01*
X037685Y006977D02*
X037324Y006977D01*
X037255Y007075D02*
X037685Y007075D01*
X037685Y007174D02*
X037255Y007174D01*
X037255Y007272D02*
X037685Y007272D01*
X037685Y007371D02*
X037255Y007371D01*
X037255Y007469D02*
X037685Y007469D01*
X037727Y007568D02*
X037255Y007568D01*
X037266Y007666D02*
X038465Y007666D01*
X038625Y007650D02*
X038625Y009150D01*
X039125Y009650D01*
X039336Y009439D02*
X039688Y009439D01*
X039786Y009538D02*
X039401Y009538D01*
X039423Y009636D02*
X039827Y009636D01*
X039837Y009735D02*
X039413Y009735D01*
X039364Y009833D02*
X039886Y009833D01*
X040026Y009932D02*
X039224Y009932D01*
X039026Y009932D02*
X038833Y009932D01*
X038886Y009833D02*
X038734Y009833D01*
X038636Y009735D02*
X038837Y009735D01*
X038827Y009636D02*
X038537Y009636D01*
X038439Y009538D02*
X038786Y009538D01*
X038688Y009439D02*
X038340Y009439D01*
X038285Y009341D02*
X038589Y009341D01*
X038491Y009242D02*
X038285Y009242D01*
X038285Y009144D02*
X038465Y009144D01*
X038465Y009045D02*
X038285Y009045D01*
X038285Y008947D02*
X038465Y008947D01*
X038465Y008848D02*
X038285Y008848D01*
X038285Y008750D02*
X038465Y008750D01*
X038465Y008651D02*
X038285Y008651D01*
X037965Y008651D02*
X032850Y008651D01*
X032752Y008750D02*
X037965Y008750D01*
X037965Y008848D02*
X032653Y008848D01*
X032949Y008553D02*
X037712Y008553D01*
X037685Y008454D02*
X033047Y008454D01*
X033146Y008356D02*
X037305Y008356D01*
X037463Y007863D02*
X037685Y007863D01*
X037695Y007765D02*
X037365Y007765D01*
X038565Y007469D02*
X038580Y007469D01*
X038565Y007371D02*
X038678Y007371D01*
X038699Y007272D02*
X038565Y007272D01*
X038565Y007174D02*
X038685Y007174D01*
X038685Y007075D02*
X038565Y007075D01*
X038565Y006977D02*
X038721Y006977D01*
X038775Y006878D02*
X038565Y006878D01*
X038565Y006780D02*
X038873Y006780D01*
X039125Y007150D02*
X038625Y007650D01*
X038785Y007765D02*
X038839Y007765D01*
X038835Y007666D02*
X039465Y007666D01*
X039465Y007765D02*
X039411Y007765D01*
X039481Y007568D02*
X039267Y007568D01*
X039428Y007469D02*
X039580Y007469D01*
X039510Y007371D02*
X039678Y007371D01*
X039699Y007272D02*
X039551Y007272D01*
X039565Y007174D02*
X039685Y007174D01*
X039685Y007075D02*
X039565Y007075D01*
X039529Y006977D02*
X039721Y006977D01*
X039775Y006878D02*
X039475Y006878D01*
X039377Y006780D02*
X039873Y006780D01*
X040125Y007150D02*
X039625Y007650D01*
X039625Y009150D01*
X040125Y009650D01*
X040336Y009439D02*
X040688Y009439D01*
X040786Y009538D02*
X040401Y009538D01*
X040423Y009636D02*
X040827Y009636D01*
X040837Y009735D02*
X040413Y009735D01*
X040364Y009833D02*
X040886Y009833D01*
X041026Y009932D02*
X040224Y009932D01*
X040042Y009341D02*
X040589Y009341D01*
X040491Y009242D02*
X039943Y009242D01*
X039845Y009144D02*
X040465Y009144D01*
X040465Y009045D02*
X039785Y009045D01*
X039785Y008947D02*
X040465Y008947D01*
X040465Y008848D02*
X039785Y008848D01*
X039785Y008750D02*
X040465Y008750D01*
X040465Y008651D02*
X039785Y008651D01*
X039785Y008553D02*
X039947Y008553D01*
X039807Y008454D02*
X039785Y008454D01*
X039465Y008553D02*
X039388Y008553D01*
X039465Y008651D02*
X038785Y008651D01*
X038785Y008553D02*
X038862Y008553D01*
X038785Y008750D02*
X039465Y008750D01*
X039465Y008848D02*
X038785Y008848D01*
X038785Y008947D02*
X039465Y008947D01*
X039465Y009045D02*
X038785Y009045D01*
X038845Y009144D02*
X039465Y009144D01*
X039491Y009242D02*
X038943Y009242D01*
X039042Y009341D02*
X039589Y009341D01*
X040625Y009150D02*
X041125Y009650D01*
X041336Y009439D02*
X041465Y009439D01*
X041465Y009341D02*
X041042Y009341D01*
X040943Y009242D02*
X041465Y009242D01*
X041465Y009144D02*
X040845Y009144D01*
X040785Y009045D02*
X041465Y009045D01*
X041465Y008947D02*
X040785Y008947D01*
X040785Y008848D02*
X041465Y008848D01*
X041465Y008750D02*
X040785Y008750D01*
X040785Y008651D02*
X041465Y008651D01*
X041465Y008553D02*
X041303Y008553D01*
X041443Y008454D02*
X041465Y008454D01*
X040947Y008553D02*
X040785Y008553D01*
X040785Y008454D02*
X040807Y008454D01*
X040465Y008454D02*
X040443Y008454D01*
X040465Y008553D02*
X040303Y008553D01*
X039164Y008553D02*
X039086Y008553D01*
X039086Y008454D02*
X039164Y008454D01*
X039164Y008356D02*
X039086Y008356D01*
X039086Y008257D02*
X039164Y008257D01*
X039164Y008060D02*
X039086Y008060D01*
X039086Y007962D02*
X039164Y007962D01*
X039164Y007863D02*
X039086Y007863D01*
X039086Y007765D02*
X039164Y007765D01*
X038983Y007568D02*
X038934Y007568D01*
X039785Y007765D02*
X039906Y007765D01*
X039835Y007666D02*
X040465Y007666D01*
X040465Y007765D02*
X040344Y007765D01*
X040460Y007863D02*
X040465Y007863D01*
X040625Y007650D02*
X040625Y009150D01*
X041401Y009538D02*
X041465Y009538D01*
X041465Y009636D02*
X041423Y009636D01*
X041413Y009735D02*
X041465Y009735D01*
X041465Y009833D02*
X041364Y009833D01*
X041465Y009932D02*
X041224Y009932D01*
X041465Y010030D02*
X038931Y010030D01*
X039030Y010129D02*
X041465Y010129D01*
X041625Y010350D02*
X041025Y010950D01*
X038625Y010950D01*
X038525Y010850D01*
X038256Y010720D02*
X038253Y010720D01*
X038227Y010818D02*
X038015Y010818D01*
X037997Y010720D02*
X034885Y010720D01*
X034885Y010818D02*
X037635Y010818D01*
X037558Y010917D02*
X034885Y010917D01*
X034885Y011015D02*
X037527Y011015D01*
X037529Y011114D02*
X034885Y011114D01*
X034913Y011212D02*
X037569Y011212D01*
X037675Y011311D02*
X035012Y011311D01*
X034925Y011750D02*
X034525Y011350D01*
X034525Y010550D01*
X034125Y010150D01*
X034529Y010326D02*
X034721Y010326D01*
X034685Y010227D02*
X034565Y010227D01*
X034565Y010129D02*
X034685Y010129D01*
X034698Y010030D02*
X034552Y010030D01*
X034511Y009932D02*
X034739Y009932D01*
X034820Y009833D02*
X034430Y009833D01*
X034272Y009735D02*
X034978Y009735D01*
X033978Y009735D02*
X031767Y009735D01*
X031668Y009833D02*
X033820Y009833D01*
X033739Y009932D02*
X031570Y009932D01*
X031471Y010030D02*
X033698Y010030D01*
X033685Y010129D02*
X031373Y010129D01*
X031274Y010227D02*
X033685Y010227D01*
X033721Y010326D02*
X031176Y010326D01*
X031077Y010424D02*
X033777Y010424D01*
X033875Y010523D02*
X030979Y010523D01*
X030880Y010621D02*
X034365Y010621D01*
X034365Y010720D02*
X030828Y010720D01*
X030828Y010818D02*
X034365Y010818D01*
X034365Y010917D02*
X030828Y010917D01*
X030828Y011015D02*
X034365Y011015D01*
X034365Y011114D02*
X030828Y011114D01*
X030828Y011212D02*
X034365Y011212D01*
X034365Y011311D02*
X030828Y011311D01*
X030828Y011409D02*
X034365Y011409D01*
X034456Y011508D02*
X030828Y011508D01*
X030828Y011606D02*
X034555Y011606D01*
X034653Y011705D02*
X030828Y011705D01*
X030828Y011803D02*
X034752Y011803D01*
X034850Y011902D02*
X030828Y011902D01*
X030828Y012000D02*
X036749Y012000D01*
X036650Y012099D02*
X030828Y012099D01*
X030828Y012197D02*
X036552Y012197D01*
X036460Y012296D02*
X030828Y012296D01*
X030828Y012394D02*
X036367Y012394D01*
X036327Y012493D02*
X030828Y012493D01*
X030828Y012591D02*
X036327Y012591D01*
X036360Y012690D02*
X030828Y012690D01*
X030828Y012788D02*
X036441Y012788D01*
X036625Y012550D02*
X036625Y012350D01*
X036925Y012050D01*
X043525Y012050D01*
X046625Y008950D01*
X046625Y007650D01*
X046125Y007150D01*
X045625Y006450D02*
X044725Y005550D01*
X043125Y005550D01*
X044425Y005950D02*
X044625Y006150D01*
X044625Y010250D01*
X043125Y011750D01*
X034925Y011750D01*
X034885Y010621D02*
X037874Y010621D01*
X038092Y010917D02*
X038230Y010917D01*
X037925Y011150D02*
X037825Y011050D01*
X037925Y011150D02*
X041225Y011150D01*
X042625Y009750D01*
X042625Y007650D01*
X043125Y007150D01*
X042721Y006977D02*
X042529Y006977D01*
X042565Y007075D02*
X042685Y007075D01*
X042685Y007174D02*
X042565Y007174D01*
X042551Y007272D02*
X042699Y007272D01*
X042678Y007371D02*
X042510Y007371D01*
X042580Y007469D02*
X042428Y007469D01*
X042481Y007568D02*
X042267Y007568D01*
X042344Y007765D02*
X042465Y007765D01*
X042460Y007863D02*
X042465Y007863D01*
X042465Y007666D02*
X041835Y007666D01*
X041785Y007765D02*
X041906Y007765D01*
X041790Y007863D02*
X041785Y007863D01*
X041625Y007650D02*
X041625Y010350D01*
X041980Y010621D02*
X043628Y010621D01*
X043726Y010523D02*
X042079Y010523D01*
X042177Y010424D02*
X043825Y010424D01*
X043923Y010326D02*
X042276Y010326D01*
X042374Y010227D02*
X044022Y010227D01*
X044120Y010129D02*
X042473Y010129D01*
X042571Y010030D02*
X044165Y010030D01*
X044165Y009932D02*
X042670Y009932D01*
X042768Y009833D02*
X044165Y009833D01*
X044165Y009735D02*
X042785Y009735D01*
X042785Y009636D02*
X044165Y009636D01*
X044165Y009538D02*
X042785Y009538D01*
X042785Y009439D02*
X044165Y009439D01*
X044089Y009341D02*
X042785Y009341D01*
X042785Y009242D02*
X043991Y009242D01*
X043892Y009144D02*
X042785Y009144D01*
X042785Y009045D02*
X043794Y009045D01*
X043695Y008947D02*
X042785Y008947D01*
X042785Y008848D02*
X043597Y008848D01*
X043498Y008750D02*
X042785Y008750D01*
X042785Y008651D02*
X043465Y008651D01*
X043465Y008553D02*
X043303Y008553D01*
X043443Y008454D02*
X043465Y008454D01*
X042947Y008553D02*
X042785Y008553D01*
X042785Y008454D02*
X042807Y008454D01*
X041983Y007568D02*
X041934Y007568D01*
X041625Y007650D02*
X042125Y007150D01*
X041721Y006977D02*
X041529Y006977D01*
X041565Y007075D02*
X041685Y007075D01*
X041685Y007174D02*
X041565Y007174D01*
X041551Y007272D02*
X041699Y007272D01*
X041678Y007371D02*
X041510Y007371D01*
X041580Y007469D02*
X041428Y007469D01*
X041481Y007568D02*
X041267Y007568D01*
X041344Y007765D02*
X041465Y007765D01*
X041460Y007863D02*
X041465Y007863D01*
X041465Y007666D02*
X040835Y007666D01*
X040785Y007765D02*
X040906Y007765D01*
X040790Y007863D02*
X040785Y007863D01*
X040625Y007650D02*
X041125Y007150D01*
X040721Y006977D02*
X040529Y006977D01*
X040565Y007075D02*
X040685Y007075D01*
X040685Y007174D02*
X040565Y007174D01*
X040551Y007272D02*
X040699Y007272D01*
X040678Y007371D02*
X040510Y007371D01*
X040580Y007469D02*
X040428Y007469D01*
X040481Y007568D02*
X040267Y007568D01*
X039983Y007568D02*
X039934Y007568D01*
X039790Y007863D02*
X039785Y007863D01*
X040934Y007568D02*
X040983Y007568D01*
X040775Y006878D02*
X040475Y006878D01*
X040377Y006780D02*
X040873Y006780D01*
X041377Y006780D02*
X041873Y006780D01*
X041775Y006878D02*
X041475Y006878D01*
X042377Y006780D02*
X042873Y006780D01*
X042775Y006878D02*
X042475Y006878D01*
X043377Y006780D02*
X043428Y006780D01*
X045625Y006450D02*
X045625Y009150D01*
X045725Y010150D02*
X043625Y012250D01*
X037525Y012250D01*
X037225Y012550D01*
X037490Y012690D02*
X037559Y012690D01*
X037523Y012591D02*
X037658Y012591D01*
X037756Y012493D02*
X037523Y012493D01*
X037461Y012788D02*
X037409Y012788D01*
X037362Y012887D02*
X030828Y012887D01*
X030828Y012985D02*
X037264Y012985D01*
X037165Y013084D02*
X030828Y013084D01*
X030828Y013182D02*
X037067Y013182D01*
X036968Y013281D02*
X030828Y013281D01*
X030828Y013379D02*
X036870Y013379D01*
X036771Y013478D02*
X030828Y013478D01*
X030828Y013576D02*
X036673Y013576D01*
X036574Y013675D02*
X030828Y013675D01*
X030828Y013773D02*
X036476Y013773D01*
X036809Y012788D02*
X037041Y012788D01*
X036960Y012690D02*
X036890Y012690D01*
X036923Y012591D02*
X036927Y012591D01*
X036923Y012493D02*
X036927Y012493D01*
X036967Y012394D02*
X036883Y012394D01*
X036906Y012296D02*
X037060Y012296D01*
X037975Y011311D02*
X042938Y011311D01*
X043037Y011212D02*
X041389Y011212D01*
X041488Y011114D02*
X043135Y011114D01*
X043234Y011015D02*
X041586Y011015D01*
X041685Y010917D02*
X043332Y010917D01*
X043431Y010818D02*
X041783Y010818D01*
X041882Y010720D02*
X043529Y010720D01*
X045525Y011650D02*
X047825Y011650D01*
X048925Y012350D02*
X049074Y012201D01*
X049074Y005150D01*
X048680Y004756D01*
X048680Y003591D01*
X048286Y003591D02*
X048286Y005150D01*
X048525Y005389D01*
X048525Y012550D01*
X048125Y012950D01*
X045125Y012950D01*
X044125Y013950D01*
X044125Y016650D01*
X043325Y017450D01*
X043325Y018450D01*
X042725Y019050D01*
X042225Y019050D01*
X041562Y019713D01*
X041562Y020150D01*
X040538Y020150D01*
X040125Y020350D02*
X039925Y020150D01*
X039712Y020150D01*
X039925Y020150D02*
X040125Y019950D01*
X040125Y018350D01*
X039925Y018150D01*
X039712Y018150D01*
X039725Y018137D01*
X039938Y018137D01*
X040125Y017950D01*
X040125Y016350D01*
X039925Y016150D01*
X040125Y015950D01*
X040125Y014350D01*
X039925Y014150D01*
X039712Y014150D01*
X039712Y013463D01*
X039725Y013450D01*
X040538Y014150D02*
X041562Y014150D01*
X041562Y013713D01*
X042125Y013150D01*
X044025Y013150D01*
X045525Y011650D01*
X045425Y012050D02*
X046625Y012050D01*
X045425Y012050D02*
X043525Y013950D01*
X043525Y014550D01*
X043025Y015050D01*
X042225Y015050D01*
X041562Y015713D01*
X041562Y016150D01*
X040538Y016150D01*
X039925Y016150D02*
X039712Y016150D01*
X039125Y016550D02*
X039125Y015737D01*
X039712Y015150D01*
X040538Y015150D02*
X040925Y015150D01*
X041325Y014750D01*
X042325Y014750D01*
X042725Y014350D01*
X042725Y014187D01*
X042688Y014150D01*
X043125Y013713D01*
X043125Y013550D01*
X043825Y013950D02*
X045225Y012550D01*
X047825Y012550D01*
X048316Y012985D02*
X051900Y012985D01*
X051900Y012887D02*
X048415Y012887D01*
X048513Y012788D02*
X051900Y012788D01*
X051900Y012690D02*
X048612Y012690D01*
X048685Y012591D02*
X048744Y012591D01*
X049106Y012591D02*
X051900Y012591D01*
X051900Y012493D02*
X049189Y012493D01*
X049223Y012394D02*
X051900Y012394D01*
X051900Y012296D02*
X049223Y012296D01*
X049234Y012197D02*
X051900Y012197D01*
X051900Y012099D02*
X049234Y012099D01*
X049234Y012000D02*
X051900Y012000D01*
X051900Y011902D02*
X049234Y011902D01*
X049234Y011803D02*
X051900Y011803D01*
X051900Y011705D02*
X049234Y011705D01*
X049234Y011606D02*
X051900Y011606D01*
X051900Y011508D02*
X049234Y011508D01*
X049234Y011409D02*
X051900Y011409D01*
X051900Y011311D02*
X049234Y011311D01*
X049234Y011212D02*
X051900Y011212D01*
X051900Y011114D02*
X049234Y011114D01*
X049234Y011015D02*
X051900Y011015D01*
X051900Y010917D02*
X049234Y010917D01*
X049234Y010818D02*
X051900Y010818D01*
X051900Y010720D02*
X049234Y010720D01*
X049234Y010621D02*
X051900Y010621D01*
X051900Y010523D02*
X049234Y010523D01*
X049234Y010424D02*
X051900Y010424D01*
X051900Y010326D02*
X049234Y010326D01*
X049234Y010227D02*
X051900Y010227D01*
X051900Y010129D02*
X049234Y010129D01*
X049234Y010030D02*
X051900Y010030D01*
X051900Y009932D02*
X049234Y009932D01*
X049234Y009833D02*
X051900Y009833D01*
X051900Y009735D02*
X049234Y009735D01*
X049234Y009636D02*
X051900Y009636D01*
X051900Y009538D02*
X049610Y009538D01*
X049440Y009538D02*
X049234Y009538D01*
X049234Y009439D02*
X049292Y009439D01*
X049240Y009341D02*
X049234Y009341D01*
X049525Y009250D02*
X049525Y003845D01*
X049468Y003788D01*
X049074Y003591D02*
X049074Y005150D01*
X049685Y005105D02*
X049892Y005105D01*
X049892Y005007D02*
X049685Y005007D01*
X049685Y004908D02*
X049892Y004908D01*
X049892Y004810D02*
X049685Y004810D01*
X049685Y004711D02*
X049892Y004711D01*
X049892Y005204D02*
X049685Y005204D01*
X049685Y005302D02*
X049892Y005302D01*
X049892Y005401D02*
X049685Y005401D01*
X049685Y005499D02*
X049892Y005499D01*
X049892Y005598D02*
X049685Y005598D01*
X049685Y005696D02*
X049892Y005696D01*
X049892Y005795D02*
X049685Y005795D01*
X049685Y005893D02*
X049898Y005893D01*
X049939Y005992D02*
X049685Y005992D01*
X049685Y006090D02*
X049979Y006090D01*
X050068Y006189D02*
X049685Y006189D01*
X049685Y006287D02*
X050175Y006287D01*
X049685Y006386D02*
X051782Y006386D01*
X051886Y006484D02*
X049685Y006484D01*
X049685Y006583D02*
X051900Y006583D01*
X051900Y006681D02*
X049685Y006681D01*
X049685Y006780D02*
X051900Y006780D01*
X051900Y006878D02*
X049685Y006878D01*
X049685Y006977D02*
X051900Y006977D01*
X051900Y007075D02*
X049685Y007075D01*
X049685Y007174D02*
X051900Y007174D01*
X051900Y007272D02*
X049685Y007272D01*
X049685Y007371D02*
X051900Y007371D01*
X051900Y007469D02*
X049685Y007469D01*
X049685Y007568D02*
X051900Y007568D01*
X051900Y007666D02*
X049685Y007666D01*
X049685Y007765D02*
X051900Y007765D01*
X051900Y007863D02*
X049685Y007863D01*
X049685Y007962D02*
X051900Y007962D01*
X051900Y008060D02*
X049685Y008060D01*
X049685Y008159D02*
X051900Y008159D01*
X051900Y008257D02*
X049685Y008257D01*
X049685Y008356D02*
X051900Y008356D01*
X051900Y008454D02*
X049685Y008454D01*
X049685Y008553D02*
X051900Y008553D01*
X051900Y008651D02*
X049685Y008651D01*
X049685Y008750D02*
X051900Y008750D01*
X051900Y008848D02*
X049685Y008848D01*
X049685Y008947D02*
X051900Y008947D01*
X051900Y009045D02*
X049742Y009045D01*
X049804Y009144D02*
X051900Y009144D01*
X051900Y009242D02*
X049823Y009242D01*
X049810Y009341D02*
X051900Y009341D01*
X051900Y009439D02*
X049758Y009439D01*
X047625Y009750D02*
X047225Y010150D01*
X045725Y010150D01*
X046825Y011150D02*
X048125Y011150D01*
X047625Y009750D02*
X047625Y007650D01*
X047125Y007150D01*
X048286Y005150D02*
X047893Y004756D01*
X047893Y003591D01*
X045924Y003591D02*
X045924Y005049D01*
X043956Y003591D02*
X043956Y003481D01*
X043925Y003450D01*
X045119Y013182D02*
X051900Y013182D01*
X051900Y013084D02*
X048218Y013084D01*
X046018Y013872D02*
X045232Y013872D01*
X045367Y013970D02*
X045883Y013970D01*
X045836Y014069D02*
X045414Y014069D01*
X045423Y014167D02*
X045827Y014167D01*
X045850Y014266D02*
X045400Y014266D01*
X045333Y014364D02*
X045917Y014364D01*
X045965Y014463D02*
X045285Y014463D01*
X045285Y014561D02*
X045965Y014561D01*
X045965Y014660D02*
X045285Y014660D01*
X045285Y014758D02*
X045965Y014758D01*
X045965Y014857D02*
X045285Y014857D01*
X045285Y014955D02*
X046004Y014955D01*
X046102Y015054D02*
X045285Y015054D01*
X045285Y015152D02*
X046201Y015152D01*
X046299Y015251D02*
X045285Y015251D01*
X045285Y015349D02*
X046424Y015349D01*
X046424Y015448D02*
X045285Y015448D01*
X045285Y015546D02*
X051900Y015546D01*
X051900Y015645D02*
X045346Y015645D01*
X045444Y015743D02*
X051900Y015743D01*
X051588Y015842D02*
X051488Y015842D01*
X051488Y015940D02*
X051588Y015940D01*
X051588Y016039D02*
X051488Y016039D01*
X051488Y016137D02*
X051058Y016137D01*
X051058Y016039D02*
X051152Y016039D01*
X051152Y015940D02*
X051058Y015940D01*
X051031Y015842D02*
X051171Y015842D01*
X051152Y016236D02*
X051058Y016236D01*
X051058Y016334D02*
X051152Y016334D01*
X051159Y016433D02*
X051057Y016433D01*
X051263Y016531D02*
X044285Y016531D01*
X044285Y016630D02*
X051900Y016630D01*
X051900Y016728D02*
X044273Y016728D01*
X044025Y017024D02*
X043978Y017024D01*
X043927Y017122D02*
X043879Y017122D01*
X043828Y017221D02*
X043781Y017221D01*
X043730Y017319D02*
X043682Y017319D01*
X043631Y017418D02*
X043584Y017418D01*
X043788Y017713D02*
X051900Y017713D01*
X051900Y017615D02*
X043887Y017615D01*
X043985Y017516D02*
X051227Y017516D01*
X051155Y017418D02*
X051058Y017418D01*
X051058Y017319D02*
X051152Y017319D01*
X051152Y017221D02*
X051058Y017221D01*
X051058Y017122D02*
X051488Y017122D01*
X051488Y017024D02*
X051588Y017024D01*
X051588Y016925D02*
X051488Y016925D01*
X051488Y016827D02*
X051588Y016827D01*
X051588Y016531D02*
X051488Y016531D01*
X051488Y016433D02*
X051588Y016433D01*
X051588Y016334D02*
X051488Y016334D01*
X051488Y016236D02*
X051588Y016236D01*
X051814Y016531D02*
X051900Y016531D01*
X051897Y016827D02*
X051900Y016827D01*
X051588Y017221D02*
X051488Y017221D01*
X051488Y017319D02*
X051588Y017319D01*
X051588Y017418D02*
X051488Y017418D01*
X051488Y017516D02*
X051588Y017516D01*
X051850Y017516D02*
X051900Y017516D01*
X051884Y017812D02*
X051900Y017812D01*
X051588Y017812D02*
X051488Y017812D01*
X051488Y017910D02*
X051588Y017910D01*
X051588Y018009D02*
X051488Y018009D01*
X051488Y018107D02*
X051058Y018107D01*
X051058Y018009D02*
X051152Y018009D01*
X051152Y017910D02*
X051058Y017910D01*
X051001Y017812D02*
X051192Y017812D01*
X051152Y018206D02*
X051058Y018206D01*
X051058Y018304D02*
X051152Y018304D01*
X051152Y018403D02*
X051058Y018403D01*
X051205Y018501D02*
X047776Y018501D01*
X047826Y018403D02*
X050365Y018403D01*
X050712Y018150D02*
X047538Y018150D01*
X047826Y017910D02*
X050365Y017910D01*
X050422Y017812D02*
X047789Y017812D01*
X047826Y017418D02*
X050365Y017418D01*
X050365Y017319D02*
X047826Y017319D01*
X047538Y017150D02*
X050712Y017150D01*
X051058Y017024D02*
X051152Y017024D01*
X051152Y016925D02*
X051058Y016925D01*
X051016Y016827D02*
X051179Y016827D01*
X050407Y016827D02*
X047804Y016827D01*
X047826Y016925D02*
X050365Y016925D01*
X050366Y016433D02*
X047826Y016433D01*
X047826Y016334D02*
X050365Y016334D01*
X050712Y016150D02*
X047538Y016150D01*
X047826Y015940D02*
X050365Y015940D01*
X050392Y015842D02*
X047819Y015842D01*
X047826Y015448D02*
X050381Y015448D01*
X050365Y015349D02*
X047826Y015349D01*
X047826Y014955D02*
X050365Y014955D01*
X050377Y014857D02*
X047826Y014857D01*
X046712Y015150D02*
X046425Y015150D01*
X046125Y014850D01*
X046125Y014150D01*
X046358Y014857D02*
X046424Y014857D01*
X045125Y014150D02*
X045125Y015650D01*
X045625Y016150D01*
X045641Y015940D02*
X046424Y015940D01*
X046431Y015842D02*
X045543Y015842D01*
X043825Y016350D02*
X043825Y013950D01*
X044627Y013675D02*
X051900Y013675D01*
X051900Y013576D02*
X044725Y013576D01*
X044824Y013478D02*
X051900Y013478D01*
X051900Y013379D02*
X044922Y013379D01*
X045021Y013281D02*
X051900Y013281D01*
X051162Y014857D02*
X051046Y014857D01*
X051058Y014955D02*
X051152Y014955D01*
X051152Y015054D02*
X051058Y015054D01*
X051058Y015251D02*
X051152Y015251D01*
X051152Y015349D02*
X051058Y015349D01*
X051042Y015448D02*
X051164Y015448D01*
X051488Y015448D02*
X051588Y015448D01*
X051588Y015349D02*
X051488Y015349D01*
X051488Y015251D02*
X051588Y015251D01*
X046424Y017319D02*
X044182Y017319D01*
X044084Y017418D02*
X046424Y017418D01*
X046461Y017812D02*
X043785Y017812D01*
X043785Y017910D02*
X044043Y017910D01*
X043961Y018009D02*
X043785Y018009D01*
X043785Y018107D02*
X043927Y018107D01*
X043927Y018206D02*
X043785Y018206D01*
X043785Y018304D02*
X043966Y018304D01*
X044056Y018403D02*
X043785Y018403D01*
X043785Y018501D02*
X046474Y018501D01*
X046424Y018403D02*
X044394Y018403D01*
X044225Y018150D02*
X046712Y018150D01*
X046424Y017910D02*
X044407Y017910D01*
X043785Y018600D02*
X051900Y018600D01*
X051900Y018698D02*
X043785Y018698D01*
X043785Y018797D02*
X046476Y018797D01*
X046424Y018895D02*
X044288Y018895D01*
X044125Y019150D02*
X046712Y019150D01*
X046424Y019388D02*
X044309Y019388D01*
X043941Y019388D02*
X043785Y019388D01*
X043785Y019486D02*
X046459Y019486D01*
X046424Y019880D02*
X043785Y019880D01*
X043785Y019782D02*
X051231Y019782D01*
X051156Y019880D02*
X051058Y019880D01*
X051058Y019979D02*
X051152Y019979D01*
X051152Y020077D02*
X051058Y020077D01*
X051058Y020176D02*
X051488Y020176D01*
X051488Y020274D02*
X051588Y020274D01*
X051588Y020373D02*
X051488Y020373D01*
X051488Y020471D02*
X051588Y020471D01*
X051588Y020767D02*
X051488Y020767D01*
X051488Y020865D02*
X051588Y020865D01*
X051588Y020964D02*
X051488Y020964D01*
X051488Y021062D02*
X051588Y021062D01*
X051488Y021161D02*
X051058Y021161D01*
X051058Y021259D02*
X051152Y021259D01*
X051152Y021358D02*
X051058Y021358D01*
X051034Y021456D02*
X051169Y021456D01*
X051488Y021456D02*
X051588Y021456D01*
X051588Y021358D02*
X051488Y021358D01*
X051488Y021259D02*
X051588Y021259D01*
X051900Y021555D02*
X043347Y021555D01*
X043248Y021653D02*
X051900Y021653D01*
X051900Y021752D02*
X043150Y021752D01*
X043051Y021850D02*
X046424Y021850D01*
X046424Y021949D02*
X044345Y021949D01*
X044125Y022150D02*
X046712Y022150D01*
X046424Y022343D02*
X044354Y022343D01*
X044201Y022441D02*
X046424Y022441D01*
X046421Y023032D02*
X045399Y023032D01*
X045423Y023131D02*
X046352Y023131D01*
X046327Y023229D02*
X045415Y023229D01*
X045369Y023328D02*
X046321Y023328D01*
X046223Y023426D02*
X045238Y023426D01*
X045012Y023426D02*
X044238Y023426D01*
X044369Y023328D02*
X044881Y023328D01*
X045125Y023150D02*
X044125Y023150D01*
X044012Y023426D02*
X041238Y023426D01*
X041369Y023328D02*
X043881Y023328D01*
X043835Y023229D02*
X042272Y023229D01*
X042371Y023131D02*
X043827Y023131D01*
X043851Y023032D02*
X042469Y023032D01*
X042568Y022934D02*
X043920Y022934D01*
X044049Y022441D02*
X042460Y022441D01*
X042559Y022343D02*
X043896Y022343D01*
X043841Y022244D02*
X042657Y022244D01*
X042756Y022146D02*
X043827Y022146D01*
X043845Y022047D02*
X042854Y022047D01*
X042953Y021949D02*
X043905Y021949D01*
X043911Y021358D02*
X043544Y021358D01*
X043445Y021456D02*
X046429Y021456D01*
X046424Y021358D02*
X044339Y021358D01*
X044125Y021150D02*
X046712Y021150D01*
X046424Y020964D02*
X044360Y020964D01*
X044332Y020865D02*
X046424Y020865D01*
X046444Y020471D02*
X044368Y020471D01*
X044414Y020570D02*
X051900Y020570D01*
X051900Y020668D02*
X044423Y020668D01*
X044399Y020767D02*
X051272Y020767D01*
X051160Y020865D02*
X051055Y020865D01*
X051058Y020964D02*
X051152Y020964D01*
X051152Y021062D02*
X051058Y021062D01*
X050712Y021150D02*
X047538Y021150D01*
X047826Y020964D02*
X050365Y020964D01*
X050369Y020865D02*
X047826Y020865D01*
X047806Y020471D02*
X050405Y020471D01*
X050365Y020373D02*
X047826Y020373D01*
X047538Y020150D02*
X050712Y020150D01*
X051058Y020274D02*
X051152Y020274D01*
X051152Y020373D02*
X051058Y020373D01*
X051019Y020471D02*
X051178Y020471D01*
X051488Y020077D02*
X051588Y020077D01*
X051588Y019979D02*
X051488Y019979D01*
X051488Y019880D02*
X051588Y019880D01*
X051588Y019782D02*
X051488Y019782D01*
X051488Y019486D02*
X051588Y019486D01*
X051588Y019388D02*
X051488Y019388D01*
X051488Y019289D02*
X051588Y019289D01*
X051488Y019191D02*
X051058Y019191D01*
X051058Y019289D02*
X051152Y019289D01*
X051152Y019388D02*
X051058Y019388D01*
X051004Y019486D02*
X051190Y019486D01*
X051152Y019092D02*
X051058Y019092D01*
X051058Y018994D02*
X051152Y018994D01*
X051152Y018895D02*
X051058Y018895D01*
X051207Y018797D02*
X047774Y018797D01*
X047826Y018895D02*
X050365Y018895D01*
X050712Y019150D02*
X047538Y019150D01*
X047826Y019388D02*
X050365Y019388D01*
X050420Y019486D02*
X047791Y019486D01*
X047826Y019880D02*
X050365Y019880D01*
X050365Y019979D02*
X047826Y019979D01*
X046712Y020150D02*
X044125Y020150D01*
X041925Y022350D01*
X039925Y022350D01*
X039625Y022650D01*
X039625Y024650D01*
X039125Y025150D01*
X039540Y025002D02*
X039710Y025002D01*
X039685Y025062D02*
X039752Y024901D01*
X039876Y024777D01*
X040037Y024710D01*
X040213Y024710D01*
X040374Y024777D01*
X040498Y024901D01*
X040565Y025062D01*
X040565Y025238D01*
X040498Y025399D01*
X040374Y025523D01*
X040213Y025590D01*
X040037Y025590D01*
X039876Y025523D01*
X039752Y025399D01*
X039685Y025238D01*
X039685Y025062D01*
X039685Y025101D02*
X039565Y025101D01*
X039565Y025199D02*
X039685Y025199D01*
X039710Y025298D02*
X039540Y025298D01*
X039499Y025396D02*
X039751Y025396D01*
X039847Y025495D02*
X039403Y025495D01*
X038847Y025495D02*
X038605Y025495D01*
X038605Y025396D02*
X038751Y025396D01*
X038710Y025298D02*
X038605Y025298D01*
X038605Y025199D02*
X038685Y025199D01*
X038685Y025101D02*
X038605Y025101D01*
X038605Y025002D02*
X038710Y025002D01*
X038751Y024904D02*
X038605Y024904D01*
X038605Y024805D02*
X038848Y024805D01*
X039388Y024510D02*
X039465Y024510D01*
X039785Y024510D02*
X039862Y024510D01*
X039848Y024805D02*
X039696Y024805D01*
X039751Y024904D02*
X039598Y024904D01*
X040402Y024805D02*
X040848Y024805D01*
X040876Y024777D02*
X041037Y024710D01*
X041213Y024710D01*
X041374Y024777D01*
X041498Y024901D01*
X041565Y025062D01*
X041565Y025238D01*
X041498Y025399D01*
X041374Y025523D01*
X041213Y025590D01*
X041037Y025590D01*
X040876Y025523D01*
X040752Y025399D01*
X040685Y025238D01*
X040685Y025062D01*
X040752Y024901D01*
X040876Y024777D01*
X040751Y024904D02*
X040499Y024904D01*
X040540Y025002D02*
X040710Y025002D01*
X040685Y025101D02*
X040565Y025101D01*
X040565Y025199D02*
X040685Y025199D01*
X040710Y025298D02*
X040540Y025298D01*
X040499Y025396D02*
X040751Y025396D01*
X040847Y025495D02*
X040403Y025495D01*
X041403Y025495D02*
X041654Y025495D01*
X041751Y025396D02*
X041499Y025396D01*
X041540Y025298D02*
X041710Y025298D01*
X041685Y025199D02*
X041565Y025199D01*
X041565Y025101D02*
X041685Y025101D01*
X041710Y025002D02*
X041540Y025002D01*
X041499Y024904D02*
X041751Y024904D01*
X041848Y024805D02*
X041402Y024805D01*
X041374Y024523D02*
X041213Y024590D01*
X041037Y024590D01*
X040876Y024523D01*
X040752Y024399D01*
X040685Y024238D01*
X040685Y024062D01*
X040752Y023901D01*
X040876Y023777D01*
X041037Y023710D01*
X041213Y023710D01*
X041374Y023777D01*
X041498Y023901D01*
X041565Y024062D01*
X041565Y024238D01*
X041498Y024399D01*
X041374Y024523D01*
X041388Y024510D02*
X041862Y024510D01*
X041764Y024411D02*
X041486Y024411D01*
X041534Y024313D02*
X041716Y024313D01*
X041685Y024214D02*
X041565Y024214D01*
X041565Y024116D02*
X041685Y024116D01*
X041704Y024017D02*
X041546Y024017D01*
X041505Y023919D02*
X041745Y023919D01*
X041833Y023820D02*
X041417Y023820D01*
X041240Y023722D02*
X042010Y023722D01*
X042240Y023722D02*
X042327Y023722D01*
X042426Y023623D02*
X040285Y023623D01*
X040285Y023525D02*
X042524Y023525D01*
X042625Y023650D02*
X046225Y023650D01*
X046625Y023250D01*
X046741Y023525D02*
X047773Y023525D01*
X047675Y023426D02*
X046871Y023426D01*
X046916Y023328D02*
X047576Y023328D01*
X047478Y023229D02*
X046923Y023229D01*
X046898Y023131D02*
X047379Y023131D01*
X047281Y023032D02*
X046829Y023032D01*
X047182Y022934D02*
X045330Y022934D01*
X045417Y023820D02*
X045833Y023820D01*
X045745Y023919D02*
X045505Y023919D01*
X045546Y024017D02*
X045704Y024017D01*
X045685Y024116D02*
X045565Y024116D01*
X045565Y024214D02*
X045685Y024214D01*
X045716Y024313D02*
X045534Y024313D01*
X045486Y024411D02*
X045764Y024411D01*
X045862Y024510D02*
X045388Y024510D01*
X045213Y024710D02*
X045374Y024777D01*
X045498Y024901D01*
X045565Y025062D01*
X045565Y025238D01*
X045498Y025399D01*
X045374Y025523D01*
X045213Y025590D01*
X045037Y025590D01*
X044876Y025523D01*
X044752Y025399D01*
X044685Y025238D01*
X044685Y025062D01*
X044752Y024901D01*
X044876Y024777D01*
X045037Y024710D01*
X045213Y024710D01*
X045402Y024805D02*
X045848Y024805D01*
X045751Y024904D02*
X045499Y024904D01*
X045540Y025002D02*
X045710Y025002D01*
X045685Y025101D02*
X045565Y025101D01*
X045565Y025199D02*
X045685Y025199D01*
X045710Y025298D02*
X045540Y025298D01*
X045499Y025396D02*
X045751Y025396D01*
X045847Y025495D02*
X045403Y025495D01*
X044847Y025495D02*
X044403Y025495D01*
X044374Y025523D02*
X044213Y025590D01*
X044037Y025590D01*
X043876Y025523D01*
X043752Y025399D01*
X043685Y025238D01*
X043685Y025062D01*
X043752Y024901D01*
X043876Y024777D01*
X044037Y024710D01*
X044213Y024710D01*
X044374Y024777D01*
X044498Y024901D01*
X044565Y025062D01*
X044565Y025238D01*
X044498Y025399D01*
X044374Y025523D01*
X044499Y025396D02*
X044751Y025396D01*
X044710Y025298D02*
X044540Y025298D01*
X044565Y025199D02*
X044685Y025199D01*
X044685Y025101D02*
X044565Y025101D01*
X044540Y025002D02*
X044710Y025002D01*
X044751Y024904D02*
X044499Y024904D01*
X044402Y024805D02*
X044848Y024805D01*
X044862Y024510D02*
X044388Y024510D01*
X044486Y024411D02*
X044764Y024411D01*
X044716Y024313D02*
X044534Y024313D01*
X044565Y024214D02*
X044685Y024214D01*
X044685Y024116D02*
X044565Y024116D01*
X044546Y024017D02*
X044704Y024017D01*
X044745Y023919D02*
X044505Y023919D01*
X044417Y023820D02*
X044833Y023820D01*
X043833Y023820D02*
X043417Y023820D01*
X043505Y023919D02*
X043745Y023919D01*
X043704Y024017D02*
X043546Y024017D01*
X043565Y024116D02*
X043685Y024116D01*
X043685Y024214D02*
X043565Y024214D01*
X043534Y024313D02*
X043716Y024313D01*
X043764Y024411D02*
X043486Y024411D01*
X043388Y024510D02*
X043862Y024510D01*
X043848Y024805D02*
X043402Y024805D01*
X043374Y024777D02*
X043498Y024901D01*
X043565Y025062D01*
X043565Y025238D01*
X043498Y025399D01*
X043374Y025523D01*
X043213Y025590D01*
X043037Y025590D01*
X042876Y025523D01*
X042752Y025399D01*
X042685Y025238D01*
X042685Y025062D01*
X042752Y024901D01*
X042876Y024777D01*
X043037Y024710D01*
X043213Y024710D01*
X043374Y024777D01*
X043499Y024904D02*
X043751Y024904D01*
X043710Y025002D02*
X043540Y025002D01*
X043565Y025101D02*
X043685Y025101D01*
X043685Y025199D02*
X043565Y025199D01*
X043540Y025298D02*
X043710Y025298D01*
X043751Y025396D02*
X043499Y025396D01*
X043403Y025495D02*
X043847Y025495D01*
X042847Y025495D02*
X042403Y025495D01*
X042499Y025396D02*
X042751Y025396D01*
X042710Y025298D02*
X042540Y025298D01*
X042565Y025199D02*
X042685Y025199D01*
X042685Y025101D02*
X042565Y025101D01*
X042540Y025002D02*
X042710Y025002D01*
X042751Y024904D02*
X042499Y024904D01*
X042402Y024805D02*
X042848Y024805D01*
X042862Y024510D02*
X042388Y024510D01*
X042486Y024411D02*
X042764Y024411D01*
X042716Y024313D02*
X042534Y024313D01*
X042565Y024214D02*
X042685Y024214D01*
X042685Y024116D02*
X042565Y024116D01*
X042546Y024017D02*
X042704Y024017D01*
X042745Y023919D02*
X042583Y023919D01*
X042681Y023820D02*
X042833Y023820D01*
X042625Y023650D02*
X042125Y024150D01*
X041010Y023722D02*
X040285Y023722D01*
X040417Y023820D02*
X040833Y023820D01*
X040745Y023919D02*
X040505Y023919D01*
X040546Y024017D02*
X040704Y024017D01*
X040685Y024116D02*
X040565Y024116D01*
X040565Y024214D02*
X040685Y024214D01*
X040716Y024313D02*
X040534Y024313D01*
X040486Y024411D02*
X040764Y024411D01*
X040862Y024510D02*
X040388Y024510D01*
X040125Y024150D02*
X040125Y023150D01*
X040625Y022650D01*
X042025Y022650D01*
X044025Y020650D01*
X044125Y020650D01*
X044234Y020373D02*
X046424Y020373D01*
X046424Y019979D02*
X043785Y019979D01*
X043785Y020077D02*
X043972Y020077D01*
X043873Y020176D02*
X043785Y020176D01*
X043785Y019683D02*
X051900Y019683D01*
X051900Y019585D02*
X043785Y019585D01*
X043785Y019289D02*
X043860Y019289D01*
X043827Y019191D02*
X043785Y019191D01*
X043785Y019092D02*
X043827Y019092D01*
X043867Y018994D02*
X043785Y018994D01*
X043785Y018895D02*
X043962Y018895D01*
X043465Y018895D02*
X043106Y018895D01*
X043008Y018994D02*
X043465Y018994D01*
X043465Y019092D02*
X042909Y019092D01*
X042878Y019191D02*
X043465Y019191D01*
X043465Y019289D02*
X042981Y019289D01*
X043022Y019388D02*
X043465Y019388D01*
X043465Y019486D02*
X043023Y019486D01*
X043205Y018797D02*
X043465Y018797D01*
X043465Y018698D02*
X043303Y018698D01*
X043402Y018600D02*
X043465Y018600D01*
X042625Y018450D02*
X042625Y018213D01*
X042688Y018150D01*
X042725Y018113D01*
X042725Y017450D01*
X043125Y017050D02*
X042225Y017050D01*
X041562Y017713D01*
X041562Y018150D01*
X040538Y018150D01*
X039712Y019137D02*
X039125Y018550D01*
X039125Y017737D01*
X039712Y017150D01*
X039712Y017137D01*
X039125Y016550D01*
X040538Y017150D02*
X040925Y017150D01*
X041325Y016750D01*
X042325Y016750D01*
X042625Y016450D01*
X042625Y016213D01*
X042688Y016150D01*
X042725Y016113D01*
X042725Y015450D01*
X043825Y016350D02*
X043125Y017050D01*
X042625Y018450D02*
X042325Y018750D01*
X041325Y018750D01*
X040925Y019150D01*
X040538Y019150D01*
X039712Y019150D02*
X039125Y019737D01*
X039125Y020750D01*
X039525Y021150D01*
X039712Y021150D01*
X039424Y021358D02*
X039158Y021358D01*
X039059Y021456D02*
X039429Y021456D01*
X040125Y021850D02*
X040125Y020350D01*
X041545Y021456D02*
X042593Y021456D01*
X042691Y021358D02*
X041644Y021358D01*
X041447Y021555D02*
X042494Y021555D01*
X042396Y021653D02*
X041348Y021653D01*
X041903Y022146D02*
X040190Y022146D01*
X041330Y022934D02*
X042115Y022934D01*
X043642Y021259D02*
X043847Y021259D01*
X043827Y021161D02*
X043741Y021161D01*
X047538Y022150D02*
X050712Y022150D01*
X051058Y022146D02*
X051488Y022146D01*
X051488Y022244D02*
X051588Y022244D01*
X051588Y022343D02*
X051488Y022343D01*
X051488Y022441D02*
X051588Y022441D01*
X051588Y022047D02*
X051488Y022047D01*
X051488Y021949D02*
X051588Y021949D01*
X051588Y021850D02*
X051488Y021850D01*
X051166Y021850D02*
X051040Y021850D01*
X051058Y021949D02*
X051152Y021949D01*
X051152Y022047D02*
X051058Y022047D01*
X051058Y022244D02*
X051152Y022244D01*
X051152Y022343D02*
X051058Y022343D01*
X051049Y022441D02*
X051162Y022441D01*
X050375Y022441D02*
X047826Y022441D01*
X047826Y022343D02*
X050365Y022343D01*
X050365Y021949D02*
X047826Y021949D01*
X047826Y021850D02*
X050384Y021850D01*
X050390Y021456D02*
X047821Y021456D01*
X047826Y021358D02*
X050365Y021358D01*
X051805Y020767D02*
X051900Y020767D01*
X051899Y020471D02*
X051900Y020471D01*
X051900Y019782D02*
X051846Y019782D01*
X051887Y019486D02*
X051900Y019486D01*
X051588Y019092D02*
X051488Y019092D01*
X051488Y018994D02*
X051588Y018994D01*
X051588Y018895D02*
X051488Y018895D01*
X051488Y018797D02*
X051588Y018797D01*
X051869Y018797D02*
X051900Y018797D01*
X051900Y018501D02*
X051872Y018501D01*
X051588Y018501D02*
X051488Y018501D01*
X051488Y018403D02*
X051588Y018403D01*
X051588Y018304D02*
X051488Y018304D01*
X051488Y018206D02*
X051588Y018206D01*
X051900Y022737D02*
X047438Y022737D01*
X047536Y022835D02*
X051900Y022835D01*
X049538Y025150D02*
X049538Y026677D01*
X048468Y025495D02*
X047403Y025495D01*
X047499Y025396D02*
X048424Y025396D01*
X048424Y025298D02*
X047540Y025298D01*
X047565Y025199D02*
X048348Y025199D01*
X048249Y025101D02*
X047565Y025101D01*
X047540Y025002D02*
X048151Y025002D01*
X048052Y024904D02*
X047499Y024904D01*
X048125Y024750D02*
X048525Y025150D01*
X048712Y025150D01*
X048468Y024805D02*
X048406Y024805D01*
X042125Y025150D02*
X042125Y025250D01*
X041625Y025750D01*
X037138Y025750D01*
X037051Y025889D02*
X026350Y025889D01*
X026350Y025790D02*
X036952Y025790D01*
X036854Y025692D02*
X026350Y025692D01*
X026350Y025593D02*
X036755Y025593D01*
X035412Y025495D02*
X026350Y025495D01*
X026350Y025396D02*
X035384Y025396D01*
X035384Y025298D02*
X026350Y025298D01*
X026350Y025199D02*
X035384Y025199D01*
X035384Y025101D02*
X026350Y025101D01*
X026350Y025002D02*
X035384Y025002D01*
X035384Y024904D02*
X026350Y024904D01*
X034125Y021150D02*
X035125Y022150D01*
X037125Y022150D01*
X037738Y023722D02*
X036380Y023722D01*
X036251Y023919D02*
X036183Y023919D01*
X036251Y024017D02*
X036085Y024017D01*
X036797Y023820D02*
X037685Y023820D01*
X037685Y023919D02*
X036826Y023919D01*
X036826Y024017D02*
X037685Y024017D01*
X037685Y024116D02*
X036826Y024116D01*
X036826Y024214D02*
X037685Y024214D01*
X037685Y024313D02*
X036826Y024313D01*
X036826Y024411D02*
X037685Y024411D01*
X037685Y024510D02*
X036767Y024510D01*
X038086Y024707D02*
X038164Y024707D01*
X038164Y024805D02*
X038086Y024805D01*
X038086Y024904D02*
X038164Y024904D01*
X038164Y025002D02*
X038086Y025002D01*
X038086Y025101D02*
X038164Y025101D01*
X039712Y019150D02*
X039712Y019137D01*
X030668Y014193D02*
X029712Y015150D01*
X029424Y014955D02*
X026350Y014955D01*
X026350Y014857D02*
X029424Y014857D01*
D20*
X031025Y014850D03*
X031825Y015950D03*
X031025Y016750D03*
X031725Y017950D03*
X031025Y018750D03*
X029125Y018650D03*
X031725Y020050D03*
X034125Y020150D03*
X037125Y022150D03*
X040125Y021850D03*
X041025Y021750D03*
X041125Y023150D03*
X044125Y023150D03*
X045125Y023150D03*
X044125Y022150D03*
X044125Y021150D03*
X044125Y020650D03*
X044125Y019150D03*
X042725Y019450D03*
X044225Y018150D03*
X042725Y017450D03*
X042725Y015450D03*
X045125Y014150D03*
X046125Y014150D03*
X043125Y013550D03*
X046625Y012050D03*
X047825Y011650D03*
X048925Y012350D03*
X047825Y012550D03*
X048125Y011150D03*
X046825Y011150D03*
X045625Y009150D03*
X049525Y009250D03*
X044425Y005950D03*
X043925Y005950D03*
X043125Y005550D03*
X037125Y009150D03*
X038125Y010450D03*
X038525Y010850D03*
X039125Y010450D03*
X039125Y009650D03*
X040125Y009650D03*
X041125Y009650D03*
X037825Y011050D03*
X037225Y012550D03*
X036625Y012550D03*
X039125Y013450D03*
X039725Y013450D03*
X033625Y015850D03*
X033125Y014150D03*
X029125Y020750D03*
X046625Y023250D03*
X048725Y023250D03*
D21*
X039712Y021150D02*
X039125Y021150D01*
X038125Y022150D01*
X037712Y022150D01*
X035712Y024150D01*
X032712Y021150D01*
X030125Y021150D01*
X029775Y020800D01*
X029175Y020800D01*
X029125Y020750D01*
X029712Y020737D02*
X029712Y020150D01*
X029712Y020737D02*
X029775Y020800D01*
X029712Y019150D02*
X028625Y019150D01*
X028125Y018650D01*
X028125Y017650D01*
X028625Y017150D01*
X028125Y016650D01*
X028125Y015750D01*
X028725Y015150D01*
X029712Y015150D01*
X029712Y017150D02*
X028625Y017150D01*
X029712Y018150D02*
X029212Y018650D01*
X029125Y018650D01*
X039112Y014550D02*
X039712Y015150D01*
X039112Y014550D02*
X039125Y013450D01*
X038125Y010450D02*
X037125Y009450D01*
X037125Y009150D01*
D22*
X037425Y008150D02*
X038125Y008150D01*
X037425Y008150D02*
X037025Y007750D01*
X037025Y006950D01*
X037525Y006450D01*
X042125Y006450D01*
X042675Y005900D01*
X042675Y005150D01*
X042775Y005050D01*
X042775Y003591D01*
X043168Y003591D02*
X043168Y004656D01*
X042775Y005050D01*
M02*
