G75*
%MOIN*%
%OFA0B0*%
%FSLAX24Y24*%
%IPPOS*%
%LPD*%
%AMOC8*
5,1,8,0,0,1.08239X$1,22.5*
%
%ADD10R,0.0395X0.0434*%
%ADD11R,0.0434X0.0592*%
%ADD12R,0.0740X0.0740*%
%ADD13C,0.0740*%
%ADD14R,0.0356X0.1734*%
%ADD15R,0.0356X0.1340*%
%ADD16R,0.0651X0.0631*%
%ADD17R,0.0552X0.0552*%
%ADD18R,0.0608X0.0789*%
%ADD19C,0.0456*%
D10*
X031751Y014756D03*
X032499Y014756D03*
X032125Y015544D03*
X031751Y016756D03*
X032499Y016756D03*
X032125Y017544D03*
X031751Y018756D03*
X032499Y018756D03*
X032125Y019544D03*
D11*
X029712Y015150D03*
X030538Y015150D03*
X030538Y016150D03*
X029712Y016150D03*
X029712Y017150D03*
X030538Y017150D03*
X030538Y018150D03*
X029712Y018150D03*
X029712Y019150D03*
X030538Y019150D03*
X030538Y020150D03*
X029712Y020150D03*
X035712Y024150D03*
X036538Y024150D03*
X036538Y025150D03*
X035712Y025150D03*
X039712Y021150D03*
X040538Y021150D03*
X040538Y020150D03*
X039712Y020150D03*
X039712Y019150D03*
X040538Y019150D03*
X040538Y018150D03*
X039712Y018150D03*
X039712Y017150D03*
X040538Y017150D03*
X040538Y016150D03*
X039712Y016150D03*
X039712Y015150D03*
X040538Y015150D03*
X040538Y014150D03*
X039712Y014150D03*
X046712Y015150D03*
X047538Y015150D03*
X047538Y016150D03*
X046712Y016150D03*
X046712Y017150D03*
X047538Y017150D03*
X047538Y018150D03*
X046712Y018150D03*
X046712Y019150D03*
X047538Y019150D03*
X047538Y020150D03*
X046712Y020150D03*
X046712Y021150D03*
X047538Y021150D03*
X047538Y022150D03*
X046712Y022150D03*
X048712Y024150D03*
X049538Y024150D03*
X049538Y025150D03*
X048712Y025150D03*
D12*
X038125Y025150D03*
X038125Y024150D03*
X036125Y018150D03*
X035125Y018150D03*
X038125Y008150D03*
X038125Y007150D03*
D13*
X039125Y007150D03*
X040125Y007150D03*
X041125Y007150D03*
X042125Y007150D03*
X042125Y008150D03*
X041125Y008150D03*
X040125Y008150D03*
X039125Y008150D03*
X043125Y008150D03*
X044125Y008150D03*
X045125Y008150D03*
X046125Y008150D03*
X046125Y007150D03*
X045125Y007150D03*
X044125Y007150D03*
X043125Y007150D03*
X047125Y007150D03*
X047125Y008150D03*
X035125Y010150D03*
X034125Y010150D03*
X035125Y016150D03*
X036125Y016150D03*
X036125Y017150D03*
X035125Y017150D03*
X039125Y024150D03*
X040125Y024150D03*
X041125Y024150D03*
X042125Y024150D03*
X042125Y025150D03*
X041125Y025150D03*
X040125Y025150D03*
X039125Y025150D03*
X043125Y025150D03*
X044125Y025150D03*
X045125Y025150D03*
X046125Y025150D03*
X046125Y024150D03*
X045125Y024150D03*
X044125Y024150D03*
X043125Y024150D03*
X047125Y024150D03*
X047125Y025150D03*
D14*
X047893Y003591D03*
X048286Y003591D03*
X048680Y003591D03*
X049074Y003591D03*
X045924Y003591D03*
X045531Y003591D03*
X045137Y003591D03*
X044743Y003591D03*
X044349Y003591D03*
X043956Y003591D03*
X043562Y003591D03*
X043168Y003591D03*
X042775Y003591D03*
D15*
X049468Y003788D03*
D16*
X050512Y026650D03*
X051338Y026650D03*
X051338Y027650D03*
X050512Y027650D03*
D17*
X050712Y022150D03*
X051538Y022150D03*
X051538Y021150D03*
X050712Y021150D03*
X050712Y020150D03*
X051538Y020150D03*
X051538Y019150D03*
X050712Y019150D03*
X050712Y018150D03*
X051538Y018150D03*
X051538Y017150D03*
X050712Y017150D03*
X050712Y016150D03*
X051538Y016150D03*
X051538Y015150D03*
X050712Y015150D03*
D18*
X042688Y014150D03*
X041562Y014150D03*
X041562Y016150D03*
X042688Y016150D03*
X042688Y018150D03*
X041562Y018150D03*
X041562Y020150D03*
X042688Y020150D03*
D19*
X042725Y019450D03*
X044125Y019150D03*
X044225Y018150D03*
X042725Y017450D03*
X042725Y015450D03*
X045125Y014150D03*
X046125Y014150D03*
X043125Y013550D03*
X046625Y012050D03*
X047825Y011650D03*
X048925Y012350D03*
X047825Y012550D03*
X048125Y011150D03*
X046825Y011150D03*
X045625Y009150D03*
X049525Y009250D03*
X044425Y005950D03*
X043925Y005950D03*
X043125Y005550D03*
X037125Y009150D03*
X038125Y010450D03*
X038525Y010850D03*
X039125Y010450D03*
X039125Y009650D03*
X040125Y009650D03*
X041125Y009650D03*
X037825Y011050D03*
X037225Y012550D03*
X036625Y012550D03*
X039125Y013450D03*
X039725Y013450D03*
X033625Y015850D03*
X031825Y015950D03*
X031025Y016750D03*
X031725Y017950D03*
X031025Y018750D03*
X029125Y018650D03*
X031725Y020050D03*
X034125Y020150D03*
X037125Y022150D03*
X040125Y021850D03*
X041025Y021750D03*
X041125Y023150D03*
X044125Y023150D03*
X045125Y023150D03*
X044125Y022150D03*
X044125Y021150D03*
X044125Y020650D03*
X046625Y023250D03*
X048725Y023250D03*
X033125Y014150D03*
X031025Y014850D03*
X029125Y020750D03*
M02*
