G75*
%MOIN*%
%OFA0B0*%
%FSLAX24Y24*%
%IPPOS*%
%LPD*%
%AMOC8*
5,1,8,0,0,1.08239X$1,22.5*
%
%ADD10C,0.0030*%
%ADD11R,0.0150X0.0050*%
%ADD12R,0.0100X0.0050*%
%ADD13R,0.0250X0.0050*%
%ADD14R,0.0200X0.0050*%
%ADD15R,0.0550X0.0050*%
%ADD16R,0.0650X0.0050*%
%ADD17R,0.0800X0.0050*%
%ADD18R,0.0850X0.0050*%
%ADD19R,0.1000X0.0050*%
%ADD20R,0.0450X0.0050*%
%ADD21R,0.0400X0.0050*%
%ADD22R,0.0350X0.0050*%
%ADD23R,0.0300X0.0050*%
%ADD24R,0.1100X0.0050*%
%ADD25R,0.1050X0.0050*%
%ADD26R,0.0900X0.0050*%
%ADD27R,0.0700X0.0050*%
%ADD28R,0.0600X0.0050*%
%ADD29R,0.2000X0.2500*%
D10*
X004723Y006655D02*
X004723Y006703D01*
X004529Y006897D01*
X004529Y006945D01*
X004723Y006945D01*
X004726Y007135D02*
X004871Y007135D01*
X004919Y007183D01*
X004919Y007280D01*
X004871Y007328D01*
X004726Y007328D01*
X004726Y007425D02*
X004726Y007135D01*
X004576Y007183D02*
X004528Y007135D01*
X004576Y007183D02*
X004576Y007377D01*
X004528Y007328D02*
X004625Y007328D01*
X004723Y007615D02*
X004723Y007663D01*
X004529Y007857D01*
X004529Y007905D01*
X004723Y007905D01*
X004824Y007905D02*
X004824Y007712D01*
X004921Y007615D01*
X005017Y007712D01*
X005017Y007905D01*
X005460Y007905D02*
X005460Y007615D01*
X005412Y007615D02*
X005509Y007615D01*
X005610Y007663D02*
X005610Y007760D01*
X005658Y007808D01*
X005755Y007808D01*
X005803Y007760D01*
X005803Y007663D01*
X005755Y007615D01*
X005658Y007615D01*
X005610Y007663D01*
X005509Y007905D02*
X005460Y007905D01*
X005904Y007808D02*
X005952Y007808D01*
X006049Y007712D01*
X006049Y007808D02*
X006049Y007615D01*
X006148Y007615D02*
X006197Y007663D01*
X006197Y007857D01*
X006245Y007808D02*
X006148Y007808D01*
X006346Y007760D02*
X006346Y007615D01*
X006346Y007760D02*
X006395Y007808D01*
X006540Y007808D01*
X006540Y007615D01*
X006641Y007663D02*
X006641Y007760D01*
X006689Y007808D01*
X006786Y007808D01*
X006834Y007760D01*
X006834Y007663D01*
X006786Y007615D01*
X006689Y007615D01*
X006641Y007663D01*
X006936Y007663D02*
X006984Y007615D01*
X007081Y007615D01*
X007129Y007663D01*
X007129Y007857D01*
X007081Y007905D01*
X006984Y007905D01*
X006936Y007857D01*
X006884Y007328D02*
X006788Y007328D01*
X006739Y007280D01*
X006739Y007232D01*
X006933Y007232D01*
X006933Y007280D02*
X006884Y007328D01*
X006933Y007280D02*
X006933Y007183D01*
X006884Y007135D01*
X006788Y007135D01*
X006638Y007135D02*
X006638Y007328D01*
X006493Y007328D01*
X006445Y007280D01*
X006445Y007135D01*
X006639Y006945D02*
X006543Y006848D01*
X006543Y006655D01*
X006442Y006655D02*
X006296Y006655D01*
X006248Y006703D01*
X006248Y006800D01*
X006296Y006848D01*
X006442Y006848D01*
X006442Y006558D01*
X006543Y006800D02*
X006736Y006800D01*
X006736Y006848D02*
X006639Y006945D01*
X006736Y006848D02*
X006736Y006655D01*
X006147Y006655D02*
X006147Y006848D01*
X006147Y006752D02*
X006050Y006848D01*
X006002Y006848D01*
X006049Y007135D02*
X005904Y007135D01*
X005855Y007183D01*
X005855Y007232D01*
X005904Y007280D01*
X006049Y007280D01*
X006049Y007135D02*
X006049Y007425D01*
X005904Y007425D01*
X005855Y007377D01*
X005855Y007328D01*
X005904Y007280D01*
X005754Y007232D02*
X005657Y007328D01*
X005609Y007328D01*
X005754Y007328D02*
X005754Y007135D01*
X005509Y007183D02*
X005460Y007232D01*
X005315Y007232D01*
X005315Y007280D02*
X005315Y007135D01*
X005460Y007135D01*
X005509Y007183D01*
X005460Y007328D02*
X005363Y007328D01*
X005315Y007280D01*
X005214Y007328D02*
X005069Y007328D01*
X005020Y007280D01*
X005020Y007135D01*
X005214Y007135D02*
X005214Y007328D01*
X005167Y006945D02*
X005119Y006897D01*
X005312Y006703D01*
X005264Y006655D01*
X005167Y006655D01*
X005119Y006703D01*
X005119Y006897D01*
X005167Y006945D02*
X005264Y006945D01*
X005312Y006897D01*
X005312Y006703D01*
X005413Y006655D02*
X005607Y006655D01*
X005413Y006848D01*
X005413Y006897D01*
X005462Y006945D01*
X005558Y006945D01*
X005607Y006897D01*
X005017Y006848D02*
X004921Y006945D01*
X004921Y006655D01*
X005017Y006655D02*
X004824Y006655D01*
X007034Y007328D02*
X007131Y007135D01*
X007227Y007328D01*
X007328Y007280D02*
X007328Y007232D01*
X007522Y007232D01*
X007522Y007280D02*
X007474Y007328D01*
X007377Y007328D01*
X007328Y007280D01*
X007377Y007135D02*
X007474Y007135D01*
X007522Y007183D01*
X007522Y007280D01*
X007622Y007328D02*
X007718Y007328D01*
X007670Y007377D02*
X007670Y007183D01*
X007622Y007135D01*
X007820Y007183D02*
X007868Y007135D01*
X007965Y007135D01*
X008013Y007183D01*
X007965Y007280D02*
X007868Y007280D01*
X007820Y007232D01*
X007820Y007183D01*
X007965Y007280D02*
X008013Y007328D01*
X008013Y007377D01*
X007965Y007425D01*
X007868Y007425D01*
X007820Y007377D01*
X007819Y007615D02*
X007770Y007663D01*
X007770Y007760D01*
X007819Y007808D01*
X007916Y007808D01*
X007964Y007760D01*
X007964Y007663D01*
X007916Y007615D01*
X007819Y007615D01*
X007669Y007615D02*
X007669Y007808D01*
X007669Y007712D02*
X007573Y007808D01*
X007524Y007808D01*
X008064Y007808D02*
X008160Y007808D01*
X008112Y007857D02*
X008112Y007663D01*
X008064Y007615D01*
X008262Y007663D02*
X008262Y007760D01*
X008310Y007808D01*
X008407Y007808D01*
X008455Y007760D01*
X008455Y007663D01*
X008407Y007615D01*
X008310Y007615D01*
X008262Y007663D01*
X008556Y007615D02*
X008556Y007905D01*
X008653Y007808D01*
X008750Y007905D01*
X008750Y007615D01*
X006231Y008995D02*
X006231Y009285D01*
X006135Y009285D02*
X006328Y009285D01*
X006033Y009285D02*
X006033Y009092D01*
X005937Y008995D01*
X005840Y009092D01*
X005840Y009285D01*
X005739Y009188D02*
X005642Y009285D01*
X005642Y008995D01*
X005739Y008995D02*
X005545Y008995D01*
X005444Y008995D02*
X005251Y008995D01*
X005347Y008995D02*
X005347Y009285D01*
X005444Y009188D01*
X005131Y010995D02*
X005131Y011285D01*
X005035Y011285D02*
X005228Y011285D01*
X004933Y011285D02*
X004933Y011092D01*
X004837Y010995D01*
X004740Y011092D01*
X004740Y011285D01*
X004639Y011285D02*
X004445Y011285D01*
X004445Y011237D01*
X004639Y011043D01*
X004639Y010995D01*
X005351Y012995D02*
X005544Y012995D01*
X005351Y013188D01*
X005351Y013237D01*
X005399Y013285D01*
X005496Y013285D01*
X005544Y013237D01*
X005742Y013285D02*
X005742Y012995D01*
X005839Y012995D02*
X005645Y012995D01*
X005839Y013188D02*
X005742Y013285D01*
X005940Y013285D02*
X005940Y013092D01*
X006037Y012995D01*
X006133Y013092D01*
X006133Y013285D01*
X006235Y013285D02*
X006428Y013285D01*
X006331Y013285D02*
X006331Y012995D01*
X005131Y014995D02*
X005131Y015285D01*
X005035Y015285D02*
X005228Y015285D01*
X004933Y015285D02*
X004933Y015092D01*
X004837Y014995D01*
X004740Y015092D01*
X004740Y015285D01*
X004639Y015237D02*
X004639Y015188D01*
X004590Y015140D01*
X004494Y015140D01*
X004445Y015092D01*
X004445Y015043D01*
X004494Y014995D01*
X004590Y014995D01*
X004639Y015043D01*
X004639Y015092D01*
X004590Y015140D01*
X004494Y015140D02*
X004445Y015188D01*
X004445Y015237D01*
X004494Y015285D01*
X004590Y015285D01*
X004639Y015237D01*
X005594Y016995D02*
X005545Y017043D01*
X005545Y017237D01*
X005594Y017285D01*
X005690Y017285D01*
X005739Y017237D01*
X005739Y017188D01*
X005690Y017140D01*
X005545Y017140D01*
X005594Y016995D02*
X005690Y016995D01*
X005739Y017043D01*
X005840Y017092D02*
X005937Y016995D01*
X006033Y017092D01*
X006033Y017285D01*
X006135Y017285D02*
X006328Y017285D01*
X006231Y017285D02*
X006231Y016995D01*
X005840Y017092D02*
X005840Y017285D01*
X005131Y018995D02*
X005131Y019285D01*
X005035Y019285D02*
X005228Y019285D01*
X004933Y019285D02*
X004933Y019092D01*
X004837Y018995D01*
X004740Y019092D01*
X004740Y019285D01*
X004639Y019237D02*
X004590Y019285D01*
X004494Y019285D01*
X004445Y019237D01*
X004445Y019188D01*
X004494Y019140D01*
X004445Y019092D01*
X004445Y019043D01*
X004494Y018995D01*
X004590Y018995D01*
X004639Y019043D01*
X004542Y019140D02*
X004494Y019140D01*
X005299Y020995D02*
X005396Y020995D01*
X005444Y021043D01*
X005251Y021237D01*
X005251Y021043D01*
X005299Y020995D01*
X005444Y021043D02*
X005444Y021237D01*
X005396Y021285D01*
X005299Y021285D01*
X005251Y021237D01*
X005545Y020995D02*
X005739Y020995D01*
X005642Y020995D02*
X005642Y021285D01*
X005739Y021188D01*
X005840Y021092D02*
X005840Y021285D01*
X005840Y021092D02*
X005937Y020995D01*
X006033Y021092D01*
X006033Y021285D01*
X006135Y021285D02*
X006328Y021285D01*
X006231Y021285D02*
X006231Y020995D01*
X005131Y022995D02*
X005131Y023285D01*
X005035Y023285D02*
X005228Y023285D01*
X004933Y023285D02*
X004933Y023092D01*
X004837Y022995D01*
X004740Y023092D01*
X004740Y023285D01*
X004639Y023140D02*
X004445Y023140D01*
X004494Y022995D02*
X004494Y023285D01*
X004639Y023140D01*
X009279Y023140D02*
X009473Y023140D01*
X009328Y023285D01*
X009328Y022995D01*
X009574Y022995D02*
X009671Y023092D01*
X009767Y023043D02*
X009719Y022995D01*
X009622Y022995D01*
X009574Y023043D01*
X009574Y023237D01*
X009622Y023285D01*
X009719Y023285D01*
X009767Y023237D01*
X009767Y023043D01*
X010945Y022995D02*
X011139Y022995D01*
X010945Y023188D01*
X010945Y023237D01*
X010994Y023285D01*
X011090Y023285D01*
X011139Y023237D01*
X011240Y023285D02*
X011240Y023092D01*
X011337Y022995D01*
X011433Y023092D01*
X011433Y023285D01*
X011535Y023285D02*
X011728Y023285D01*
X011631Y023285D02*
X011631Y022995D01*
X011631Y019285D02*
X011631Y018995D01*
X011433Y019092D02*
X011337Y018995D01*
X011240Y019092D01*
X011240Y019285D01*
X011139Y019188D02*
X011042Y019285D01*
X011042Y018995D01*
X011139Y018995D02*
X010945Y018995D01*
X011433Y019092D02*
X011433Y019285D01*
X011535Y019285D02*
X011728Y019285D01*
X009767Y019237D02*
X009767Y019043D01*
X009719Y018995D01*
X009622Y018995D01*
X009574Y019043D01*
X009574Y019237D01*
X009622Y019285D01*
X009719Y019285D01*
X009767Y019237D01*
X009671Y019092D02*
X009574Y018995D01*
X009473Y019043D02*
X009424Y018995D01*
X009328Y018995D01*
X009279Y019043D01*
X009279Y019092D01*
X009328Y019140D01*
X009376Y019140D01*
X009328Y019140D02*
X009279Y019188D01*
X009279Y019237D01*
X009328Y019285D01*
X009424Y019285D01*
X009473Y019237D01*
X009374Y015285D02*
X009278Y015285D01*
X009229Y015237D01*
X009229Y015188D01*
X009278Y015140D01*
X009374Y015140D01*
X009423Y015188D01*
X009423Y015237D01*
X009374Y015285D01*
X009374Y015140D02*
X009423Y015092D01*
X009423Y015043D01*
X009374Y014995D01*
X009278Y014995D01*
X009229Y015043D01*
X009229Y015092D01*
X009278Y015140D01*
X009524Y015237D02*
X009524Y015043D01*
X009572Y014995D01*
X009669Y014995D01*
X009717Y015043D01*
X009717Y015237D01*
X009669Y015285D01*
X009572Y015285D01*
X009524Y015237D01*
X009621Y015092D02*
X009524Y014995D01*
X010945Y015043D02*
X010945Y015092D01*
X010994Y015140D01*
X011139Y015140D01*
X011139Y015043D01*
X011090Y014995D01*
X010994Y014995D01*
X010945Y015043D01*
X011042Y015237D02*
X011139Y015140D01*
X011240Y015092D02*
X011240Y015285D01*
X011240Y015092D02*
X011337Y014995D01*
X011433Y015092D01*
X011433Y015285D01*
X011535Y015285D02*
X011728Y015285D01*
X011631Y015285D02*
X011631Y014995D01*
X011042Y015237D02*
X010945Y015285D01*
X010945Y011285D02*
X011139Y011285D01*
X011139Y011140D01*
X011042Y011188D01*
X010994Y011188D01*
X010945Y011140D01*
X010945Y011043D01*
X010994Y010995D01*
X011090Y010995D01*
X011139Y011043D01*
X011240Y011092D02*
X011240Y011285D01*
X011240Y011092D02*
X011337Y010995D01*
X011433Y011092D01*
X011433Y011285D01*
X011535Y011285D02*
X011728Y011285D01*
X011631Y011285D02*
X011631Y010995D01*
X009767Y011043D02*
X009719Y010995D01*
X009622Y010995D01*
X009574Y011043D01*
X009574Y011237D01*
X009622Y011285D01*
X009719Y011285D01*
X009767Y011237D01*
X009767Y011043D01*
X009671Y011092D02*
X009574Y010995D01*
X009473Y010995D02*
X009473Y011043D01*
X009279Y011237D01*
X009279Y011285D01*
X009473Y011285D01*
X015729Y011285D02*
X015923Y011285D01*
X015923Y011140D01*
X015826Y011188D01*
X015778Y011188D01*
X015729Y011140D01*
X015729Y011043D01*
X015778Y010995D01*
X015874Y010995D01*
X015923Y011043D01*
X016024Y011043D02*
X016024Y011237D01*
X016072Y011285D01*
X016169Y011285D01*
X016217Y011237D01*
X016217Y011043D01*
X016169Y010995D01*
X016072Y010995D01*
X016024Y011043D01*
X016024Y010995D02*
X016121Y011092D01*
X016887Y012805D02*
X017081Y012805D01*
X016887Y012998D01*
X016887Y013047D01*
X016936Y013095D01*
X017032Y013095D01*
X017081Y013047D01*
X017279Y013095D02*
X017279Y012805D01*
X017375Y012805D02*
X017182Y012805D01*
X017375Y012998D02*
X017279Y013095D01*
X017477Y013047D02*
X017525Y013095D01*
X017622Y013095D01*
X017670Y013047D01*
X017670Y012853D01*
X017622Y012805D01*
X017525Y012805D01*
X017477Y012853D01*
X016219Y014995D02*
X016267Y015043D01*
X016267Y015237D01*
X016219Y015285D01*
X016122Y015285D01*
X016074Y015237D01*
X016074Y015043D01*
X016122Y014995D01*
X016219Y014995D01*
X016171Y015092D02*
X016074Y014995D01*
X015973Y015043D02*
X015924Y014995D01*
X015828Y014995D01*
X015779Y015043D01*
X015779Y015092D01*
X015828Y015140D01*
X015973Y015140D01*
X015973Y015043D01*
X015973Y015140D02*
X015876Y015237D01*
X015779Y015285D01*
X015779Y018995D02*
X015973Y018995D01*
X015876Y018995D02*
X015876Y019285D01*
X015973Y019188D01*
X016074Y019237D02*
X016074Y019043D01*
X016122Y018995D01*
X016219Y018995D01*
X016267Y019043D01*
X016267Y019237D01*
X016219Y019285D01*
X016122Y019285D01*
X016074Y019237D01*
X016171Y019092D02*
X016074Y018995D01*
X017083Y022805D02*
X017035Y022853D01*
X017035Y022902D01*
X017083Y022950D01*
X017228Y022950D01*
X017228Y022853D01*
X017180Y022805D01*
X017083Y022805D01*
X017228Y022950D02*
X017131Y023047D01*
X017035Y023095D01*
X017329Y023047D02*
X017378Y023095D01*
X017474Y023095D01*
X017523Y023047D01*
X017523Y022853D01*
X017474Y022805D01*
X017378Y022805D01*
X017329Y022853D01*
X016267Y023043D02*
X016219Y022995D01*
X016122Y022995D01*
X016074Y023043D01*
X016074Y023237D01*
X016122Y023285D01*
X016219Y023285D01*
X016267Y023237D01*
X016267Y023043D01*
X016171Y023092D02*
X016074Y022995D01*
X015973Y022995D02*
X015779Y023188D01*
X015779Y023237D01*
X015828Y023285D01*
X015924Y023285D01*
X015973Y023237D01*
X015973Y022995D02*
X015779Y022995D01*
X021035Y023050D02*
X021228Y023050D01*
X021083Y023195D01*
X021083Y022905D01*
X021329Y022905D02*
X021426Y023002D01*
X021378Y023002D02*
X021523Y023002D01*
X021523Y022905D02*
X021523Y023195D01*
X021378Y023195D01*
X021329Y023147D01*
X021329Y023050D01*
X021378Y023002D01*
X021378Y013095D02*
X021329Y013047D01*
X021329Y012950D01*
X021378Y012902D01*
X021523Y012902D01*
X021426Y012902D02*
X021329Y012805D01*
X021228Y012805D02*
X021228Y012853D01*
X021035Y013047D01*
X021035Y013095D01*
X021228Y013095D01*
X021378Y013095D02*
X021523Y013095D01*
X021523Y012805D01*
D11*
X005443Y004740D03*
D12*
X005668Y004740D03*
X005668Y005790D03*
X005418Y005790D03*
D13*
X005093Y005790D03*
X005993Y005740D03*
X005393Y004890D03*
X005393Y004840D03*
X005393Y004790D03*
D14*
X005718Y004790D03*
X005718Y004840D03*
X005718Y004890D03*
X005968Y005790D03*
X005618Y006140D03*
D15*
X005543Y004940D03*
D16*
X005543Y004990D03*
D17*
X005518Y005040D03*
D18*
X005543Y005090D03*
X005543Y005990D03*
D19*
X005518Y005140D03*
D20*
X005193Y005240D03*
X005243Y005190D03*
X005143Y005340D03*
X005143Y005390D03*
X005143Y005440D03*
X005143Y005490D03*
X005143Y005540D03*
X005143Y005590D03*
X005143Y005640D03*
X005943Y005640D03*
X005943Y005590D03*
X005943Y005540D03*
X005943Y005490D03*
X005943Y005440D03*
X005943Y005390D03*
D21*
X005918Y005340D03*
X005918Y005290D03*
X005818Y005190D03*
X005168Y005290D03*
D22*
X005093Y005690D03*
X005843Y005240D03*
D23*
X005968Y005690D03*
X005068Y005740D03*
D24*
X005518Y005840D03*
D25*
X005543Y005890D03*
D26*
X005568Y005940D03*
D27*
X005518Y006040D03*
D28*
X005518Y006090D03*
D29*
X008243Y005390D03*
M02*
