G75*
%MOIN*%
%OFA0B0*%
%FSLAX24Y24*%
%IPPOS*%
%LPD*%
%AMOC8*
5,1,8,0,0,1.08239X$1,22.5*
%
%ADD10R,0.0354X0.0512*%
%ADD11R,0.3350X0.3098*%
%ADD12R,0.1500X0.0638*%
%ADD13R,0.0512X0.0354*%
%ADD14R,0.0650X0.0177*%
%ADD15R,0.1181X0.1701*%
D10*
X013830Y007140D03*
X014656Y007140D03*
X018830Y009140D03*
X019656Y009140D03*
X019656Y013140D03*
X018830Y013140D03*
X018830Y019140D03*
X019656Y019140D03*
X019656Y023140D03*
X018830Y023140D03*
D11*
X021537Y015940D03*
X021437Y005840D03*
D12*
X018437Y004840D03*
X018437Y006840D03*
X018537Y014940D03*
X018537Y016940D03*
D13*
X021243Y018727D03*
X021243Y019553D03*
X021243Y021827D03*
X021243Y022653D03*
X022243Y022653D03*
X022243Y021827D03*
X016743Y021627D03*
X016743Y022453D03*
X016743Y020453D03*
X016743Y019627D03*
X021243Y012653D03*
X021243Y011827D03*
X022243Y011827D03*
X022243Y012653D03*
X021243Y009553D03*
X021243Y008727D03*
X016743Y009727D03*
X016743Y010553D03*
X016743Y011727D03*
X016743Y012553D03*
D14*
X018042Y012547D03*
X018042Y012292D03*
X018042Y012036D03*
X018042Y011780D03*
X018042Y011524D03*
X018042Y011268D03*
X018042Y011012D03*
X018042Y010756D03*
X018042Y010500D03*
X018042Y010244D03*
X018042Y009988D03*
X018042Y009733D03*
X020444Y009733D03*
X020444Y009988D03*
X020444Y010244D03*
X020444Y010500D03*
X020444Y010756D03*
X020444Y011012D03*
X020444Y011268D03*
X020444Y011524D03*
X020444Y011780D03*
X020444Y012036D03*
X020444Y012292D03*
X020444Y012547D03*
X020444Y019733D03*
X020444Y019988D03*
X020444Y020244D03*
X020444Y020500D03*
X020444Y020756D03*
X020444Y021012D03*
X020444Y021268D03*
X020444Y021524D03*
X020444Y021780D03*
X020444Y022036D03*
X020444Y022292D03*
X020444Y022547D03*
X018042Y022547D03*
X018042Y022292D03*
X018042Y022036D03*
X018042Y021780D03*
X018042Y021524D03*
X018042Y021268D03*
X018042Y021012D03*
X018042Y020756D03*
X018042Y020500D03*
X018042Y020244D03*
X018042Y019988D03*
X018042Y019733D03*
D15*
X019243Y021140D03*
X019243Y011140D03*
M02*
