G75*
%MOIN*%
%OFA0B0*%
%FSLAX24Y24*%
%IPPOS*%
%LPD*%
%AMOC8*
5,1,8,0,0,1.08239X$1,22.5*
%
%ADD10R,0.0434X0.0592*%
%ADD11C,0.0640*%
%ADD12R,0.3430X0.3178*%
%ADD13R,0.1580X0.0718*%
%ADD14R,0.0592X0.0434*%
%ADD15R,0.0730X0.0257*%
%ADD16R,0.1261X0.1781*%
%ADD17C,0.1202*%
%ADD18C,0.0848*%
%ADD19C,0.0789*%
%ADD20R,0.0730X0.0730*%
%ADD21C,0.0730*%
%ADD22R,0.0740X0.0740*%
%ADD23C,0.0740*%
%ADD24C,0.0370*%
D10*
X013830Y007140D03*
X014656Y007140D03*
X018830Y009140D03*
X019656Y009140D03*
X019656Y013140D03*
X018830Y013140D03*
X018830Y019140D03*
X019656Y019140D03*
X019656Y023140D03*
X018830Y023140D03*
D11*
X015227Y007140D03*
X013259Y007140D03*
D12*
X021437Y005840D03*
X021537Y015940D03*
D13*
X018537Y014940D03*
X018537Y016940D03*
X018437Y006840D03*
X018437Y004840D03*
D14*
X021243Y008727D03*
X021243Y009553D03*
X021243Y011827D03*
X021243Y012653D03*
X022243Y012653D03*
X022243Y011827D03*
X016743Y011727D03*
X016743Y012553D03*
X016743Y010553D03*
X016743Y009727D03*
X021243Y018727D03*
X021243Y019553D03*
X021243Y021827D03*
X021243Y022653D03*
X022243Y022653D03*
X022243Y021827D03*
X016743Y021627D03*
X016743Y022453D03*
X016743Y020453D03*
X016743Y019627D03*
D15*
X018042Y019733D03*
X018042Y019988D03*
X018042Y020244D03*
X018042Y020500D03*
X018042Y020756D03*
X018042Y021012D03*
X018042Y021268D03*
X018042Y021524D03*
X018042Y021780D03*
X018042Y022036D03*
X018042Y022292D03*
X018042Y022547D03*
X020444Y022547D03*
X020444Y022292D03*
X020444Y022036D03*
X020444Y021780D03*
X020444Y021524D03*
X020444Y021268D03*
X020444Y021012D03*
X020444Y020756D03*
X020444Y020500D03*
X020444Y020244D03*
X020444Y019988D03*
X020444Y019733D03*
X020444Y012547D03*
X020444Y012292D03*
X020444Y012036D03*
X020444Y011780D03*
X020444Y011524D03*
X020444Y011268D03*
X020444Y011012D03*
X020444Y010756D03*
X020444Y010500D03*
X020444Y010244D03*
X020444Y009988D03*
X020444Y009733D03*
X018042Y009733D03*
X018042Y009988D03*
X018042Y010244D03*
X018042Y010500D03*
X018042Y010756D03*
X018042Y011012D03*
X018042Y011268D03*
X018042Y011524D03*
X018042Y011780D03*
X018042Y012036D03*
X018042Y012292D03*
X018042Y012547D03*
D16*
X019243Y011140D03*
X019243Y021140D03*
D17*
X010243Y019585D03*
X010243Y022695D03*
X010243Y015695D03*
X010243Y012585D03*
X010243Y008695D03*
X010243Y005585D03*
D18*
X004023Y004231D03*
X004023Y010049D03*
X004023Y011231D03*
X004023Y017049D03*
X004023Y018231D03*
X004023Y024049D03*
D19*
X004739Y003124D03*
X004739Y001156D03*
X011747Y001156D03*
X011747Y003124D03*
D20*
X023243Y012140D03*
X023243Y022140D03*
D21*
X023243Y021140D03*
X023243Y020140D03*
X023243Y019140D03*
X024243Y019140D03*
X024243Y020140D03*
X024243Y021140D03*
X024243Y022140D03*
X024243Y012140D03*
X024243Y011140D03*
X023243Y011140D03*
X023243Y010140D03*
X023243Y009140D03*
X024243Y009140D03*
X024243Y010140D03*
D22*
X013243Y003840D03*
X013243Y024940D03*
D23*
X014243Y024940D03*
X015243Y024940D03*
X015243Y003840D03*
X014243Y003840D03*
D24*
X017843Y005440D03*
X018243Y005440D03*
X018043Y005840D03*
X018443Y005840D03*
X018643Y005440D03*
X018843Y005840D03*
X019043Y005440D03*
X020043Y005540D03*
X020443Y005140D03*
X020043Y004740D03*
X020843Y004740D03*
X021243Y005140D03*
X020843Y005540D03*
X020443Y005940D03*
X020043Y006340D03*
X020443Y006740D03*
X020043Y007140D03*
X020843Y007140D03*
X021243Y006740D03*
X020843Y006340D03*
X021243Y005940D03*
X021643Y005540D03*
X022043Y005140D03*
X021643Y004740D03*
X022443Y004740D03*
X022443Y005540D03*
X022043Y005940D03*
X021643Y006340D03*
X022043Y006740D03*
X021643Y007140D03*
X022443Y007140D03*
X022443Y006340D03*
X018743Y007740D03*
X016943Y008940D03*
X015343Y009940D03*
X015243Y010740D03*
X014843Y010740D03*
X014443Y010740D03*
X014043Y010740D03*
X014243Y011140D03*
X014643Y011140D03*
X014443Y011540D03*
X014043Y011540D03*
X014843Y011540D03*
X015043Y011140D03*
X015243Y011540D03*
X017243Y011140D03*
X017243Y013640D03*
X015243Y014740D03*
X015043Y015140D03*
X014843Y014740D03*
X014643Y015140D03*
X014243Y015140D03*
X014043Y014740D03*
X014443Y014740D03*
X014443Y015540D03*
X014043Y015540D03*
X014843Y015540D03*
X015243Y015540D03*
X014043Y013940D03*
X013243Y012240D03*
X011443Y016240D03*
X013943Y017940D03*
X014043Y018740D03*
X014443Y018740D03*
X014843Y018740D03*
X015243Y018740D03*
X015043Y019140D03*
X014843Y019540D03*
X014643Y019140D03*
X014243Y019140D03*
X014043Y019540D03*
X014443Y019540D03*
X015243Y019540D03*
X017143Y018440D03*
X018743Y017740D03*
X020243Y017140D03*
X020643Y016740D03*
X021043Y016340D03*
X020643Y015940D03*
X021043Y015540D03*
X020643Y015140D03*
X021043Y014740D03*
X021443Y015140D03*
X021843Y015540D03*
X022243Y015940D03*
X021843Y016340D03*
X022243Y016740D03*
X021843Y017140D03*
X021443Y016740D03*
X021043Y017140D03*
X020243Y016340D03*
X020243Y015540D03*
X020243Y014740D03*
X019243Y015540D03*
X018843Y015540D03*
X018643Y015940D03*
X018443Y015540D03*
X018043Y015540D03*
X018243Y015940D03*
X019043Y015940D03*
X021443Y015940D03*
X022243Y015140D03*
X021843Y014740D03*
X022643Y014740D03*
X022643Y015540D03*
X022643Y016340D03*
X022643Y017140D03*
X020443Y012940D03*
X020043Y013140D03*
X021743Y011840D03*
X017243Y021040D03*
X015243Y022740D03*
X015043Y023140D03*
X014843Y022740D03*
X014643Y023140D03*
X014243Y023140D03*
X014043Y022740D03*
X014443Y022740D03*
X014443Y023540D03*
X014043Y023540D03*
X014843Y023540D03*
X015243Y023540D03*
X013943Y021940D03*
X011543Y020240D03*
X008643Y019540D03*
X008443Y019140D03*
X008243Y019540D03*
X008043Y019140D03*
X007643Y019140D03*
X007443Y019540D03*
X007843Y019540D03*
X007843Y018740D03*
X007443Y018740D03*
X008243Y018740D03*
X008643Y018740D03*
X006743Y020240D03*
X004643Y020140D03*
X004443Y020540D03*
X004243Y020140D03*
X003843Y020140D03*
X004043Y020540D03*
X003843Y020940D03*
X004243Y020940D03*
X004043Y021340D03*
X004443Y021340D03*
X004643Y020940D03*
X004643Y021740D03*
X004243Y021740D03*
X003843Y021740D03*
X006743Y024240D03*
X007443Y023540D03*
X007843Y023540D03*
X008243Y023540D03*
X008643Y023540D03*
X008443Y023140D03*
X008243Y022740D03*
X008043Y023140D03*
X007643Y023140D03*
X007443Y022740D03*
X007843Y022740D03*
X008643Y022740D03*
X011443Y023640D03*
X017643Y023140D03*
X020043Y023040D03*
X020443Y022940D03*
X021743Y021840D03*
X008643Y015540D03*
X008243Y015540D03*
X007843Y015540D03*
X007443Y015540D03*
X007643Y015140D03*
X008043Y015140D03*
X007843Y014740D03*
X007443Y014740D03*
X008243Y014740D03*
X008443Y015140D03*
X008643Y014740D03*
X006743Y016340D03*
X004643Y013940D03*
X004243Y013940D03*
X004043Y013540D03*
X004443Y013540D03*
X004843Y013540D03*
X004643Y013140D03*
X004443Y012740D03*
X004243Y013140D03*
X004043Y012740D03*
X004243Y012340D03*
X004643Y012340D03*
X004843Y012740D03*
X006643Y012340D03*
X007443Y011540D03*
X007843Y011540D03*
X007643Y011140D03*
X008043Y011140D03*
X008243Y011540D03*
X008443Y011140D03*
X008643Y011540D03*
X008643Y010740D03*
X008243Y010740D03*
X007843Y010740D03*
X007443Y010740D03*
M02*
