%
M48
M72
T01C0.0150
T02C0.0276
T03C0.0400
T04C0.0433
T05C0.0472
T06C0.0512
T07C0.0748
%
T01
X7443Y10740
X7843Y10740
X8243Y10740
X8643Y10740
X8443Y11140
X8243Y11540
X8043Y11140
X7643Y11140
X7443Y11540
X7843Y11540
X8643Y11540
X6643Y12340
X4843Y12740
X4643Y13140
X4443Y12740
X4243Y13140
X4043Y12740
X4243Y12340
X4643Y12340
X4443Y13540
X4043Y13540
X4243Y13940
X4643Y13940
X4843Y13540
X7443Y14740
X7843Y14740
X7643Y15140
X8043Y15140
X8243Y14740
X8443Y15140
X8643Y14740
X8643Y15540
X8243Y15540
X7843Y15540
X7443Y15540
X6743Y16340
X7443Y18740
X7843Y18740
X8243Y18740
X8643Y18740
X8443Y19140
X8243Y19540
X8043Y19140
X7643Y19140
X7443Y19540
X7843Y19540
X8643Y19540
X6743Y20240
X4643Y20140
X4443Y20540
X4243Y20140
X3843Y20140
X4043Y20540
X3843Y20940
X4243Y20940
X4043Y21340
X4443Y21340
X4643Y20940
X4643Y21740
X4243Y21740
X3843Y21740
X6743Y24240
X7443Y23540
X7843Y23540
X8243Y23540
X8643Y23540
X8443Y23140
X8243Y22740
X8043Y23140
X7643Y23140
X7443Y22740
X7843Y22740
X8643Y22740
X11443Y23640
X13943Y21940
X14043Y22740
X14443Y22740
X14243Y23140
X14643Y23140
X14843Y22740
X15043Y23140
X15243Y22740
X15243Y23540
X14843Y23540
X14443Y23540
X14043Y23540
X17243Y21040
X15243Y19540
X15043Y19140
X14843Y19540
X14643Y19140
X14243Y19140
X14043Y19540
X14443Y19540
X14443Y18740
X14043Y18740
X14843Y18740
X15243Y18740
X13943Y17940
X14043Y15540
X14443Y15540
X14843Y15540
X15243Y15540
X15043Y15140
X14843Y14740
X14643Y15140
X14243Y15140
X14043Y14740
X14443Y14740
X14043Y13940
X15243Y14740
X17243Y13640
X18043Y15540
X18443Y15540
X18243Y15940
X18643Y15940
X18843Y15540
X19243Y15540
X19043Y15940
X20243Y15540
X20643Y15140
X21043Y14740
X21443Y15140
X21043Y15540
X20643Y15940
X20243Y16340
X20643Y16740
X21043Y16340
X21443Y15940
X21843Y16340
X22243Y16740
X21843Y17140
X21443Y16740
X21043Y17140
X20243Y17140
X18743Y17740
X17143Y18440
X20243Y14740
X21843Y14740
X22243Y15140
X21843Y15540
X22243Y15940
X22643Y16340
X22643Y15540
X22643Y14740
X22643Y17140
X20443Y12940
X20043Y13140
X21743Y11840
X18743Y7740
X20043Y7140
X20443Y6740
X20043Y6340
X20443Y5940
X20043Y5540
X20443Y5140
X20043Y4740
X19043Y5440
X18843Y5840
X18643Y5440
X18443Y5840
X18043Y5840
X17843Y5440
X18243Y5440
X20843Y5540
X21243Y5140
X20843Y4740
X21643Y4740
X22043Y5140
X21643Y5540
X21243Y5940
X20843Y6340
X21243Y6740
X20843Y7140
X21643Y7140
X22043Y6740
X21643Y6340
X22043Y5940
X22443Y5540
X22443Y4740
X22443Y6340
X22443Y7140
X17243Y11140
X15243Y10740
X14843Y10740
X14443Y10740
X14043Y10740
X14243Y11140
X14643Y11140
X14443Y11540
X14043Y11540
X14843Y11540
X15043Y11140
X15243Y11540
X15343Y9940
X16943Y8940
X13243Y12240
X11443Y16240
X11543Y20240
X17643Y23140
X20043Y23040
X20443Y22940
X21743Y21840
T02
X15227Y7140
X13259Y7140
T03
X13243Y3840
X14243Y3840
X15243Y3840
X15243Y24940
X14243Y24940
X13243Y24940
T04
X23243Y22140
X23243Y21140
X23243Y20140
X23243Y19140
X24243Y19140
X24243Y20140
X24243Y21140
X24243Y22140
X24243Y12140
X23243Y12140
X23243Y11140
X23243Y10140
X23243Y9140
X24243Y9140
X24243Y10140
X24243Y11140
T05
X11747Y3124
X11747Y1156
X4739Y1156
X4739Y3124
T06
X4023Y4231
X4023Y10049
X4023Y11231
X4023Y17049
X4023Y18231
X4023Y24049
T07
X10243Y22695
X10243Y19585
X10243Y15695
X10243Y12585
X10243Y8695
X10243Y5585
M30
